<?xml version="1.0" encoding="UTF-8" standalone="no"?>
<svg
   xmlns:dc="http://purl.org/dc/elements/1.1/"
   xmlns:cc="http://creativecommons.org/ns#"
   xmlns:rdf="http://www.w3.org/1999/02/22-rdf-syntax-ns#"
   xmlns:svg="http://www.w3.org/2000/svg"
   xmlns="http://www.w3.org/2000/svg"
   width="540"
   height="500"
   viewBox="0 0 540 500.00001"
   id="svg2"
   version="1.1">
  <defs
     id="defs4" />
  <metadata
     id="metadata7">
    <rdf:RDF>
      <cc:Work
         rdf:about="">
        <dc:format>image/svg+xml</dc:format>
        <dc:type
           rdf:resource="http://purl.org/dc/dcmitype/StillImage" />
        <dc:title></dc:title>
      </cc:Work>
    </rdf:RDF>
  </metadata>
  <g
     id="layer1"
     transform="translate(20,-552.36216)">
    <path
       style="fill:#000000"
       d="m 72.37641,971.50423 c -16.43612,-2.7761 -32.69817,-15.1923 -40.5817,-30.9847 -4.9142,-9.8441 -5.56046,-13.6561 -5.56569,-32.829 l -0.004,-14.6099 223.79988,0 223.79987,0 -0.21154,16.7158 c -0.20686,16.3432 -0.24313,16.8189 -1.62584,21.3366 -5.67664,18.5472 -20.45007,33.334 -39.17186,39.2072 l -4.62078,1.4496 -176.63502,0.072 c -97.14927,0.04 -177.78177,-0.1213 -179.18334,-0.358 z M 21.26805,866.16733 c -6.94085,-1.6279 -15.3237997,-8.5354 -18.6668097,-15.3813 -4.85588,-9.9441 -2.89216003,-19.6563 5.71452,-28.263 4.1431097,-4.1431 8.5821797,-6.7866 13.1709397,-7.8434 3.31238,-0.7629 453.67483,-0.7629 456.9872,0 4.58877,1.0568 9.02787,3.7003 13.17097,7.8434 11.14017,11.1402 11.14017,24.6784 0,35.8186 -4.1431,4.1431 -8.5822,6.7866 -13.17097,7.8435 -3.06455,0.7058 -454.19546,0.6882 -457.20585,-0.018 z m 4.957,-106.3076 c 0,-28.8373 0.29456,-34.5824 2.19893,-42.8876 5.18458,-22.6107 22.09338,-43.7943 47.10388,-59.0124 23.60885,-14.3653 51.95927,-23.3363 85.11311,-26.9327 7.75158,-0.8408 15.84913,-0.9246 89.33934,-0.9246 73.49021,0 81.58775,0.084 89.33934,0.9246 22.81105,2.4744 44.10396,7.6982 61.96969,15.2029 42.86403,18.0057 68.1668,46.3716 71.89004,80.593 0.31936,2.9356 0.55617,17.0024 0.55617,33.0368 l 0,27.9243 -223.75524,0 -223.75526,0 0,-27.9243 z m 125.19947,-26.6552 c 8.28608,-5.0989 8.45075,-17.1065 0.30543,-22.2721 -6.26303,-3.9719 -14.39048,-2.0147 -18.35028,4.4189 -1.40716,2.2863 -1.59479,3.0606 -1.59479,6.5811 0,3.4123 0.21129,4.3493 1.45957,6.4728 2.73737,4.6567 6.96158,6.8849 12.38876,6.5349 2.48527,-0.1604 3.93962,-0.5962 5.79131,-1.7356 z m 105.2966,0 c 8.28608,-5.0989 8.45074,-17.1065 0.30543,-22.2721 -6.26304,-3.9719 -14.39049,-2.0147 -18.35028,4.4189 -1.40717,2.2863 -1.59479,3.0606 -1.59479,6.5811 0,3.4123 0.21128,4.3493 1.45957,6.4728 2.73736,4.6567 6.96157,6.8849 12.38876,6.5349 2.48526,-0.1604 3.93961,-0.5962 5.79131,-1.7356 z m 105.29659,0 c 8.28608,-5.0989 8.45074,-17.1065 0.30543,-22.2721 -6.26304,-3.9719 -14.39049,-2.0147 -18.35028,4.4189 -1.40717,2.2863 -1.59479,3.0606 -1.59479,6.5811 0,3.4123 0.21129,4.3493 1.45957,6.4728 2.73736,4.6567 6.96158,6.8849 12.38876,6.5349 2.48527,-0.1604 3.93962,-0.5962 5.79131,-1.7356 z m -157.94489,-52.6483 c 8.28608,-5.0989 8.45074,-17.1065 0.30543,-22.2721 -6.26304,-3.9719 -14.39049,-2.0147 -18.35028,4.4189 -1.40717,2.2863 -1.59479,3.0606 -1.59479,6.5811 0,3.4123 0.21129,4.3493 1.45957,6.4728 2.73736,4.6567 6.96158,6.8849 12.38876,6.5349 2.48527,-0.1603 3.93962,-0.5962 5.79131,-1.7356 z m 105.29659,0 c 8.28608,-5.0989 8.45074,-17.1065 0.30543,-22.2721 -6.26303,-3.9719 -14.39048,-2.0147 -18.35028,4.4189 -1.40717,2.2863 -1.59479,3.0606 -1.59479,6.5811 0,3.4123 0.21129,4.3493 1.45957,6.4728 2.73736,4.6567 6.96158,6.8849 12.38876,6.5349 2.48527,-0.1603 3.93962,-0.5962 5.79131,-1.7356 z"
       id="path4618" />
  </g>
</svg>
