<?xml version="1.0" encoding="UTF-8" standalone="no"?>
<svg
   xmlns:dc="http://purl.org/dc/elements/1.1/"
   xmlns:cc="http://creativecommons.org/ns#"
   xmlns:rdf="http://www.w3.org/1999/02/22-rdf-syntax-ns#"
   xmlns:svg="http://www.w3.org/2000/svg"
   xmlns="http://www.w3.org/2000/svg"
   width="540"
   height="500"
   viewBox="0 0 540.00001 500.00001"
   id="svg2"
   version="1.1">
  <defs
     id="defs4" />
  <metadata
     id="metadata7">
    <rdf:RDF>
      <cc:Work
         rdf:about="">
        <dc:format>image/svg+xml</dc:format>
        <dc:type
           rdf:resource="http://purl.org/dc/dcmitype/StillImage" />
        <dc:title></dc:title>
      </cc:Work>
    </rdf:RDF>
  </metadata>
  <g
     id="layer1"
     transform="translate(20,-552.36216)">
    <path
       style="fill:#000000"
       d="m 85.380359,552.3632 c -9.648092,0.23892 -55.527512,40.48193 -64.262366,56.80318 -3.077644,5.75047 -4.043356,12.96973 -2.144845,16.04164 7.358983,11.90704 24.269383,4.4688 50.592162,-22.25589 26.465312,-26.86931 32.50412,-45.19911 16.632133,-50.48369 -0.233375,-0.0776 -0.505856,-0.11308 -0.817084,-0.10524 z m 22.607041,32.80772 c -2.18264,0 -16.482246,12.70287 -31.776894,28.2309 -31.592022,32.07446 -33.876801,22.60707 21.110128,87.40247 18.036146,21.25349 32.791856,42.22803 32.791856,46.61201 0,4.38382 6.64435,15.86728 14.76497,25.51802 8.17179,9.71153 20.26678,17.51713 27.08824,17.47791 23.36064,-0.13008 106.09181,-56.55118 106.32621,-72.51308 0.12698,-8.64066 -54.98207,-52.88689 -65.87099,-52.88689 -4.35411,0 -28.73837,-17.96522 -54.18925,-39.92222 -25.45089,-21.95717 -48.06163,-39.91912 -50.24427,-39.91912 z m 226.85885,119.7634 c -5.74658,0 -28.98452,16.69351 -51.63905,37.09757 -40.67586,36.63476 -88.58403,65.55822 -108.58916,65.55822 -5.65757,0 -10.30877,1.9275 -10.33165,4.28005 -0.0239,2.35255 -2.5112,25.74386 -5.52808,51.98385 -6.55393,57.005 -16.95555,73.32576 -71.57463,112.30111 -20.30365,14.48837 -36.915585,28.62718 -36.915585,31.41618 0,9.876 26.569261,22.2451 71.456525,33.2674 58.46168,14.3556 106.81336,15.4045 117.47495,2.5503 4.30495,-5.1904 36.50103,-22.913 71.54909,-39.3828 47.94539,-22.53023 71.75953,-37.7273 96.17326,-61.37387 31.68651,-30.69081 32.36861,-32.00599 29.07364,-56.14248 -1.85593,-13.59431 -4.37712,-34.41198 -5.6016,-46.25789 -1.22465,-11.84608 -6.06489,-25.95924 -10.75936,-31.36507 -4.69464,-5.40599 -10.20718,-16.85513 -12.24662,-25.44138 -2.03944,-8.58624 -10.0817,-19.79009 -17.87372,-24.89556 -7.79196,-5.10563 -14.1681,-13.93144 -14.1681,-19.61638 0,-12.34614 -25.78264,-33.97925 -40.49991,-33.97925 z m 121.57313,186.73878 -3.88752,17.6982 c -2.60976,11.88187 -17.29407,30.11313 -44.68108,55.4692 -38.53109,35.674 -40.18773,38.2143 -29.85549,45.7694 6.01658,4.3994 12.31532,7.9984 13.99895,7.9984 4.3018,0 91.71133,-87.35795 91.71133,-91.65695 0,-1.93829 -6.13744,-10.66965 -13.64154,-19.40247 L 456.41938,891.6731 Z"
       id="path4897" />
  </g>
</svg>
