<?xml version="1.0" encoding="UTF-8" standalone="no"?>
<svg
   xmlns:dc="http://purl.org/dc/elements/1.1/"
   xmlns:cc="http://creativecommons.org/ns#"
   xmlns:rdf="http://www.w3.org/1999/02/22-rdf-syntax-ns#"
   xmlns:svg="http://www.w3.org/2000/svg"
   xmlns="http://www.w3.org/2000/svg"
   version="1.1"
   id="svg2"
   viewBox="0 0 540.00001 500.00001"
   height="500"
   width="540">
  <defs
     id="defs4" />
  <metadata
     id="metadata7">
    <rdf:RDF>
      <cc:Work
         rdf:about="">
        <dc:format>image/svg+xml</dc:format>
        <dc:type
           rdf:resource="http://purl.org/dc/dcmitype/StillImage" />
        <dc:title></dc:title>
      </cc:Work>
    </rdf:RDF>
  </metadata>
  <path
     id="path4165"
     d="M 105.38036,0.00104 C 95.732267,0.23996 49.852847,40.48297 41.117993,56.80422 38.040349,62.55469 37.074637,69.77395 38.973148,72.84586 46.332131,84.7529 63.242531,77.31466 89.56531,50.58997 116.03062,23.72066 122.06943,5.39086 106.19744,0.10628 105.96407,0.02868 105.69159,-0.0068 105.38036,0.00104 Z"
     style="fill:#000000" />
  <path
     id="path4163"
     d="m 127.9874,32.80876 c -2.18264,0 -16.48225,12.70287 -31.776894,28.2309 -31.592022,32.07446 -33.876801,22.60707 21.110124,87.40247 18.03615,21.25349 32.79186,42.22803 32.79186,46.61201 0,4.38382 6.64435,15.86728 14.76497,25.51802 8.17179,9.71153 20.26678,17.51713 27.08824,17.47791 23.36064,-0.13008 106.09181,-56.55118 106.32621,-72.51308 0.12698,-8.64066 -54.98207,-52.88689 -65.87099,-52.88689 -4.35411,0 -28.73837,-17.96522 -54.18925,-39.92222 C 152.78078,50.77071 130.17004,32.80876 127.9874,32.80876 Z"
     style="fill:#000000" />
  <path
     id="path4172"
     d="m 411.41016,207.53906 a 29.661018,42.372883 57.372156 0 1 -23.36719,-10.96289 29.661018,42.372883 57.372156 0 1 -0.56055,-25.0332 c -8.79409,-9.80412 -23.05704,-18.9707 -32.63672,-18.9707 -5.74658,0 -28.98414,16.69359 -51.63867,37.09765 -40.67586,36.63476 -88.58471,65.5586 -108.58984,65.5586 -5.65757,0 -10.3072,1.92674 -10.33008,4.27929 -0.0239,2.35255 -2.51242,25.74439 -5.5293,51.98438 -6.55393,57.005 -16.95514,73.32543 -71.57422,112.30078 -20.303646,14.48837 -36.916012,28.62701 -36.916012,31.41601 0,9.876 26.569767,22.24528 71.457032,33.26758 58.46168,14.3556 106.81302,15.40498 117.47461,2.55078 4.30495,-5.1904 36.50077,-22.91301 71.54883,-39.38281 47.94539,-22.53023 71.76009,-37.72843 96.17383,-61.375 31.6865,-30.69081 32.36918,-32.00609 29.07421,-56.14258 -0.26248,-1.92261 -0.55825,-4.22487 -0.84179,-6.39062 a 29.661018,42.372883 57.372156 0 1 -9.90821,-8.2793 29.661018,42.372883 57.372156 0 1 4.82618,-34.1582 c -0.89104,-6.2683 -2.67767,-12.91886 -4.83985,-18.46094 a 29.661018,42.372883 57.372156 0 1 -21.17187,-10.94141 29.661018,42.372883 57.372156 0 1 1.74414,-29.50195 c -2.93344,-6.88007 -8.58843,-14.35675 -14.39453,-18.85547 z"
     style="fill:#000000" />
  <path
     id="path4897"
     d="m 476.41938,339.31094 -3.88752,17.6982 c -2.60976,11.88187 -17.29407,30.11313 -44.68108,55.4692 -38.53109,35.674 -40.18773,38.2143 -29.85549,45.7694 6.01658,4.3994 12.31532,7.9984 13.99895,7.9984 4.3018,0 91.71133,-87.35795 91.71133,-91.65695 0,-1.93829 -6.13744,-10.66965 -13.64154,-19.40247 l -13.64465,-15.87578 z"
     style="fill:#000000" />
</svg>
