<?xml version="1.0" encoding="UTF-8" standalone="no"?>
<svg
   xmlns:dc="http://purl.org/dc/elements/1.1/"
   xmlns:cc="http://creativecommons.org/ns#"
   xmlns:rdf="http://www.w3.org/1999/02/22-rdf-syntax-ns#"
   xmlns:svg="http://www.w3.org/2000/svg"
   xmlns="http://www.w3.org/2000/svg"
   version="1.1"
   id="svg2"
   viewBox="0 0 500.00001 500.00001"
   height="500"
   width="500">
  <defs
     id="defs4" />
  <metadata
     id="metadata7">
    <rdf:RDF>
      <cc:Work
         rdf:about="">
        <dc:format>image/svg+xml</dc:format>
        <dc:type
           rdf:resource="http://purl.org/dc/dcmitype/StillImage" />
        <dc:title></dc:title>
      </cc:Work>
    </rdf:RDF>
  </metadata>
  <g
     transform="translate(0,-552.36216)"
     id="layer1">
    <path
       id="path3363"
       d="M 282.70999,1051.0679 C 238.83797,1041.3237 213.01855,988.94853 230.64977,947.92919 200.7225,912.7805 166.61178,881.33432 134.40681,848.24083 118.22845,867.2189 93.86235,879.40412 68.549346,875.80015 29.862283,875.46969 -3.6319041,837.17114 0.3172936,798.63939 0.18166295,758.00903 40.638467,723.07339 80.817919,728.98094 c 21.214871,-0.83635 39.852051,12.57867 53.588891,27.55885 32.20481,-33.09362 66.31362,-64.54131 96.24296,-99.68833 -15.89526,-37.71989 3.67086,-85.51613 42.43516,-99.72676 37.99591,-14.82568 88.22564,6.05679 98.03635,47.44313 10.63222,32.57916 -3.60281,70.67397 -33.94721,87.09211 -22.7062,19.82633 -54.02858,0.74537 -75.47573,10.15462 -26.09538,24.01998 -50.29971,49.98445 -75.30749,75.11614 56.09454,-0.002 112.18908,-0.006 168.28363,-0.008 11.55644,-27.75541 38.94536,-51.34726 70.51811,-47.97374 42.48507,-3.53576 80.44117,39.04213 74.11419,80.91796 -1.99882,38.99228 -41.22067,71.49565 -79.95775,65.92739 -29.47081,0.89777 -53.70756,-22.21595 -64.67455,-47.93524 -56.09455,-0.002 -112.18909,-0.006 -168.28363,-0.008 27.59475,27.01384 52.89119,56.77003 83.11063,80.80002 36.35416,-15.42516 82.7699,1.51588 98.50187,38.27127 17.63386,37.14425 -1.6764,87.59251 -41.37579,100.92751 -14.01339,4.4797 -29.40854,5.765 -43.91757,3.2177 z m 29.93157,-51.88831 c 27.46616,-14.81379 1.07996,-60.89105 -25.45776,-42.28553 -20.9988,11.25805 -11.26503,45.92194 12.13908,45.44504 4.6181,0.141 9.23103,-1.0342 13.31868,-3.15951 z M 84.490501,825.03014 c 25.211849,-9.56149 13.910806,-50.97391 -12.538679,-47.61602 -26.253983,2.17445 -29.587627,42.77575 -4.043427,49.24643 5.47819,2.12365 11.431802,0.56572 16.582106,-1.63041 z m 351.365319,-0.0787 c 25.96378,-10.55271 11.66735,-54.35875 -15.36878,-46.82121 -29.69677,4.98647 -22.33016,53.06238 7.18344,49.3621 l 4.07481,-0.85362 4.11053,-1.68727 0,0 z M 312.49949,648.38795 c 19.39191,-10.62989 13.54811,-45.37498 -9.88811,-45.82307 -23.21309,-3.90584 -37.96153,30.70582 -17.39454,43.59453 6.93006,7.77608 18.80508,6.14662 27.28265,2.22854 z"
       style="fill:#000000" />
  </g>
</svg>
