<?xml version="1.0" encoding="UTF-8" standalone="no"?>
<svg
   xmlns:dc="http://purl.org/dc/elements/1.1/"
   xmlns:cc="http://creativecommons.org/ns#"
   xmlns:rdf="http://www.w3.org/1999/02/22-rdf-syntax-ns#"
   xmlns:svg="http://www.w3.org/2000/svg"
   xmlns="http://www.w3.org/2000/svg"
   version="1.1"
   id="svg5325"
   viewBox="0 0 390 500.00001"
   height="500"
   width="390">
  <defs
     id="defs5327" />
  <metadata
     id="metadata5330">
    <rdf:RDF>
      <cc:Work
         rdf:about="">
        <dc:format>image/svg+xml</dc:format>
        <dc:type
           rdf:resource="http://purl.org/dc/dcmitype/StillImage" />
        <dc:title></dc:title>
      </cc:Work>
    </rdf:RDF>
  </metadata>
  <g
     transform="translate(0,-552.36218)"
     id="layer1">
    <path
       id="path4176"
       d="m 192.5648,552.38307 c -64.78587,12.08858 -81.61225,36.9723 -111.435251,95.72882 -5.678015,17.81113 -41.50293,31.5524 -44.509153,45.8452 -12.590799,19.29256 -14.008105,41.34864 -15.954212,61.86554 -4.409686,39.93488 13.765714,41.41245 34.042894,66.72981 13.016629,10.54858 25.862456,27.85493 47.224402,24.25392 14.51421,21.56783 18.99548,47.97709 29.89702,71.17471 17.25143,43.76808 32.48711,88.56283 53.2533,130.84003 26.66178,14.481 32.91348,-19.0188 39.69009,-36.2336 21.79607,-54.12033 39.66102,-109.73682 62.69366,-163.35795 10.28571,-7.16808 2.57154,30.57311 21.63095,27.43521 29.66885,4.09313 16.83986,-30.19969 22.95778,-46.67411 14.15772,-22.58024 34.1946,-43.17253 37.05874,-71.0628 6.08075,-43.99964 -19.7407,-90.07557 -60.03619,-110.03777 -13.0292,-14.42369 -10.72784,-38.05486 -25.66265,-52.80853 -20.67654,-27.84648 -55.79584,-44.39022 -90.85138,-43.69848 z m 4.20363,36.79412 c 35.24993,0.3651 67.19753,30.33136 69.02783,64.86626 -1.34295,23.33032 25.19775,26.11722 39.70556,37.42017 39.9188,27.97866 31.23134,97.35146 -14.69748,114.79266 -26.37729,12.71785 -59.77683,4.86082 -80.0416,-15.12539 -48.34776,-22.02317 -28.54723,60.83932 -34.5985,90.69732 -6.51391,26.13907 -42.34548,20.41251 -39.06663,-6.51791 -1.58177,-20.27839 -1.84405,-40.62767 -2.7264,-60.94255 -70.990206,-1.0507 -82.23629,-32.52231 -79.178469,-77.02822 3.011207,-17.80998 5.667997,-32.3572 30.055451,-37.80403 18.787338,-9.34457 30.279818,-15.88748 38.835138,-33.54199 4.46031,-18.54758 5.77545,-39.29781 21.07047,-53.11339 13.11755,-14.16145 31.44984,-24.9785 51.61463,-23.70293 z"
       style="fill:#000000" />
  </g>
</svg>
