<?xml version="1.0" encoding="UTF-8" standalone="no"?>
<svg
   xmlns:dc="http://purl.org/dc/elements/1.1/"
   xmlns:cc="http://creativecommons.org/ns#"
   xmlns:rdf="http://www.w3.org/1999/02/22-rdf-syntax-ns#"
   xmlns:svg="http://www.w3.org/2000/svg"
   xmlns="http://www.w3.org/2000/svg"
   version="1.1"
   id="svg4924"
   viewBox="0 0 375 500.00001"
   height="500"
   width="375">
  <defs
     id="defs4926" />
  <metadata
     id="metadata4929">
    <rdf:RDF>
      <cc:Work
         rdf:about="">
        <dc:format>image/svg+xml</dc:format>
        <dc:type
           rdf:resource="http://purl.org/dc/dcmitype/StillImage" />
        <dc:title></dc:title>
      </cc:Work>
    </rdf:RDF>
  </metadata>
  <g
     transform="translate(0,-552.36216)"
     id="layer1">
    <path
       d="m 151.66643,552.38514 c -36.88252,0.22677 -69.638538,2.14381 -87.943113,6.20379 L 20,568.29042 21.484342,677.0092 c 1.047161,76.63234 6.675388,118.39935 19.063636,141.52275 11.532351,21.52567 17.59769,60.31422 17.641379,112.80635 0.03708,43.99966 5.25115,89.6866 11.585071,101.5267 10.48075,19.5919 21.536729,21.2502 122.967292,18.42 l 111.44946,-3.1097 10.93859,-109.35521 c 6.01443,-60.14376 16.63688,-119.267 23.60461,-131.38663 17.6252,-30.6567 22.697,-220.327 6.3304,-236.70086 -11.14643,-11.15119 -112.25681,-18.84653 -193.39835,-18.34746 z m 38.9445,31.41729 c 37.5932,-0.0766 73.87831,2.06711 95.81992,6.45732 31.07607,6.21788 34.16045,10.59171 34.16045,48.45056 0,34.82728 -4.0123,42.1835 -24.59242,45.10804 -21.73545,3.08865 -24.06497,8.57147 -20.06699,47.23462 8.26552,79.93642 6.54658,95.55106 -11.81265,107.33211 -13.36825,8.57835 -22.85516,7.83005 -35.67581,-2.81473 -14.17562,-11.76958 -16.1243,-27.61915 -10.33866,-84.11579 l 7.1269,-69.61272 -61.62845,0 -61.62332,0 0.34652,41.01012 c 0.19146,22.55394 7.5686,50.55459 16.39497,62.22926 10.7115,14.16778 16.04845,47.80854 16.04845,101.1542 l 0,79.92478 71.04647,0 c 68.49785,-2e-5 71.0517,0.97818 71.0517,27.3349 0,26.8516 -1.53834,27.3401 -86.2778,27.3401 -100.908938,0 -99.543697,1.5516 -99.543697,-113.28235 0,-50.62486 -5.589436,-86.66717 -15.670886,-101.06626 C 66.757335,794.17691 56.306752,742.15645 52.14857,690.88621 l -7.561333,-93.2171 42.357941,-7.0006 c 27.170512,-4.49045 66.072532,-6.78941 103.665752,-6.86608 z"
       style="fill:#000000"
       id="path4221" />
  </g>
</svg>
