<?xml version="1.0" encoding="UTF-8" standalone="no"?>
<svg
   xmlns:dc="http://purl.org/dc/elements/1.1/"
   xmlns:cc="http://creativecommons.org/ns#"
   xmlns:rdf="http://www.w3.org/1999/02/22-rdf-syntax-ns#"
   xmlns:svg="http://www.w3.org/2000/svg"
   xmlns="http://www.w3.org/2000/svg"
   width="540"
   height="500"
   viewBox="0 0 540.00001 500.00001"
   id="svg2"
   version="1.1">
  <defs
     id="defs4" />
  <metadata
     id="metadata7">
    <rdf:RDF>
      <cc:Work
         rdf:about="">
        <dc:format>image/svg+xml</dc:format>
        <dc:type
           rdf:resource="http://purl.org/dc/dcmitype/StillImage" />
        <dc:title></dc:title>
      </cc:Work>
    </rdf:RDF>
  </metadata>
  <path
     id="path4412"
     d="m 122.11632,498.2337 c -11.52578,-4.24266 -14.28581,-18.44238 -14.28581,-73.49685 l 0,-54.23834 -37.381156,0 C 31.100019,370.49851 20,367.82054 20,358.32729 20,355.15239 81.750542,283.41517 157.22342,198.91123 L 294.44688,45.267761 C 290.10641,33.167475 284.80065,22.0036 290.537,12.476668 296.48085,2.7883239 309.51585,-2.0446449 321.9821,0.81785512 334.46363,3.6839176 399.05876,63.569668 423.04641,94.51398 c 56.06403,72.32312 90.76866,162.7405 95.86629,249.76434 2.02368,34.54722 1.9629,34.9335 -6.74791,42.90288 -24.32338,12.74622 -38.40946,2.45888 -47.07581,-16.68269 l -75.59732,0 -75.59731,0 0,33.45747 c 0,30.97669 -0.57972,33.95572 -7.81844,40.17734 -10.38562,8.92632 -26.09397,8.73469 -35.50797,-0.43312 -6.59527,-6.42281 -7.34502,-10.524 -7.34502,-40.17731 l 0,-33.02438 -50.67144,0 -50.67144,0 0,54.23834 c 0,56.36497 -2.67459,69.19454 -15.35278,73.64554 -6.31322,2.2164 -18.18219,2.14409 -24.41094,-0.14875 z M 236.45798,312.01551 c 20.64449,-16.76111 1.03432,-48.86149 -18.74728,-49.68675 -21.44869,0 -38.907,18.29206 -34.11831,35.74766 6.29615,22.95078 34.80056,30.46653 52.86559,13.93909 z m 155.13256,-18.78109 c 0,-13.29535 -15.8706,-27.8151 -30.40285,-27.8151 -14.53228,0 -30.40287,14.51975 -30.40287,27.8151 1.68032,14.99237 16.92041,27.61028 30.40287,27.81506 14.51723,-1.20845 30.15493,-14.15271 30.40285,-27.81506 z m -58.24128,-64.88516 c 23.26675,-12.97847 31.4705,-42.23937 18.19281,-64.88972 -6.93875,-11.83681 -30.01288,-24.75334 -44.21944,-24.75334 -35.77734,2.19547 -67.35578,43.99017 -45.28315,73.41309 17.81124,21.99703 48.46418,28.97356 71.30993,16.22997 z"
     style="fill:#000000" />
</svg>
