<?xml version="1.0" encoding="UTF-8" standalone="no"?>
<svg
   xmlns:dc="http://purl.org/dc/elements/1.1/"
   xmlns:cc="http://creativecommons.org/ns#"
   xmlns:rdf="http://www.w3.org/1999/02/22-rdf-syntax-ns#"
   xmlns:svg="http://www.w3.org/2000/svg"
   xmlns="http://www.w3.org/2000/svg"
   width="208"
   height="500"
   viewBox="0 0 208 500.00001"
   id="svg2"
   version="1.1">
  <defs
     id="defs4" />
  <metadata
     id="metadata7">
    <rdf:RDF>
      <cc:Work
         rdf:about="">
        <dc:format>image/svg+xml</dc:format>
        <dc:type
           rdf:resource="http://purl.org/dc/dcmitype/StillImage" />
        <dc:title></dc:title>
      </cc:Work>
    </rdf:RDF>
  </metadata>
  <g
     id="layer1"
     transform="translate(20,-552.36216)">
    <path
       style="fill:#000000"
       d="m 58.74719,1051.1893 c -10.89491,-1.1715 -28.47171,-4.7611 -39.05954,-7.9771 l -19.2506104,-5.8472 0,-87.54083 c 0,-76.43072 0.58624,-88.7701 4.6192,-97.2273 l 4.61921,-9.68658 75.8009204,0 75.80092,0 3.18098,6.98152 c 2.21123,4.85311 3.18101,34.90393 3.18101,98.57109 l 0,91.5896 -10.81495,2.9122 c -30.0424,8.0895 -68.97204,11.3542 -98.07714,8.2246 z M 3.7667296,828.69745 c -4.4246,-4.42459 -4.22288,-11.78482 0.42878,-15.64536 2.66443,-2.21129 26.8003704,-2.9074 82.9158804,-2.3914 l 79.15737,0.72787 0,9.59357 0,9.59358 -79.58617,0.72571 C 27.0772,831.84496 6.2604696,831.19123 3.7667296,828.69745 Z m 0,-32.89224 c -4.4246,-4.42459 -4.22288,-11.78483 0.42878,-15.64537 2.66443,-2.21127 26.8003704,-2.90739 82.9158804,-2.39139 l 79.15737,0.72787 0,9.59357 0,9.59357 -79.58617,0.72572 C 27.0772,798.95271 6.2604696,798.29897 3.7667296,795.80521 Z m 0,-32.89224 c -4.4246,-4.42459 -4.22288,-11.78483 0.42878,-15.64537 2.66443,-2.21128 26.8003704,-2.90739 82.9158804,-2.39139 l 79.15737,0.72787 0,9.59357 0,9.59357 -79.58617,0.72572 C 27.0772,766.06046 6.2604696,765.40672 3.7667296,762.91297 Z m 0,-32.89224 c -4.4246,-4.4246 -4.22288,-11.78483 0.42878,-15.64538 2.66443,-2.21127 26.8003704,-2.90738 82.9158804,-2.39138 l 79.15737,0.72787 0,9.59357 0,9.59357 -79.58617,0.72572 C 27.0772,733.16822 6.2604696,732.51448 3.7667296,730.02073 Z m -1.46232,-28.68979 c -7.93301,-7.93301 5.11169,-37.06065 31.5056704,-70.34931 l 16.69655,-21.05805 34.58241,0.006 34.58238,0.006 16.70682,21.23709 c 28.54857,36.28987 31.69886,42.15736 30.73841,57.25093 l -0.84789,13.32465 -81.04848,0.72528 C 40.64361,702.87243 3.3314696,702.35849 2.3044096,701.33144 Z M 43.74516,598.41129 c 1.99602,-1.99602 3.28922,-11.69502 3.28922,-24.66918 l 0,-21.37995 37.00378,0 37.00377,0 0,21.37995 c 0,12.97416 1.29319,22.67316 3.28923,24.66918 2.55828,2.55828 -6.39571,3.28923 -40.293,3.28923 -33.89729,0 -42.85128,-0.73095 -40.293,-3.28923 z"
       id="path4554" />
  </g>
</svg>
