<?xml version="1.0" encoding="UTF-8" standalone="no"?>
<svg
   xmlns:dc="http://purl.org/dc/elements/1.1/"
   xmlns:cc="http://creativecommons.org/ns#"
   xmlns:rdf="http://www.w3.org/1999/02/22-rdf-syntax-ns#"
   xmlns:svg="http://www.w3.org/2000/svg"
   xmlns="http://www.w3.org/2000/svg"
   width="490"
   height="500"
   viewBox="0 0 490.00001 500.00001"
   id="svg2"
   version="1.1">
  <defs
     id="defs4" />
  <metadata
     id="metadata7">
    <rdf:RDF>
      <cc:Work
         rdf:about="">
        <dc:format>image/svg+xml</dc:format>
        <dc:type
           rdf:resource="http://purl.org/dc/dcmitype/StillImage" />
        <dc:title></dc:title>
      </cc:Work>
    </rdf:RDF>
  </metadata>
  <g
     id="layer1"
     transform="matrix(-1,0,0,1,490,-552.36216)">
    <path
       style="fill:#000000"
       d="m 216.77043,552.37112 c -0.87014,-0.0427 -1.64785,0.066 -2.31129,0.34913 18.04277,14.47482 21.60604,37.83404 18.21006,59.6521 -3.31586,23.48561 1.16275,51.12802 25.62421,61.27053 5.09913,2.87879 9.28078,7.25904 2.90154,-1.67391 -18.21379,-29.26211 7.32665,-66.60421 -12.78394,-95.65013 -6.17035,-8.92926 -23.22921,-23.53513 -31.64058,-23.94772 z m -58.46671,32.9885 c -1.90366,0.0929 -0.96297,2.56912 5.45565,9.01236 18.91692,20.56388 -6.76845,54.16767 16.28241,72.54682 3.41158,1.95258 28.06393,20.11649 12.77186,3.55081 -12.17617,-20.43789 8.39922,-48.36294 -8.66706,-67.98515 -3.69771,-5.99808 -21.65483,-17.32925 -25.84286,-17.12484 z m 134.45668,0.0717 c -1.71314,0.16518 -0.7729,2.5135 5.25175,8.38989 16.30348,20.11147 -3.07458,50.0286 13.2427,69.30317 0.1295,1.22698 23.55575,20.0847 18.40324,11.40213 -16.91135,-21.74429 8.6506,-52.74783 -12.93418,-72.82287 -3.58109,-6.43398 -20.19459,-16.63573 -23.96351,-16.27232 z m -13.89197,114.92116 c -22.9466,-0.13318 -45.98035,0.81296 -68.75155,0.54263 -37.68529,1.45528 -77.38244,7.50516 -109.56356,28.5378 -16.399146,5.91967 -8.81611,32.51014 -19.566256,37.2281 -22.600432,-1.90587 -49.706265,5.13796 -57.875142,29.1305 -12.746931,41.25283 15.542104,84.25147 50.714531,103.86275 18.491473,14.36886 45.509167,10.02955 61.412527,28.01545 19.32355,13.5226 25.78058,40.34166 48.07993,48.89004 32.93772,9.61384 68.88675,8.37721 102.86709,6.90406 21.21462,-3.05109 51.39772,-2.18611 59.94901,-26.47144 16.92892,-20.74178 38.23381,-38.51385 48.56018,-64.17046 20.34155,-43.99696 27.4699,-93.62527 25.60677,-141.82022 -4.52861,-25.00921 -33.27661,-33.3941 -54.10298,-39.90068 -28.46961,-8.62104 -57.82777,-10.57731 -87.33055,-10.74853 z m -39.90922,29.35784 c 44.46483,0.13996 90.99105,-0.36649 132.82415,16.79195 24.1619,18.6653 -24.05822,26.34126 -37.76961,28.94782 -47.73215,7.91626 -96.5336,4.2442 -144.61408,2.12047 -3.56076,-0.30704 -7.12166,-0.64981 -10.65104,-1.23141 -15.06946,-4.27388 -56.6318,-6.17311 -47.25093,-26.25223 32.34689,-18.54324 71.30128,-18.15503 107.46151,-20.3766 z m 147.3171,67.29095 c -2.78106,51.95573 -23.09762,107.34649 -68.44169,136.51971 -11.13844,9.72634 -0.4878,-7.07766 0.0953,-10.64704 15.13205,-35.9953 24.4648,-75.06223 23.16937,-114.33116 15.02176,-3.96142 29.79504,-9.29835 45.17708,-11.54151 z m -308.958095,3.18816 c 5.662254,10e-4 10.585431,1.59652 12.240662,5.40606 2.799257,23.79966 8.230358,47.13896 15.146213,70.03391 -3.02117,5.61983 -14.323142,-4.44845 -18.004829,-5.66317 -20.552406,-11.55816 -43.281985,-36.34288 -31.051682,-61.50058 3.538919,-4.87445 13.394055,-8.27779 21.669636,-8.27622 z M 388.22138,947.42789 c -14.27366,11.12292 -25.05828,25.73029 -36.93523,39.10094 -29.87667,21.06357 -68.70415,18.03857 -103.45598,19.03967 -32.77664,-1.6738 -72.50382,1.375 -96.55024,-25.6325 -13.9393,-17.21182 -31.94719,-41.32533 -56.144685,-25.36723 -20.373704,7.3376 -45.047232,12.84705 -57.076994,32.69079 -4.553459,27.92864 31.981596,36.57444 51.970128,44.74654 69.871611,20.3398 144.263801,22.7536 216.452291,18.7162 50.47461,-4.6789 103.66517,-9.1534 148.54983,-35.021 30.79493,-13.997 8.45926,-48.16288 -16.64593,-52.40164 -16.15677,-6.97843 -33.29288,-11.09071 -50.16319,-15.87177 z"
       id="path4173" />
  </g>
</svg>
