<?xml version="1.0" encoding="UTF-8" standalone="no"?>
<svg
   xmlns:dc="http://purl.org/dc/elements/1.1/"
   xmlns:cc="http://creativecommons.org/ns#"
   xmlns:rdf="http://www.w3.org/1999/02/22-rdf-syntax-ns#"
   xmlns:svg="http://www.w3.org/2000/svg"
   xmlns="http://www.w3.org/2000/svg"
   version="1.1"
   id="svg2"
   viewBox="0 0 540.00001 500.00001"
   height="500"
   width="540">
  <defs
     id="defs4" />
  <metadata
     id="metadata7">
    <rdf:RDF>
      <cc:Work
         rdf:about="">
        <dc:format>image/svg+xml</dc:format>
        <dc:type
           rdf:resource="http://purl.org/dc/dcmitype/StillImage" />
        <dc:title></dc:title>
      </cc:Work>
    </rdf:RDF>
  </metadata>
  <g
     transform="translate(0,-552.36216)"
     id="layer1">
    <path
       id="path4374"
       d="m 336.87822,552.36638 c -4.98017,-0.0869 -10.58175,1.17059 -18.89603,3.56398 -11.91078,3.4287 -24.64409,6.89194 -28.2911,7.696 -3.64705,0.80406 -9.42039,4.21443 -12.8292,7.58115 -4.75564,4.69692 -8.50505,2.81033 -16.12838,-8.10817 -8.01397,-11.47807 -9.31688,-12.07909 -6.7333,-3.10464 l 3.20159,11.12669 -21.03873,-10.27979 c -14.6239,-7.14602 -25.94153,-9.215 -37.13181,-6.78756 -21.78252,4.72516 -45.93811,25.71181 -49.85096,43.30712 -2.76823,12.44803 -5.8678,14.49888 -22.6063,14.96751 -24.65525,0.69025 -47.063632,23.79709 -51.871177,53.49054 -2.39154,14.77151 -5.95056,20.77282 -12.303898,20.77282 -10.670881,0 -29.23256,18.90294 -34.075555,34.70066 -1.907325,6.22173 -0.09663,19.28277 4.023781,29.02249 6.789612,16.04923 6.57813,18.88487 -2.27973,30.26516 -14.61955,18.78273 -13.088573,48.42891 3.108161,60.19607 12.12132,8.80631 12.667289,10.96782 7.183851,28.46882 -7.362698,23.49862 -2.729749,43.0616 14.149705,59.73262 9.549859,9.43218 12.124276,16.17543 9.743886,25.54258 -7.482918,29.44625 13.884635,59.49867 42.307906,59.49887 12.10387,10e-5 19.76852,4.5202 30.80962,18.187 12.16232,15.0547 18.14058,18.1952 34.70049,18.1952 23.20852,0 35.68339,-10.8724 40.65731,-35.4348 2.91878,-14.4136 0.49513,-19.62233 -18.69879,-40.18816 -12.1294,-12.99632 -28.87615,-37.8768 -37.21279,-55.28687 -14.66631,-30.62901 -15.27709,-31.17523 -18.89602,-16.93406 l -3.74142,14.71733 -4.63628,-12.37962 c -2.55018,-6.80863 -3.25913,-18.57931 -1.57381,-26.15776 2.01999,-9.08341 0.29779,-16.05112 -5.05985,-20.44267 -8.92055,-7.31198 -10.99821,-29.00986 -3.23064,-33.75123 2.69422,-1.64454 6.48963,-0.44709 8.43375,2.65967 3.79959,6.07197 25.78655,3.54268 48.96234,-4.32887 4.40968,4.93798 10.1383,9.41255 14.2971,10.6735 2.86821,0.86965 5.93311,1.60616 6.81012,1.6364 4.4147,0.15199 17.02961,-3.4292 25.76639,-7.31458 6.72269,-2.98969 11.99491,-4.5789 16.73879,-5.04248 l 6.92639,-0.67671 -6.83504,-3.03082 -6.83505,-3.03083 -11.9011,2.76835 c -13.30648,3.09511 -20.71935,3.42935 -28.8164,1.30009 -1.49102,-0.39209 -3.14118,-0.92471 -4.83145,-1.52567 3.81022,-1.56999 7.57765,-3.27224 11.22633,-5.08964 13.38086,-6.66498 34.57101,-23.33767 47.08539,-37.05067 14.81731,-16.23643 19.39384,-19.49606 13.12403,-9.34265 -5.29546,8.57541 -14.64406,21.17562 -20.77296,27.99512 l -11.14329,12.39602 10.98133,-5.62691 c 24.60558,-12.61843 49.57237,-46.95064 61.92234,-85.14806 2.26388,-7.00196 5.93528,-7.93513 17.89942,-4.54624 21.72451,6.15361 44.68274,18.60499 54.9461,29.80582 13.10724,14.30459 30.28885,54.17784 30.42134,70.60299 0.0872,10.78948 2.69168,14.28875 10.63668,14.28875 12.97978,0 14.62053,21.3584 2.40846,31.36839 -4.46524,3.66003 -7.65909,12.71767 -7.09873,20.12688 0.5603,7.40921 0.46815,19.32127 -0.20348,26.46741 l -1.22083,12.99071 -6.4551,-14.39334 -6.45507,-14.39128 -12.02985,28.66978 c -6.61681,15.76718 -22.46422,40.12703 -35.21542,54.13443 -14.17703,15.57356 -23.18557,30.44908 -23.18557,38.29338 0,16.5371 17.93477,39.0073 32.99174,41.3324 19.58027,3.0236 30.1627,-1.6844 44.95929,-19.9998 10.68849,-13.2303 18.19232,-17.4958 30.77015,-17.4959 12.24487,-1e-4 20.3657,-4.3813 30.77016,-16.59367 11.97161,-14.0518 13.62791,-19.72236 10.81937,-37.06913 -2.72984,-16.86073 -1.45526,-21.76445 7.22539,-27.76955 15.6315,-10.81359 24.17897,-43.48787 16.82392,-64.32602 -5.34457,-15.14219 -4.63512,-17.98245 7.2067,-28.82153 16.5477,-15.14653 17.663,-42.13424 2.41469,-58.29924 -8.82304,-9.35353 -9.65989,-13.31414 -4.73595,-22.40102 14.63258,-27.00372 2.73074,-62.01565 -24.59744,-72.34192 -7.36168,-2.78167 -13.06576,-11.85587 -16.89866,-26.88984 -7.13699,-27.99357 -24.4937,-44.85431 -48.16712,-46.79524 -15.02258,-1.23166 -19.77372,-4.88779 -28.7894,-22.14469 -5.93925,-11.36846 -18.81511,-25.2182 -28.61084,-30.77372 -8.79153,-4.98607 -14.16641,-7.31555 -20.56949,-7.42735 z m 10.83806,225.45177 c -13.62313,-0.14569 -33.81097,5.35345 -55.99253,15.312 -6.54716,2.93939 -7.93458,3.92374 -6.37826,4.52778 3.08447,1.19713 10.87902,0.89741 18.36035,-0.70541 8.04309,-1.72318 21.85938,-6.14191 29.40189,-9.40416 5.03836,-2.17916 6.02072,-2.2567 15.68198,-1.22218 6.71722,0.71927 11.32544,0.75101 13.22785,0.0902 7.20642,-2.50308 0.12751,-7.65638 -11.6665,-8.49368 -0.84851,-0.0603 -1.72657,-0.0949 -2.63478,-0.10457 z m 8.81995,30.58506 c -0.4671,-0.004 -1.74472,0.70754 -3.07494,1.74097 -3.70644,2.87949 -13.49863,7.24086 -20.24352,9.01455 -8.09703,2.12926 -15.50991,1.79296 -28.81638,-1.30215 l -11.90113,-2.76835 -6.83503,3.03083 -6.83505,3.03082 6.9264,0.67671 c 4.74387,0.46358 10.0161,2.0528 16.7388,5.04249 8.73676,3.88538 21.35167,7.46656 25.76636,7.31457 0.87701,-0.0302 3.94193,-0.76675 6.81013,-1.6364 6.44721,-1.95479 16.6862,-11.62401 19.89471,-18.78781 1.19635,-2.67117 1.969,-5.06025 1.71707,-5.30907 -0.0315,-0.0311 -0.0807,-0.0465 -0.14742,-0.0471 z m -105.56736,74.11776 c -3.77888,0 -8.70875,2.0545 -7.92716,3.30355 0.84658,1.35287 8.33528,1.07542 9.79163,-0.36296 2.06047,-2.03503 1.48596,-2.94059 -1.86447,-2.94059 z m 36.17258,0.31579 c -2.71466,0.021 -12.83544,4.6263 -12.83544,5.98782 0,0.49482 1.07633,1.12541 2.39185,1.40058 3.46284,0.72432 9.25233,-0.0569 10.99172,-1.4826 1.98006,-1.62303 1.91603,-5.07924 -0.10797,-5.84633 -0.10994,-0.0417 -0.25919,-0.0609 -0.44016,-0.0594 z M 280.70297,918.29 c -3.4737,-0.0213 -8.03845,2.12147 -9.71482,4.56059 -0.42928,0.62461 -3.31195,-0.1227 -7.31465,-1.89682 -8.75562,-3.88078 -12.98849,-3.36759 -23.80016,2.88317 -6.36117,3.67771 -10.20995,5.12266 -16.16782,6.07189 -10.07871,1.6058 -10.19766,3.10073 -0.96962,12.03717 7.61984,7.37904 18.4605,13.16255 28.23297,15.06184 3.2157,0.62497 6.80348,1.33487 7.97282,1.57898 1.16935,0.24414 4.51795,0.22325 7.44132,-0.0471 16.78932,-1.55326 27.88647,-6.10727 36.52554,-14.99006 3.13359,-3.22199 6.89025,-6.63315 8.34864,-7.57911 l 2.65138,-1.72047 -3.83901,-1.25088 c -2.11136,-0.68821 -6.64958,-3.33724 -10.08438,-5.88734 -7.74839,-5.75265 -14.39083,-8.79165 -19.28221,-8.82178 z m 16.40244,18.22595 c 0.22183,0.003 0.3532,0.0208 0.38619,0.0533 0.81599,0.80591 -6.48503,3.41849 -14.71861,5.26806 -9.72532,2.18467 -22.5422,2.8276 -32.33564,1.62204 -12.91479,-1.58979 -14.51772,-2.04047 -14.14348,-3.99051 0.47179,-2.45835 5.27054,-2.80254 11.20973,-0.80384 6.6157,2.22636 18.03639,2.07397 35.25694,-0.46755 6.85873,-1.01226 12.79203,-1.69994 14.34487,-1.68151 z"
       style="fill:#000000" />
  </g>
</svg>
