<?xml version="1.0" encoding="UTF-8" standalone="no"?>
<svg
   xmlns:dc="http://purl.org/dc/elements/1.1/"
   xmlns:cc="http://creativecommons.org/ns#"
   xmlns:rdf="http://www.w3.org/1999/02/22-rdf-syntax-ns#"
   xmlns:svg="http://www.w3.org/2000/svg"
   xmlns="http://www.w3.org/2000/svg"
   version="1.1"
   id="svg2"
   viewBox="0 0 540.00001 499.99998"
   height="500"
   width="540">
  <defs
     id="defs4" />
  <metadata
     id="metadata7">
    <rdf:RDF>
      <cc:Work
         rdf:about="">
        <dc:format>image/svg+xml</dc:format>
        <dc:type
           rdf:resource="http://purl.org/dc/dcmitype/StillImage" />
        <dc:title></dc:title>
      </cc:Work>
    </rdf:RDF>
  </metadata>
  <g
     transform="translate(0,-552.36228)"
     id="layer1">
    <path
       d="m 153.58321,888.30022 c -22.27017,-8.84503 -67.248581,-58.10721 -49.24847,-85.28248 9.29885,-11.29431 49.16266,-10.79562 86.35891,1.08037 12.66373,4.04327 26.19383,9.11698 30.06689,11.27494 9.61692,5.35826 53.08848,5.27859 63.37734,-0.11618 16.08395,-8.43327 54.37044,-18.83619 73.94024,-20.09051 40.97251,-2.62609 53.05124,8.41661 43.58755,39.84892 -6.39693,21.24651 -24.92072,43.16127 -43.25996,51.17913 -13.18768,5.7656 -38.79881,4.88402 -53.14204,-1.82924 -23.02227,-4.91677 -30.62772,-15.83962 -38.79987,-33.26248 -4.27439,-8.44567 -5.58429,-9.32767 -13.8529,-9.32767 -8.44308,0 -9.50214,0.77049 -14.03613,10.21164 -2.69723,5.61641 -4.96248,12.2712 -5.03391,14.78843 -5.51528,16.74548 -17.82398,15.1751 -29.34898,20.13728 -13.54515,5.97045 -37.42761,5.09028 -50.60867,1.38785 z m 94.17139,20.91006 c -2.5343,-3.07814 -1.28807,-3.54922 9.38923,-3.54922 10.6773,0 11.92353,0.47108 9.38924,3.54922 -1.60718,1.95208 -5.83234,3.54923 -9.38924,3.54923 -3.5569,0 -7.78205,-1.59715 -9.38923,-3.54923 z m 23.47309,37.85849 c 5.47145,-3.15289 4.63816,-3.38738 -12.32338,-3.46546 -18.91646,-0.0875 -21.85028,0.95238 -12.91019,4.57472 7.8543,3.18247 18.60603,2.70971 25.23357,-1.10926 z m -26.99405,14.13917 c -3.87307,-1.96793 -9.68265,-6.59777 -12.91021,-10.28849 -3.22754,-3.69096 -8.98829,-7.47301 -12.80164,-8.40457 -6.77268,-1.65441 -6.6144,-1.8243 6.83058,-7.3327 12.27577,-5.02925 14.87482,-5.33945 24.03858,-2.86895 7.96355,2.14704 11.3038,2.1222 14.85019,-0.11121 6.07499,-3.82429 10.47247,-3.63204 19.03756,0.83288 3.91779,2.04223 10.46716,3.81708 14.55411,3.94438 l 7.43086,0.23188 -6.08381,2.56254 c -3.34606,1.40928 -8.62751,5.41966 -11.73654,8.91163 -7.06103,7.93133 -22.46654,16.13383 -30.26473,16.11466 -3.24668,0 -9.0719,-1.6246 -12.94495,-3.59229 z m 62.20368,63.25476 0,-27.89975 28.97548,-17.05474 c 15.93652,-9.38036 30.68428,-18.9583 32.7728,-21.2847 7.14939,-7.96327 11.01698,-21.46287 11.13944,-38.88109 l 0.12112,-17.23059 9.8549,-7.96072 c 21.10406,-17.0477 36.05889,-44.78328 38.54582,-71.488 2.99878,-32.2012 -19.40453,-51.62485 -59.76331,-51.81473 -11.90151,-0.0561 -12.49231,-0.37882 -18.50942,-10.11399 -17.54894,-28.39269 -35.082,-42.18388 -49.11545,-38.63343 -3.15107,0.7972 -14.45008,9.4792 -25.10891,19.2933 -16.90205,15.56257 -49.13319,37.76264 -60.84029,41.90537 -2.14704,0.75977 -14.29437,-1.32758 -26.99406,-4.63853 -32.95361,-8.5914 -69.96156,-9.05467 -86.03575,-1.077 -26.127708,12.96721 -31.757118,43.81309 -14.505923,79.48415 5.226267,20.6859 4.607264,12.6684 21.944353,29.55342 10.31305,10.52672 19.29957,17.3329 26.50725,20.0759 l 10.90452,4.14992 0.92054,16.92753 c 1.40191,25.77984 3.39513,28.32014 39.47547,50.30806 l 31.68729,19.31062 0.6637,26.3012 0.6637,26.3014 -11.22659,-0.099 c -6.17463,-0.054 -14.53243,-1.918 -18.5729,-4.1408 -9.10352,-5.0084 -19.4506,-17.2681 -21.87473,-25.9185 -1.08578,-3.8746 -3.14591,-6.1631 -5.08106,-5.6445 -20.60193,5.5226 -36.3404,2.6504 -49.51116,-9.0361 -11.01307,-9.77192 -15.947328,-21.05798 -15.947328,-36.47629 0,-8.2678 -0.319516,-8.59835 -8.309098,-8.59835 -17.034303,0 -35.923966,-15.33998 -41.042227,-33.32947 1.514471,-21.34945 -2.056201,-17.24707 1.299216,-27.00744 4.139924,-11.58363 4.210837,-13.01383 0.645298,-13.01383 -5.792807,0 -21.185684,-13.04784 -25.537876,-21.64731 -8.54357,-16.88122 -4.766117,-41.65415 8.2222,-53.92206 l 6.106666,-5.76794 -6.793699,-7.24589 c -3.736541,-3.98521 -7.976742,-9.57159 -9.422685,-12.41414 -4.235461,-8.32649 -3.202175,-30.56295 1.887518,-40.61967 4.352169,-8.59947 19.745047,-21.64729 25.537852,-21.64729 3.655253,0 3.606758,-5.34679 -0.08216,-9.06536 -1.673608,-1.68704 -2.908691,-9.26677 -2.934136,-18.0068 -0.03779,-12.97616 0.948265,-16.5339 7.029368,-25.36212 7.991202,-11.60133 23.879244,-20.91636 35.675551,-20.91636 7.389868,0 7.71821,-0.38763 7.71821,-9.11153 0,-19.27415 9.26895,-34.32422 26.70564,-43.36201 8.60964,-4.46258 20.6246,-4.98273 37.42446,-1.62022 3.16809,0.63408 5.0899,-1.49813 7.42866,-8.24201 6.35903,-18.33652 20.72618,-27.57792 42.87407,-27.57792 11.62374,0 15.69303,1.1825 24.292,7.05907 l 10.32929,7.05908 5.86827,-6.84085 c 19.44062,-22.6626 58.30176,-19.26968 72.30134,6.31256 5.1395,9.3917 5.76503,9.78628 10.5924,6.68156 10.94167,-7.03712 24.15133,-9.31849 35.46605,-6.12514 16.88616,4.76578 34.21529,25.31042 34.21529,40.56412 0,3.81155 1.84637,4.44334 12.9856,4.44334 7.14205,0 16.38458,1.47018 20.53895,3.26709 18.67176,8.07614 31.00271,32.14494 26.0504,50.84775 l -2.42686,9.16521 12.35725,3.92655 c 27.0198,8.5856 38.77475,38.03872 25.62846,64.21437 l -5.80048,11.54939 8.2159,6.82663 c 22.8765,19.00808 23.2721,48.7207 0.93667,70.3528 l -9.63358,9.33025 5.29186,7.49139 c 16.19308,22.92362 1.77895,60.32771 -26.07222,67.65643 l -8.21557,2.16184 0.77334,13.24395 c 1.7448,29.8814 -20.01001,52.87209 -48.36667,51.11428 l -10.60172,-0.65708 -3.27781,12.91092 c -4.29975,16.9359 -14.26253,27.3264 -30.86749,32.1924 -10.59706,3.1053 -14.33428,3.221 -23.50731,0.7273 -5.99885,-1.6307 -12.53477,-4.3636 -14.52421,-6.0734 -3.104,-2.6676 -4.25158,-1.9213 -8.08868,5.2609 -3.94367,7.3819 -14.68742,17.4965 -18.58468,17.4965 -0.76898,0 -1.39813,-12.555 -1.39813,-27.8997 z"
       style="fill:#000000"
       id="path4294" />
  </g>
</svg>
