<?xml version="1.0" encoding="UTF-8" standalone="no"?>
<svg
   xmlns:dc="http://purl.org/dc/elements/1.1/"
   xmlns:cc="http://creativecommons.org/ns#"
   xmlns:rdf="http://www.w3.org/1999/02/22-rdf-syntax-ns#"
   xmlns:svg="http://www.w3.org/2000/svg"
   xmlns="http://www.w3.org/2000/svg"
   version="1.1"
   id="svg2"
   viewBox="0 0 600.00001 499.99998"
   height="500"
   width="600">
  <defs
     id="defs4" />
  <metadata
     id="metadata7">
    <rdf:RDF>
      <cc:Work
         rdf:about="">
        <dc:format>image/svg+xml</dc:format>
        <dc:type
           rdf:resource="http://purl.org/dc/dcmitype/StillImage" />
        <dc:title></dc:title>
      </cc:Work>
    </rdf:RDF>
  </metadata>
  <g
     transform="translate(0,-552.36228)"
     id="layer1">
    <path
       id="path4338"
       d="m 209.49709,552.36236 -20.09506,7.09088 c -56.03762,19.76414 -96.258153,65.70113 -107.858827,123.18756 -2.15537,10.68075 -3.91991,24.37311 -3.91991,30.43031 0,10.7355 -0.313621,11.16106 -12.441664,16.85868 -13.450449,6.31884 -29.782946,21.06272 -39.508174,35.66112 -6.059488,9.09584 -6.094396,9.48875 -5.332843,64.625 l 0.765338,55.47722 10.20452,12.21346 c 14.369195,17.20717 37.852574,32.46935 56.939259,37.00462 8.661496,2.05789 17.161251,3.84368 18.888181,3.96613 2.43996,0.17384 3.13985,-14.96758 3.13985,-67.92695 0,-55.53469 0.69446,-69.49851 3.7531,-75.4311 5.98632,-11.61119 13.15341,-15.14626 30.71659,-15.14626 15.06428,0 15.76795,-0.27638 15.76795,-6.18055 0,-3.39905 1.39323,-9.35126 3.09079,-13.22714 5.35737,-12.23203 19.67728,-36.02032 21.6846,-36.02032 1.05949,0 3.86242,4.07804 6.23065,9.05921 13.80896,29.04505 44.61303,51.0182 80.74326,57.59809 l 10.01809,1.82068 -13.99196,-14.71321 c -12.92891,-13.59742 -23.20828,-28.03093 -18.22096,-25.58822 36.98479,18.11458 61.5477,23.6925 93.72949,21.29235 18.4675,-1.37734 46.40068,-6.46755 57.43967,-10.46658 2.3254,-0.84235 0.37407,-4.60838 -6.37782,-12.30202 -11.62321,-13.24449 -20.0995,-28.27544 -17.44582,-30.93711 2.55047,-2.55816 25.74651,10.68042 37.02082,21.12993 4.95506,4.59257 12.86747,15.10907 17.58317,23.36893 l 8.57082,15.01832 15.07129,0.15243 c 16.14625,0.16603 21.71853,2.91224 29.29877,14.44257 4.1508,6.31381 4.58184,13.4326 4.59694,75.82476 l 0.015,68.85701 8.16362,-1.66813 c 19.32104,-3.94521 26.69789,-6.67908 40.87205,-15.16107 16.02923,-9.5923 31.37628,-25.15792 37.58991,-38.12157 C 579.17407,878.34204 580,866.47117 580,830.06817 c 0,-25.59925 -0.72805,-50.202 -1.61899,-54.67021 -2.07868,-10.42467 -24.76589,-35.15501 -39.38549,-42.93408 l -11.06799,-5.89021 -1.34426,-25.3766 C 524.32996,658.70923 509.45164,626.59709 478.17556,596.72824 457.54932,577.03006 443.99541,568.89562 415.8397,559.32026 l -20.46301,-6.95803 -92.93961,0 -92.93963,0 z m -70.33269,254.46495 -0.68684,41.04447 -0.69176,41.04449 8.64932,3.62663 c 9.25119,3.87703 47.27677,12.79323 61.80603,14.49178 4.83537,0.56526 19.2473,1.20533 32.0265,1.42704 26.68547,0.4631 24.94414,1.50621 44.5859,-26.69539 6.90768,-9.91804 13.28,-18.08309 14.15878,-18.14305 0.8788,-0.06 6.53054,6.80933 12.5594,15.26437 22.75823,31.91671 19.88421,29.98056 44.46815,29.95788 33.55131,-0.0292 83.81547,-9.1105 97.86528,-17.68045 l 8.16361,-4.97494 -0.69177,-39.68142 -0.69174,-39.68141 -160.76042,0 z m 172.80471,95.6015 c -0.61363,0.0658 -1.62868,0.52725 -3.13985,1.33846 -6.20307,3.32989 -21.67721,3.31376 -27.90545,-0.0295 -6.54204,-3.51169 -6.44735,1.01776 0.16201,7.64695 8.9982,9.02532 27.02768,5.69289 30.99136,-5.72783 0.81317,-2.34307 0.91475,-3.33765 -0.10802,-3.22805 z M 127.45372,914.6078 c -1.77242,0.22726 -2.10467,2.92786 -2.10467,10.68791 0,8.73142 2.13403,15.72946 7.95265,26.09526 19.51341,34.76293 50.04787,72.40283 69.86662,86.12403 4.80649,3.3275 14.41443,8.0164 21.35101,10.4222 10.58971,3.6726 22.27469,4.3799 72.89363,4.4237 66.89621,0.058 78.8379,-1.7238 97.08518,-14.5113 30.86008,-29.1856 75.38527,-66.75482 78.40802,-105.71886 1.06084,-18.18331 0.7025,-18.44546 -16.79331,-12.32162 -8.5365,2.98805 -16.08783,5.99955 -16.77859,6.6924 -7.90297,2.29505 -11.08375,5.91011 -14.55123,12.59728 -7.17682,14.11726 -29.21515,41.51255 -40.08221,49.82801 l -8.1636,6.24951 0,-23.11323 c 0,-21.1798 -0.51195,-23.63148 -6.16196,-29.29849 l -6.16686,-6.18526 -67.49701,0 -67.49701,0 -6.08837,6.5002 c -5.9722,6.37623 -6.65621,10.23578 -7.23638,40.88722 -0.0605,3.19946 -1.14624,5.17496 -2.41376,4.38914 -3.55996,-2.20679 -28.85774,-36.65555 -35.54902,-48.41082 -5.36706,-9.42881 -7.89097,-11.13599 -24.87842,-16.79469 -10.39828,-3.46389 -20.8859,-7.08148 -23.30359,-8.04066 -0.9531,-0.37812 -1.7003,-0.57764 -2.29112,-0.50193 z m 120.97755,52.09666 48.35372,0.68404 48.3537,0.68403 0,20.15564 0,20.15563 -13.18738,0.7626 -13.18735,0.7627 0,-9.94002 c 0,-11.96741 -1.9664,-13.00064 -24.81956,-13.00064 -19.14516,0 -22.9062,2.35972 -22.9062,14.36366 0,8.1741 -0.1904,8.3114 -11.30347,8.3114 l -11.30346,0 0,-21.4695 z"
       style="fill:#000000" />
  </g>
</svg>
