<?xml version="1.0" encoding="UTF-8" standalone="no"?>
<svg
   xmlns:dc="http://purl.org/dc/elements/1.1/"
   xmlns:cc="http://creativecommons.org/ns#"
   xmlns:rdf="http://www.w3.org/1999/02/22-rdf-syntax-ns#"
   xmlns:svg="http://www.w3.org/2000/svg"
   xmlns="http://www.w3.org/2000/svg"
   version="1.1"
   id="svg4360"
   viewBox="0 0 570.00001 500.00001"
   height="500"
   width="570">
  <defs
     id="defs4362" />
  <metadata
     id="metadata4365">
    <rdf:RDF>
      <cc:Work
         rdf:about="">
        <dc:format>image/svg+xml</dc:format>
        <dc:type
           rdf:resource="http://purl.org/dc/dcmitype/StillImage" />
        <dc:title></dc:title>
      </cc:Work>
    </rdf:RDF>
  </metadata>
  <g
     transform="translate(0,-552.36216)"
     id="layer1">
    <path
       d="m 259.94029,965.68442 c 9.30882,-3.5229 18.3848,-11.73983 28.81019,-8.47354 7.02205,2.94989 19.33495,-0.89011 21.9449,8.92296 -3.15394,8.37958 -12.24535,0.47706 -17.73815,-0.17519 -8.32949,-2.34943 -16.26285,1.73447 -24.28794,3.28896 -3.24074,0.39927 -6.64501,-0.76035 -8.729,-3.56319 z m 16.33988,-92.24718 c -2.72713,-8.79697 11.82048,-13.49001 11.48465,-2.91811 9.90289,4.62866 6.7733,-13.77359 4.54276,-19.27588 -4.54389,-11.67369 -16.55202,-5.28994 -17.88348,4.79425 -2.17981,4.93673 -4.99634,15.26349 1.85607,17.39974 z M 382.591,552.37933 c -1.73261,-0.0238 -3.46019,-0.0238 -5.17634,0.006 -21.48935,0.36856 -41.59195,5.0487 -57.88411,14.69349 -13.70433,8.11286 -54.28648,13.30883 -90.1835,11.55109 -105.6109,-5.17139 -176.288545,46.1747 -203.290685,147.67941 -14.338854,53.90149 -3.497013,64.41503 35.521743,34.46127 l 33.438278,-25.66844 -11.426751,32.40126 c -13.832012,39.22251 -15.271481,178.3757 -1.84599,178.3757 5.267112,0 16.326777,-15.21965 24.580775,-33.82116 l 15.01079,-33.82114 7.86973,38.24374 c 10.77301,52.34542 38.65906,92.26735 82.72936,118.43805 46.00649,27.3206 124.14435,21.8751 166.68943,-11.6151 16.53757,-13.0177 39.89247,-45.01395 51.90354,-71.10476 21.4877,-46.67524 22.00265,-46.96031 32.11046,-17.65542 9.54017,27.65945 11.11603,28.17411 22.04932,7.22162 6.47478,-12.40886 9.87611,-44.01202 7.55664,-70.23184 l -4.22093,-47.67084 23.81434,24.11473 c 36.08796,36.55033 43.25062,29.62787 35.16548,-33.96662 -4.76358,-37.46885 -19.46606,-74.28735 -41.43211,-103.75621 l -34.04826,-45.68065 39.88305,6.97722 c 45.70333,7.99592 49.9236,-3.75283 17.37497,-48.3633 C 497.31082,580.05567 436.30108,553.16194 382.591,552.37948 Z M 197.24199,675.7404 c 4.82827,-0.33417 13.52094,5.42178 23.22057,18.02205 8.19209,10.6417 33.07415,18.44681 58.80171,18.44681 57.57045,0 118.32275,27.63913 135.11871,61.47395 10.08044,20.3064 9.96695,41.35074 -0.47499,88.27715 -12.90924,58.01519 -15.46197,61.15124 -43.68837,53.6646 -56.11097,-14.88253 -137.2627,-18.48308 -144.19212,-6.39528 -13.7444,23.97551 -51.70222,12.2091 -62.8823,-19.4943 -21.02727,-59.62517 -13.65047,-112.10732 19.73909,-140.42293 26.55976,-22.52354 28.93211,-29.51613 17.01335,-50.09161 -8.6351,-14.90678 -8.12754,-23.1017 -2.65565,-23.48044 z m 139.43682,110.36097 c -10.57126,0.18949 -21.84734,4.31314 -31.67327,13.10483 -13.35943,11.95351 -22.56923,11.81324 -44.23351,-0.68667 -36.35909,-20.97868 -91.39396,-31.06434 -91.39396,7.27579 0,24.58122 33.97678,53.9945 55.39181,53.9945 14.91722,0 33.61971,-8.43833 41.5617,-18.75528 12.91395,-16.77566 16.57993,-16.67606 34.67973,0.98345 30.61332,29.86857 103.14409,-1.09583 103.14409,-38.93544 0,-23.18095 -47.29469,-17.34303 -67.47659,-16.98118 z m -50.51098,156.16386 c 35.28349,0.30054 63.06594,22.92267 35.57575,41.69452 -2.67877,1.8292 -5.54997,3.3688 -8.52287,4.7135 -5.93949,-6.2788 -16.69347,-10.1294 -28.31053,-10.137 -11.14446,0.01 -21.5295,3.5531 -27.60883,9.4271 -5.53254,-2.8472 -10.34879,-6.5669 -13.92587,-11.2136 -11.6673,-15.1562 -9.51778,-20.15416 12.43613,-28.90974 10.00665,-3.99079 20.47669,-5.65891 30.35622,-5.57478 z"
       style="fill:#000000;fill-rule:evenodd;stroke:none;stroke-width:1px;stroke-linecap:butt;stroke-linejoin:miter;stroke-opacity:1"
       id="path4306" />
  </g>
</svg>
