<?xml version="1.0" encoding="UTF-8" standalone="no"?>
<svg
   xmlns:dc="http://purl.org/dc/elements/1.1/"
   xmlns:cc="http://creativecommons.org/ns#"
   xmlns:rdf="http://www.w3.org/1999/02/22-rdf-syntax-ns#"
   xmlns:svg="http://www.w3.org/2000/svg"
   xmlns="http://www.w3.org/2000/svg"
   version="1.1"
   id="svg2"
   viewBox="0 0 425.00001 499.99998"
   height="500"
   width="425">
  <defs
     id="defs4" />
  <metadata
     id="metadata7">
    <rdf:RDF>
      <cc:Work
         rdf:about="">
        <dc:format>image/svg+xml</dc:format>
        <dc:type
           rdf:resource="http://purl.org/dc/dcmitype/StillImage" />
        <dc:title></dc:title>
      </cc:Work>
    </rdf:RDF>
  </metadata>
  <g
     transform="translate(0,-552.36228)"
     id="layer1">
    <path
       d="m 215.39761,552.365 c -1.40686,0.0783 -5.26289,1.81873 -12.02378,5.2494 -15.37499,7.80177 -25.958,17.7574 -32.88004,30.92772 -5.37947,10.23534 -5.94869,13.60653 -5.96201,35.29573 -0.0111,18.88234 -0.72507,24.42563 -3.34742,26.08643 -8.15948,5.16761 -14.14138,0.63235 -12.92566,-9.79544 0.51532,-4.42011 0.0178,-8.03694 -1.10134,-8.03694 -1.1195,0 -5.75795,3.75144 -10.31108,8.33654 -9.05896,9.12254 -17.84272,29.56655 -17.84272,41.53509 0,6.4759 1.39799,8.36267 10.54521,14.22424 13.90544,8.91067 29.25892,15.4178 48.2859,20.46361 40.33549,10.6967 96.44963,-1.40607 126.29087,-27.23707 7.57432,-6.55643 8.41167,-8.24544 7.08507,-14.2937 -0.82746,-3.77257 -6.05193,-14.51662 -11.61187,-23.87205 -8.41593,-14.16101 -9.96812,-18.48896 -9.26607,-25.86065 0.99355,-10.43277 -0.80526,-11.02584 -8.4379,-2.77885 -4.81368,5.20119 -5.45401,7.52201 -4.43139,16.11733 2.80021,23.53626 2.88285,22.89095 -3.18698,24.54939 -8.21544,2.24468 -20.27065,-2.42732 -24.14295,-9.3569 -3.53422,-6.32459 -2.51849,-9.64734 8.12136,-26.57708 3.55182,-5.65153 3.42396,-6.39844 -3.51218,-20.50703 -4.69315,-9.54619 -10.653,-17.47925 -17.13159,-22.79525 -5.46483,-4.48413 -10.38303,-7.70437 -10.92678,-7.15987 -0.54376,0.5445 0.67558,6.19125 2.70568,12.54823 5.20182,16.28874 2.51166,23.51586 -9.10997,24.47559 -13.31814,1.09984 -19.13487,-5.67105 -19.13487,-22.2829 0,-14.1641 4.18682,-26.63128 11.59453,-34.52719 3.02338,-3.22264 4.06484,-4.80669 2.65798,-4.72838 z m 134.49026,155.31157 c -16.68977,0 -23.61602,2.84974 -43.2908,17.80199 -32.47897,24.68302 -63.83681,34.67649 -102.12191,32.54725 -33.58314,-1.86774 -61.47805,-12.08537 -83.79355,-30.69325 -18.82661,-15.69864 -27.662427,-19.59992 -44.483214,-19.62994 -17.322628,-0.0309 -26.303451,3.13021 -37.914134,13.33848 -17.47055,15.36029 -23.616512,45.92315 -13.181496,65.55476 13.838006,26.03376 61.389984,57.24232 109.996094,72.18928 l 17.20533,5.29284 0,40.31935 0,40.31936 6.10511,5.65751 c 3.35782,3.11186 11.84947,9.03303 18.87036,13.1604 l 12.76523,7.50734 0,39.12526 c 0,21.519 0.6689,39.7909 1.48292,40.6059 2.73527,2.7391 52.94203,1.6724 55.79591,-1.1853 1.86588,-1.8683 2.66229,-14.1448 2.66229,-40.9707 l 0,-38.30033 16.41619,-10.24706 c 11.01831,-6.87665 17.31552,-12.41945 19.15219,-16.8596 1.92952,-4.66469 2.48906,-17.88316 1.89917,-44.83074 l -0.83687,-38.2135 15.57932,-5.77914 c 47.64926,-17.68005 86.94931,-45.99545 98.29755,-70.81721 9.75588,-21.33878 3.2739,-47.83252 -15.59665,-63.7659 -10.56614,-8.92155 -19.81413,-12.12705 -35.00904,-12.12705 z m -96.31596,159.67958 -4.8043,24.44084 c -2.64358,13.44284 -5.4199,26.03296 -6.16583,27.97951 -1.10742,2.88985 -5.18786,3.5387 -22.24378,3.5387 -14.03056,0 -21.62568,-0.91231 -23.13697,-2.77885 -2.0077,-2.4796 -7.00923,-23.52569 -10.3024,-43.35003 l -1.20107,-7.22501 27.41664,0 c 15.07965,0 30.34887,-0.58551 33.92935,-1.30259 l 6.50836,-1.30257 z"
       style="fill:#000000"
       id="path4392" />
  </g>
</svg>
