<?xml version="1.0" encoding="UTF-8" standalone="no"?>
<svg
   xmlns:dc="http://purl.org/dc/elements/1.1/"
   xmlns:cc="http://creativecommons.org/ns#"
   xmlns:rdf="http://www.w3.org/1999/02/22-rdf-syntax-ns#"
   xmlns:svg="http://www.w3.org/2000/svg"
   xmlns="http://www.w3.org/2000/svg"
   width="540"
   height="500"
   viewBox="0 0 540.00001 500.00001"
   id="svg2"
   version="1.1">
  <defs
     id="defs4" />
  <metadata
     id="metadata7">
    <rdf:RDF>
      <cc:Work
         rdf:about="">
        <dc:format>image/svg+xml</dc:format>
        <dc:type
           rdf:resource="http://purl.org/dc/dcmitype/StillImage" />
        <dc:title></dc:title>
      </cc:Work>
    </rdf:RDF>
  </metadata>
  <g
     id="layer1"
     transform="translate(20,-552.36216)">
    <path
       style="fill:#000000"
       d="m 259.86719,65.490234 c -37.84118,-0.295719 -72.80002,7.798897 -105.50977,24.371094 -13.61174,6.89631 -23.52178,13.096562 -35.45898,22.183592 -7.67615,5.84334 -22.376673,19.21121 -21.781252,19.80664 0.16673,0.16673 16.160162,2.95257 35.539062,6.19141 19.3789,3.23886 38.27889,6.82716 42,7.97461 21.9633,6.7726 39.41828,22.70977 47.91602,43.74804 5.6812,14.06523 5.77539,15.01196 5.77539,57.83594 0,38.69497 -0.0494,39.71779 -2.17969,44.97266 -3.03694,7.49125 -7.18129,12.12183 -13.72656,15.33594 l -5.60157,2.75 -100.39453,0.26562 c -94.131202,0.24994 -100.425365,0.37171 -100.898435,1.95508 -2.09519,7.01269 -6.33176525,56.23093 -5.11328125,59.40625 0.480123,1.25119 30.86067625,1.43164 241.49999625,1.43164 l 240.95118,0 2.9082,-7.57813 C 495.74849,340.21649 499.9649,317.08145 500,288.17383 500.04306,252.68292 493.21263,223.00804 477.72266,191.38672 459.17388,153.52112 430.3607,122.3936 393.08203,99.947266 367.55845,84.578946 342.84264,76.024157 305.65039,69.685547 289.92227,67.005032 274.6746,65.60595 259.86719,65.490234 Z M 80.419922,150.49023 77.867188,153.3418 c -7.58243,8.46764 -31.896671,47.53213 -41.619141,66.86914 -9.49886,18.89231 -22.692932,53.69833 -24.982422,65.90234 l -0.662109,3.52734 96.255864,0 c 91.26674,0 96.33751,-0.0899 97.83984,-1.75 3.21115,-3.54827 3.78077,-10.98829 3.36523,-43.95507 -0.33041,-26.21339 -0.70267,-33.08236 -2.05664,-37.88477 -5.22384,-18.52848 -18.26259,-33.01078 -35.27929,-39.1875 -3.63504,-1.31944 -23.37928,-5.12744 -48.23243,-9.30273 L 80.419922,150.49023 Z M 0,394.24805 l 0.49414062,4.64453 c 0.271953,2.5541 0.76230178,9.9225 1.08984378,16.375 0.766059,15.0914 2.0893312,18.00932 9.2382816,20.38672 0.80657,0.2679 97.812434,0.4104 215.570314,0.3164 190.074,-0.1525 214.34087,-0.33921 216.20703,-1.66211 6.65873,-4.7203 26.19247,-30.44426 29.33398,-38.63086 0.48035,-1.2518 -28.82099,-1.42968 -235.69336,-1.42968 L 0,394.24805 Z"
       transform="translate(0,552.36216)"
       id="path4497" />
  </g>
</svg>
