<?xml version="1.0" encoding="UTF-8" standalone="no"?>
<svg
   xmlns:dc="http://purl.org/dc/elements/1.1/"
   xmlns:cc="http://creativecommons.org/ns#"
   xmlns:rdf="http://www.w3.org/1999/02/22-rdf-syntax-ns#"
   xmlns:svg="http://www.w3.org/2000/svg"
   xmlns="http://www.w3.org/2000/svg"
   version="1.1"
   id="svg2"
   viewBox="0 0 460.00001 500.00001"
   height="500"
   width="460">
  <defs
     id="defs4" />
  <metadata
     id="metadata7">
    <rdf:RDF>
      <cc:Work
         rdf:about="">
        <dc:format>image/svg+xml</dc:format>
        <dc:type
           rdf:resource="http://purl.org/dc/dcmitype/StillImage" />
        <dc:title></dc:title>
      </cc:Work>
    </rdf:RDF>
  </metadata>
  <g
     transform="translate(0,-552.36216)"
     id="layer1">
    <path
       id="path4158"
       d="m 113.41865,1049.6769 c -17.668258,-17.2 -11.92178,-48.5338 -19.150153,-71.64853 -4.311219,-26.3219 -8.442765,-52.67473 -12.905088,-78.97105 23.906061,0 47.812121,0 71.718181,0 16.23856,30.74643 49.29055,54.48669 85.20056,49.95726 30.32581,-2.31349 54.87748,-24.33965 69.13356,-49.95726 23.90606,0 47.81211,0 71.71817,0 -8.68721,48.42294 -14.45313,97.45222 -25.04804,145.47928 -10.54857,12.3096 -27.03441,6.5094 -40.97421,7.8256 -64.81922,0 -129.63845,0 -194.45767,0 -1.7451,-0.8951 -3.49021,-1.7902 -5.23531,-2.6853 z M 219.87962,913.29435 c -45.11182,-12.60496 -55.84175,-77.12823 -25.73995,-109.62618 18.38,-23.70011 57.95089,-21.88713 74.60308,2.86675 27.59828,33.52231 15.30128,95.92361 -29.53785,107.06675 -6.35705,1.35488 -13.0149,1.25344 -19.32528,-0.30732 z M 65.399692,799.21385 c -4.543498,-30.86713 -7.874648,-61.91998 -13.09563,-92.68174 -28.795685,5.89449 -38.21363,-22.46073 -30.939329,-45.79893 2.407072,-28.97431 15.949954,-64.17358 48.441004,-69.19247 8.675749,-8.60232 10.106502,-29.39408 26.376998,-34.03522 22.184275,-8.79341 47.180685,-2.92374 70.513985,-4.99025 61.92371,-0.032 123.88072,-0.75606 185.78124,0.96489 18.2546,3.1113 32.7214,19.05363 35.07139,37.26017 22.66199,2.75943 39.98921,20.97513 45.76969,42.5075 4.88085,21.35228 13.34772,48.85656 0.57595,68.25737 -13.13787,6.79301 -32.31873,-0.14419 -28.44512,21.83707 -3.77943,26.32801 -6.8783,52.75558 -10.9092,79.04517 -29.08288,0 -58.16575,0 -87.24863,0 -17.92118,-38.68455 -66.16558,-62.82186 -106.72953,-45.07197 -21.92168,7.41547 -36.38334,28.25804 -48.70535,45.07197 -28.63351,0 -57.267028,0 -85.900544,0 -0.185636,-1.05785 -0.371303,-2.1157 -0.556924,-3.17356 z M 401.23659,662.50887 c 0.74658,-24.52522 -16.66215,-37.10653 -39.32141,-36.19231 -14.67711,-12.43561 -6.37411,-44.96383 -35.27859,-35.61108 -70.66299,-0.0411 -141.36569,-1.00848 -212.00418,0.71757 -6.17644,18.7224 -12.92003,44.44058 -40.400363,38.68984 -9.464357,4.34591 -22.640764,35.71134 -10.350165,37.52242 112.652488,0 225.304978,0 337.957468,0 -0.20092,-1.70881 -0.40184,-3.41763 -0.60276,-5.12644 z"
       style="fill:#000000" />
  </g>
</svg>
