<?xml version="1.0" encoding="UTF-8" standalone="no"?>
<svg
   xmlns:dc="http://purl.org/dc/elements/1.1/"
   xmlns:cc="http://creativecommons.org/ns#"
   xmlns:rdf="http://www.w3.org/1999/02/22-rdf-syntax-ns#"
   xmlns:svg="http://www.w3.org/2000/svg"
   xmlns="http://www.w3.org/2000/svg"
   viewBox="0 0 470 500"
   height="500"
   width="470"
   version="1.1"
   id="svg4330">
  <metadata
     id="metadata4336">
    <rdf:RDF>
      <cc:Work
         rdf:about="">
        <dc:format>image/svg+xml</dc:format>
        <dc:type
           rdf:resource="http://purl.org/dc/dcmitype/StillImage" />
        <dc:title></dc:title>
      </cc:Work>
    </rdf:RDF>
  </metadata>
  <defs
     id="defs4334" />
  <path
     id="path5273"
     d="M 233.60301,0.00470377 C 180.12653,0.33789877 147.71808,12.220423 112.2623,44.482595 97.285465,58.110325 80.300595,67.40049 70.378125,67.40049 c -43.757661,0 -56.375309,24.319413 -47.900323,92.29933 7.860293,63.04917 9.840653,68.33038 28.936073,77.09327 13.76616,6.31732 16.16605,11.84395 16.16605,37.36811 0,23.31596 3.64672,33.64946 16.49677,46.59165 10.22169,10.29513 17.329245,25.78311 18.658965,40.68596 3.54987,39.78516 18.06896,79.30868 30.615,83.31922 6.4336,2.05662 13.50807,9.47788 15.72085,16.49983 2.21278,7.02195 11.89715,14.68765 21.50813,17.03792 9.61097,2.35034 23.24474,8.25772 30.30976,13.1307 17.21372,11.87288 58.46419,11.28926 68.56891,-0.97361 4.45885,-5.41114 14.03335,-9.83843 21.29186,-9.83843 31.45448,0 76.10654,-73.65309 76.31493,-125.88832 0.039,-10.55696 5.67441,-21.61522 14.00378,-27.49119 9.4511,-6.66737 15.62786,-20.62154 19.19323,-43.33775 3.89281,-24.80267 10.42871,-38.35616 25.14578,-52.20263 10.93276,-10.28601 20.11465,-22.67685 20.41421,-27.54248 C 452.40724,97.157663 452.36582,96.446743 437.1985,82.580921 429.11086,75.187212 411.2329,67.406852 397.47665,65.299592 382.44126,62.996416 366.1851,54.648838 356.72443,44.367288 330.60488,15.981523 285.36028,-0.31799723 233.60301,0.00470377 Z m 1.23381,26.40233823 c 56.47984,0 96.27198,20.55359 117.80478,60.836834 13.80816,25.832104 15.27868,35.198744 12.24855,78.118164 -2.70751,38.34881 -1.38899,50.28407 6.15605,55.84075 7.48852,5.51503 8.62875,15.33174 5.20215,44.69564 -3.58758,30.74371 -6.61289,37.62432 -16.52218,37.62432 -8.22831,0 -12.12723,4.74507 -12.14677,14.75764 -0.026,14.04796 -22.08947,57.39082 -29.21591,57.39082 -1.85643,0 -14.31142,-5.90305 -27.67687,-13.1179 -35.85648,-19.35593 -86.26129,-17.86954 -111.21632,3.27948 -10.64161,9.01855 -20.66981,16.39737 -22.28393,16.39737 -8.23423,0 -24.29431,-26.29903 -32.03954,-52.47161 -5.31291,-17.95336 -12.55188,-29.51528 -18.49369,-29.51528 -13.902515,0 -17.742565,-68.84669 -4.38812,-78.68177 7.63909,-5.62595 8.23612,-13.86097 3.15439,-43.56837 C 89.865985,87.06908 141.65306,26.407042 234.83682,26.407042 Z M 162.14685,205.85589 c -12.05207,-0.0964 -23.7228,2.58823 -32.5738,8.42924 -12.7636,8.42313 -16.4077,16.36019 -16.4077,35.6643 0,25.59296 8.99596,42.64243 26.04883,49.35866 21.48547,8.46204 61.64546,-1.34478 75.09388,-18.33174 15.79784,-19.95463 33.15346,-21.79507 38.72986,-4.09935 5.1367,16.30051 43.56373,29.12568 71.46892,23.85307 43.2182,-8.16596 47.31379,-79.2055 5.26572,-91.3513 -30.92908,-8.93402 -66.078,0.0459 -74.68688,19.07474 -9.34651,20.66057 -24.03434,20.38011 -40.77762,-0.76864 -10.92221,-13.7961 -32.07451,-21.66875 -52.16121,-21.82898 z m -4.71881,18.08834 c 16.74379,-0.25252 36.11495,5.14169 43.19423,15.32132 8.55105,12.296 8.73306,16.45693 1.2465,27.87554 -10.36339,15.80622 -54.96511,21.8362 -67.57691,9.13387 -8.80137,-8.86456 -10.40436,-24.69163 -4.15914,-41.08318 2.83273,-7.43496 14.27234,-11.0513 27.29532,-11.24755 z m 141.01721,1.76784 c 3.4716,-0.0669 7.2197,0.0527 11.23102,0.34591 l 28.16021,2.03682 0,26.23581 c 0,25.96774 -0.26634,26.25797 -26.04882,27.84996 -32.16724,1.98625 -48.84155,-7.36563 -48.84155,-27.37595 0,-19.31165 11.19839,-28.62444 35.49914,-29.09255 z m 6.56313,14.88573 c -7.12259,0.23613 -16.01344,7.0171 -16.01344,14.43737 0,5.02514 5.86098,9.13387 13.02441,9.13387 12.25975,0 17.69562,-12.76877 9.11963,-21.40626 -1.58429,-1.59573 -3.75644,-2.24355 -6.1306,-2.16498 z m -135.24277,0.42279 c -7.14031,0.66377 -17.42666,11.46433 -13.82574,17.33249 5.54912,9.04309 22.34755,6.83732 22.34755,-2.93355 0,-4.80995 -1.92963,-10.68021 -4.28633,-13.05389 -1.10422,-1.11214 -2.5877,-1.49826 -4.23548,-1.34505 z m 63.03614,128.19419 c 18.67487,0.13511 32.82706,9.89136 27.33343,18.84413 -4.80562,7.83145 -44.31908,10.11462 -51.41082,2.97206 -7.08625,-7.13713 9.23465,-21.92376 24.07739,-21.81619 z"
     style="fill:#000000" />
</svg>
