<?xml version="1.0" encoding="UTF-8" standalone="no"?>
<svg
   xmlns:dc="http://purl.org/dc/elements/1.1/"
   xmlns:cc="http://creativecommons.org/ns#"
   xmlns:rdf="http://www.w3.org/1999/02/22-rdf-syntax-ns#"
   xmlns:svg="http://www.w3.org/2000/svg"
   xmlns="http://www.w3.org/2000/svg"
   version="1.1"
   id="svg2"
   viewBox="0 0 490.00001 499.99998"
   height="500"
   width="490">
  <defs
     id="defs4" />
  <metadata
     id="metadata7">
    <rdf:RDF>
      <cc:Work
         rdf:about="">
        <dc:format>image/svg+xml</dc:format>
        <dc:type
           rdf:resource="http://purl.org/dc/dcmitype/StillImage" />
        <dc:title></dc:title>
      </cc:Work>
    </rdf:RDF>
  </metadata>
  <g
     transform="translate(0,-552.36224)"
     id="layer1">
    <path
       d="m 221.41578,862.51688 c -2.11311,3.08938 -2.36515,7.62652 1.76211,10.00547 8.30128,-7.38869 12.06621,11 16.80877,-2.02344 2.3491,-3.89047 12.45292,7.78649 11.70561,-2.56751 -3.94185,-11.69231 -17.61993,-8.00609 -30.27649,-5.41452 z m 9.81306,99.06836 c -19.88823,-2.24375 -38.87291,-12.81577 -53.22405,-29.63814 -3.77995,-4.43109 -3.73165,-4.25504 -1.24298,-4.52134 7.65718,-0.81937 11.32457,-2.24612 22.47827,-8.74518 11.33238,-6.6028 14.2096,-7.79772 19.16798,-7.96049 4.62299,-0.15165 9.3648,0.60329 15.22724,2.42463 l 4.61757,1.43459 3.96345,-1.15069 c 8.17327,-2.37286 16.38255,-3.13288 21.00672,-1.94486 4.69481,1.2062 7.50193,2.51821 21.58969,10.09045 7.10793,3.82057 15.66721,6.68875 19.96153,6.68875 l 1.41483,0 -1.70573,2.07453 c -9.81096,11.93292 -21.27837,20.30868 -35.24802,25.7449 -10.30297,4.00947 -17.4201,5.36879 -28.988,5.53644 -4.25162,0.0603 -8.30992,0.0472 -9.0185,-0.0341 z m 12.15196,-18.72845 c 4.41876,-0.42844 10.527,-1.64372 15.91886,-3.16754 4.49264,-1.26959 21.50634,-7.68653 23.24868,-8.76852 l 1.07363,-0.66667 -4.07979,0.16529 c -2.24386,0.0918 -9.68415,0.32428 -16.53388,0.51712 -10.25816,0.28834 -13.36196,0.49325 -17.60275,1.16123 -6.45449,1.01641 -8.20686,1.01431 -12.65858,-0.0262 -1.96457,-0.45468 -5.0424,-0.98203 -6.83958,-1.17251 -4.30475,-0.45573 -29.68167,-0.84613 -29.67008,-0.45625 0.0146,0.45835 19.03796,8.21441 23.39632,9.53857 8.9458,2.71784 16.21032,3.59362 23.74717,2.86319 z M 212.18588,552.38132 c -24.75725,-0.36787 -49.72541,4.57308 -74.38678,14.88106 -49.179393,20.55599 -86.618616,59.3647 -101.499468,105.21274 -12.322452,37.96592 -12.22186,55.0661 1.458909,250.63105 3.544063,50.66439 2.119251,69.64917 -6.625128,88.36893 L 20,1035.3137 l 40.889287,7.5223 c 22.489563,4.1372 44.129823,8.4243 48.092213,9.5262 98.11265,-11.5997 61.01357,-21.7853 66.43625,-33.8572 36.14004,15.0941 62.12779,30.2095 124.00983,-0.7958 18.0878,-13.4263 -7.30755,43.5162 65.30211,32.839 13.8682,-0.8863 40.54193,-4.7911 59.2714,-8.6754 l 34.05247,-7.0613 -10.6414,-18.4322 C 431.92613,989.55684 434.31359,958.37861 458.47691,871.87819 470.31282,829.50686 480,784.30128 480,771.4208 c 0,-28.71052 -17.96955,-84.6155 -35.49992,-110.43441 -16.87742,-24.85779 -56.48514,-50.83336 -77.5048,-50.83336 -9.10175,0 -31.23842,-10.04404 -49.19644,-22.3216 -33.69132,-23.03429 -69.42927,-34.91232 -105.61296,-35.45011 z m 107.58105,124.16251 c 6.49373,-0.0236 8.89685,3.54721 11.44237,12.6315 2.38615,8.51515 16.0678,29.23719 30.40232,46.05234 23.14279,27.1475 25.79038,34.11063 23.59989,62.1325 -1.55835,19.93643 0.0527,29.29614 4.37671,25.41667 12.69886,-11.39436 14.7758,-6.28686 12.24904,30.11056 -1.93975,27.94596 -5.41654,36.94833 -15.14399,39.22677 -6.94374,1.6264 -17.62086,12.17085 -23.72571,23.42852 -18.81219,34.68947 -55.17005,75.12212 -79.50152,88.40991 -32.30224,17.6409 -68.99836,16.2924 -99.23959,-3.6432 -26.36788,-17.38228 -78.84356,-82.08481 -78.84356,-97.21381 0,-4.9654 -6.061659,-9.02906 -13.467667,-9.02906 -13.837455,0 -22.294095,-25.19209 -22.472778,-66.92888 -0.06415,-15.01968 1.799816,-17.13673 9.846155,-11.15566 8.195146,6.09182 10.470906,0.87717 13.032822,-29.85947 3.917864,-46.99888 17.129508,-71.40335 49.081998,-90.6904 22.30883,-13.46597 32.26803,-15.03169 86.44703,-13.55384 33.67956,0.91867 69.73994,-0.54821 80.13084,-3.25908 5.03871,-1.31458 8.83397,-2.0649 11.78564,-2.07537 z M 155.3059,758.83032 c -13.33274,-0.0947 -26.24614,2.54492 -36.03772,8.29118 -14.11983,8.28661 -18.15903,16.09521 -18.15903,35.08629 0,25.17819 9.95295,41.94588 28.81761,48.55303 23.76876,8.32486 68.19989,-1.31587 83.07724,-18.02741 17.47645,-19.63125 36.68265,-21.43672 42.85163,-4.02771 5.68245,16.03637 48.18483,28.65149 79.05527,23.46431 47.81052,-8.03366 52.33967,-77.9267 5.82414,-89.87562 -34.21561,-8.78925 -73.10171,0.0383 -82.62526,18.76017 -10.33965,20.32573 -26.5833,20.0577 -45.10578,-0.74816 -12.08286,-13.57252 -35.47684,-21.31842 -57.6981,-21.47608 z"
       style="fill:#000000;fill-opacity:1;stroke:none;stroke-width:2.0999999;stroke-miterlimit:4;stroke-dasharray:none;stroke-opacity:1"
       id="path4786" />
  </g>
</svg>
