<?xml version="1.0" encoding="UTF-8" standalone="no"?>
<svg
   xmlns:dc="http://purl.org/dc/elements/1.1/"
   xmlns:cc="http://creativecommons.org/ns#"
   xmlns:rdf="http://www.w3.org/1999/02/22-rdf-syntax-ns#"
   xmlns:svg="http://www.w3.org/2000/svg"
   xmlns="http://www.w3.org/2000/svg"
   version="1.1"
   id="svg2"
   viewBox="0 0 425 499.99998"
   height="500"
   width="425">
  <defs
     id="defs4" />
  <metadata
     id="metadata7">
    <rdf:RDF>
      <cc:Work
         rdf:about="">
        <dc:format>image/svg+xml</dc:format>
        <dc:type
           rdf:resource="http://purl.org/dc/dcmitype/StillImage" />
        <dc:title></dc:title>
      </cc:Work>
    </rdf:RDF>
  </metadata>
  <g
     transform="translate(0,-552.36224)"
     id="layer1">
    <path
       id="path3347"
       d="m 100.09278,1050.3189 c 5.55396,-24.8721 40.34019,-25.145 58.39269,-39.2039 19.22561,-8.7521 39.73247,-25.32776 34.61795,-48.96629 -1.94977,-27.08927 6.9664,-57.9981 -9.81379,-81.72283 C 162.81807,848.75957 122.7089,841.00496 96.864202,815.45927 27.120211,756.45024 4.2128059,654.35859 30.706113,568.86166 c 6.593286,-28.72026 42.739136,-9.9934 62.983019,-15.54749 98.047138,-0.17564 196.099348,-0.67174 294.142138,0.54346 13.53695,27.23125 16.6107,58.62484 17.16091,88.60734 0.58265,70.0481 -31.431,140.74506 -88.41109,182.94413 -29.43313,19.84853 -68.59098,33.10578 -82.23171,69.01746 -5.41098,26.76589 -1.06389,54.28885 -2.60451,81.25537 6.89017,28.07597 38.62363,35.44017 60.78778,48.20347 12.64462,1.6704 50.27061,26.1385 19.06474,27.5317 -69.26257,1.3056 -138.6239,1.3377 -207.84432,-0.4029 -1.22009,-0.2318 -2.44019,-0.4635 -3.66029,-0.6953 z m 68.89063,-237.43458 c -15.59845,-19.1744 -34.35393,-36.23173 -44.14116,-59.47784 -13.05505,-23.42272 -19.82939,-49.50415 -25.405347,-75.42839 7.678657,-19.33329 41.626897,-3.75309 59.400747,-8.99016 68.34867,-0.24328 136.71748,0.74564 205.04627,-1.37267 5.51255,-23.02093 1.87776,-47.33561 -1.13089,-70.29643 -7.55888,-10.15621 -22.19927,-2.67709 -33.21541,-4.78874 -88.53455,0 -177.06909,0 -265.603633,0 -11.345331,50.38514 -5.269857,105.17162 21.02184,150.13484 15.125483,25.20886 35.509433,48.314 62.118913,61.9928 6.3918,1.74263 15.31586,11.19127 21.90867,8.22659 z"
       style="fill:#000000" />
  </g>
</svg>
