<?xml version="1.0" encoding="UTF-8" standalone="no"?>
<svg
   xmlns:dc="http://purl.org/dc/elements/1.1/"
   xmlns:cc="http://creativecommons.org/ns#"
   xmlns:rdf="http://www.w3.org/1999/02/22-rdf-syntax-ns#"
   xmlns:svg="http://www.w3.org/2000/svg"
   xmlns="http://www.w3.org/2000/svg"
   version="1.1"
   id="svg2"
   viewBox="0 0 515.00001 499.99998"
   height="500"
   width="515">
  <defs
     id="defs4" />
  <metadata
     id="metadata7">
    <rdf:RDF>
      <cc:Work
         rdf:about="">
        <dc:format>image/svg+xml</dc:format>
        <dc:type
           rdf:resource="http://purl.org/dc/dcmitype/StillImage" />
        <dc:title></dc:title>
      </cc:Work>
    </rdf:RDF>
  </metadata>
  <g
     transform="translate(0,-552.36228)"
     id="layer1">
    <path
       d="m 272.13446,552.36478 c -9.94977,0.11534 -19.03779,4.21085 -28.20586,12.52303 -8.61348,7.80909 -9.84798,8.25801 -13.6036,4.95489 -22.92775,-20.16619 -55.13977,-12.30207 -67.86393,16.56466 -3.97043,9.00791 -5.21995,10.10412 -9.10485,8.01773 -2.47563,-1.32962 -10.32266,-2.41656 -17.43967,-2.41656 -10.64396,0 -14.73285,1.30459 -23.03977,7.34334 -11.46949,8.33787 -19.15751,22.89303 -19.23636,36.41698 -0.04779,8.18503 -0.645706,9.00007 -6.626797,9.04803 -10.525691,0.0844 -25.693609,8.29477 -32.947285,17.83852 -8.493763,11.17514 -10.763578,30.54144 -4.951414,42.23358 2.130131,4.28515 3.600985,7.91927 3.26671,8.07393 -0.334035,0.15466 -4.60254,2.09805 -9.482846,4.32263 -4.941951,2.25269 -11.649726,8.25756 -15.138935,13.54865 -11.674026,17.70288 -10.099282,38.05661 4.204733,54.40534 3.939368,4.50271 5.988619,8.18635 4.554753,8.18635 -4.178784,0 -14.381264,18.08327 -16.025634,28.40392 -2.768812,17.37613 9.192656,39.23216 25.088475,45.83968 6.964322,2.8949 6.967523,2.9054 3.341402,11.61447 -4.876004,11.71117 -3.004476,29.18228 4.284084,39.99496 6.311783,9.36354 25.656263,20.41439 35.738007,20.41439 5.526155,0 6.212601,0.80615 5.208106,6.07873 -1.201859,6.30916 5.248412,26.37057 9.282161,28.87222 17.65433,13.26765 6.32288,7.64564 17.65433,13.26765 6.79587,3.01694 14.64201,9.99917 23.67913,21.0841 16.16032,19.8228 35.66391,35.4744 49.68693,39.8686 13.61086,4.2648 115.22937,4.7945 129.42778,0.6743 21.86424,-6.3447 56.51463,-36.9224 75.33075,-66.47397 6.9139,-10.85855 12.42202,-16.58384 18.74168,-19.49192 17.97625,-8.27154 24.06894,-17.82807 26.57253,-41.67615 1.43984,-13.71597 1.83355,-14.38633 11.54089,-19.52916 25.01082,-13.25079 33.16738,-36.61266 20.87905,-59.80515 -6.36626,-12.01574 -6.37276,-11.97311 4.0834,-18.00242 C 487.22449,820.9896 495,802.52128 495,791.39334 495,777.69947 490.25611,767.2833 479.82839,758.0954 l -8.71749,-7.68052 5.37141,-10.26569 c 7.63025,-14.5683 6.96899,-29.32339 -1.95534,-43.47934 -6.62577,-10.51029 -18.75729,-18.3396 -28.41588,-18.3396 -5.16129,0 -6.15585,-3.31269 -3.64007,-12.11559 7.0176,-24.55625 -17.30001,-52.00296 -44.1755,-49.85791 -10.56225,0.84303 -10.59904,0.82315 -12.09623,-8.06923 -1.64604,-9.77702 -12.15586,-24.55227 -22.18577,-31.19046 -8.33677,-5.51771 -31.3295,-5.71455 -41.65544,-0.35594 -5.6676,2.94125 -7.78581,3.17962 -8.5215,0.96474 -2.75423,-8.29184 -16.0415,-19.42289 -27.51052,-23.05096 -4.96991,-1.57216 -9.66897,-2.34251 -14.1916,-2.29012 z m 23.51577,192.35994 c 1.06007,-0.0753 1.54186,0.97985 2.16071,2.9364 0.8339,2.63656 4.76777,7.53831 8.74083,10.89325 5.71205,4.82344 9.82539,6.0976 19.65171,6.0976 7.06801,0 14.5865,-1.52104 17.43967,-3.52651 4.80838,-3.37985 5.08357,-3.11568 6.59413,6.36455 1.13591,7.12977 4.27249,12.59573 11.23753,19.58537 l 9.66019,9.69901 0,23.0744 c 0,24.39545 0.42445,26.00154 7.98014,30.16483 16.33619,9.00156 13.20462,42.74769 -4.96541,53.50616 -5.67071,3.35768 -8.71091,7.81742 -11.83956,17.35146 -2.31603,7.05689 -7.96753,18.75541 -12.55825,25.9966 l -8.34881,13.16478 -2.92607,-11.56759 c -3.59864,-14.22318 -9.54606,-22.50736 -20.32837,-28.31033 -7.25774,-3.90611 -14.11918,-4.43972 -57.11174,-4.43972 -43.80425,0 -49.87281,0.49057 -58.62844,4.74412 -5.3718,2.6096 -11.7259,8.07209 -14.11694,12.13424 -2.39106,4.06216 -5.05178,12.15842 -5.91744,17.99305 l -1.57738,10.60774 -5.97344,-8.75782 c -3.2854,-4.81675 -10.36678,-17.47535 -15.74096,-28.13225 -6.30964,-12.51204 -11.38826,-19.68003 -14.33628,-20.22698 -12.17412,-2.25875 -21.08689,-17.94096 -19.51635,-34.34228 1.2604,-13.16401 7.04938,-21.15894 15.32094,-21.15894 5.55291,0 5.6001,-0.24949 5.6001,-27.48133 l 0,-27.48133 9.18417,-2.48214 c 12.23697,-3.30674 26.00882,-16.97919 28.03788,-27.83257 1.24893,-6.68158 2.43531,-8.16258 5.48344,-6.85159 14.30162,6.15097 21.52479,6.66555 31.32791,2.22923 5.4368,-2.46024 10.96288,-6.49266 12.27823,-8.95906 2.24697,-4.21346 2.88486,-4.0476 10.55621,2.7116 8.74201,7.70287 21.30075,11.3244 29.82988,8.60781 2.8878,-0.9198 9.34548,-5.38161 14.35027,-9.91913 4.77506,-4.3293 7.08857,-6.29571 8.4515,-6.39263 z m -94.61845,60.65281 c -3.26007,0.0887 -6.63401,0.90683 -9.63685,2.51958 -6.86731,3.68824 -6.42095,19.96161 0.68602,24.95707 7.80228,5.48426 15.19497,4.56554 20.79973,-2.58516 5.91777,-7.54984 6.22174,-12.37535 1.232,-19.52449 -2.53555,-3.63278 -7.64745,-5.51493 -13.0809,-5.367 z m 122.89433,0.0374 c -13.73128,0 -20.32584,16.53442 -10.51888,26.37608 2.62832,2.63761 7.46681,4.79565 10.75221,4.79565 12.87229,0 20.28035,-17.13395 11.57823,-26.78354 -2.3036,-2.55457 -7.23423,-4.38819 -11.81156,-4.38819 z m -59.5058,53.95108 c -8.5394,0 -15.52725,0.74821 -15.52631,1.66255 7.2e-4,0.91432 2.39001,3.34212 5.31079,5.39511 2.92077,2.05297 7.51971,3.73255 10.22018,3.73255 5.04876,0 15.5263,-6.16584 15.5263,-9.12766 -0.005,-0.91434 -6.99156,-1.66255 -15.53096,-1.66255 z m -48.9776,89.91836 45.39819,0 45.3982,0 0,20.19424 0,20.18945 -7.10748,1.5689 c -9.42609,2.07772 -12.00756,0.0887 -12.00756,-9.24457 0,-12.05555 -3.15842,-13.52542 -29.06454,-13.52542 -25.8287,0 -28.28054,1.44373 -28.28054,16.63036 0,6.56932 -0.76222,7.3479 -7.16814,7.3479 l -7.16813,0 0,-21.58043 z"
       style="fill:#000000"
       id="path4332" />
  </g>
</svg>
