<?xml version="1.0" encoding="UTF-8" standalone="no"?>
<svg
   xmlns:dc="http://purl.org/dc/elements/1.1/"
   xmlns:cc="http://creativecommons.org/ns#"
   xmlns:rdf="http://www.w3.org/1999/02/22-rdf-syntax-ns#"
   xmlns:svg="http://www.w3.org/2000/svg"
   xmlns="http://www.w3.org/2000/svg"
   xmlns:sodipodi="http://sodipodi.sourceforge.net/DTD/sodipodi-0.dtd"
   xmlns:inkscape="http://www.inkscape.org/namespaces/inkscape"
   id="svg3438"
   version="1.1"
   width="540"
   height="500"
   viewBox="0 0 540 500"
   inkscape:version="0.91 r13725"
   sodipodi:docname="u0061-surf.svg">
  <sodipodi:namedview
     pagecolor="#ffffff"
     bordercolor="#666666"
     borderopacity="1"
     objecttolerance="10"
     gridtolerance="10"
     guidetolerance="10"
     inkscape:pageopacity="0"
     inkscape:pageshadow="2"
     inkscape:window-width="1280"
     inkscape:window-height="703"
     id="namedview6"
     showgrid="false"
     inkscape:zoom="1.002"
     inkscape:cx="225.0499"
     inkscape:cy="170.15968"
     inkscape:window-x="5"
     inkscape:window-y="93"
     inkscape:window-maximized="0"
     inkscape:current-layer="svg3438" />
  <metadata
     id="metadata3444">
    <rdf:RDF>
      <cc:Work
         rdf:about="">
        <dc:format>image/svg+xml</dc:format>
        <dc:type
           rdf:resource="http://purl.org/dc/dcmitype/StillImage" />
        <dc:title></dc:title>
      </cc:Work>
    </rdf:RDF>
  </metadata>
  <defs
     id="defs3442" />
  <path
     style="fill:#000000"
     d="m 227.01953,0.00645162 c -1.73689,0.07254992 -3.28745,0.85808275 -4.75391,2.26171868 -7.19392,6.8858306 -7.02612,12.5007957 0.8418,30.0488277 9.8776,22.029615 53.57652,71.311772 76.1582,85.886712 10.9496,7.06728 11.71767,12.95072 6.0918,46.5625 -5.79608,34.62845 -8.14211,38.24735 -23.60156,36.4336 -9.4438,-1.10714 -38.59028,-4.31838 -64.74024,-7.11719 l -47.54296,-5.07812 14.76562,23.90429 c 12.29231,19.90958 20.58731,24.53464 49.75977,27.76758 61.85793,6.85499 92.43347,51.27899 61.46875,89.29297 -13.61949,16.71994 -14.03968,20.05477 -5.03711,39.87109 l 9.83593,21.6543 29.03321,-30.26172 c 40.07489,-41.75625 62.33943,-95.67194 67.21679,-162.76953 3.81095,-52.42639 4.70553,-54.66624 21.86133,-54.74414 21.99471,-0.0934 83.09057,-32.13847 96.25,-50.484373 13.67435,-19.063743 -1.05279,-36.899667 -18.43359,-22.324219 -6.50665,5.45637 -25.71934,17.499781 -42.66602,26.763672 -28.04715,15.33206 -34.34692,15.99911 -70.48437,7.39062 C 320.87524,90.255733 285.86125,69.313756 257.2832,29.883404 242.41558,9.3698153 233.91873,0.47791053 227.77539,0.02012349 227.51943,4.9851219e-4 227.26767,-0.00392337 227.01953,0.00645162 Z m 146,6.87890618 A 36.811476,38.665215 0 0 0 336.20898,45.553326 36.811476,38.665215 0 0 0 373.01953,84.217389 36.811476,38.665215 0 0 0 409.83203,45.553326 36.811476,38.665215 0 0 0 373.01953,6.8853578 Z M 38.125,97.400983 C 10.490021,97.502158 13.419613,150.39866 54.087891,246.17442 72.430116,289.37096 105.88752,354.48409 128.44336,390.85606 169.82414,491.19537 254.88007,450.57799 296.875,423.72129 285.14329,378.60719 173.71275,215.26279 119.30859,156.36973 82.280224,116.28621 54.706014,97.337989 38.125,97.400983 Z M 418.5,429.99864 c -42.89734,0.12519 -80.11328,6.17756 -144.11914,23.4375 -31.22454,8.42007 -48.78947,12.29982 -65.38086,14.43945 -19.22371,2.4791 -63.388,3.80982 -87.2168,2.62891 C 92.329984,469.04485 85.850751,467.44741 54.5,453.91075 26.021546,441.61429 20,439.62292 20,442.5045 c 0,2.1746 17.739578,18.59951 26.087891,24.15429 23.939031,15.92848 61.754999,29.23047 92.912109,32.6836 12.82224,1.42109 47.16621,0.42233 64.5,-1.87696 25.73606,-3.41382 46.18344,-7.94444 88.80273,-19.67187 97.59345,-26.8545 131.61815,-30.94115 177.66602,-21.34375 7.44203,1.55109 21.18125,4.42693 30.53125,6.39062 9.35,1.9637 17.55419,3.36136 18.23242,3.10547 2.40114,-0.90594 -0.0524,-3.62667 -8.10156,-8.98242 -10.59029,-7.04654 -32.72391,-17.82044 -44.13086,-21.48047 -14.39496,-4.61876 -22.61639,-5.55847 -48,-5.48437 z"
     id="path3751"
     inkscape:connector-curvature="0" />
</svg>
