<?xml version="1.0" encoding="UTF-8" standalone="no"?>
<svg
   xmlns:dc="http://purl.org/dc/elements/1.1/"
   xmlns:cc="http://creativecommons.org/ns#"
   xmlns:rdf="http://www.w3.org/1999/02/22-rdf-syntax-ns#"
   xmlns:svg="http://www.w3.org/2000/svg"
   xmlns="http://www.w3.org/2000/svg"
   version="1.1"
   id="svg2"
   viewBox="0 0 320.00001 500.00001"
   height="500"
   width="320">
  <defs
     id="defs4" />
  <metadata
     id="metadata7">
    <rdf:RDF>
      <cc:Work
         rdf:about="">
        <dc:format>image/svg+xml</dc:format>
        <dc:type
           rdf:resource="http://purl.org/dc/dcmitype/StillImage" />
        <dc:title></dc:title>
      </cc:Work>
    </rdf:RDF>
  </metadata>
  <g
     transform="translate(0,-552.36216)"
     id="layer1">
    <path
       id="path3347"
       d="m 112.93502,1050.2046 c -6.26035,-2.8524 -10.69152,-6.8769 -13.836841,-12.567 L 96.678252,1033.2598 96.38285,877.41402 96.087448,721.56831 85.171285,710.5017 C 48.343841,673.1667 24.003063,623.53502 20.352152,578.33326 c -0.686237,-8.49634 -0.503276,-10.01257 1.758612,-14.57375 7.33871,-14.79872 29.428025,-15.24109 36.886574,-0.73871 1.131673,2.20041 2.393456,7.74778 2.803956,12.32749 1.552175,17.31675 8.177257,38.64861 18.010247,57.99053 8.053042,15.84069 23.778239,37.99575 32.553629,45.86445 2.86989,2.57336 38.68917,70.62993 38.68917,73.50935 0,0.70868 -0.79954,2.15095 -1.77675,3.20504 -2.79807,3.01822 -3.37837,10.551 -1.12717,14.63168 5.7581,10.4375 22.41631,9.11083 26.19672,-2.08633 1.60719,-4.76038 0.55953,-9.48452 -3.11457,-14.04415 l -2.11725,-2.62755 14.14897,-33.01064 c 11.794,-27.51632 14.51839,-33.01066 16.36843,-33.01066 2.45752,0 11.07938,-8.80077 21.24673,-21.68764 20.51236,-25.99892 34.38979,-58.86897 37.64208,-89.15904 1.24717,-11.61553 4.24696,-16.85448 11.6554,-20.35543 11.73879,-5.54731 24.94535,-0.24961 28.95682,11.6158 2.7387,8.10073 -1.25083,33.86304 -8.6658,55.95914 -5.10739,15.21971 -17.21927,39.37278 -26.96722,53.77706 -8.58771,12.68986 -21.34619,27.97388 -31.03142,37.17412 l -6.29749,5.98212 -0.0112,155.99734 -0.0113,155.99742 -2.61428,5.4801 c -9.43747,19.7835 -37.22535,21.3468 -48.65672,2.7374 l -3.64324,-5.9319 0,-71.46159 0,-71.46166 -9.52983,0 -9.52983,0 0,67.80239 c 0,44.10586 -0.42005,69.71436 -1.20188,73.27316 -2.60113,11.8398 -12.46322,19.786 -25.50949,20.554 -5.92158,0.3485 -8.53713,-0.039 -12.52911,-1.8582 z m 27.81253,-331.98448 c -9.06022,-17.71554 -16.16555,-32.51033 -15.78961,-32.87732 0.63142,-0.61638 66.463,-1.00633 66.45403,-0.39364 -0.002,0.15049 -6.21631,14.80252 -13.80914,32.56007 -18.47358,43.20467 -15.15546,43.14068 -36.85528,0.71089 z m 10.30679,-37.99002 c -9.35901,-1.56643 -21.58306,-7.92778 -28.96661,-15.07409 -22.341591,-21.62379 -22.352342,-56.18169 -0.0242,-78.02821 15.18979,-14.8622 38.22132,-19.69188 59.29434,-12.43395 12.59895,4.33931 24.65477,15.45918 31.1171,28.70134 3.86642,7.92278 4.17473,9.31534 4.54702,20.53806 0.33483,10.09328 0.0126,13.15847 -1.99396,18.96551 -5.69879,16.49278 -18.91682,29.67939 -35.24817,35.16438 -7.78118,2.61337 -20.3799,3.56377 -28.72548,2.16696 z"
       style="fill:#000000" />
  </g>
</svg>
