<?xml version="1.0" encoding="UTF-8" standalone="no"?>
<svg
   xmlns:dc="http://purl.org/dc/elements/1.1/"
   xmlns:cc="http://creativecommons.org/ns#"
   xmlns:rdf="http://www.w3.org/1999/02/22-rdf-syntax-ns#"
   xmlns:svg="http://www.w3.org/2000/svg"
   xmlns="http://www.w3.org/2000/svg"
   version="1.1"
   id="svg4751"
   viewBox="0 0 340 500.00001"
   height="500"
   width="340">
  <defs
     id="defs4753" />
  <metadata
     id="metadata4756">
    <rdf:RDF>
      <cc:Work
         rdf:about="">
        <dc:format>image/svg+xml</dc:format>
        <dc:type
           rdf:resource="http://purl.org/dc/dcmitype/StillImage" />
        <dc:title></dc:title>
      </cc:Work>
    </rdf:RDF>
  </metadata>
  <g
     transform="translate(0,-552.36216)"
     id="layer1">
    <path
       id="path4336"
       d="m 248.95795,606.36237 c -6.30325,0 -11.337,4.23679 -21.40652,18.02785 -7.24054,9.9165 -13.16349,19.88376 -13.16349,22.15078 0,2.26702 5.02112,8.05015 11.15981,12.85394 l 11.1661,8.73717 -11.73047,16.07518 c -6.4486,8.84241 -12.67962,17.19392 -13.84825,18.55645 -1.16866,1.36253 -8.58409,-0.39847 -16.47974,-3.91152 -24.90537,-11.08131 -52.44886,-7.08513 -68.21425,9.89384 -6.56781,7.07335 -11.24971,9.05433 -21.42554,9.05433 -22.434976,1.12071 -27.625266,5.00844 -41.151766,16.29904 l -0.0444,0.16779 c -4.49922,2.72608 -13.51058,19.76822 -13.51058,19.76822 11.37648,1.90558 26.36683,0.0669 38.90549,1.0393 l 0.22205,-0.43531 c 31.308886,1.92841 185.365076,1.55 187.833336,-0.87058 2.86628,-2.81103 -11.15878,-25.82211 -17.10115,-28.0585 -3.40662,-1.28207 -8.21334,1.83273 -14.27312,9.24091 -9.37613,11.46246 -18.52144,12.53331 -18.52144,2.17029 0,-3.00725 7.66986,-15.5072 17.04404,-27.77867 l 17.04404,-22.31246 9.73948,5.88906 c 15.42169,9.33117 23.6786,6.40504 37.96233,-13.45092 8.3809,-11.65035 11.9538,-19.49351 10.53207,-23.12714 -3.53615,-9.03758 -61.48343,-49.97921 -70.73788,-49.97921 z m 1.23009,22.28763 c 5.12151,0 45.37227,29.53094 45.26059,33.20751 -0.0568,1.87126 -2.04748,5.91517 -4.41952,8.97973 -2.37203,3.06454 -5.60808,5.53163 -7.19677,5.48483 -3.80204,-0.11175 -41.5512,-28.05452 -42.87012,-31.73371 -1.43465,-4.00191 5.47443,-15.93836 9.22582,-15.93836 z M 38.507014,771.77196 c -8.32343,0.23115 -16.58795,2.00371 -17.81132,5.13039 -3.03778,7.76385 4.32453,20.11174 13.31567,22.32492 13.33598,3.28263 13.85929,17.79386 1.8325,51.01147 -22.34404,61.71365 -14.3011,101.25238 21.14021,103.91976 11.56111,0.87 13.07303,2.0383 16.09292,12.3937 1.83349,6.2869 5.52667,14.0109 8.20498,17.1696 5.97867,7.0509 27.904686,16.8273 46.325846,20.6521 19.75546,4.1019 75.888,1.4815 94.89632,-4.4276 8.92784,-2.7754 20.24634,-8.2886 25.1476,-12.257 9.55589,-7.7369 7.20541,2.1882 35.07725,-148.10309 5.06365,-27.3042 8.55458,-39.00329 11.64805,-39.00329 7.206,0 17.40547,-12.12724 17.40547,-20.69563 l 0,-7.95986 -124.71708,0 c -49.47481,0.67054 -102.427586,-0.40738 -148.558416,-0.15537 z m 133.150296,51.48413 c 15.12396,0.58155 24.5669,16.19073 15.42081,29.88054 -2.91634,4.36516 -6.6018,7.94119 -8.18595,7.94119 -1.58415,0 -16.52365,13.34105 -33.20043,29.6505 -21.35246,20.88221 -36.47826,32.65453 -51.132156,39.79927 -39.62156,19.31811 -57.43576,12.00386 -56.67402,-23.27013 0.37166,-17.20881 9.56184,-54.95423 12.64355,-51.93185 0.57739,0.56626 4.10004,15.96291 7.83088,34.21495 3.73089,18.25203 7.39453,33.78078 8.13524,34.50723 4.09403,4.01518 45.172636,-22.87669 65.766766,-43.05166 21.36016,-20.92542 23.26016,-23.80448 20.44901,-31.05585 -4.10491,-10.58876 1.91129,-23.44126 12.15531,-25.96284 2.35479,-0.57963 4.63044,-0.80445 6.79099,-0.72135 z"
       style="fill:#000000" />
  </g>
</svg>
