<?xml version="1.0" encoding="UTF-8" standalone="no"?>
<svg
   xmlns:dc="http://purl.org/dc/elements/1.1/"
   xmlns:cc="http://creativecommons.org/ns#"
   xmlns:rdf="http://www.w3.org/1999/02/22-rdf-syntax-ns#"
   xmlns:svg="http://www.w3.org/2000/svg"
   xmlns="http://www.w3.org/2000/svg"
   width="620"
   height="500"
   viewBox="0 0 619.99998 499.99998"
   id="svg6041"
   version="1.1">
  <defs
     id="defs6043" />
  <metadata
     id="metadata6046">
    <rdf:RDF>
      <cc:Work
         rdf:about="">
        <dc:format>image/svg+xml</dc:format>
        <dc:type
           rdf:resource="http://purl.org/dc/dcmitype/StillImage" />
        <dc:title></dc:title>
      </cc:Work>
    </rdf:RDF>
  </metadata>
  <path
     id="path4272"
     d="m 255.76278,157.87824 c 12.15842,43.73243 12.79483,100.79967 12.98941,147.67732 0.43152,103.94704 0.1967,133.73351 2.80174,143.93532 -117.24539,-5.02448 -251.446448,-10.84406 -251.55295,5.06313 -0.106212,15.88638 8.343755,20.47168 52.665516,28.5816 89.587694,16.39253 266.473834,21.82329 387.078544,11.88182 60.47909,-4.9853 129.75013,-17.38348 137.93296,-24.68556 -75.66128,-29.10799 -129.96471,-12.8859 -179.49636,-16.77577 -24.67703,0.70916 -65.57417,-0.69298 -111.76661,-2.59899 0.39659,-0.67501 0.73746,-1.37196 1.00306,-2.08902 1.02807,-2.77522 1.6029,-15.38872 1.91723,-41.98359 l 0.44911,-38.01643 2.57148,4.102 c 5.16898,8.24949 16.34976,12.00542 24.31069,8.16476 8.45474,-4.07889 31.24306,-22.05487 37.71754,-29.7536 10.63674,-12.64792 13.61377,-19.42076 14.30965,-32.54872 1.00228,-18.90468 -2.21132,-27.82061 -15.34691,-42.57204 -3.28089,-3.68447 -8.19824,-8.37313 -10.92657,-10.41805 l -4.96062,-3.71707 0,-47.66213 0,-47.6646 c 9.03156,-17.2784 20.30469,-34.38938 27.53414,-53.94142 4.06226,-17.550332 6.5267,-42.858483 0.38527,-58.379333 -10.43105,-50.6454097 -97.27017,-80.074508 -50.20798,-24.271177 12.83596,13.38082 23.77765,28.424279 26.56984,36.533052 2.47623,7.192506 2.43247,22.346518 -0.0911,31.570432 -7.98241,33.566746 -20.93198,35.977656 -48.58029,35.888206 -15.70816,-0.51071 -28.8334,4.33968 -36.80797,-8.40014 C 242.1127,40.533749 214.27441,12.559706 201.92223,30.568811 191.7953,45.333559 223.25735,109.10713 255.76278,157.87824 Z M 313.10593,44.584527 c -10.27419,0.01 -17.07528,3.133567 -26.14354,12.004417 -4.7211,4.61835 -5.88274,6.731615 -7.79427,14.186584 -2.72636,10.633374 -2.79278,14.744436 -0.40351,24.974879 2.28644,9.789563 9.33142,18.221913 19.75128,23.638603 6.20206,3.22415 8.00469,3.58862 15.75726,3.19236 25.3378,-1.2951 40.43613,-25.232851 32.85267,-52.085344 -2.04879,-7.254784 -3.44761,-9.714703 -8.30948,-14.60587 -8.36698,-8.417529 -14.96079,-11.31567 -25.71041,-11.305629 z m -2.48941,239.002153 c 2.4195,0 23.61313,11.66917 28.53266,15.70923 2.97333,2.44177 6.77418,6.94647 8.444,10.01103 l 3.03425,5.57069 -3.64978,5.70551 c -3.9671,6.20159 -12.73061,13.81078 -21.03247,18.26164 -2.88884,1.54878 -6.74959,3.95132 -8.57849,5.33773 -1.82901,1.38641 -4.32168,4.27811 -5.53965,6.42639 -2.20718,3.89461 -2.21815,3.80248 -2.21815,-31.55818 -0.002,-19.50522 0.45169,-35.46404 1.00763,-35.46404 z"
     style="fill:#000000" />
</svg>
