<?xml version="1.0" encoding="UTF-8" standalone="no"?>
<svg
   xmlns:dc="http://purl.org/dc/elements/1.1/"
   xmlns:cc="http://creativecommons.org/ns#"
   xmlns:rdf="http://www.w3.org/1999/02/22-rdf-syntax-ns#"
   xmlns:svg="http://www.w3.org/2000/svg"
   xmlns="http://www.w3.org/2000/svg"
   version="1.1"
   id="svg2"
   viewBox="0 0 539.99998 499.99998"
   height="500"
   width="540">
  <defs
     id="defs4" />
  <metadata
     id="metadata7">
    <rdf:RDF>
      <cc:Work
         rdf:about="">
        <dc:format>image/svg+xml</dc:format>
        <dc:type
           rdf:resource="http://purl.org/dc/dcmitype/StillImage" />
        <dc:title></dc:title>
      </cc:Work>
    </rdf:RDF>
  </metadata>
  <g
     transform="translate(0,-552.36209)"
     id="layer1">
    <path
       id="path4201"
       d="M 115.05408,963.89625 C 114.89768,931.50738 102.34482,895.91119 59.111606,805.26003 14.611658,711.95275 13.900838,709.35699 28.448107,693.28244 c 32.070039,-35.43699 53.502489,-18.99399 98.359063,75.46119 32.54645,68.53357 50.48431,85.0888 76.88555,70.95929 11.64106,-6.23011 16.28765,-6.1933 16.28765,0.129 0,4.86524 12.12764,13.91315 26.95031,20.10647 31.26722,13.06427 48.70136,44.9033 41.12251,75.09983 -3.71499,14.80172 -2.50988,19.38462 4.03388,15.34036 13.15866,-8.13249 11.59909,-47.55789 -2.62519,-66.36408 -18.86048,-24.93578 -14.46854,-30.77444 9.16516,-12.18417 19.00863,14.95218 23.71223,15.66495 38.68317,5.86186 9.37379,-6.13805 22.1441,-27.27465 28.37844,-46.97021 12.44092,-39.3034 93.04528,-179.86115 112.31379,-195.8526 14.49445,-12.02931 37.74919,-0.46091 41.94364,20.86546 1.49386,7.59542 -28.23676,65.83816 -66.06803,129.42831 -37.83126,63.59015 -78.7975,133.02588 -91.03606,154.30162 l -22.25194,38.68317 -112.73357,0 c -101.90988,0 -112.74019,-1.36833 -112.8024,-14.25169 z M 302.06389,860.83998 c -7.35688,-8.86449 -4.5065,-30.0335 12.66764,-94.0792 12.1883,-45.45252 26.3686,-88.39581 31.51177,-95.42952 12.731,-17.41066 44.75739,-6.89824 44.75739,14.69129 0,22.30751 -40.77334,163.51342 -50.84208,176.07589 -10.75653,13.42059 -26.33943,12.90581 -38.09472,-1.25846 z m -70.97578,-25.15973 c -7.3326,-19.10845 39.8083,-183.81102 54.92577,-191.90165 8.35781,-4.47296 18.58624,-3.06861 28.0496,3.85117 14.36979,10.50745 14.25005,13.29525 -3.39707,79.08674 -31.93927,119.07501 -32.8712,121.13023 -54.92599,121.13023 -10.99098,0 -22.08451,-5.47492 -24.65231,-12.16649 z m -65.71885,-17.7685 c -6.83437,-17.81008 29.72591,-163.15208 46.13904,-183.42142 13.32132,-16.45113 36.53572,-13.74289 43.76877,5.10616 3.83761,10.00065 -36.17559,165.47537 -47.16189,183.25159 -8.37256,13.54707 -36.91815,10.25061 -42.74592,-4.93633 z"
       style="fill:#000000" />
  </g>
</svg>
