<?xml version="1.0" encoding="UTF-8" standalone="no"?>
<svg
   xmlns:dc="http://purl.org/dc/elements/1.1/"
   xmlns:cc="http://creativecommons.org/ns#"
   xmlns:rdf="http://www.w3.org/1999/02/22-rdf-syntax-ns#"
   xmlns:svg="http://www.w3.org/2000/svg"
   xmlns="http://www.w3.org/2000/svg"
   version="1.1"
   id="svg2"
   viewBox="0 0 592.00001 500.00001"
   height="500"
   width="592">
  <defs
     id="defs4" />
  <metadata
     id="metadata7">
    <rdf:RDF>
      <cc:Work
         rdf:about="">
        <dc:format>image/svg+xml</dc:format>
        <dc:type
           rdf:resource="http://purl.org/dc/dcmitype/StillImage" />
        <dc:title></dc:title>
      </cc:Work>
    </rdf:RDF>
  </metadata>
  <g
     transform="translate(0,-552.36216)"
     id="layer1">
    <path
       d="m 318.15208,850.53928 c 2.15093,-218.81098 2.86103,-224.63158 31.66875,-259.58563 27.2446,-33.0574 46.51105,-38.34646 140.1603,-38.47706 L 572,552.3622 571.9583,733.35177 c -0.0208,99.54427 -2.45921,196.224 -5.41679,214.84383 -7.02764,44.24302 -26.71242,76.282 -56.55164,92.0435 -21.32719,11.2665 -28.98531,12.1231 -108.38529,12.1231 l -85.4365,0 1.98395,-201.82292 z M 20,802.36219 20,552.3622 l 82.01887,0.11439 c 93.79741,0.13081 114.37796,5.80326 139.21454,38.37062 27.62348,36.22171 28.2537,41.9642 28.50028,259.69207 l 0.22858,201.82292 -124.98114,0 -124.98113,0 0,-250.00001 z"
       style="fill:#000000"
       id="path4274" />
  </g>
</svg>
