<?xml version="1.0" encoding="UTF-8" standalone="no"?>
<svg
   xmlns:dc="http://purl.org/dc/elements/1.1/"
   xmlns:cc="http://creativecommons.org/ns#"
   xmlns:rdf="http://www.w3.org/1999/02/22-rdf-syntax-ns#"
   xmlns:svg="http://www.w3.org/2000/svg"
   xmlns="http://www.w3.org/2000/svg"
   version="1.1"
   id="svg2"
   viewBox="0 0 539.99998 499.99998"
   height="500"
   width="540">
  <defs
     id="defs4" />
  <metadata
     id="metadata7">
    <rdf:RDF>
      <cc:Work
         rdf:about="">
        <dc:format>image/svg+xml</dc:format>
        <dc:type
           rdf:resource="http://purl.org/dc/dcmitype/StillImage" />
        <dc:title></dc:title>
      </cc:Work>
    </rdf:RDF>
  </metadata>
  <g
     transform="translate(0,-552.36217)"
     id="layer1">
    <path
       id="path3347"
       d="m 125.08149,1048.7143 c -30.743196,-7.0927 -56.703356,-20.406 -79.937165,-40.9944 -19.840335,-17.58142 -28.038959,-28.27151 -24.24121,-31.60767 0.804413,-0.70667 8.272612,3.18691 16.595948,8.65238 20.41806,13.40737 45.818782,24.25729 72.526717,30.97949 18.34567,4.6176 29.00296,5.5576 61.93453,5.463 38.05953,-0.11 41.98275,-0.6212 90.91647,-11.8635 63.52748,-14.595 94.29698,-19.07875 130.69244,-19.04437 33.77351,0.0325 58.7886,4.74262 81.39686,15.32817 17.36894,8.1323 45.03386,30.3373 45.03386,36.1459 0,4.7149 -1.60516,4.3702 -18.12156,-3.8922 -34.20576,-17.1115 -81.13148,-24.5907 -124.98617,-19.9209 -13.86023,1.4759 -47.74081,8.23 -75.29021,15.0091 -27.54937,6.7793 -60.805,13.9802 -73.90135,16.0023 -29.96692,4.6267 -82.01504,4.4964 -102.61916,-0.2573 z m 93.34846,-69.53353 c -29.29208,-13.0955 -57.27723,-28.22192 -80.56332,-43.54578 -23.39721,-15.39703 -69.607796,-55.24637 -69.608533,-60.0264 -3.13e-4,-2.14936 2.876349,-10.97422 6.392574,-19.61082 4.643124,-11.40445 8.070287,-16.07403 12.519936,-17.05877 8.137362,-1.80086 47.108883,5.26012 80.314323,14.55161 l 26.77719,7.49272 9.51526,-10.06287 c 11.96653,-12.65519 32.67492,-23.94662 53.8224,-29.34716 20.40686,-5.21141 52.00236,-3.645 76.04,3.7698 9.22972,2.84706 17.40257,5.17646 18.16187,5.17646 2.46165,0 -1.9409,-28.41519 -5.99376,-38.68529 l -3.93967,-9.9833 -23.36942,-3.15548 c -31.82432,-4.29711 -54.69933,-11.39661 -78.52251,-24.3703 -19.32291,-10.52293 -43.099,-30.10671 -53.48318,-44.05281 l -4.97922,-6.68713 -18.73226,6.19385 c -16.77582,5.54694 -19.18417,5.79688 -23.05889,2.39309 -3.64109,-3.19852 -3.74414,-4.75686 -0.65045,-9.8349 3.37636,-5.542 1.43696,-9.95653 -23.77909,-54.12675 -27.341743,-47.89377 -28.689205,-52.12496 -16.642519,-52.26033 1.870639,-0.02 15.755349,21.58187 30.854899,48.00641 15.09957,26.42455 27.775,48.35685 28.16765,48.73844 2.70695,2.63075 15.31235,-5.21004 16.81148,-10.45707 2.12023,-7.42098 11.31615,-10.27343 25.55509,-7.92686 5.26608,0.86784 12.94744,0.45144 17.06968,-0.92533 l 7.49493,-2.50324 -26.91662,-47.24056 c -26.96816,-47.33094 -27.85558,-50.19244 -15.5661,-50.19244 1.4266,0 14.25074,20.49697 28.49809,45.54882 14.24737,25.05184 26.14536,45.79309 26.43998,46.09169 0.29466,0.29858 5.1733,-0.70744 10.84143,-2.23561 7.01912,-1.89237 10.83821,-4.64225 11.97548,-8.62275 0.91838,-3.21432 4.74831,-7.61624 8.51101,-9.78199 6.10973,-3.51668 7.71781,-3.53954 15.03889,-0.21388 4.99456,2.26887 9.72798,2.89303 12.11433,1.59745 3.09757,-1.68172 -1.27663,-11.3602 -20.91453,-46.27625 -13.65716,-24.28238 -24.44488,-44.44325 -23.97268,-44.80193 0.47219,-0.35867 3.44663,-1.34845 6.60988,-2.1995 5.07723,-1.36601 8.69661,3.65284 30.87879,42.81838 23.09832,40.78306 25.7312,44.35962 32.60403,44.29029 5.9741,-0.0604 7.64969,1.23481 8.33784,6.44439 0.76595,5.79833 -0.88464,7.1423 -14.91599,12.14504 -8.67746,3.09388 -15.77721,7.03369 -15.77721,8.75511 0,1.72144 3.13395,15.31041 6.96431,30.19771 3.83038,14.8873 6.45533,27.51495 5.83324,28.06143 -0.6221,0.54649 -10.20021,-1.42623 -21.28469,-4.38383 -22.45956,-5.99275 -23.56703,-7.25195 -26.81278,-30.48571 l -1.96723,-14.08192 -19.01154,6.32324 c -10.45634,3.47777 -20.21766,7.2802 -21.69188,8.44984 -3.6459,2.89269 10.50239,15.76371 28.73978,26.1452 35.8235,20.39221 87.67295,27.83047 138.24185,19.83197 14.95429,-2.36531 29.62206,-3.62239 32.59506,-2.79347 13.05885,3.64096 33.68081,54.44338 36.6177,90.20816 1.28599,15.66057 0.52379,23.16292 -3.41036,33.56797 -7.95497,21.03921 -36.63482,45.32908 -82.36439,69.75699 -10.93839,5.84307 -20.50218,11.12412 -21.25284,11.73565 -0.75069,0.61152 6.92039,7.73015 17.04684,15.81916 l 18.41169,14.70735 -14.54382,0.10862 c -18.07775,0.13503 -56.37777,5.91171 -92.51379,13.95379 -15.12813,3.36676 -29.19178,6.10063 -31.25254,6.07526 -2.06077,-0.025 -14.7983,-4.98681 -28.30569,-11.02549 z m 117.78182,-79.40205 c 13.74324,-7.2067 25.23913,-14.13125 25.54634,-15.38786 0.81367,-3.32827 -23.74415,-15.98175 -41.89176,-21.5849 -28.72889,-8.87014 -62.02384,-4.60941 -76.62338,9.80545 -6.29273,6.21312 -6.75098,5.59102 9.3857,12.74228 6.86454,3.04214 21.53436,10.48049 32.59961,16.52965 11.06525,6.04914 21.44097,10.99845 23.05716,10.99845 1.61621,0 14.18305,-5.89639 27.92633,-13.10307 z m 26.44385,-179.16138 c -16.90438,-4.44624 -30.17092,-20.55839 -30.17092,-36.64251 0,-27.93092 34.69621,-46.52729 62.54941,-33.52504 31.20722,14.56796 30.49119,55.35675 -1.19368,67.99754 -12.65646,5.04932 -18.65163,5.4665 -31.18481,2.17001 z"
       style="fill:#000000" />
  </g>
</svg>
