<?xml version="1.0" encoding="UTF-8" standalone="no"?>
<svg
   xmlns:dc="http://purl.org/dc/elements/1.1/"
   xmlns:cc="http://creativecommons.org/ns#"
   xmlns:rdf="http://www.w3.org/1999/02/22-rdf-syntax-ns#"
   xmlns:svg="http://www.w3.org/2000/svg"
   xmlns="http://www.w3.org/2000/svg"
   version="1.1"
   id="svg2"
   viewBox="0 0 540.00001 500.00001"
   height="500"
   width="540">
  <defs
     id="defs4" />
  <metadata
     id="metadata7">
    <rdf:RDF>
      <cc:Work
         rdf:about="">
        <dc:format>image/svg+xml</dc:format>
        <dc:type
           rdf:resource="http://purl.org/dc/dcmitype/StillImage" />
        <dc:title></dc:title>
      </cc:Work>
    </rdf:RDF>
  </metadata>
  <g
     transform="translate(0,-552.36216)"
     id="layer1">
    <path
       id="path4155"
       d="m 283.20724,552.36223 c -26.19541,-0.0249 -42.10637,17.90169 -42.12671,47.46075 -0.009,13.47455 1.54978,18.76037 8.00095,27.1194 4.40724,5.71061 12.08582,12.39341 17.06288,14.84998 26.8836,13.2692 59.72788,-11.14948 59.28382,-44.07534 C 325.0676,570.9771 307.761,552.38551 283.20724,552.36223 Z m 22.95347,99.76863 c -8.71229,-0.0315 -13.51604,1.54934 -17.49652,4.58908 -3.42006,2.61176 -17.89167,23.5094 -32.15938,46.43936 l -25.941,41.6915 -39.92373,23.28282 c -21.95765,12.8054 -41.62689,25.82128 -43.70895,28.92576 -10.17012,15.16434 0.92786,39.99699 17.87557,39.99699 5.19586,0 27.11911,-10.50338 53.90958,-25.82738 l 45.15391,-25.82728 14.07695,-23.08251 14.07704,-23.08072 10.47367,18.98254 c 5.76025,10.44036 12.99258,22.85142 16.07147,27.57956 l 5.59763,8.59524 -43.77514,20.05804 c -24.07597,11.0316 -46.12583,22.32681 -49.00049,25.10004 -9.29463,8.96667 -73.40882,138.29381 -73.40882,148.07577 0,5.03626 2.90322,12.52523 6.45175,16.64363 7.989,9.2717 25.96686,10.2711 32.85623,1.8263 2.54035,-3.114 18.2531,-32.59464 34.91684,-65.51381 42.72118,-84.39541 42.84694,-84.41749 45.59423,-7.67498 1.12285,31.36748 3.28134,59.55758 4.79655,62.6446 4.62063,9.41319 19.35646,14.40119 29.29108,9.91449 14.89845,-6.72833 16.25172,-13.65862 14.05212,-71.96721 l -1.99112,-52.76978 41.84027,-27.30173 c 23.0122,-15.01558 43.08796,-29.84176 44.61274,-32.94817 6.211,-12.65323 2.56238,-24.35673 -19.85508,-63.69486 -12.4448,-21.83807 -22.12443,-40.22903 -21.51191,-40.8686 0.61236,-0.63957 11.66593,0.65421 24.56393,2.87472 22.36171,3.84977 25.58771,3.55981 69.45308,-6.2511 C 513.14593,701.33947 520,697.18336 520,678.02134 c 0,-11.48094 -11.68339,-25.36596 -21.3778,-25.40505 -3.7463,-0.015 -24.17068,3.81809 -45.38729,8.51768 l -38.57473,8.54474 -48.96235,-9.10055 c -30.67417,-5.70117 -48.33568,-8.40675 -59.53712,-8.4473 z M 256.0761,940.20318 c -4.25428,-0.18007 -11.09196,10.82094 -22.67543,33.54376 -19.63043,38.50826 -25.81211,46.87806 -39.22349,53.10546 -28.08908,13.0428 -59.11112,-18.8959 -50.68213,-52.17976 1.56097,-6.16367 4.12369,-12.07298 5.69534,-13.13202 C 164.46968,951.24485 121.5874,959.05113 75.695543,974.9199 47.966878,984.5081 20,1001.3933 20,1008.5466 c 0,7.5046 27.152072,21.7443 54.896075,28.7887 24.423679,6.2013 65.715755,12.0493 102.375505,14.4999 25.95872,1.7352 105.34262,-1.0555 137.9825,-4.8508 74.43769,-8.6553 127.47743,-28.7797 132.4179,-50.24153 6.29314,-27.33794 -25.74006,-45.92765 -93.10001,-54.02589 l -12.61225,-1.51584 -0.0115,26.38314 c -0.009,20.45784 -1.3114,28.71001 -5.80296,36.74142 -11.06739,19.7902 -34.56813,26.0564 -52.64674,14.0379 -13.33028,-8.8619 -18.59834,-22.07097 -20.71074,-51.93786 -1.21657,-17.20055 -2.95788,-26.06364 -6.71166,-26.22256 z"
       style="fill:#000000" />
  </g>
</svg>
