<?xml version="1.0" encoding="UTF-8" standalone="no"?>
<svg
   xmlns:dc="http://purl.org/dc/elements/1.1/"
   xmlns:cc="http://creativecommons.org/ns#"
   xmlns:rdf="http://www.w3.org/1999/02/22-rdf-syntax-ns#"
   xmlns:svg="http://www.w3.org/2000/svg"
   xmlns="http://www.w3.org/2000/svg"
   width="540"
   height="500"
   viewBox="0 0 540.00001 500.00001"
   id="svg2"
   version="1.1">
  <defs
     id="defs4" />
  <metadata
     id="metadata7">
    <rdf:RDF>
      <cc:Work
         rdf:about="">
        <dc:format>image/svg+xml</dc:format>
        <dc:type
           rdf:resource="http://purl.org/dc/dcmitype/StillImage" />
        <dc:title></dc:title>
      </cc:Work>
    </rdf:RDF>
  </metadata>
  <g
     id="layer1"
     transform="translate(20,-556.36216)">
    <path
       style="fill:#000000"
       d="m 411.17885,600.17249 c 15.71244,0.16219 15.95698,4.02315 15.95698,32.28061 l 0,32.73284 -36.6451,-2.4675 -36.64882,-2.46749 -7.73953,28.48699 c -13.08339,48.15298 -32.06112,71.48968 -66.37318,81.61518 -29.77186,8.78552 -30.33769,9.4631 -13.1561,15.74584 9.87568,3.61133 31.18616,5.61655 47.35967,4.45318 26.6587,-1.91758 31.90961,-5.77456 56.17361,-41.26133 29.48826,-43.12713 52.2849,-56.19037 98.92441,-56.67389 L 500,692.29843 l 0,33.03274 0,33.03653 -42.06167,-3.72704 -42.06168,-3.72724 -20.53992,27.9238 c -33.36532,45.36491 -49.63702,52.31631 -117.21547,50.0791 -54.87262,-1.81648 -62.61479,-0.20145 -109.93161,22.93342 l -50.90156,24.8895 -8.50644,43.75102 c -4.67931,24.06433 -16.983082,56.27264 -27.342112,71.57124 -17.80315,26.2926 -40.48709,37.3605 -40.48709,19.7546 0,-4.4337 7.17441,-19.4052 15.94216,-33.2701 11.80288,-18.6644 17.14885,-41.58662 20.59551,-88.28769 3.44722,-46.70811 8.44079,-68.10218 19.23952,-82.44868 20.502622,-27.23845 80.826902,-57.41767 138.229612,-69.15554 26.82847,-5.48585 53.11524,-14.21561 58.41878,-19.3989 5.30354,-5.1833 13.93269,-30.12934 19.17283,-55.43275 9.28619,-44.84098 10.2582,-46.22079 38.3753,-54.50629 15.86639,-4.67549 39.50339,-8.74626 52.52798,-9.04749 2.92042,-0.0675 5.48007,-0.1195 7.72471,-0.0962 z M 63.241088,663.81144 c 4.24408,0 5.68898,3.20407 3.21215,7.1208 -2.47683,3.91654 -5.95003,7.1244 -7.7173,7.1244 -1.76726,0 -3.21215,-3.20786 -3.21215,-7.1244 0,-3.91673 3.4732,-7.1208 7.7173,-7.1208 z m 21.42911,21.366 c 4.00758,0 7.28752,3.20426 7.28752,7.12099 0,3.91673 -3.27994,7.1208 -7.28752,7.1208 -4.00757,0 -7.28754,-3.20407 -7.28754,-7.1208 0,-3.91673 3.27997,-7.12099 7.28754,-7.12099 z m 0,21.36259 c 4.00758,0 7.28752,3.20406 7.28752,7.1208 0,3.91673 -3.27994,7.1208 -7.28752,7.1208 -4.00757,0 -7.28754,-3.20407 -7.28754,-7.1208 0,-3.91674 3.27997,-7.1208 7.28754,-7.1208 z m -12.38175,65.46169 c 1.09231,0.0417 2.00601,0.35756 2.66752,1.00403 2.47799,2.42197 0.35671,9.28707 -4.71264,15.25682 -10.12973,11.92889 -22.00706,14.41441 -22.00706,4.60512 0,-7.96795 16.40599,-21.15753 24.05218,-20.86597 z m -38.13819,31.43231 c 27.88165,0.68896 48.12593,37.90552 27.20504,58.35228 -14.51542,14.1862 -48.06227,10.32486 -57.3295304,-6.59859 -10.48635,-19.14965 0.53232,-45.43547 21.2660904,-50.73467 3.01071,-0.76957 5.9741,-1.09015 8.8584,-1.01902 z m 115.777962,71.4231 c 8.48947,-0.0192 17.15566,1.45208 21.14012,4.67189 26.18829,21.16247 54.49963,107.08908 39.9647,121.29448 -7.99888,7.8175 -23.12759,-9.1323 -28.16831,-31.5619 -2.61373,-11.63068 -15.93918,-35.47214 -29.61322,-52.98 -13.67412,-17.50789 -24.86356,-33.03236 -24.86356,-34.5 0,-4.40993 10.62522,-6.9 21.54027,-6.92447 z"
       id="path4373" />
  </g>
</svg>
