<?xml version="1.0" encoding="UTF-8" standalone="no"?>
<svg
   xmlns:dc="http://purl.org/dc/elements/1.1/"
   xmlns:cc="http://creativecommons.org/ns#"
   xmlns:rdf="http://www.w3.org/1999/02/22-rdf-syntax-ns#"
   xmlns:svg="http://www.w3.org/2000/svg"
   xmlns="http://www.w3.org/2000/svg"
   version="1.1"
   id="svg2"
   viewBox="0 0 540 500.00001"
   height="500"
   width="540">
  <defs
     id="defs4" />
  <metadata
     id="metadata7">
    <rdf:RDF>
      <cc:Work
         rdf:about="">
        <dc:format>image/svg+xml</dc:format>
        <dc:type
           rdf:resource="http://purl.org/dc/dcmitype/StillImage" />
        <dc:title></dc:title>
      </cc:Work>
    </rdf:RDF>
  </metadata>
  <g
     transform="translate(0,-552.36216)"
     id="layer1">
    <path
       id="path7437"
       d="m 109.87663,1046.0762 c -35.813977,-9.4687 -64.692767,-24.4287 -82.011057,-42.484 -14.43466,-15.04893 -11.64174,-14.68089 30.86235,4.0673 31.69688,13.9811 42.052357,15.6137 96.042687,15.141 49.63107,-0.4345 71.94349,-3.8022 124.05611,-18.7236 74.65771,-21.3769 149.71957,-28.59128 185.01197,-17.78202 22.7755,6.97561 59.7761,27.86212 55.8761,31.54172 -1.0281,0.9701 -16.7559,-1.8795 -34.9505,-6.3325 -58.0682,-14.21159 -88.58443,-10.9003 -208.23239,22.5955 -69.1372,19.355 -123.86972,23.2884 -166.65527,11.9766 z m 51.8497,-57.02278 C 92.233903,961.82612 46.394483,925.47959 89.716803,931.95635 c 112.809337,16.86516 142.323627,20.43424 145.352107,17.57686 1.96149,-1.85071 -1.10306,-12.60351 -6.81011,-23.89512 -9.51003,-18.816 -12.00078,-20.23164 -29.82929,-16.95387 -62.76012,11.53842 -73.69141,10.92309 -94.12421,-5.29858 -35.845257,-28.45768 -59.262797,-91.24798 -42.116667,-112.92891 7.64186,-9.663 10.21911,-9.73823 44.296447,-1.29316 35.74416,8.85815 117.87798,7.07106 117.87798,-2.56484 0,-2.2429 -5.57279,-19.25387 -12.38399,-37.80212 -6.8112,-18.54826 -14.0562,-44.0014 -16.10001,-56.56254 -6.24561,-38.38548 -8.91303,-139.88632 -3.67581,-139.87191 2.71039,0.008 13.08772,14.78109 23.06071,32.83027 39.88627,72.18636 143.29438,182.731 200.54055,214.38054 9.49186,5.24776 10.61118,20.25533 2.93208,39.31187 -2.9296,7.27008 -5.62549,15.15829 -5.99082,17.52936 -1.12117,7.27605 -42.30641,80.70951 -51.21968,91.32494 -4.61432,5.4955 -10.81265,9.97343 -13.77405,9.95088 -2.96141,-0.0228 -18.62613,-15.20555 -34.81047,-33.74009 -30.1926,-34.57705 -33.12219,-38.68342 -57.29468,-80.30951 -13.47541,-23.20524 -15.0901,-24.13115 -36.30911,-20.8207 -12.2136,1.90549 -36.68676,3.49279 -54.38481,3.52735 -30.5532,0.0597 -31.96872,0.71162 -28.02893,12.90946 8.70357,26.94689 20.11894,33.01357 54.86911,29.16011 24.92606,-2.76404 35.79269,-1.36044 48.02825,6.20365 17.16826,10.61351 38.65933,49.55888 38.87241,70.44321 0.0747,7.31989 4.7719,14.40683 10.72306,16.17835 34.49992,10.27011 33.12698,11.64767 -26.73667,26.82564 -33.27728,8.43721 -61.63923,15.23181 -63.02655,15.09901 -1.38733,-0.133 -18.45462,-6.48361 -37.92732,-14.11308 z M 62.666023,768.81073 c -18.58414,-6.51826 -24.2912,-31.07843 -10.55053,-45.40387 20.55297,-21.42764 57.268737,-8.65511 57.268737,19.92242 0,20.77637 -23.534727,33.61289 -46.718207,25.48145 z"
       style="fill:#000000" />
  </g>
</svg>
