<?xml version="1.0" encoding="UTF-8" standalone="no"?>
<svg
   xmlns:dc="http://purl.org/dc/elements/1.1/"
   xmlns:cc="http://creativecommons.org/ns#"
   xmlns:rdf="http://www.w3.org/1999/02/22-rdf-syntax-ns#"
   xmlns:svg="http://www.w3.org/2000/svg"
   xmlns="http://www.w3.org/2000/svg"
   width="471"
   height="500"
   viewBox="0 0 471.00001 500.00001"
   id="svg2"
   version="1.1">
  <defs
     id="defs4" />
  <metadata
     id="metadata7">
    <rdf:RDF>
      <cc:Work
         rdf:about="">
        <dc:format>image/svg+xml</dc:format>
        <dc:type
           rdf:resource="http://purl.org/dc/dcmitype/StillImage" />
        <dc:title></dc:title>
      </cc:Work>
    </rdf:RDF>
  </metadata>
  <g
     id="layer1"
     transform="translate(20,-552.36216)">
    <path
       style="fill:#000000"
       d="m 216.03667,552.3622 c 161.09046,0 210.83923,0.52458 212.55404,2.23939 3.42747,3.42746 2.66356,10.46178 -1.37024,12.62061 -1.98478,1.06222 -12.89935,1.93086 -24.25413,1.93086 l -20.64449,0 0,4.75705 c 0,5.16677 4.25172,14.62387 9.0866,20.21093 2.8881,3.33739 2.80686,3.44382 -1.62433,2.12142 -9.99769,-2.98362 -23.2577,-11.56136 -29.59699,-19.14518 l -6.64052,-7.94422 -173.91179,0 c -155.614297,0 -174.2205575,-0.30775 -176.8438675,-2.93107 -3.72126999,-3.72126 -3.72126999,-7.20645 0,-10.92772 2.63056,-2.63057 24.5381905,-2.93207 213.2457175,-2.93207 z m 21.62958,22.38579 c 9.6664,0.25442 19.2114,4.61021 27.38381,13.034 6.5351,6.73612 9.14288,11.17122 10.6212,18.06431 2.26823,10.57643 0.24189,22.45348 -5.38319,31.55506 -3.3945,5.49241 -14.12931,14.05056 -20.42872,16.28571 -1.53918,0.54612 -7.49383,1.05939 -13.23264,1.14036 -36.17216,0.51061 -53.73416,-43.93035 -27.07226,-68.50643 8.65816,-7.98082 18.4454,-11.82743 28.1118,-11.57301 z m -95.13404,0.002 c 2.69519,0 7.34481,1.26491 10.33283,2.81007 6.10476,3.15689 7.17745,6.0526 20.56282,55.49259 l 7.95632,29.38424 50.56211,0.0615 c 43.21629,0.0521 51.91761,0.53384 59.8907,3.32026 13.79153,4.81983 74.9079,39.04424 78.98949,44.23314 4.75293,6.04238 30.22631,80.47435 30.18481,88.1981 -0.0676,12.57507 -16.5612,20.13592 -27.38583,12.55406 -2.49397,-1.74684 -8.87845,-15.20968 -17.47446,-36.84751 -7.44958,-18.75201 -14.47402,-35.084 -15.60915,-36.29397 -2.27366,-2.42356 -21.9564,-10.24498 -23.04419,-9.15718 -0.37456,0.37455 5.69363,20.57967 13.48571,44.90063 13.79264,43.05023 16.42377,56.28797 12.64784,63.6304 -1.44754,2.81478 5.79268,23.95792 34.12416,99.65414 19.77881,52.8452 35.40444,96.62124 34.72307,97.27964 -0.68138,0.6585 -14.24498,5.4384 -30.14146,10.6222 -31.08572,10.1371 -30.32132,10.1757 -32.43932,-1.6465 -1.14385,-6.3847 -0.88838,-6.7614 7.22431,-10.7028 4.625,-2.247 8.40903,-4.9181 8.40903,-5.9358 0,-1.5625 -56.52438,-128.8033 -59.1002,-133.03924 -1.41245,-2.32276 -39.03433,47.43894 -41.29301,54.61744 -2.39449,7.61018 -19.01007,95.9054 -19.01007,101.0193 0,3.2272 -2.05488,3.4574 -30.78373,3.4574 l -30.78373,0 0,-9.0735 0,-9.0725 11.3643,-2.4118 c 6.25035,-1.3264 11.68627,-3.3299 12.08017,-4.4525 0.3939,-1.1226 4.114,-23.6856 8.26687,-50.13968 4.15286,-26.45406 8.87746,-52.06051 10.4992,-56.90313 1.62175,-4.84263 12.91885,-25.67279 25.1041,-46.28902 l 22.15489,-37.48376 -25.26543,-64.15974 c -13.89599,-35.28795 -25.53544,-64.42976 -25.86535,-64.75967 -0.32991,-0.32991 -15.0403,-2.11654 -32.69038,-3.97059 -29.48614,-3.09737 -32.47137,-3.75159 -36.77492,-8.05514 -3.91987,-3.91987 -6.48029,-12.36863 -15.69687,-51.80531 -6.05692,-25.91692 -11.01241,-49.59825 -11.01241,-52.62504 0,-7.07169 8.99592,-16.41074 15.80778,-16.41074 z"
       id="path5415" />
  </g>
</svg>
