<?xml version="1.0" encoding="UTF-8" standalone="no"?>
<svg
   xmlns:dc="http://purl.org/dc/elements/1.1/"
   xmlns:cc="http://creativecommons.org/ns#"
   xmlns:rdf="http://www.w3.org/1999/02/22-rdf-syntax-ns#"
   xmlns:svg="http://www.w3.org/2000/svg"
   xmlns="http://www.w3.org/2000/svg"
   version="1.1"
   id="svg2"
   viewBox="0 0 539.99998 499.99998"
   height="500"
   width="540">
  <defs
     id="defs4" />
  <metadata
     id="metadata7">
    <rdf:RDF>
      <cc:Work
         rdf:about="">
        <dc:format>image/svg+xml</dc:format>
        <dc:type
           rdf:resource="http://purl.org/dc/dcmitype/StillImage" />
        <dc:title></dc:title>
      </cc:Work>
    </rdf:RDF>
  </metadata>
  <g
     transform="translate(0,-552.36224)"
     id="layer1">
    <path
       d="m 241.88174,677.85452 c -23.90926,-11.40627 -36.91135,-32.47887 -37.0089,-59.98069 -0.044,-12.38681 1.49576,-18.82531 7.08269,-29.61749 24.77566,-47.85883 91.31337,-47.85883 116.08902,0 13.00584,25.12316 7.59997,59.34922 -12.34848,78.18203 -19.03011,17.96582 -50.03402,22.76089 -73.81433,11.41615 z M 102.59546,1047.3063 c -18.999324,-6.6177 -30.701634,-19.4561 -30.701634,-33.6821 0,-24.06814 10.52489,-35.38619 61.935524,-66.60296 19.14901,-11.62738 37.77853,-24.69312 41.39893,-29.035 6.54012,-7.84338 6.58181,-8.18813 6.46939,-53.48311 l -0.11319,-45.58883 -5.15412,9.02838 c -2.83477,4.96561 -11.76598,21.21668 -19.84715,36.11349 l -14.69302,27.08512 -40.47132,32.88765 c -42.055214,34.17477 -53.674344,40.42539 -66.207314,35.61689 -13.39348,-5.13865 -19.80159,-26.45763 -11.50425,-38.27323 1.89905,-2.70429 19.78737,-19.12905 39.75181,-36.49946 l 36.29899,-31.58255 12.523434,-32.66535 c 6.88789,-17.96595 16.8327,-43.96041 22.09956,-57.7655 12.11713,-31.76041 18.36223,-37.65005 51.16626,-48.25401 62.45405,-20.18837 104.7797,-20.22151 168.18973,-0.13168 33.49923,10.61335 39.66481,16.36345 51.88182,48.38569 5.26687,13.80508 15.21168,39.79955 22.09956,57.76549 l 12.52343,32.66534 36.29899,31.58257 c 19.96445,17.3704 37.85275,33.79516 39.75181,36.49946 8.29733,11.81559 1.88924,33.13456 -11.50424,38.27323 -12.53297,4.80848 -24.15211,-1.44214 -66.20732,-35.6169 l -40.47131,-32.88764 -14.69304,-27.08512 c -8.08116,-14.89681 -17.01238,-31.14788 -19.84713,-36.11349 l -5.15414,-9.02838 -0.11319,45.30415 -0.11319,45.30413 7.02958,6.50033 c 3.86626,3.57519 18.77011,13.57248 33.11965,22.21622 56.16707,33.83339 69.76776,48.126 69.76776,73.31707 0,20.9164 -12.64308,31.1676 -45.80194,37.137 -23.43385,4.2186 -180.36889,5.0885 -194.67153,1.079 -13.63834,-3.8232 -20.76937,-12.9361 -22.24436,-28.4267 -1.11956,-11.7578 -0.4983,-13.9202 5.95083,-20.713 12.08818,-12.73253 28.21577,-17.1597 118.14905,-32.43315 14.44164,-2.45262 25.36942,-5.23251 24.28399,-6.1775 -1.08545,-0.94499 -13.02088,-4.94345 -26.52316,-8.88544 -23.87028,-6.96895 -25.26435,-7.08343 -50.37877,-4.13706 -45.63202,5.35342 -80.30938,18.02914 -93.89464,34.32162 -14.58337,17.48953 -12.79139,41.83143 4.35311,59.13243 l 9.81942,9.9088 -40.26029,-0.084 c -32.71808,-0.068 -42.88899,-0.9998 -54.29232,-4.9717 z"
       style="fill:#000000"
       id="path3347" />
  </g>
</svg>
