<?xml version="1.0" encoding="UTF-8" standalone="no"?>
<svg
   xmlns:dc="http://purl.org/dc/elements/1.1/"
   xmlns:cc="http://creativecommons.org/ns#"
   xmlns:rdf="http://www.w3.org/1999/02/22-rdf-syntax-ns#"
   xmlns:svg="http://www.w3.org/2000/svg"
   xmlns="http://www.w3.org/2000/svg"
   width="540"
   height="500"
   viewBox="0 0 539.99998 500.00001"
   id="svg5983"
   version="1.1">
  <defs
     id="defs5985" />
  <metadata
     id="metadata5988">
    <rdf:RDF>
      <cc:Work
         rdf:about="">
        <dc:format>image/svg+xml</dc:format>
        <dc:type
           rdf:resource="http://purl.org/dc/dcmitype/StillImage" />
        <dc:title></dc:title>
      </cc:Work>
    </rdf:RDF>
  </metadata>
  <g
     id="layer1"
     transform="matrix(-1,0,0,1,540,-552.36216)">
    <path
       style="fill:#000000"
       d="m 212.53426,608.36221 c -4.86099,2.4e-4 -9.96301,1.37525 -14.93283,4.36118 -14.49049,8.70616 -17.79762,40.22009 -5.65062,53.85666 4.02444,4.51791 13.08096,8.21371 20.12372,8.21371 17.61049,0 27.43685,-12.8028 27.43685,-35.74235 0,-18.32383 -12.39383,-30.68999 -26.97712,-30.6892 z m -28.50284,73.27632 c -3.02157,0 -10.7129,5.85884 -17.09192,13.02001 -8.66024,9.72234 -12.68314,27.64425 -15.88229,70.75907 -6.11325,82.3872 -6.2649,82.0218 38.28161,93.57499 29.52532,7.65752 37.48072,12.31437 35.28972,20.65769 -1.55573,5.92409 -4.63052,19.23974 -6.83004,29.5933 l 0,0 c -3.70374,17.43367 -2.6125,18.82496 14.78288,18.82496 17.54976,0 19.43097,-2.50276 28.65636,-38.12869 9.10087,-35.1512 9.10206,-39.08964 -0.0171,-50.39312 -5.43636,-6.74373 -21.01706,-17.89526 -34.62342,-24.78328 -22.65127,-11.46687 -24.43081,-14.2475 -21.09656,-32.96331 4.8748,-27.36198 6.73913,-28.5488 24.44838,-15.52227 20.61074,15.16054 75.59806,15.321 80.75449,0.23562 4.65611,-13.62149 -7.82131,-23.02601 -30.73187,-23.16369 -11.11547,-0.0667 -30.71413,-11.29115 -53.9575,-30.90613 -20.07612,-16.94215 -38.97179,-30.80515 -41.99302,-30.80515 z m 129.97092,101.41835 c -8.14986,-0.10315 -16.90034,12.28077 -17.4051,28.64328 -0.29034,9.4123 -6.00885,39.90454 -12.71045,67.75938 l -12.1876,50.64373 98.23619,-4.20409 c 94.1425,-4.02805 143.96758,-12.56178 143.96758,-24.65985 0,-12.13997 -57.4828,-64.25294 -88.40095,-80.14351 -17.93529,-9.21799 -47.22657,-18.55616 -65.09208,-20.74748 -17.86569,-2.19141 -35.3189,-7.90958 -38.78467,-12.70959 -2.25547,-3.1239 -4.90636,-4.54741 -7.62292,-4.58187 z M 77.6191,866.06176 c -8.20803,-0.0757 -14.16024,0.43876 -16.46211,1.73177 -7.47059,4.19632 -10.6682,14.13427 -10.6682,33.13537 l 0,27.13965 72.50859,0 72.50842,0 4.04815,-18.10309 c 2.22596,-9.9569 1.56631,-20.8891 -1.46601,-24.29327 C 191.12723,877.858 113.18705,866.38982 77.6191,866.06176 Z m 436.8137,71.46977 c -6.90255,0.0454 -21.34749,3.64745 -49.30975,11.69592 -11.73777,3.37859 -113.67974,6.16223 -226.53794,6.18273 l -205.198129,0.0412 -6.693405,21.55542 C 23.011674,988.8634 20,1001.5188 20,1005.1301 c 0,3.9954 6.565126,4.3122 16.768654,0.8079 9.222665,-3.1674 33.916686,-5.1821 54.876946,-4.4734 40.89873,1.3827 82.52192,1.6034 143.29462,0.7593 20.96044,-0.2912 47.14247,1.7556 58.18545,4.5482 13.07805,3.3074 32.88942,1.043 56.82605,-6.4969 34.36311,-10.8246 38.84522,-10.8366 69.04674,-0.172 29.41376,10.3863 33.93853,10.4515 50.67903,0.7331 C 488.58306,989.8609 520,952.5705 520,941.10362 c 0,-2.34445 -1.42575,-3.59919 -5.5672,-3.57198 z"
       id="path4211" />
  </g>
</svg>
