<?xml version="1.0" encoding="UTF-8" standalone="no"?>
<svg
   xmlns:dc="http://purl.org/dc/elements/1.1/"
   xmlns:cc="http://creativecommons.org/ns#"
   xmlns:rdf="http://www.w3.org/1999/02/22-rdf-syntax-ns#"
   xmlns:svg="http://www.w3.org/2000/svg"
   xmlns="http://www.w3.org/2000/svg"
   width="540"
   height="500"
   viewBox="0 0 539.99998 500.00001"
   id="svg5420"
   version="1.1">
  <defs
     id="defs5422" />
  <metadata
     id="metadata5425">
    <rdf:RDF>
      <cc:Work
         rdf:about="">
        <dc:format>image/svg+xml</dc:format>
        <dc:type
           rdf:resource="http://purl.org/dc/dcmitype/StillImage" />
        <dc:title></dc:title>
      </cc:Work>
    </rdf:RDF>
  </metadata>
  <g
     id="layer1"
     transform="matrix(-1,0,0,1,540,-552.36216)">
    <path
       style="fill:#000000"
       d="m 240.65818,552.36969 c -23.06329,0.48301 -39.80133,24.22358 -28.49034,49.28535 8.7587,19.40694 39.46118,24.73181 54.58131,9.46727 15.12031,-15.26454 9.84182,-46.25626 -9.38149,-55.09866 -5.72873,-2.63514 -11.38738,-3.76544 -16.70948,-3.65396 z m -31.79742,77.69466 c -4.68026,0.21733 -8.76574,2.95074 -15.33305,8.34066 -11.93036,9.79155 -15.70177,23.85713 -21.32594,79.5423 -4.95681,49.07604 -4.73093,70.19786 0.81458,76.94358 4.20432,5.11413 24.39724,13.08433 44.87261,17.71026 39.92665,9.02054 45.256,12.56924 37.61871,25.04453 -6.71721,10.97256 -81.2486,-8.67622 -100.16794,-26.40771 -17.07972,-16.00745 -30.19396,-16.99563 -30.19396,-2.27574 0,9.41583 -7.00555,10.23452 -51.557235,6.01984 l -51.55322,-4.87821 2.19844,23.18934 2.19462,23.19311 51.05861,5.57296 c 28.082565,3.06535 60.241845,10.96336 71.461995,17.55256 26.15496,15.35972 50.21623,51.48142 55.19514,82.85829 l 3.90587,24.60137 55.82746,-0.4206 c 30.70534,-0.22982 59.53373,-2.7296 64.06678,-5.55794 4.53305,-2.82834 8.25018,-13.4641 8.26922,-23.63623 0.0343,-25.33343 22.55649,-60.51228 49.26948,-76.95487 26.94612,-16.58609 79.0372,-18.14529 107.62257,-3.22209 l 20.08721,10.48496 0,-30.94418 c 0,-35.62404 -5.79824,-40.86625 -71.94936,-65.02783 -35.45494,-12.9498 -42.52048,-18.44745 -49.80123,-38.77411 -7.36018,-20.54862 -10.23855,-22.73909 -21.74248,-16.52357 -10.87847,5.8776 -11.92274,9.68748 -5.81424,21.21026 4.09519,7.7252 6.43246,14.70125 5.19297,15.50213 -1.23948,0.8009 -10.67944,5.108 -20.97626,9.57242 -14.01986,6.07857 -18.7028,12.90233 -18.65137,27.16629 0.0952,26.20552 -28.36635,105.80248 -39.35224,110.05837 -15.77967,6.11307 -15.50618,-1.73024 1.85257,-53.25479 23.69712,-70.33768 23.19889,-72.63919 -20.4369,-94.24454 -37.36464,-18.50032 -41.19909,-24.89127 -33.14013,-55.25261 l 4.12166,-15.51714 22.11825,13.80094 c 33.69797,21.02527 91.99926,16.6915 91.99926,-6.83851 0,-9.23366 -7.75099,-13.33645 -32.1768,-17.03431 -20.88771,-3.1622 -40.02874,-11.83032 -54.55521,-24.70652 -12.30785,-10.90958 -31.263,-24.47264 -42.11976,-30.14053 -8.94458,-4.66958 -14.22022,-6.96949 -18.90068,-6.75214 z M 102.00821,894.28778 c -18.681075,-0.32765 -37.949145,6.28667 -54.056765,20.56435 -39.4029004,34.92665 -36.85631,88.73257 5.80299,122.60877 36.23733,28.7765 94.951715,13.2727 115.530875,-30.5085 13.111,-27.89351 12.97426,-39.65538 -0.80715,-68.97474 -13.11424,-27.90028 -39.16673,-43.211 -66.46995,-43.68988 z m 339.70023,0 c -27.3116,0 -35.3858,3.41989 -55.14314,23.36585 -19.75716,19.94596 -23.14481,28.09711 -23.14481,55.66949 0,27.57228 3.38765,35.72728 23.14481,55.67328 19.75734,19.9459 27.83154,23.3658 55.14314,23.3658 27.31159,0 35.38922,-3.4199 55.14657,-23.3658 C 516.61235,1009.0504 520,1000.8954 520,973.32312 c 0,-27.57238 -3.38765,-35.72353 -23.14499,-55.66949 -19.75735,-19.94596 -27.83498,-23.36585 -55.14657,-23.36585 z m 1.18273,41.23763 c 31.18776,0 47.1078,42.93936 23.81082,64.22418 -24.29305,22.19481 -62.43399,5.32081 -62.43399,-27.62067 1.9e-4,-17.26675 20.40376,-36.60351 38.62317,-36.60351 z m -345.744735,0.41308 c 6.463315,0.0911 13.557615,2.33366 21.638295,6.69956 16.21238,8.75945 17.65109,42.36011 2.47002,57.68615 -5.88395,5.9401 -16.38818,10.8004 -23.342105,10.8004 -29.69383,0 -45.11752,-42.81912 -23.34193,-64.80253 6.99565,-7.06251 14.26574,-10.50077 22.57572,-10.38358 z"
       id="path4181" />
  </g>
</svg>
