<?xml version="1.0" encoding="UTF-8" standalone="no"?>
<svg
   xmlns:dc="http://purl.org/dc/elements/1.1/"
   xmlns:cc="http://creativecommons.org/ns#"
   xmlns:rdf="http://www.w3.org/1999/02/22-rdf-syntax-ns#"
   xmlns:svg="http://www.w3.org/2000/svg"
   xmlns="http://www.w3.org/2000/svg"
   width="540"
   height="500"
   viewBox="0 0 540.00001 500.00001"
   id="svg2"
   version="1.1">
  <defs
     id="defs4" />
  <metadata
     id="metadata7">
    <rdf:RDF>
      <cc:Work
         rdf:about="">
        <dc:format>image/svg+xml</dc:format>
        <dc:type
           rdf:resource="http://purl.org/dc/dcmitype/StillImage" />
        <dc:title></dc:title>
      </cc:Work>
    </rdf:RDF>
  </metadata>
  <g
     id="layer1"
     transform="matrix(-1,0,0,1,540,-552.36216)">
    <path
       style="fill:#000000"
       d="m 191.5143,604.3622 c -21.7297,0 -31.2717,12.47279 -31.2717,40.87434 0,12.67072 3.2955,27.04809 7.3197,31.95297 4.0245,4.90488 15.8211,8.92137 26.2176,8.92137 23.3034,0 33.5371,-11.62973 33.5371,-38.11318 0,-25.88633 -14.5632,-43.6355 -35.8027,-43.6355 z m -24.245,100.15131 c -15.2068,-0.49504 -24.1062,15.77553 -37.7453,52.82465 -25.2232,68.51685 -25.1079,71.38093 3.2817,82.00024 40.1231,15.00859 45.6777,13.08465 56.8561,-19.70617 8.3102,-24.37674 12.4945,-29.12195 22.4126,-25.41127 29.3844,10.99396 41.5685,12.21269 73.50466,7.34962 30.29057,-4.61257 33.7212,-6.8941 32.03804,-21.2979 -1.60179,-13.7065 -6.92727,-16.7529 -35.42296,-20.2667 -24.03674,-2.96408 -44.23844,-12.08919 -71.31584,-32.21285 -19.8486,-14.7514 -33.2045,-22.94094 -43.609,-23.27962 z m 183.71181,48.90214 c -5.22109,-0.13431 -7.80955,3.56783 -7.80955,11.10975 0,9.33427 -52.26855,116.4514 -102.80076,210.6816 l -9.5687,17.8465 21.2564,-4.8606 c 12.5564,-2.871 32.43496,-0.5905 48.56341,5.5712 36.81868,14.0659 50.18742,14.0189 86.10865,-0.3006 27.95288,-11.1437 33.56137,-11.1967 64.65233,-0.6497 l 34.04042,11.5484 17.28826,-21.0704 C 517.60584,965.139 520,956.4247 520,920.35193 c 0,-23.02847 -2.98268,-56.31828 -6.63012,-73.97244 l -6.63353,-32.09518 -34.52671,20.84321 c -30.48714,18.40574 -111.20872,44.20412 -138.31704,44.20412 -8.29486,0 -7.63589,-4.68739 4.3146,-30.62943 7.76042,-16.84607 20.28441,-38.75851 27.83006,-48.69093 16.78725,-22.09685 17.14531,-29.39616 1.92573,-39.32315 -7.26793,-4.74064 -12.92111,-7.16812 -16.98188,-7.27248 z M 38.4777,813.61839 29.2389,851.54071 C 24.157,872.39661 20,900.66343 20,914.35849 c 0,31.89725 13.9893,72.77241 28.233,82.48761 6.0965,4.158 15.2731,4.9406 20.3902,1.7378 18.4869,-11.5709 52.4829,-14.6811 76.3767,-6.9841 58.2423,18.7615 53.0869,21.5027 87.5747,-46.55925 l 31.4149,-61.99344 -53.3211,-5.55915 C 149.1835,871.07786 101.0825,855.80377 64.3021,831.01829 l -25.8244,-17.3999 z"
       id="path4265" />
  </g>
</svg>
