<?xml version="1.0" encoding="UTF-8" standalone="no"?>
<svg
   xmlns:dc="http://purl.org/dc/elements/1.1/"
   xmlns:cc="http://creativecommons.org/ns#"
   xmlns:rdf="http://www.w3.org/1999/02/22-rdf-syntax-ns#"
   xmlns:svg="http://www.w3.org/2000/svg"
   xmlns="http://www.w3.org/2000/svg"
   width="540"
   height="500"
   viewBox="0 0 539.99998 499.99998"
   id="svg2"
   version="1.1">
  <defs
     id="defs4" />
  <metadata
     id="metadata7">
    <rdf:RDF>
      <cc:Work
         rdf:about="">
        <dc:format>image/svg+xml</dc:format>
        <dc:type
           rdf:resource="http://purl.org/dc/dcmitype/StillImage" />
        <dc:title></dc:title>
      </cc:Work>
    </rdf:RDF>
  </metadata>
  <g
     id="layer1"
     transform="matrix(-1,0,0,1,540,-552.36224)">
    <path
       style="fill:#000000"
       d="m 143.24807,1048.3928 c -51.815359,-3.9712 -111.163489,-13.8459 -118.174109,-19.6626 -2.82339,-2.3425 -5.10651,-7.9988 -5.07361,-12.5695 0.12392,-17.21306 5.60995,-19.95692 42.77413,-21.39381 29.96057,-1.15834 35.30955,-2.36196 35.30955,-7.94522 0,-5.06433 33.930589,-111.09587 44.933739,-140.41593 2.08865,-5.56558 37.11694,32.453 37.11694,40.28553 0,2.3662 -7.78915,27.51894 -17.30924,55.89498 l -17.30924,51.59278 38.79871,0 38.7987,0 0,-47.16264 0,-47.16263 -35.16458,-38.69153 c -31.34876,-34.49299 -35.16458,-40.3055 -35.16458,-53.5651 0,-17.4499 36.72429,-129.81318 43.92018,-134.38013 2.70574,-1.71723 15.2882,-3.14915 27.96104,-3.18205 23.01538,-0.0597 23.0797,-0.0273 56.69837,28.71717 18.51126,15.82733 46.2539,35.11895 61.6503,42.87027 l 27.99346,14.09329 2.135,-10.64518 c 8.00322,-39.90433 14.41914,-79.95659 13.03052,-81.34481 -0.905,-0.90475 -18.70042,6.43175 -39.5454,16.30332 l -37.89996,17.9483 -17.41053,-14.26259 c -9.57579,-7.84443 -17.41054,-15.67102 -17.41054,-17.39243 0,-1.72141 10.98894,-6.20779 24.41985,-9.96974 13.43092,-3.76194 41.53063,-15.41882 62.44382,-25.90418 20.91319,-10.48536 41.22073,-19.06429 45.12787,-19.06429 16.3091,0 21.91183,19.88728 9.60063,34.07818 -4.5254,5.21637 -10.07843,26.85055 -16.22357,63.20583 -8.83415,52.26371 -8.97319,55.54523 -2.55228,60.23899 9.72194,7.10685 6.75563,26.88609 -4.78729,31.92144 -10.40074,4.5371 -9.04557,-0.40486 -24.45087,89.16606 -10.93369,63.57162 -11.50418,71.05495 -6.55119,85.93357 l 5.42545,16.29785 73.09234,1.95303 c 77.71537,2.07655 80.40944,2.81179 80.54748,21.98167 0.091,12.6548 -7.14958,16.3085 -45.12217,22.7687 -76.7541,13.058 -228.30105,17.3826 -331.62892,9.4634 z m 182.29697,-73.83455 c 8.94163,-14.48629 13.36111,-31.719 24.54282,-95.69875 7.50058,-42.91704 13.64793,-79.33164 13.66076,-80.92133 0.0129,-1.5897 -15.59452,-10.73189 -34.68301,-20.316 -19.08849,-9.58411 -43.18233,-24.75949 -53.54187,-33.72307 l -18.83552,-16.29742 -14.8337,44.29582 c -8.15853,24.36271 -14.8337,46.64514 -14.8337,49.51653 0,2.87138 9.67026,17.18601 21.48946,31.81027 l 21.48947,26.58958 0,57.3775 0,57.37752 22.31995,-1.17148 c 21.82843,-1.14564 22.56012,-1.56051 33.22534,-18.83917 z m -85.531,-329.81294 c -25.90448,-11.26469 -35.84331,-45.20034 -20.04976,-68.45896 18.52202,-27.27679 48.91853,-31.78107 71.96728,-10.66444 26.35636,24.14697 19.98186,65.78795 -12.12393,79.19882 -16.49117,6.8885 -23.81116,6.87463 -39.79359,-0.0754 z"
       id="path3404" />
  </g>
</svg>
