<?xml version="1.0" encoding="UTF-8" standalone="no"?>
<svg
   xmlns:dc="http://purl.org/dc/elements/1.1/"
   xmlns:cc="http://creativecommons.org/ns#"
   xmlns:rdf="http://www.w3.org/1999/02/22-rdf-syntax-ns#"
   xmlns:svg="http://www.w3.org/2000/svg"
   xmlns="http://www.w3.org/2000/svg"
   width="500"
   height="500"
   viewBox="0 0 500.00001 500.00001"
   id="svg2"
   version="1.1">
  <defs
     id="defs4" />
  <metadata
     id="metadata7">
    <rdf:RDF>
      <cc:Work
         rdf:about="">
        <dc:format>image/svg+xml</dc:format>
        <dc:type
           rdf:resource="http://purl.org/dc/dcmitype/StillImage" />
        <dc:title></dc:title>
      </cc:Work>
    </rdf:RDF>
  </metadata>
  <g
     id="layer1"
     transform="matrix(-1,0,0,1,500,-552.36216)" />
  <path
     id="path3335"
     d="m 198.48631,0.00615418 c -18.07022,0.25661278 -30.5161,8.55655792 -38.98008,25.89464382 -10.2728,21.043387 -0.90984,46.633739 20.59132,56.276356 11.22806,5.03543 19.79025,5.195355 32.97559,0.614289 45.95843,-15.967654 37.43911,-80.6467036 -10.89689,-82.73016031 -1.25515,-0.0535282 -2.48526,-0.07226509 -3.68994,-0.055128 z M 401.77256,65.803989 c -8.18726,-0.189334 -22.38705,6.61388 -48.05363,20.799196 -24.68384,13.642185 -27.99501,14.101565 -68.31288,9.491946 -41.30217,-4.722165 -44.65753,-4.194645 -132.8828,20.879919 -74.460805,21.16252 -91.438186,27.62235 -95.739811,36.43403 -4.9878,10.21728 -1.236562,18.38873 10.951911,23.85489 2.974335,1.3339 30.146797,-4.83558 60.38287,-13.71124 l 54.97569,-16.1369 31.36049,38.09183 31.36051,38.09379 -39.6324,12.32319 c -31.39684,9.76313 -40.89312,14.7841 -45.68798,24.15809 -10.58352,20.69082 -34.21573,105.45829 -32.7457,117.45718 1.65687,13.52409 16.98631,22.02873 30.95772,17.1745 12.01532,-4.1745 11.7779,-3.64931 27.2442,-60.29877 l 12.86958,-47.1388 38.04089,-13.40214 c 20.92236,-7.37064 40.3408,-12.36888 43.15139,-11.10839 3.36956,1.51114 1.39654,10.94942 -5.79229,27.70994 l -10.90083,25.41819 43.95698,43.02188 c 28.33138,27.7264 38.78152,37.58654 46.47194,40.52535 -4.89628,-0.0687 -9.84997,-0.13951 -14.30586,-0.19294 -50.08934,-0.60444 -116.78225,-2.51743 -148.21036,-2.09291 -138.272846,1.86773 -152.741948,-2.91913 -170.74292,15.16624 -8.827691,11.90837 103.25142,11.30914 218.7769,8.9505 A 40.495289,40.578849 0 0 0 212.46011,459.42148 40.495289,40.578849 0 0 0 252.95703,500 40.495289,40.578849 0 0 0 293.45199,459.42148 40.495289,40.578849 0 0 0 265.07605,420.70946 c 108.81406,-2.41594 212.96423,-5.67445 213.8334,-0.78951 11.00329,-35.31037 -63.74992,-19.52624 -111.9712,-20.28138 13.5652,-3.28932 21.18121,-16.72462 15.48278,-28.5231 -2.25678,-4.67238 -17.46649,-21.32026 -33.79884,-36.99516 l -29.69433,-28.50143 16.11938,-38.20406 c 8.86622,-21.01213 15.69434,-41.18706 15.17235,-44.83522 -0.52198,-3.64814 -16.18085,-25.20686 -34.79698,-47.90667 -19.39916,-23.6546 -30.7935,-40.89382 -26.69208,-40.38556 46.0342,5.70463 50.45696,4.84662 88.61537,-17.19419 36.75013,-21.227355 37.68935,-22.138193 35.8069,-34.723076 -1.61383,-10.788845 -4.1562,-16.399079 -11.38024,-16.566115 z"
     style="fill:#000000;stroke:none" />
</svg>
