<?xml version="1.0" encoding="UTF-8" standalone="no"?>
<svg
   xmlns:dc="http://purl.org/dc/elements/1.1/"
   xmlns:cc="http://creativecommons.org/ns#"
   xmlns:rdf="http://www.w3.org/1999/02/22-rdf-syntax-ns#"
   xmlns:svg="http://www.w3.org/2000/svg"
   xmlns="http://www.w3.org/2000/svg"
   width="540"
   height="500"
   viewBox="0 0 539.99998 499.99998"
   id="svg4857"
   version="1.1">
  <defs
     id="defs4859" />
  <metadata
     id="metadata4862">
    <rdf:RDF>
      <cc:Work
         rdf:about="">
        <dc:format>image/svg+xml</dc:format>
        <dc:type
           rdf:resource="http://purl.org/dc/dcmitype/StillImage" />
        <dc:title></dc:title>
      </cc:Work>
    </rdf:RDF>
  </metadata>
  <g
     id="layer1"
     transform="matrix(-1,0,0,1,540,-552.36224)">
    <path
       style="fill:#000000"
       d="m 378.44571,632.36692 c -19.67915,-0.21304 -53.35955,6.79069 -109.32172,21.722 -21.40992,5.71237 -21.23298,26.06915 0.61648,71.10692 11.09023,22.85983 20.16339,42.82072 20.16339,44.35716 0,1.53625 -18.40421,10.97335 -40.90016,20.96862 -39.30355,17.4633 -58.04157,29.40437 -46.14058,29.40437 3.01487,0 42.23903,10.05476 87.16401,22.34386 103.05888,28.19123 103.68531,28.22416 98.97961,5.29446 -12.32745,-60.06716 -22.09032,-86.17033 -43.17196,-115.43223 l -23.42477,-32.51707 38.18421,-9.75403 c 40.26506,-10.28583 51.87313,-23.55864 41.23619,-47.15001 -3.00997,-6.67589 -9.92007,-10.19814 -23.3847,-10.34405 z m 74.1276,118.05462 c -22.93014,-0.0322 -44.19234,20.14756 -44.19234,53.45022 0,21.84227 7.81384,36.4836 25.38535,47.56229 18.40752,11.60575 30.92389,8.63241 48.38775,-11.49877 17.63968,-20.3335 21.48094,-47.74878 9.26019,-66.09683 -10.72517,-16.10243 -25.08294,-23.39762 -38.84095,-23.41691 z m -301.22976,96.24729 c -29.6619,-0.36841 -51.10022,7.14929 -75.43773,22.41846 -26.07111,16.35678 -60.48872,52.80508 -55.40077,58.67009 1.02448,1.18094 13.18636,-2.65369 27.02835,-8.52106 40.06192,-16.98191 126.95778,-15.0243 185.95548,4.18957 26.37461,8.58951 64.45515,21.00611 84.62389,27.59211 46.88033,15.3085 97.71667,11.1058 141.85264,-11.7262 31.05506,-16.06512 78.18149,-62.1865 52.79596,-51.66998 -58.47687,24.22506 -106.59096,20.96171 -236.6523,-16.04713 -57.22118,-16.28218 -95.10379,-24.53744 -124.76552,-24.90586 z m -56.0758,90.27057 24.58371,13.5812 c 13.52112,7.4688 40.17919,17.4877 59.23856,22.2655 34.07465,8.5416 132.67989,13.248 126.42115,6.0336 -10.09526,-11.6372 -109.47782,-36.3368 -156.64602,-38.931 l -53.5974,-2.9493 z"
       id="path4269" />
  </g>
</svg>
