<?xml version="1.0" encoding="UTF-8" standalone="no"?>
<svg
   xmlns:dc="http://purl.org/dc/elements/1.1/"
   xmlns:cc="http://creativecommons.org/ns#"
   xmlns:rdf="http://www.w3.org/1999/02/22-rdf-syntax-ns#"
   xmlns:svg="http://www.w3.org/2000/svg"
   xmlns="http://www.w3.org/2000/svg"
   version="1.1"
   id="svg2"
   viewBox="0 0 520.00001 500.00001"
   height="500"
   width="520">
  <defs
     id="defs4" />
  <metadata
     id="metadata7">
    <rdf:RDF>
      <cc:Work
         rdf:about="">
        <dc:format>image/svg+xml</dc:format>
        <dc:type
           rdf:resource="http://purl.org/dc/dcmitype/StillImage" />
        <dc:title></dc:title>
      </cc:Work>
    </rdf:RDF>
  </metadata>
  <g
     transform="translate(0,-552.36216)"
     id="layer1">
    <path
       id="path4158"
       d="m 263.84291,552.37368 c -2.33532,0.0541 -4.72087,0.29985 -7.14046,0.75014 -35.44969,6.59714 -43.82062,53.47954 -13.24991,74.20346 4.86484,3.29788 15.08628,5.99609 22.71556,5.99609 11.00538,0 16.38496,-2.49367 26.03512,-12.06655 10.20057,-10.1189 12.16226,-14.62288 12.16226,-27.91179 1e-5,-24.09035 -17.94773,-41.49454 -40.52257,-40.97135 z m -152.6696,58.2194 c -4.48648,0.0912 -7.07242,1.4245 -9.33906,3.67299 -7.244709,7.18671 -5.135299,23.44519 3.75761,28.96925 4.42704,2.74999 35.80354,14.36444 69.72567,25.81012 l 61.67579,20.81034 0.0334,48.55692 0.0334,48.55691 -29.5129,17.56694 c -16.23245,9.66142 -36.30193,20.95104 -44.59831,25.08972 -29.8148,14.87312 -29.38283,24.77827 3.65267,83.8015 25.30003,45.20254 26.0878,46.15451 38.99354,47.22187 15.97362,1.32108 27.91841,-8.6664 27.82898,-23.26893 -0.033,-5.36749 -7.38674,-23.29647 -16.34128,-39.84283 -8.95452,-16.54636 -14.96385,-30.5582 -13.35484,-31.13702 1.60901,-0.57885 11.77899,-6.51761 22.60063,-13.19834 l 19.67582,-12.14749 0.9544,92.8014 c 0.92128,89.50837 1.2291,93.09037 8.67281,100.95047 0.40974,17.2798 -201.549679,-19.4944 -220.145029,-21.3788 0,0 -21.84641,19.2195 -13.64466,21.0087 71.83878,15.6709 254.598509,20.9074 293.921469,16.3342 51.5225,-5.9919 139.21077,-12.5829 174.87048,-16.8432 5.72829,-3.0033 13.97571,-25.1772 6.17607,-27.3417 -26.00765,-1.3911 -230.0258,51.5488 -193.56693,22.8079 l 1.78887,-171.18015 1.78886,-171.18015 60.81467,-15.6156 c 60.20892,-15.46062 69.76064,-20.04076 69.76064,-33.44525 0,-8.25504 -9.58071,-17.31744 -18.30503,-17.31744 -3.88312,0 -33.1475,6.5244 -65.03199,14.50031 -38.99912,9.75566 -62.46622,13.91728 -71.70607,12.71587 -46.12211,2.96281 -67.01441,-6.16942 -97.13158,-16.36076 -45.10743,-15.3057 -64.17768,-21.11838 -74.04792,-20.91775 z"
       style="fill:#000000" />
  </g>
</svg>
