<?xml version="1.0" encoding="UTF-8" standalone="no"?>
<svg
   xmlns:dc="http://purl.org/dc/elements/1.1/"
   xmlns:cc="http://creativecommons.org/ns#"
   xmlns:rdf="http://www.w3.org/1999/02/22-rdf-syntax-ns#"
   xmlns:svg="http://www.w3.org/2000/svg"
   xmlns="http://www.w3.org/2000/svg"
   version="1.1"
   id="svg2"
   viewBox="0 0 470 500.00001"
   height="500"
   width="470">
  <defs
     id="defs4" />
  <metadata
     id="metadata7">
    <rdf:RDF>
      <cc:Work
         rdf:about="">
        <dc:format>image/svg+xml</dc:format>
        <dc:type
           rdf:resource="http://purl.org/dc/dcmitype/StillImage" />
        <dc:title></dc:title>
      </cc:Work>
    </rdf:RDF>
  </metadata>
  <g
     transform="translate(0,-552.36216)"
     id="layer1">
    <path
       id="path4158"
       d="m 155.84416,1050.1856 c 1.48421,-6.5876 7.713,-22.0126 11.24923,-27.8575 8.91835,-14.7408 18.75095,-24.2452 32.20907,-31.13395 11.11677,-5.69028 20.97544,-8.06339 36.19577,-8.71274 15.34528,-0.65469 23.96987,0.50459 54.04591,7.26461 28.83365,6.48076 34.99898,7.45194 51.37036,8.09207 37.91848,1.4826 71.651,-12.12094 99.69232,-40.2036 l 8.9834,-8.99665 -2.83362,7.90213 c -12.14895,33.87975 -34.75996,55.93573 -65.29601,63.69333 -27.45803,6.9755 -48.67732,5.9578 -90.14236,-4.3237 -41.82607,-10.371 -57.43627,-10.641 -83.46824,-1.4438 -22.85556,8.0749 -40.05848,20.0302 -49.85662,34.648 -2.75386,4.1085 -2.84345,4.1532 -2.14921,1.0718 z m 0.93173,-32.6897 c 7.61594,-28.53574 22.38152,-49.00145 43.1669,-59.83113 13.10356,-6.82727 22.53805,-8.98486 39.83631,-9.11024 15.99275,-0.1159 21.94262,0.7219 49.01537,6.90185 33.28328,7.59766 42.24771,8.75924 62.82219,8.14027 15.29604,-0.46018 19.81295,-0.99909 28.36072,-3.38371 22.61583,-6.30928 43.66953,-18.60715 60.75647,-35.48903 5.63877,-5.57109 9.62727,-8.82986 9.24023,-7.54965 -5.49458,18.17421 -14.54241,33.21172 -28.17786,46.83165 -8.75294,8.74299 -11.81164,11.03036 -20.43751,15.28367 -17.29454,8.52772 -36.27487,12.077 -59.37399,11.10279 -15.5828,-0.6572 -23.55327,-2.03554 -51.37037,-8.88351 -27.66798,-6.81127 -41.92582,-8.67195 -54.96039,-7.17243 -13.9141,1.60068 -27.20765,5.6352 -41.35904,12.55223 -17.40912,8.50937 -26.60551,16.04444 -36.0975,29.57664 -1.01784,1.4511 -1.65752,1.9148 -1.42153,1.0306 z M 58.912615,978.01959 c -22.98249,-9.83637 -41.84912,-30.38212 -38.53288,-41.96226 2.76748,-9.66384 22.75191,-32.52312 34.54843,-39.51833 9.85684,-5.84502 18.81526,-9.02675 25.76989,-9.15264 l 6.26733,-0.11343 17.544975,-21.69325 c 9.64975,-11.93129 17.54499,-22.0935 17.54499,-22.5827 0,-0.4892 -1.61481,-2.78492 -3.58846,-5.1016 -4.83905,-5.68009 -7.11371,-10.35676 -7.11371,-14.62564 0,-7.61683 7.46121,-15.85668 14.33863,-15.83499 3.25505,0.0107 11.85353,3.67896 16.23967,6.92895 2.04058,1.51202 2.39098,1.45036 4.3902,-0.77249 1.73251,-1.92631 85.81146,-106.17439 89.39672,-110.8415 0.64226,-0.83606 -0.85278,-2.94228 -4.54075,-6.39702 -8.9127,-8.34909 -10.66791,-14.3493 -6.27826,-21.46239 4.98861,-8.08364 14.75126,-9.28742 26.15199,-3.22468 l 6.94845,3.69508 16.84237,-20.89333 16.84237,-20.89333 0.26165,-9.07922 c 0.64854,-22.50535 8.6293,-45.25927 22.22928,-63.37793 5.1645,-6.88044 8.26883,-8.79229 14.21432,-8.75413 13.37675,0.0859 41.7622,20.45065 46.75521,33.54394 3.11435,8.16684 0.45715,16.82043 -8.57441,27.92398 -11.45981,14.08885 -40.33133,30.68092 -53.38725,30.68092 l -4.67262,0 -16.70727,20.7355 c -9.18899,11.40452 -16.70725,21.02693 -16.70725,21.38313 0,0.35621 4.69556,4.12268 10.4346,8.36994 14.92131,11.04274 30.4754,23.98877 40.56788,33.76564 12.05568,11.67864 11.814,10.54655 12.55899,58.83028 0.60927,39.48813 1.24314,46.20571 4.53404,48.0501 3.80222,2.13096 11.47698,9.97107 16.06763,16.41378 9.33672,13.10355 15.87941,31.04034 19.17348,52.56425 2.06784,13.5115 2.71362,46.74764 0.9428,48.5226 -2.32724,2.33269 -18.16016,4.50053 -33.11007,4.53345 -17.14911,0.0377 -27.00414,-1.38163 -57.29221,-8.25152 -11.49768,-2.60789 -25.35374,-5.34841 -30.79125,-6.09005 -8.15328,-1.11205 -9.76514,-1.63515 -9.19484,-2.98404 5.41773,-12.81438 8.44939,-27.42243 7.61154,-36.67614 -0.70582,-7.79531 -5.38332,-18.01329 -8.24597,-18.01329 -1.08405,0 -15.61109,3.135 -32.28232,6.96666 -16.67122,3.83167 -32.34762,6.96667 -34.83644,6.96667 -7.80865,0 -10.99947,-2.51159 -28.15889,-22.16463 -8.95964,-10.26166 -16.66913,-18.51584 -17.13221,-18.34261 -0.46307,0.17323 -7.86208,9.02992 -16.44222,19.68155 l -15.60026,19.36658 1.18,6.70885 c 2.14483,12.19433 -1.64854,31.16458 -9.237615,46.19636 -9.15266,18.12881 -20.10928,30.06846 -27.51275,29.98124 -1.35362,-0.016 -5.59152,-1.36879 -9.41753,-3.00631 z M 208.77091,850.25038 c 37.95491,-4.6768 64.78342,-20.43086 76.97879,-45.20301 5.68717,-11.5522 7.88515,-22.06753 7.26228,-34.74347 -0.70296,-14.30594 -2.12881,-16.61724 -23.07967,-37.41205 -9.77582,-9.70302 -18.03111,-17.60934 -18.34508,-17.56962 -0.93964,0.11888 -91.53922,113.12145 -91.53922,114.17455 0,1.39749 17.96482,14.7094 25.04129,18.55557 6.68206,3.6318 9.74131,3.91575 23.68161,2.19803 z m 22.81435,-18.21924 c -21.35871,-4.23189 -33.86247,-28.69389 -24.75119,-48.42249 7.61051,-16.47899 26.1907,-24.36884 43.64719,-18.53424 4.41632,1.4761 7.51338,3.59698 12.40245,8.49325 8.22243,8.23456 10.47155,14.17866 9.89782,26.15856 -0.46989,9.8116 -3.1994,16.18348 -9.73722,22.73094 -5.29935,5.30715 -10.07854,7.86869 -17.69926,9.48632 -6.31961,1.34147 -7.39713,1.34833 -13.75979,0.0877 z"
       style="fill:#000000" />
  </g>
</svg>
