<?xml version="1.0" encoding="UTF-8" standalone="no"?>
<svg
   xmlns:dc="http://purl.org/dc/elements/1.1/"
   xmlns:cc="http://creativecommons.org/ns#"
   xmlns:rdf="http://www.w3.org/1999/02/22-rdf-syntax-ns#"
   xmlns:svg="http://www.w3.org/2000/svg"
   xmlns="http://www.w3.org/2000/svg"
   version="1.1"
   id="svg2"
   viewBox="0 0 539.99998 499.99997"
   height="500"
   width="540">
  <defs
     id="defs4" />
  <metadata
     id="metadata7">
    <rdf:RDF>
      <cc:Work
         rdf:about="">
        <dc:format>image/svg+xml</dc:format>
        <dc:type
           rdf:resource="http://purl.org/dc/dcmitype/StillImage" />
        <dc:title></dc:title>
      </cc:Work>
    </rdf:RDF>
  </metadata>
  <g
     transform="translate(0,-552.36218)"
     id="layer1">
    <path
       id="path4326"
       d="m 281.8832,1046.1577 c -7.8681,-7.5815 -7.95993,-9.6921 -1.81678,-41.7535 3.81292,-19.89986 8.58695,-49.89313 17.07879,-107.29906 l 0.96631,-6.53241 -24.79927,-10.8036 -24.79927,-10.80359 -36.24673,-33.88838 c -19.93568,-18.63861 -42.63829,-39.5043 -50.45024,-46.36821 -32.79001,-28.81074 -32.19466,-28.15625 -32.19466,-35.39179 0,-3.69402 1.24437,-8.42831 2.76527,-10.52064 3.6855,-5.07016 13.07502,-8.64371 18.96724,-7.21871 5.89512,1.42569 21.80287,14.54918 59.56611,49.14045 16.07044,14.72062 29.74265,26.76475 30.38266,26.76475 0.64001,0 9.01536,-16.15008 18.61187,-35.88903 l 17.4482,-35.88905 -39.05179,-70.40803 c -42.30874,-76.2801 -44.11986,-80.77672 -37.00364,-91.87171 4.86118,-7.57916 11.02993,-10.47106 22.33586,-10.47106 7.23761,0 9.5836,0.95249 14.60733,5.93073 3.29172,3.26191 21.7421,34.56824 41.00086,69.56961 23.25624,42.26652 36.28796,64.09777 38.80354,65.00531 2.08318,0.75155 11.45751,4.26458 20.83184,7.80675 9.37433,3.54217 17.63727,5.90517 18.36208,5.25111 0.7248,-0.65404 13.57634,-35.26811 28.55894,-76.92014 14.98263,-41.65202 28.29244,-77.62255 29.57736,-79.9345 3.1601,-5.68591 13.13963,-11.29246 20.11517,-11.30079 12.17425,-0.0145 25.53681,11.99642 25.53681,22.95381 0,6.93817 -63.62651,180.08517 -72.36713,196.93287 -4.68633,9.03297 -16.3838,32.64634 -25.99438,52.47413 -14.26307,29.42646 -17.80675,38.4797 -19.28592,49.27074 -9.84567,71.82787 -21.99317,146.59854 -26.34959,162.18794 -2.63702,9.4365 -11.43089,16.1805 -21.09863,16.1805 -6.13999,0 -8.8694,-1.2046 -14.05821,-6.2045 z m -60.54308,-80.96459 c -14.90659,-5.10657 -24.54397,-13.62709 -30.22054,-26.71828 -3.89485,-8.98226 -3.51107,-27.66678 0.75302,-36.66213 4.4047,-9.29193 18.27142,-21.61393 27.86379,-24.75977 25.87137,-8.48464 54.75737,5.45555 62.39058,30.1093 3.55446,11.48015 3.51669,18.39505 -0.15719,28.78464 -8.49098,24.01223 -36.48705,37.51684 -60.62966,29.24624 z M 94.371468,837.0268 C 61.173395,829.79734 35.380076,818.25533 25.901483,806.38775 19.052661,797.81278 18.072573,785.01301 23.445836,774.31752 35.408905,750.505 89.648339,715.84948 140.35938,699.61726 c 28.07177,-8.98557 57.27779,-13.28484 51.33293,-7.55646 -0.5807,0.55956 -9.25881,2.63211 -19.28467,4.60568 -44.29969,8.72029 -95.675483,32.91322 -125.978124,59.32327 -35.643305,31.06467 -25.76405,54.24408 30.180544,70.81167 8.845159,2.61944 22.845005,5.83424 31.11077,7.14399 8.26576,1.30976 15.36753,3.36096 15.7817,4.55824 1.08212,3.12814 -10.73597,2.52901 -29.131062,-1.47685 z m 308.304212,1.73946 c 0.36422,-1.05283 7.8921,-4.26678 16.72862,-7.1421 26.5214,-8.62985 44.71883,-15.79931 57.27463,-22.56524 28.38581,-15.29619 41.84111,-31.0979 37.43484,-43.9629 -3.86634,-11.28847 -25.16851,-25.8902 -46.92184,-32.1629 -4.42677,-1.27648 -8.04866,-3.42268 -8.04866,-4.7693 0,-3.47481 3.31224,-3.07187 16.88719,2.05439 43.80854,16.54327 55.85257,40.73262 31.7441,63.75529 -16.24514,15.51351 -39.9964,27.43194 -82.60158,41.44963 -16.78607,5.52285 -23.60169,6.53565 -22.4973,3.34313 z m -18.2568,-12.55842 c -1.41508,-2.20627 0.2199,-3.01898 9.23061,-4.58833 14.3843,-2.50522 58.25813,-21.29607 71.12423,-30.46202 7.37865,-5.25662 9.17246,-10.56871 4.64589,-13.75807 -2.63435,-1.85614 -2.92217,-2.9302 -1.22374,-4.5668 1.69843,-1.63657 3.12205,-1.35385 6.05308,1.2021 10.28928,8.97259 0.47036,19.98544 -30.9502,34.7136 -31.45122,14.7425 -55.96102,22.01035 -58.87987,17.45952 z M 61.445363,803.95836 c -6.144399,-2.36089 -13.240561,-8.76707 -15.24418,-13.76194 -3.969474,-9.89561 7.836233,-25.96356 28.989747,-39.45601 12.073747,-7.70105 40.99946,-23.20015 43.29806,-23.20015 4.37034,0 0.88658,5.15366 -5.43843,8.04529 -26.387127,12.06345 -56.464198,34.14859 -61.057261,44.83342 -3.164389,7.36132 1.095046,13.70564 12.451528,18.54622 12.466462,5.3137 9.72258,9.88139 -2.999464,4.99317 z"
       style="fill:#000000" />
  </g>
</svg>
