<?xml version="1.0" encoding="UTF-8" standalone="no"?>
<svg
   xmlns:dc="http://purl.org/dc/elements/1.1/"
   xmlns:cc="http://creativecommons.org/ns#"
   xmlns:rdf="http://www.w3.org/1999/02/22-rdf-syntax-ns#"
   xmlns:svg="http://www.w3.org/2000/svg"
   xmlns="http://www.w3.org/2000/svg"
   id="svg2"
   version="1.1"
   width="540"
   height="500"
   viewBox="0 0 540 500.00001">
  <metadata
     id="metadata12">
    <rdf:RDF>
      <cc:Work
         rdf:about="">
        <dc:format>image/svg+xml</dc:format>
        <dc:type
           rdf:resource="http://purl.org/dc/dcmitype/StillImage" />
        <dc:title></dc:title>
      </cc:Work>
    </rdf:RDF>
  </metadata>
  <defs
     id="defs10" />
  <g
     transform="matrix(-1.25,0,0,1.2499997,520,-815.45244)"
     id="layer1">
    <path
       id="path3363"
       d="m 295.23471,652.36405 c -7.14478,-0.0704 -14.25965,1.75314 -20.08917,5.57591 -8.64949,5.67174 -16.24299,18.87346 -16.21917,28.20326 0.0326,12.89274 10.62137,27.51235 23.42934,32.34903 6.83573,2.58129 20.29259,1.92421 27.9488,-1.36411 13.55887,-5.82317 20.70373,-16.52414 20.70373,-31.01007 0,-9.72166 -3.48351,-17.61639 -10.73305,-24.32307 -6.61677,-6.12098 -15.85273,-9.34002 -25.03882,-9.43095 l -0.002,0 z m -35.77684,67.12143 c -11.05443,0.16106 -32.07887,4.71205 -85.3296,16.48884 -43.90391,9.7104 -82.156769,18.34858 -85.009029,19.19506 -12.200816,3.6237 -17.166339,15.63728 -10.379244,25.11513 6.984388,9.75386 8.276594,9.68064 68.955943,-3.89589 30.02187,-6.71689 54.85989,-11.95134 55.19665,-11.6327 0.33701,0.31886 -17.50156,28.85868 -39.64188,63.42039 l -40.25476,62.84049 -43.173045,0 c -33.429366,0 -43.170769,0.44664 -43.163118,1.97703 0.02815,5.53472 20.079278,74.54846 21.992689,75.69588 2.622574,1.57299 6.781476,1.75733 10.35769,0.45889 1.483281,-0.53854 5.448977,-9.1503 9.465697,-20.55447 l 6.91289,-19.62881 29.996737,0 c 30.91565,10e-6 37.95538,-1.14534 45.21104,-7.35805 1.60225,-1.372 8.39784,-11.29271 15.10134,-22.04432 6.70332,-10.75159 12.94939,-19.56314 13.87888,-19.58165 0.92993,-0.0186 13.6517,11.30251 28.27103,25.156 l 26.58183,25.18743 -11.66153,43.59355 -11.66153,43.59202 41.0869,0 c 44.47624,0 48.51799,-0.7103 48.51799,-8.5399 0,-4.7912 -2.72155,-6.8661 -22.97923,-17.5229 -9.42081,-4.95618 -17.12132,-9.48039 -17.11111,-10.05328 0.0101,-0.57267 3.76091,-14.55909 8.33798,-31.08236 4.57705,-16.52329 8.32792,-32.37881 8.33795,-35.23287 0.0323,-9.9542 -4.81336,-16.53466 -29.54827,-40.12668 l -24.42426,-23.29528 19.05773,-30.06557 c 10.48125,-16.53616 19.50014,-30.09386 20.04102,-30.12684 0.54151,-0.0331 5.3094,9.1384 10.59519,20.38002 5.28578,11.24162 11.12485,21.73684 12.97533,23.32198 3.04029,2.60583 7.51794,2.92753 46.56969,3.35214 48.70191,0.52955 51.58811,0.007 56.09357,-10.19628 2.88007,-6.52193 1.03216,-14.08616 -4.62574,-18.93734 -3.07848,-2.63953 -7.32529,-3.04432 -39.42096,-3.74975 l -35.97118,-0.79049 -15.7923,-33.99447 c -16.50808,-35.53532 -20.8814,-42.59076 -29.4586,-47.52562 -4.26053,-2.45158 -7.30262,-3.93438 -13.93536,-3.83775 l 0.006,-0.002 z M 9.8222551,886.32727 l 0,0.002 c -2.371286,-0.006 -4.807692,0.78733 -6.878006,2.56007 -3.80512899,3.25832 -3.94315499,9.64476 -0.290662,13.46357 5.738366,5.99955 17.2871329,1.77684 17.2871329,-6.32082 0,-5.81466 -4.902,-9.69151 -10.1184649,-9.70439 z m 6.9808919,28.27712 0.0022,0.002 c -2.927601,0.0106 -5.768301,1.12577 -7.6304199,3.64132 -3.501297,4.72966 -3.274247,8.49876 0.740786,12.29748 1.8382259,1.73922 5.2213129,3.16198 7.5191009,3.16198 4.847915,0 10.862669,-5.05798 10.862669,-9.13549 0,-5.97808 -5.904529,-9.98617 -11.493834,-9.96686 z m 8.012441,28.58985 c -8.906299,0 -13.210196,9.71711 -7.122157,16.08181 3.386404,3.54057 8.628995,3.70709 13.573251,0.4306 7.424313,-4.92037 2.895711,-16.51241 -6.451094,-16.51241 z m 7.338071,27.58093 c -2.133167,0.0831 -4.251187,1.10873 -6.334849,3.08027 -5.071301,4.79838 -5.360612,9.35479 -0.863677,13.60972 4.663791,4.4128 10.756701,4.00397 14.918596,-1.00266 4.225328,-5.0825 4.32464,-7.19069 0.53822,-11.33411 -2.749275,-3.00846 -5.51565,-4.46 -8.25829,-4.35322 z m 248.692241,62.36283 0,0 c -1.57418,0.056 -3.12907,0.4945 -4.53105,1.3924 -5.58036,3.5737 -5.68037,13.2044 -0.17109,16.5186 6.09154,3.665 16.18928,-0.9174 16.18928,-7.347 0,-6.0745 -5.86493,-10.7628 -11.48714,-10.5657 z m -61.0133,0.1004 0,0 c -2.42238,-0.033 -4.84294,0.7541 -6.7584,2.5664 -3.42253,3.2382 -3.35382,9.9432 0.13953,13.5954 5.73837,5.9996 17.28881,1.7769 17.28881,-6.3207 0,-5.7467 -5.3406,-9.7727 -10.66994,-9.8427 z m 92.41356,0.073 0,0 c -2.73329,-0.057 -5.4244,1.0146 -7.28161,3.5234 -3.35962,4.5385 -3.30187,8.9421 0.16443,12.5662 5.74587,6.0074 17.70408,2.2347 17.70408,-5.5853 0,-6.1749 -5.36889,-10.3965 -10.5869,-10.5059 z m -60.87378,0.049 c -8.54233,-0.1459 -13.87269,7.8107 -8.23831,15.4217 2.59186,3.5013 9.63398,4.7085 13.4404,2.3039 6.14996,-3.8854 6.03856,-14.5014 -0.17607,-16.7576 -1.75286,-0.6363 -3.44411,-0.9409 -5.02602,-0.968 z" />
  </g>
</svg>
