<?xml version="1.0" encoding="UTF-8" standalone="no"?>
<svg
   xmlns:dc="http://purl.org/dc/elements/1.1/"
   xmlns:cc="http://creativecommons.org/ns#"
   xmlns:rdf="http://www.w3.org/1999/02/22-rdf-syntax-ns#"
   xmlns:svg="http://www.w3.org/2000/svg"
   xmlns="http://www.w3.org/2000/svg"
   version="1.1"
   id="svg2"
   viewBox="0 0 560 500.00001"
   height="500"
   width="560">
  <defs
     id="defs4" />
  <metadata
     id="metadata7">
    <rdf:RDF>
      <cc:Work
         rdf:about="">
        <dc:format>image/svg+xml</dc:format>
        <dc:type
           rdf:resource="http://purl.org/dc/dcmitype/StillImage" />
        <dc:title></dc:title>
      </cc:Work>
    </rdf:RDF>
  </metadata>
  <g
     transform="translate(0,-552.36216)"
     id="layer1">
    <path
       id="path3347"
       d="m 374.59471,1046.0038 c 5.92988,-3.51 23.71951,-20.4045 39.53252,-37.5436 24.25138,-26.28503 31.37564,-32.45901 45.52229,-39.45007 16.02801,-7.92083 17.9395,-8.27144 43.12638,-7.91046 30.94322,0.44353 51.94578,5.32364 24.4825,5.68875 -18.01568,0.23949 -39.64742,6.85962 -56.73584,17.36328 -5.98015,3.67587 -24.8891,18.4651 -42.01987,32.8652 -32.54138,27.3542 -45.4717,35.3018 -57.50185,35.3434 -7.03419,0.025 -6.95743,-0.11 3.59387,-6.3565 z m -74.04567,-1.6578 c -20.32605,-2.1694 -25.21862,-4.4651 -9.51594,-4.4651 29.0886,0 55.66873,-13.4602 95.04183,-48.12933 28.87502,-25.42531 51.69629,-39.90871 62.57669,-39.71399 5.65177,0.101 5.35009,0.58006 -3.37756,5.36203 -5.271,2.88803 -22.82919,19.66442 -39.01816,37.28083 -42.30897,46.03966 -60.33332,54.50806 -105.70686,49.66556 z M 244.0176,1016.2069 C 154.91332,991.93794 99.369056,965.97981 52.698952,926.79578 29.951292,907.69693 27.693959,902.73785 40.592637,900.19981 c 19.19528,-3.77701 87.511383,3.79067 128.366103,14.21972 l 20.77758,5.30391 -1.26462,8.1736 c -1.46567,9.47317 3.76319,21.78548 11.74097,27.64641 8.53856,6.27286 24.20054,5.04059 32.8395,-2.58383 l 7.37157,-6.50586 0,6.63066 c 0,15.25783 13.10766,28.9979 27.66329,28.9979 9.03508,0 19.26595,-7.08246 24.2483,-16.78618 2.3562,-4.58902 5.44425,-8.34367 6.86229,-8.34367 7.42321,0 70.60528,24.60299 70.60528,27.49357 0,3.6349 -27.96919,23.64716 -44.32435,31.71466 -26.2188,12.933 -34.13024,12.9375 -81.46095,0.046 z m 13.62929,-51.81338 c -2.88399,-2.81811 -5.2436,-7.30976 -5.2436,-9.98145 0,-2.67167 11.46794,-26.47374 25.48434,-52.89349 l 25.48431,-48.03592 27.28168,-21.4931 27.28165,-21.49311 -4.2488,-6.55919 c -3.78775,-5.84744 -4.24882,-13.37674 -4.24882,-69.38379 0,-58.31217 0.34418,-63.43592 4.79183,-71.33581 9.283,-16.48848 28.99027,-22.29985 43.70685,-12.88845 6.52205,4.17089 50.50131,17.6302 57.60797,17.6302 1.21776,0 4.09536,-9.32945 6.39466,-20.7321 5.58086,-27.67657 8.66668,-32.5452 20.00008,-31.55496 14.79084,1.2923 15.79328,7.37445 7.54045,45.74994 -3.83393,17.82776 -8.7772,34.50768 -10.98502,37.0665 -5.18577,6.01023 -9.36382,5.82523 -36.81428,-1.63007 -12.51862,-3.39994 -23.56976,-6.20438 -24.55807,-6.23209 -0.98831,-0.0276 -1.79693,23.2437 -1.79693,51.71424 0,41.54035 -0.7332,53.38524 -3.71216,59.96969 -2.54165,5.61779 -16.707,18.5161 -44.92331,40.90503 l -41.21117,32.69999 -21.51374,41.14671 c -28.05767,53.66244 -33.81647,59.54722 -46.31792,47.33123 z m -49.80826,-19.41619 c -4.66804,-3.26926 -8.17549,-12.65845 -6.4889,-17.37036 0.90163,-2.51886 15.8337,-24.40007 33.18245,-48.62487 l 31.54313,-44.04514 35.52668,-16.94182 c 23.73366,-11.31803 36.32366,-16.10594 37.92757,-14.42364 1.3205,1.38502 1.93371,2.92999 1.36267,3.43324 -0.57101,0.50325 -11.33436,8.97096 -23.91854,18.81719 -14.55371,11.3872 -24.80816,21.49992 -28.1778,27.78831 -6.42062,11.98221 -59.31892,85.73932 -64.65454,90.14908 -4.20401,3.47453 -12.22504,4.07379 -16.30272,1.21801 z M 202.08918,733.3161 c 0,-1.37162 -10.83702,-11.54919 -24.08223,-22.61684 l -24.08225,-20.12299 -66.962337,0 -66.962363,0 0,-6.28247 0,-6.28245 67.37367,0 67.37366,0 23.67093,-21.4987 c 13.01899,-11.82427 23.67092,-22.56727 23.67092,-23.87334 0,-1.30604 3.77355,-2.37464 8.38568,-2.37464 l 8.38568,0 0,52.77264 0,52.77265 -8.38568,0 c -4.61213,0 -8.38568,-1.12222 -8.38568,-2.49386 z m 0,-50.4499 0,-30.32693 -6.58875,5.01991 c -3.62382,2.76097 -11.85558,9.93342 -18.29278,15.93879 l -11.70405,10.91889 16.49587,14.24439 c 9.07272,7.83443 17.30446,14.30908 18.29277,14.38814 0.98831,0.0791 1.79694,-13.50339 1.79694,-30.18319 z m 31.14393,0.79936 0.002,-15.70615 32.99192,0 c 31.65781,0 40.73791,-1.43911 72.96393,-11.56406 3.81831,-1.19965 3.86347,-0.62923 0.59898,7.56556 -1.94189,4.87468 -3.53069,12.68948 -3.53069,17.36622 0,8.31131 -0.33786,8.59709 -14.97444,12.66495 -10.12747,2.8147 -26.80196,4.3589 -51.51496,4.7707 l -36.54054,0.60892 0.002,-15.70614 z m 132.43551,-56.00761 c -19.24268,-10.2574 -26.5779,-33.0248 -16.96557,-52.65863 7.19647,-14.69933 18.58315,-22.63713 32.47262,-22.63713 22.7081,0 36.85313,13.81265 38.4335,37.5304 0.76932,11.5457 -0.0455,15.47995 -4.67093,22.55012 -12.41802,18.98195 -31.27748,24.80603 -49.26962,15.21524 z"
       style="fill:#000000" />
  </g>
</svg>
