<?xml version="1.0" encoding="UTF-8" standalone="no"?>
<svg
   xmlns:dc="http://purl.org/dc/elements/1.1/"
   xmlns:cc="http://creativecommons.org/ns#"
   xmlns:rdf="http://www.w3.org/1999/02/22-rdf-syntax-ns#"
   xmlns:svg="http://www.w3.org/2000/svg"
   xmlns="http://www.w3.org/2000/svg"
   width="540"
   height="500"
   viewBox="0 0 540.00001 500.00001"
   id="svg4294"
   version="1.1">
  <defs
     id="defs4296" />
  <metadata
     id="metadata4299">
    <rdf:RDF>
      <cc:Work
         rdf:about="">
        <dc:format>image/svg+xml</dc:format>
        <dc:type
           rdf:resource="http://purl.org/dc/dcmitype/StillImage" />
        <dc:title></dc:title>
      </cc:Work>
    </rdf:RDF>
  </metadata>
  <g
     id="layer1"
     transform="matrix(-1,0,0,1,540,-552.36216)">
    <path
       style="fill:#000000"
       d="m 182.39271,552.36238 c -6.51467,-0.0222 -13.12669,2.11662 -19.28458,6.64137 -21.55968,15.84135 -26.71615,37.66569 -14.02789,59.38142 24.13565,41.30749 87.15271,7.64354 69.05814,-36.89079 -7.5482,-18.57754 -21.41311,-29.08306 -35.74567,-29.132 z m 20.68966,105.41297 c -22.18055,0 -178.088723,72.82853 -182.308643,85.16108 -2.13556,6.24036 0.30395,16.04021 5.41895,21.77598 8.10381,9.08763 16.98208,7.53744 69.04389,-12.04285 32.859983,-12.35862 60.233953,-21.69066 60.829403,-20.74151 22.18127,35.36517 35.28777,61.78524 35.28777,71.13224 0,6.52097 -5.86117,26.71503 -13.0243,44.87452 -9.65832,24.48536 -11.92765,40.69802 -8.78489,62.73762 3.11519,21.84694 6.7027,28.65883 13.54889,25.7127 5.12222,-2.20418 14.87699,-4.00767 21.67542,-4.00767 9.0106,0 12.36249,-5.08602 12.36249,-18.75931 0,-18.7401 18.26782,-60.73197 26.42175,-60.73197 7.59758,2e-4 25.1297,35.11348 25.1297,50.3315 0,12.41806 4.1424,14.70432 26.61896,14.70432 l 26.61897,0 -3.60193,-24.88343 c -1.98052,-13.68643 -18.48253,-53.13893 -36.67157,-87.67241 -29.53098,-56.06665 -31.47851,-62.2209 -18.18616,-57.50201 8.18728,2.9065 32.83997,6.95279 54.78382,8.99463 36.95695,3.4392 40.37825,5.25361 46.38597,24.57958 7.17971,23.09611 18.27395,27.21235 24.47836,9.08136 2.21741,-6.48013 14.45154,-22.65074 27.18576,-35.93527 19.29306,-20.12694 28.16754,-24.18859 53.23451,-24.35032 C 503.67647,730.01215 520,724.68819 520,713.76897 c 0,-4.87207 -14.88781,-5.94038 -42.50587,-3.04826 -35.46516,3.71384 -46.9378,1.95156 -69.27285,-10.63722 -14.72249,-8.29815 -31.73505,-19.9807 -37.80534,-25.96137 -16.88617,-16.63675 -29.31032,-7.19184 -25.80213,19.61217 l 2.98936,22.84205 -24.96061,-4.89218 c -13.7288,-2.69014 -43.18624,-15.92041 -65.45945,-29.4005 -22.27339,-13.48008 -46.61925,-24.50831 -54.10074,-24.50831 z M 384.574,710.46801 c 3.43751,0.0795 8.60857,2.42901 15.85175,6.6848 l 16.89032,9.92252 -15.69311,16.53248 -15.68985,16.52824 -4.46457,-22.79064 c -3.7036,-18.90915 -3.45699,-27.02896 3.10546,-26.8774 z m 43.35461,222.33176 c -11.37655,0.11079 -27.11545,1.03953 -49.69946,2.44031 -113.89193,7.06337 -306.082993,41.69166 -320.378773,57.72298 -4.45049,4.9908 22.4589,53.08864 32.25263,57.64794 4.296,2.0002 19.410233,2.3374 33.587033,0.7503 14.17679,-1.5874 48.97547,-4.8485 77.32906,-7.2494 56.65526,-4.7975 261.73072,-37.4741 277.34126,-44.1916 12.27992,-5.28434 6.85737,-28.35255 -12.26388,-52.15177 -9.22441,-11.48084 -13.13966,-15.21216 -38.16787,-14.96876 z"
       id="path4241" />
  </g>
</svg>
