<?xml version="1.0" encoding="UTF-8" standalone="no"?>
<svg
   xmlns:dc="http://purl.org/dc/elements/1.1/"
   xmlns:cc="http://creativecommons.org/ns#"
   xmlns:rdf="http://www.w3.org/1999/02/22-rdf-syntax-ns#"
   xmlns:svg="http://www.w3.org/2000/svg"
   xmlns="http://www.w3.org/2000/svg"
   width="500"
   height="500"
   viewBox="0 0 500 500.00001"
   id="svg2"
   version="1.1">
  <defs
     id="defs4" />
  <metadata
     id="metadata7">
    <rdf:RDF>
      <cc:Work
         rdf:about="">
        <dc:format>image/svg+xml</dc:format>
        <dc:type
           rdf:resource="http://purl.org/dc/dcmitype/StillImage" />
        <dc:title></dc:title>
      </cc:Work>
    </rdf:RDF>
  </metadata>
  <g
     id="layer1"
     transform="matrix(-1,0,0,1,500,-552.36216)">
    <path
       style="fill:#000000"
       d="m 305.77802,1047.5926 c -2.38297,-2.6232 -6.00421,-7.3977 -8.0472,-10.6096 -3.17425,-4.9907 -3.29224,-6.3557 -0.81128,-9.3834 5.014,-6.1193 78.24751,-60.02991 81.54602,-60.02991 2.77199,0 15.77816,17.60038 15.77816,21.3516 0,1.30114 -81.70524,63.44091 -83.41598,63.44091 -0.39436,0 -2.66674,-2.1463 -5.04972,-4.7696 z m -103.66673,-3.4635 c -5.64383,-2.5612 -23.21724,-18.7407 -51.17922,-47.11945 -57.004671,-57.85438 -63.590838,-65.60719 -66.124077,-77.8368 -2.817775,-13.60326 0.219821,-32.78392 6.754173,-42.64866 3.546789,-5.35448 27.261614,-24.08782 71.768874,-56.69321 36.55947,-26.78294 68.55733,-49.80941 71.10635,-51.16993 12.24213,-6.53411 31.30092,-0.19438 37.93273,12.61802 5.06646,9.78819 3.29508,27.69586 -3.44904,34.86787 -2.79844,2.97598 -23.08178,18.87 -45.07406,35.32007 l -39.986,29.9092 29.61448,29.5865 29.6145,29.58651 47.25466,-34.22002 c 35.40604,-25.63966 50.10101,-35.04667 58.60651,-37.51693 9.32987,-2.70972 21.64979,-3.17555 69.16721,-2.61536 56.64386,0.66776 57.95606,0.78185 64.75931,5.62967 9.1256,6.50269 15.5508,19.49189 16.87866,34.12191 1.36085,14.99349 -2.99976,26.06899 -12.55537,31.8894 -6.56442,3.99833 -10.60193,4.27857 -61.75814,4.28599 l -54.73452,0 -60.90459,47.92176 c -33.49751,26.35716 -65.67866,50.19566 -71.51367,52.97476 -12.68037,6.0393 -24.50314,6.3989 -36.17877,1.1006 z m 53.41855,-165.05435 -14.5875,-26.88218 7.14843,-5.96212 c 8.54704,-7.12863 6.87329,-8.73784 25.69795,24.70691 l 13.02296,23.13718 -7.20612,6.01025 c -3.96334,3.30563 -7.71958,5.97916 -8.34717,5.9412 -0.62757,-0.038 -7.70542,-12.16603 -15.72855,-26.95124 z M 31.879167,862.47405 c -33.2144598,-16.53583 -42.41388,-61.44329 -18.342273,-89.53895 26.924774,-31.42582 75.275438,-25.52184 93.356446,11.39951 5.12205,10.45918 5.58578,13.33674 4.74089,29.4187 -1.00184,19.06947 -4.92105,27.83808 -18.089119,40.47151 -15.384054,14.75945 -41.556664,18.26062 -61.665944,8.24923 z M 187.74189,756.11827 C 139.98189,670.5314 75.970959,554.33072 75.970959,553.21767 c 0,-0.74412 4.94163,-1.06462 10.981386,-0.71222 l 10.981408,0.64074 58.933467,105.99064 58.93346,105.99064 -6.7106,5.82949 c -3.69084,3.20621 -7.40906,5.82948 -8.26268,5.82948 -0.85363,0 -6.7421,-9.30068 -13.08551,-20.66817 z"
       id="path4586" />
  </g>
</svg>
