<?xml version="1.0" encoding="UTF-8" standalone="no"?>
<svg
   xmlns:dc="http://purl.org/dc/elements/1.1/"
   xmlns:cc="http://creativecommons.org/ns#"
   xmlns:rdf="http://www.w3.org/1999/02/22-rdf-syntax-ns#"
   xmlns:svg="http://www.w3.org/2000/svg"
   xmlns="http://www.w3.org/2000/svg"
   width="540"
   height="500"
   viewBox="0 0 540.00001 500.00001"
   id="svg2"
   version="1.1">
  <defs
     id="defs4" />
  <metadata
     id="metadata7">
    <rdf:RDF>
      <cc:Work
         rdf:about="">
        <dc:format>image/svg+xml</dc:format>
        <dc:type
           rdf:resource="http://purl.org/dc/dcmitype/StillImage" />
        <dc:title></dc:title>
      </cc:Work>
    </rdf:RDF>
  </metadata>
  <g
     id="layer1"
     transform="matrix(-1,0,0,1,540,-552.36216)">
    <path
       style="fill:#000000"
       d="m 390.99929,1046.5543 c -3.23211,-3.3168 -5.87656,-8.6469 -5.87656,-11.8441 0,-7.1174 11.38073,-18.6053 18.43173,-18.6053 8.88384,0 19.40637,9.9927 19.40637,18.4294 0,16.2997 -20.3383,23.9486 -31.96154,12.02 z M 364.85232,999.44972 C 238.77632,957.98916 177.67792,935.63003 97.282863,901.53217 17.480248,867.68545 13.873276,865.50475 24.124349,857.30238 c 3.097481,-2.47845 13.472743,1.03532 52.027393,17.61998 114.319398,49.17568 232.906188,93.64978 364.376788,136.65394 31.17916,10.1987 37.68504,13.5799 34.79754,18.0842 -2.84356,4.436 -16.34082,0.745 -110.47375,-30.21078 z m -36.78931,-39.36736 c -13.54824,-7.09936 -14.32589,-14.0541 -7.72811,-69.1149 5.06119,-42.23744 5.41214,-50.44713 2.27723,-53.27158 -2.03834,-1.83647 -15.86833,-13.67266 -30.7333,-26.30266 l -27.02722,-22.96361 -1.35136,23.89185 c -1.19633,21.15113 -2.12644,24.61597 -8.10816,30.20415 -8.18349,7.6451 -100.43452,48.50342 -109.5124,48.50342 -16.29276,0 -30.44102,-15.72435 -26.78492,-29.76875 2.91473,-11.19653 12.92328,-17.90755 52.24567,-35.03223 l 38.10537,-16.59468 0,-38.90684 c 0,-54.56285 -0.17675,-54.3207 61.27317,-83.88845 19.57852,-9.42055 36.20461,-18.07564 36.94688,-19.23356 0.74225,-1.15789 -10.41164,-6.4529 -24.78642,-11.76666 l -26.13599,-9.66136 -21.92292,-30.66135 c -29.09571,-40.69319 -29.29204,-41.0865 -25.23036,-50.54044 3.70256,-8.61806 9.99139,-12.73277 19.2727,-12.60988 9.22985,0.12221 12.65726,3.55499 35.69026,35.74615 11.53616,16.12306 21.26155,29.31465 21.61201,29.31465 3.40114,0 97.1479,34.18226 101.13969,36.87788 16.69114,11.27145 130.72159,113.90772 132.00582,118.81548 4.08113,15.59634 -10.66335,29.25855 -25.64832,23.76569 -3.60778,-1.32247 -25.5821,-19.21087 -48.83177,-39.75199 l -42.27214,-37.34752 -43.85323,21.09263 c -24.11927,11.60097 -43.76722,21.69561 -43.66209,22.43259 0.10514,0.73696 14.11629,12.99356 31.13595,27.23685 21.4591,17.95857 31.57744,28.2506 33.0085,33.57515 1.2488,4.64634 -0.78841,30.90202 -5.15919,66.49225 l -7.22289,58.81412 -8.45171,7.28046 c -9.36269,8.06557 -19.23708,9.16493 -30.29075,3.37314 z M 63.498842,930.11523 c -11.161754,-10.76121 -3.185185,-31.26896 12.162247,-31.26896 8.941874,0 17.577827,8.66674 17.526313,17.58879 -0.04973,8.6232 -2.117799,11.93849 -9.916151,15.89584 -8.468411,4.29739 -13.615042,3.72074 -19.772409,-2.21567 z M 413.50131,663.25644 c -41.52329,-17.793 -29.2555,-77.12194 15.94033,-77.09002 24.58228,0.0182 42.13802,16.14208 42.15808,38.72165 0.027,29.98251 -30.54784,50.17397 -58.09841,38.36837 z"
       id="path4589" />
  </g>
</svg>
