<?xml version="1.0" encoding="UTF-8" standalone="no"?>
<svg
   xmlns:dc="http://purl.org/dc/elements/1.1/"
   xmlns:cc="http://creativecommons.org/ns#"
   xmlns:rdf="http://www.w3.org/1999/02/22-rdf-syntax-ns#"
   xmlns:svg="http://www.w3.org/2000/svg"
   xmlns="http://www.w3.org/2000/svg"
   width="494"
   height="500"
   viewBox="0 0 494.00001 500.00001"
   id="svg2"
   version="1.1">
  <defs
     id="defs4" />
  <metadata
     id="metadata7">
    <rdf:RDF>
      <cc:Work
         rdf:about="">
        <dc:format>image/svg+xml</dc:format>
        <dc:type
           rdf:resource="http://purl.org/dc/dcmitype/StillImage" />
        <dc:title></dc:title>
      </cc:Work>
    </rdf:RDF>
  </metadata>
  <g
     id="layer1"
     transform="translate(20,-552.36216)">
    <path
       style="fill:#000000"
       d="m 296.22852,0 c -18.74997,-0.0253775 -36.35338,10.485851 -45.47266,28.9375 -3.75402,7.5957 -4.20334,9.496427 -4.57227,19.367188 -0.3181,8.510999 0.0809,12.491614 1.78907,17.896484 5.27503,16.69068 18.62272,29.353835 35.82226,33.984378 11.08279,2.98372 23.5373,1.79248 34.70508,-3.320316 7.63476,-3.49531 18.34158,-13.59638 22.49023,-21.21875 C 355.11759,49.689844 344.75198,17.391541 318.32617,5.0253906 311.07733,1.6332456 303.56546,0.00993033 296.22852,0 Z M 184.4668,83.214844 c -14.38152,0.01941 -19.50961,0.491405 -27.69922,2.546875 -12.81378,3.21602 -44.47285,13.549827 -49.87305,16.279301 -9.964413,5.03664 -13.557228,15.09282 -8.810546,24.66015 6.085686,12.26611 13.514356,13.23638 37.855466,4.93945 9.05165,-3.0853 21.9941,-6.99685 28.76172,-8.6914 10.7062,-2.68074 13.7893,-2.99897 23.72266,-2.45313 11.56103,0.6352 23.37109,2.80403 23.37109,4.29297 0,1.30904 -22.67106,74.22779 -23.26172,74.81836 -0.29515,0.29515 -11.1944,-0.29846 -24.2207,-1.31836 -13.02639,-1.0199 -26.90844,-1.85079 -30.84766,-1.84179 -11.53335,0.0211 -19.38867,5.35589 -24.08789,16.35742 -5.26802,12.33316 -11.463524,43.40639 -15.537106,77.91797 -1.409238,11.93908 -2.464954,17.24436 -3.361328,16.90039 -0.718557,-0.27574 -9.786341,-6.12648 -20.150391,-13.00196 -10.36396,-6.87539 -20.756436,-13.1329 -23.09375,-13.90429 -2.579899,-0.85193 -7.883543,-1.2085 -13.5,-0.91016 -8.1734,0.43416 -10.339997,1.05808 -18.580078,5.35156 C 1.7227161,292.15684 0,294.02379 0,301.58203 c 0,7.16598 1.939594,10.25488 9.8554688,15.70117 l 5.1269532,3.52735 -2.558594,2.7207 c -3.3943781,3.61319 -4.3270747,13.42272 -1.75,18.40625 3.84457,7.43462 13.042417,10.92558 20.535156,7.79492 3.529654,-1.47473 5.09983,-1.5468 9.291016,-0.42578 3.887749,1.04085 6.153245,1.04066 9.884766,0 l 4.841796,-1.34961 35.298829,23.66016 c 127.307059,85.33592 136.240599,91.49764 135.433589,93.40234 -0.43826,1.0343 -1.01498,4.44282 -1.28125,7.57422 -0.57217,6.7299 2.03355,11.80911 7.88868,15.37891 4.29895,2.6212 11.52138,2.9095 15.64843,0.625 2.00992,-1.1126 3.44548,-1.23493 4.96094,-0.42383 1.17266,0.6276 4.51153,1.16626 7.41992,1.19726 3.06316,0.0325 6.48577,0.88213 8.13477,2.01953 4.77009,3.29 9.9091,5.63695 16.20312,7.40235 7.97727,2.2375 17.65996,1.33055 26.06055,-2.43945 7.26363,-3.2597 15.25658,-10.91676 16.47852,-15.78516 0.97572,-3.8877 -0.0509,-9.96107 -2.2461,-13.29297 -0.96178,-1.4597 -46.05827,-32.37315 -100.21484,-68.69727 -78.39182,-52.57926 -98.0975,-66.27702 -96.6582,-67.18359 4.34714,-2.73804 9.68163,-8.00728 11.32617,-11.1875 0.98993,-1.91417 2.95806,-12.68398 4.42187,-24.20703 2.33039,-18.34588 6.97587,-47.17108 7.72266,-47.91797 0.14986,-0.14985 9.99042,0.49731 21.86719,1.4375 20.68948,1.6378 22.02207,1.89232 31.84765,6.07422 22.01008,9.36784 49.04741,16.11873 73.70899,18.4043 8.60328,0.79726 16.15275,1.76355 16.77539,2.14843 0.67301,0.41594 -4.71608,17.30085 -13.28711,41.63868 -15.91255,45.18399 -16.68103,48.93401 -11.93945,58.19336 8.00951,15.6409 27.62371,18.63631 40.06445,6.11914 5.04675,-5.07781 5.43409,-6.03969 25.62109,-63.79688 22.95573,-65.67897 23.15914,-66.58879 17.23633,-76.69531 -5.60689,-9.56743 -9.58714,-11.31176 -31.62109,-13.84766 -8.9979,-1.03557 -16.58442,-2.10643 -16.85743,-2.3789 -0.27301,-0.27246 4.54823,-16.84944 10.71289,-36.83985 l 11.20899,-36.34765 4.29297,-0.72461 c 5.77842,-0.97627 24.75896,1.38734 33.98633,4.23242 17.0997,5.27239 24.62616,10.52532 46.36523,32.36523 16.05184,16.12645 17.61108,17.38645 22.43164,18.10938 14.03709,2.10493 23.99578,-13.34765 16.5332,-25.6543 -3.12948,-5.16099 -31.58496,-33.52278 -39.70507,-39.57422 -20.35015,-15.16566 -47.77461,-23.37985 -76.54102,-22.92383 -14.20142,0.22519 -14.57206,0.16788 -19.11523,-2.98046 -6.33684,-4.3915 -60.62859,-21.062504 -68.59375,-21.062504 -3.3359,0 -9.7973,-1.392083 -15.52735,-3.345704 -17.04978,-5.81267 -27.34726,-7.444368 -46.82226,-7.417968 z"
       transform="translate(0,552.36216)"
       id="path5735" />
  </g>
</svg>
