<?xml version="1.0" encoding="UTF-8" standalone="no"?>
<svg
   xmlns:dc="http://purl.org/dc/elements/1.1/"
   xmlns:cc="http://creativecommons.org/ns#"
   xmlns:rdf="http://www.w3.org/1999/02/22-rdf-syntax-ns#"
   xmlns:svg="http://www.w3.org/2000/svg"
   xmlns="http://www.w3.org/2000/svg"
   version="1.1"
   id="svg2"
   viewBox="0 0 539.99998 499.99998"
   height="500"
   width="540">
  <defs
     id="defs4" />
  <metadata
     id="metadata7">
    <rdf:RDF>
      <cc:Work
         rdf:about="">
        <dc:format>image/svg+xml</dc:format>
        <dc:type
           rdf:resource="http://purl.org/dc/dcmitype/StillImage" />
        <dc:title></dc:title>
      </cc:Work>
    </rdf:RDF>
  </metadata>
  <g
     transform="translate(0,-552.36224)"
     id="layer1">
    <path
       id="path4158"
       d="m 230.95605,1044.4948 7.82918,-7.8675 0,-52.44781 0,-52.44784 42.70224,-33.9263 c 51.00329,-40.52134 51.04186,-40.55825 51.04186,-48.84315 l 0,-6.53647 -40.98812,0 -40.98812,0 -31.32877,31.87447 -31.32874,31.87446 0,65.22632 0,65.22632 7.82918,7.8675 c 5.79634,5.8246 10.37021,7.8674 17.61565,7.8674 7.24543,0 11.8193,-2.0428 17.61564,-7.8674 z m 164.97445,1.2302 c 9.35184,-4.0635 14.26919,-11.2176 14.27875,-20.7737 0.003,-3.428 -11.53362,-33.48414 -25.63788,-66.79136 -26.68505,-63.01683 -34.53819,-75.36182 -47.94067,-75.36182 -15.11962,0 -28.20699,12.5275 -28.20699,27.00032 0,9.10728 56.75307,129.33496 62.87576,133.19816 9.24608,5.834 15.81033,6.5612 24.63103,2.7284 z m -280.88747,0.7159 c 2.38795,-2.3996 3.21407,-29.726 3.21407,-106.31397 l 0,-103.08419 6.02641,0.002 c 3.31453,8.4e-4 13.72695,3.66288 23.13873,8.13711 9.41174,4.47426 19.17915,7.47578 21.70531,6.67009 2.52619,-0.80567 6.80144,-5.58566 9.50059,-10.62217 6.36132,-11.87 3.56129,-15.39001 -18.35833,-23.07888 -35.94184,-12.60753 -85.030528,-9.4082 -121.488408,7.91791 -18.57376,8.82695 -21.90669,12.52616 -16.33253,18.12756 3.44973,3.46659 6.00867,3.23111 21.07454,-1.93933 9.43142,-3.23673 25.28368,-6.50243 35.22725,-7.2571 l 18.07922,-1.3721 0,104.79157 c 0,108.114 0.30213,111.2512 10.713618,111.2512 2.35699,0 5.73178,-1.4534 7.49953,-3.2298 z m 403.18889,-95.45829 c 2.99749,-3.01213 1.98959,-13.53598 -1.5624,-16.31368 -1.84141,-1.43997 -11.18233,-4.23285 -20.75762,-6.20637 -48.11242,-9.91621 -99.46558,-49.37921 -133.39844,-102.51176 -5.44286,-8.5225 -12.30667,-16.15822 -15.25292,-16.96823 -2.94624,-0.81003 -24.33998,-1.4893 -47.54164,-1.50952 l -42.18485,-0.0368 0,7.85434 c 0,16.50052 -0.34206,16.36867 42.4714,16.37391 l 39.21989,0.005 7.31672,11.63861 c 30.66363,48.77622 87.1285,92.71172 135.25714,105.24407 16.92524,4.40718 33.37369,5.50453 36.43272,2.43055 z M 126.31733,795.37287 c 8.08841,-3.39201 36.40126,-16.48119 62.91745,-29.08708 26.51618,-12.60588 48.89887,-22.49532 49.73933,-21.97652 0.84043,0.51879 4.4184,12.51227 7.95106,26.65217 l 6.42297,25.7089 39.18153,0 39.18155,0 -11.30873,-43.73677 c -6.21979,-24.05522 -12.78059,-49.14312 -14.57955,-55.75091 -2.00645,-7.36991 -7.19102,-15.95349 -13.41194,-22.20482 -8.73607,-8.77878 -11.76189,-10.16687 -21.83943,-10.01889 -10.40874,0.15285 -20.55082,5.72698 -92.00361,50.56562 -52.15091,32.72616 -81.699228,52.88944 -84.281268,57.5121 -5.43467,9.72987 -1.34614,20.85126 9.264218,25.19997 6.97777,2.85987 10.03517,2.47528 22.76642,-2.86377 z m 269.15446,-8.16243 c 26.53925,-4.28518 29.18657,-5.35617 33.56607,-13.57934 2.98598,-5.60661 2.40366,-15.6524 -3.85308,-66.47171 -4.45733,-36.20389 -9.23396,-64.12229 -12.08475,-70.6329 -7.60042,-17.35779 -28.92509,-49.17079 -36.1474,-53.92616 -9.1241,-6.00756 -14.53954,-3.78899 -43.62287,17.87125 -35.26074,26.26094 -34.83535,21.77498 -10.30364,108.65801 25.18648,89.20194 22.37,86.16638 72.44567,78.08085 z M 259.8903,644.03442 c 11.11836,-5.50404 23.2293,-21.77636 25.58039,-34.36994 5.63684,-30.19383 -24.6504,-62.04167 -53.93552,-56.71462 -29.60931,5.386 -48.47408,37.67529 -38.11238,65.23384 3.4899,9.28194 14.76073,21.55946 24.47181,26.65755 9.7251,5.10547 30.87336,4.69915 41.9957,-0.80683 z"
       style="fill:#000000" />
  </g>
</svg>
