<?xml version="1.0" encoding="UTF-8" standalone="no"?>
<svg
   xmlns:dc="http://purl.org/dc/elements/1.1/"
   xmlns:cc="http://creativecommons.org/ns#"
   xmlns:rdf="http://www.w3.org/1999/02/22-rdf-syntax-ns#"
   xmlns:svg="http://www.w3.org/2000/svg"
   xmlns="http://www.w3.org/2000/svg"
   width="540"
   height="500"
   viewBox="0 0 540.00001 500.00001"
   id="svg2"
   version="1.1">
  <defs
     id="defs4" />
  <metadata
     id="metadata7">
    <rdf:RDF>
      <cc:Work
         rdf:about="">
        <dc:format>image/svg+xml</dc:format>
        <dc:type
           rdf:resource="http://purl.org/dc/dcmitype/StillImage" />
        <dc:title></dc:title>
      </cc:Work>
    </rdf:RDF>
  </metadata>
  <g
     id="layer1"
     transform="translate(19.999936,-552.36216)">
    <path
       style="fill:#000000"
       d="m 247.21875,38.59375 c -24.45732,-0.25256 -49.07031,17.610333 -49.07031,48.060547 0,14.773903 5.34028,26.778253 16.14062,36.285153 13.53204,11.91128 30.93145,15.45426 47.2793,9.62696 27.24373,-9.7112 39.81545,-39.776691 27.69922,-66.242191 -8.6543,-18.903438 -25.31487,-27.557665 -42.04883,-27.730469 z m 30.5332,111.66211 c -11.94238,0.066 -26.12724,2.27367 -32.80468,5.70898 -10.76422,5.538 -18.7434,14.90409 -21.53711,25.2793 -1.88954,7.01712 -0.60848,14.53358 10.16992,59.65625 6.78269,28.39498 12.91319,54.90164 13.62304,58.90234 1.15988,6.53683 -0.50512,10.12215 -16.42773,35.38868 l -17.71875,28.11718 -5.21875,38.38868 c -2.87113,21.11415 -5.22419,41.00683 -5.22851,44.20703 -0.0125,9.0058 5.76643,18.10178 13.57226,21.36328 8.88348,3.7118 12.85364,3.66127 20.81836,-0.26953 10.21585,-5.0417 12.59916,-11.84006 17.45312,-49.77149 5.13437,-40.12253 2.07231,-33.08638 40.08985,-92.11523 11.28001,-17.51432 22.49687,-35.65648 24.92578,-40.31641 l 4.41602,-8.47265 -4.75977,-30.98047 c -2.61743,-17.03882 -4.36138,-31.37493 -3.87695,-31.85938 0.48445,-0.48444 3.74779,1.67131 7.25195,4.79102 5.08884,4.53045 7.97053,10.83246 14.32031,31.3125 8.76225,28.26072 12.76123,33.58984 25.20899,33.58984 5.20159,0 8.88266,-1.72647 13.48632,-6.33008 7.81462,-7.81476 7.63504,-9.38103 -5.70507,-50.08984 l -9.77344,-29.82813 -30.63281,-21.75195 c -16.84834,-11.96302 -33.80081,-22.58046 -37.67188,-23.5957 -3.58695,-0.94075 -8.55211,-1.35424 -13.98047,-1.32422 z m -73.0664,66.77734 c -14.59098,-0.0881 -51.88996,4.23394 -75.46485,9.21094 -49.493883,10.44857 -84.69341,23.4663 -111.332028,41.17578 -21.3845069,14.21629 -21.6392764,14.77636 -11.0078126,24.21094 25.6009306,22.71897 86.5765826,44.57153 150.6738306,54.00195 42.46394,6.24753 37.7144,7.95881 55.29101,-19.90039 8.3106,-13.17258 15.55152,-25.63482 16.08985,-27.69336 1.11835,-4.27669 -15.46234,-77.23729 -18.22461,-80.19531 -0.5007,-0.5362 -2.65824,-0.79021 -6.02539,-0.81055 z m 183.28711,12.13086 5.32422,17.65039 c 4.69817,15.58027 5.02848,18.63195 2.82031,26.00196 -3.28037,10.94902 -13.14627,21.96669 -22.40821,25.02343 -7.00685,2.31251 -19.13714,1.80997 -29.03125,-1.20312 -4.18889,-1.27586 -3.95097,0.0261 4.15625,22.70898 9.90881,27.72452 6.775,26.15763 37.9004,18.95118 30.53145,-7.06908 63.01219,-18.42483 89.7832,-31.39063 L 500,295.53125 l -0.62109,-11.89258 -0.62305,-11.89258 -23.63672,-11.83984 c -20.21962,-10.1279 -63.24041,-25.71878 -81.63281,-29.58398 l -5.51367,-1.15821 z m -62.9668,85.50782 c -1.50324,0.10571 -5.55963,5.20503 -10.88477,13.77343 -5.48272,8.82191 -12.67759,20.30188 -15.99023,25.51172 l -6.02344,9.47266 16.48047,45.07812 c 9.06425,24.79273 17.36244,46.72609 18.44141,48.74219 5.78764,10.8144 19.22415,15.23418 30.65625,10.08398 8.72672,-3.9313 13.25586,-10.94087 13.25586,-20.51757 0,-4.8747 -8.49156,-31.33958 -22.02539,-68.64063 -12.11442,-33.38884 -22.65591,-61.84625 -23.42579,-63.23828 -0.10682,-0.19318 -0.26962,-0.28073 -0.48437,-0.26562 z"
       transform="translate(0,552.36216)"
       id="path5134" />
  </g>
</svg>
