<?xml version="1.0" encoding="UTF-8" standalone="no"?>
<svg
   xmlns:dc="http://purl.org/dc/elements/1.1/"
   xmlns:cc="http://creativecommons.org/ns#"
   xmlns:rdf="http://www.w3.org/1999/02/22-rdf-syntax-ns#"
   xmlns:svg="http://www.w3.org/2000/svg"
   xmlns="http://www.w3.org/2000/svg"
   width="490"
   height="500"
   viewBox="0 0 490.00001 499.99998"
   id="svg2"
   version="1.1">
  <defs
     id="defs4" />
  <metadata
     id="metadata7">
    <rdf:RDF>
      <cc:Work
         rdf:about="">
        <dc:format>image/svg+xml</dc:format>
        <dc:type
           rdf:resource="http://purl.org/dc/dcmitype/StillImage" />
        <dc:title></dc:title>
      </cc:Work>
    </rdf:RDF>
  </metadata>
  <path
     d="m 65.447696,480.08563 a 22.723849,19.313278 0 0 1 -22.723848,19.31328 22.723849,19.313278 0 0 1 -22.72385,-19.31328 22.723849,19.313278 0 0 1 22.72385,-19.31328 22.723849,19.313278 0 0 1 22.723848,19.31328 z m 382.911174,0.60108 a 22.723849,19.313278 0 0 1 -22.72385,19.31327 22.723849,19.313278 0 0 1 -22.72385,-19.31327 22.723849,19.313278 0 0 1 22.72385,-19.31328 22.723849,19.313278 0 0 1 22.72385,19.31328 z M 228.71035,4e-5 C 196.93771,2e-4 183.06183,20.9184 183.06164,47.92236 c 1.9e-4,27.00393 13.87607,49.86769 45.64871,49.86786 31.77263,-1.7e-4 43.66837,-22.86392 43.66857,-49.86786 C 272.37872,20.9184 260.48298,2e-4 228.71035,4e-5 Z m 64.79929,87.66918 c -8.96105,0.18177 -32.42823,8.69301 -39.18916,12.06169 -32.43846,12.1187 -37.83944,18.67226 -57.92596,42.36414 -13.50596,15.89451 -25.87741,29.63384 -27.49392,30.53211 -22.77954,7.48313 -68.0255,-5.00122 -82.701163,6.77355 0,0 -6.965542,-0.14923 -7.230278,12.44249 -0.675625,32.13536 13.988063,23.28286 38.317861,23.89224 24.82096,0.76681 36.07749,-2.34212 60.81543,-3.82963 21.07764,-5.95906 44.10601,-25.14236 46.7942,-25.33114 0.31094,-0.007 0.5797,0.0829 0.78912,0.28119 6.51096,119.88782 -45.32125,165.83873 -34.26344,281.6589 -38.23735,0 -84.01888,7.4293 -98.43694,-23.6869 -25.497748,-55.0278 1.592075,-169.37593 17.10958,-221.40319 l -31.801436,0.55389 -48.37588,222.98634 c 37.187805,-5.0917 47.480296,9.79576 51.68829,41.63766 l 45.063816,2.6035 264.26637,-0.3062 c -0.93966,-60.05979 61.41148,-56.12257 68.1479,-13.2889 0,0 11.40628,7.1654 10.89957,-1.5406 -3.47474,-59.70152 -83.87369,-63.28917 -89.38999,-3.266 -7.32393,1.3869 -17.49165,1.0521 -18.7587,-3.0868 l -7.4001,-24.1724 C 334.77132,381.31428 353.37407,305.9831 350.98339,240.76479 342.99239,197.80105 354.27157,91.57821 293.5097,87.6691 Z m -14.23542,228.07323 c 15.11755,0.62146 10.56378,25.85333 11.27482,53.09749 1.10583,42.37109 1.97918,60.10514 18.75031,104.58082 -23.67864,-0.2536 -68.38236,-1.6481 -68.38236,-1.6481 -8.51533,-51.3792 22.74862,-128.48188 38.35723,-156.03031 z"
     style="fill:#000000;fill-opacity:1;stroke:none;stroke-width:2.0999999;stroke-miterlimit:4;stroke-dasharray:none;stroke-opacity:1"
     id="path5001-4" />
</svg>
