<?xml version="1.0" encoding="UTF-8" standalone="no"?>
<svg
   xmlns:dc="http://purl.org/dc/elements/1.1/"
   xmlns:cc="http://creativecommons.org/ns#"
   xmlns:rdf="http://www.w3.org/1999/02/22-rdf-syntax-ns#"
   xmlns:svg="http://www.w3.org/2000/svg"
   xmlns="http://www.w3.org/2000/svg"
   width="510"
   height="500"
   viewBox="0 0 509.99998 500.00001"
   id="svg2"
   version="1.1">
  <defs
     id="defs4" />
  <metadata
     id="metadata7">
    <rdf:RDF>
      <cc:Work
         rdf:about="">
        <dc:format>image/svg+xml</dc:format>
        <dc:type
           rdf:resource="http://purl.org/dc/dcmitype/StillImage" />
        <dc:title></dc:title>
      </cc:Work>
    </rdf:RDF>
  </metadata>
  <path
     d="m 223.31424,332.06019 c 33.9171,0 68.07253,5.84379 90.74812,17.49385 l 0,0 c 22.6996,11.66256 31.98636,18.12358 20.63656,14.3569 -40.25997,-13.36163 -149.15901,-16.32418 -181.76962,-4.94534 -39.43309,13.75909 -51.252,7.84535 -18.92784,-9.47011 21.72065,-11.63404 55.39572,-17.4423 89.31278,-17.43054 z M 238.6391,153.53757 c 23.6657,0 -0.93434,34.06032 -90.5284,125.33654 -64.35136,65.55945 -97.65962,107.12565 -95.37146,119.01839 5.22246,27.14334 63.48251,62.08374 116.87701,70.09824 63.12128,9.4743 153.075,-10.5184 190.98211,-42.445 28.77569,-24.23559 30.84988,-30.78192 30.84988,-97.3558 0,-56.55945 3.21179,-71.37397 15.47618,-71.37397 12.35427,0 15.4762,15.32266 15.4762,75.94777 0,66.38248 -3.19607,79.4041 -25.39659,103.38098 -27.59941,29.80792 -60.16998,45.00052 -124.20988,57.93072 C 149.70711,518.92804 20,462.41084 20,383.9264 20,367.37914 222.9357,153.53757 238.6391,153.53757 Z M 388.75779,0 C 366.68058,0.07726 346.67185,14.571812 317.21092,45.982422 255.05699,112.24941 252.09845,119.62728 271.39256,160.125 c 27.82632,58.40614 106.14524,92.63747 151.33594,66.14453 8.69064,-5.09471 29.2197,-37.36926 45.62304,-71.7207 C 503.13943,81.696468 497.46236,53.955305 440.6699,19.296875 419.93798,6.644835 403.86328,-0.0528 388.75779,0 Z m -68.66406,109.14844 c 0.61342,-0.006 1.23216,0.002 1.85742,0.0195 35.72945,1.01179 90.13281,40.01647 90.13281,74.86133 0,26.3287 -45.75285,29.25445 -80.16796,5.12695 -32.78484,-22.98486 -47.7872,-54.32483 -33.97852,-70.97852 5.13019,-6.18724 12.9549,-8.94253 22.15625,-9.02929 z"
     style="fill:#000000"
     id="path4279" />
</svg>
