<?xml version="1.0" encoding="UTF-8" standalone="no"?>
<svg
   xmlns:dc="http://purl.org/dc/elements/1.1/"
   xmlns:cc="http://creativecommons.org/ns#"
   xmlns:rdf="http://www.w3.org/1999/02/22-rdf-syntax-ns#"
   xmlns:svg="http://www.w3.org/2000/svg"
   xmlns="http://www.w3.org/2000/svg"
   version="1.1"
   id="svg6611"
   viewBox="0 0 600.00001 500.00001"
   height="500"
   width="600">
  <defs
     id="defs6613" />
  <metadata
     id="metadata6616">
    <rdf:RDF>
      <cc:Work
         rdf:about="">
        <dc:format>image/svg+xml</dc:format>
        <dc:type
           rdf:resource="http://purl.org/dc/dcmitype/StillImage" />
        <dc:title></dc:title>
      </cc:Work>
    </rdf:RDF>
  </metadata>
  <g
     transform="translate(0,-552.36216)"
     id="layer1">
    <path
       id="path4215"
       d="m 295.87056,650.59053 c -72.86441,0.0649 -111.92145,32.05601 -193.94864,158.86584 -40.643545,62.833 -76.452845,120.91033 -79.578945,129.05693 -11.2374,29.2841 20.5977,14.0792 39.2853,-18.7619 24.39607,-42.87357 33.3651,-42.72155 27.0285,0.451 l -5.01412,34.1598 82.311615,-3.3215 82.31132,-3.3216 22.768,-74.93076 c 12.52051,-41.21225 25.67153,-77.7649 29.22518,-81.22368 3.55393,-3.45882 18.31893,31.52458 32.81201,77.73767 l 26.34936,84.01987 83.02254,0 83.02227,0 -7.03043,-36.4413 c -6.74463,-34.98474 -6.29638,-35.54741 11.09481,-14.0184 9.96441,12.3353 22.11763,29.3882 27.01277,37.8952 4.89487,8.507 14.74844,13.5151 21.89758,11.1319 7.76148,-2.587 -13.93697,-46.9888 -53.85547,-110.20482 C 420.45952,676.79001 389.00693,650.51202 295.87056,650.59053 Z m 42.03912,126.3456 c 8.97174,-0.30562 107.51126,40.07916 116.7631,48.09323 2.13637,1.85062 -11.98044,26.42657 -31.37408,54.61429 -19.39365,28.18785 -37.30372,51.25555 -39.80006,51.25555 -5.9098,0 -50.71773,-149.25859 -46.1725,-153.8039 0.0978,-0.097 0.29421,-0.14942 0.58354,-0.1592 z"
       style="fill:#000000" />
  </g>
</svg>
