<?xml version="1.0" encoding="UTF-8" standalone="no"?>
<svg
   xmlns:dc="http://purl.org/dc/elements/1.1/"
   xmlns:cc="http://creativecommons.org/ns#"
   xmlns:rdf="http://www.w3.org/1999/02/22-rdf-syntax-ns#"
   xmlns:svg="http://www.w3.org/2000/svg"
   xmlns="http://www.w3.org/2000/svg"
   version="1.1"
   id="svg2"
   viewBox="0 0 540.00001 500.00001"
   height="500"
   width="540">
  <defs
     id="defs4" />
  <metadata
     id="metadata7">
    <rdf:RDF>
      <cc:Work
         rdf:about="">
        <dc:format>image/svg+xml</dc:format>
        <dc:type
           rdf:resource="http://purl.org/dc/dcmitype/StillImage" />
        <dc:title></dc:title>
      </cc:Work>
    </rdf:RDF>
  </metadata>
  <g
     transform="translate(0,-552.36216)"
     id="layer1">
    <path
       id="path4496"
       d="m 306.97041,1042.9687 c -8.36587,-9.7613 -12.50751,-14.4689 -19.21708,-21.8429 -2.21609,-2.4354 -6.35278,-7.1327 -9.19265,-10.4383 -2.83988,-3.3056 -5.52312,-6.4065 -5.96277,-6.8909 -0.43965,-0.4844 -7.09433,-8.03064 -14.78817,-16.76944 -7.69384,-8.7387 -15.16391,-17.1795 -16.60014,-18.7572 -3.64992,-4.0095 -4.74703,-8.0094 -3.48974,-12.7229 1.6821,-6.3059 3.45587,-9.1803 9.27702,-15.033 6.74098,-6.7775 9.93233,-7.9914 19.40249,-7.3797 7.19441,0.4647 11.58493,1.8424 20.98671,6.5853 9.47814,4.7814 16.86,9.896 26.37889,18.2766 l 4.39649,3.8708 0.39968,-86.3984 0.39968,-86.39829 2.21798,-4.52862 c 7.74223,-15.80788 31.2029,-14.75961 37.0553,1.65571 0.78455,2.20058 1.03246,13.33007 1.05934,47.55677 l 0.0351,44.68393 6.36762,0 6.36761,0 0.22711,-63.92003 0.22711,-63.91996 1.86104,-4.1241 c 2.03721,-4.51446 6.6066,-8.73993 11.25149,-10.40461 3.53631,-1.26738 9.84454,-1.37672 13.92246,-0.24131 4.13672,1.15179 9.18867,5.8996 11.45193,10.7625 l 1.86516,4.00752 0.008,63.85317 c 0.005,40.87762 0.28904,63.94932 0.78941,64.12032 0.42988,0.147 3.29533,0.1479 6.36768,0 l 5.58607,-0.2651 0.22705,-52.63416 c 0.2498,-57.90832 0.0129,-55.15022 5.24881,-61.1295 3.89099,-4.44347 9.17615,-6.66143 15.63682,-6.56213 4.78475,0.0736 6.03682,0.43644 9.98531,2.89413 3.47527,2.16313 5.11202,3.88666 7.10967,7.48667 l 2.59508,4.67663 0.01,52.6989 0.009,52.69866 6.39488,0 6.39488,0 0,-27.878 c 0,-20.46106 0.28002,-28.96041 1.0525,-31.94639 4.76681,-18.42581 30.19405,-19.95073 38.22221,-2.29226 1.38889,3.05495 1.45839,8.69171 1.47512,119.62455 l 0.0176,116.41854 -102.51798,-0.034 -102.51798,-0.034 -7.99361,-9.3271 z m -81.93445,-53.21624 c -35.50741,-2.372 -66.27682,-11.6332 -96.72262,-29.1121 -27.69386,-15.8991 -53.906188,-40.6822 -72.531152,-68.5766 C 40.107073,868.58716 28.036211,838.7722 23.332582,811.91324 20.286874,794.52148 20,791.03719 20,771.43728 c 0,-20.7078 0.448361,-25.57203 4.073101,-44.18896 12.740112,-65.43415 57.795305,-123.60399 118.642279,-153.17664 30.87286,-15.00472 67.24655,-22.77374 101.09136,-21.59201 76.51476,2.67163 143.02722,42.24523 182.78048,108.75079 2.23977,3.74703 4.8847,8.61617 5.87764,10.8203 0.99294,2.20414 3.15085,6.89294 4.79536,10.41956 6.47603,13.88773 12.17798,32.65627 15.60787,51.37483 2.31203,12.61788 2.39146,12.23328 -2.37059,11.47848 -7.22171,-1.14466 -17.93654,1.48602 -22.67262,5.56652 -1.26097,1.08643 -1.5429,1.09634 -2.186,0.0769 -0.40608,-0.64372 -0.74906,-1.71141 -0.76219,-2.37265 -0.046,-2.31889 -2.48185,-8.24817 -4.74091,-11.54039 -3.40534,-4.96276 -9.20237,-9.97812 -14.30434,-12.37553 -4.00847,-1.88357 -5.51343,-2.13176 -12.92978,-2.13232 -7.73078,-6e-4 -8.80639,0.19564 -13.62699,2.48613 -6.45046,3.06492 -10.60044,6.64064 -14.13739,12.18115 -3.79356,5.94244 -4.99723,10.42303 -5.55213,20.66725 l -0.4813,8.88554 -5.28335,-2.70041 c -6.97517,-3.56514 -13.26493,-4.53988 -20.07151,-3.11053 -2.85772,0.6001 -5.46563,0.92852 -5.79537,0.72983 -0.32973,-0.19869 -0.60483,-1.51217 -0.61133,-2.91884 -0.026,-5.63058 -4.21537,-19.51145 -8.44454,-27.97981 -4.13525,-8.28032 -10.93593,-17.42393 -18.17445,-24.43582 -12.60227,-12.20772 -25.49074,-19.33116 -42.80809,-23.65999 -10.2727,-2.56788 -29.528,-2.55215 -39.99639,0.0327 -12.01941,2.96779 -21.1067,6.99467 -31.65184,14.02597 -6.32083,4.21461 -19.16486,17.24607 -23.45027,23.79246 -7.25386,11.08099 -12.60038,24.96961 -14.63228,38.01008 -1.417,9.09417 -0.4199,25.79512 2.10693,35.29013 2.0536,7.71674 6.52762,18.76234 9.26767,22.88029 0.7333,1.10207 2.47474,3.76252 3.86984,5.91212 9.1891,14.1586 25.22633,26.67095 43.63288,34.04275 11.94985,4.7859 32.9392,6.4463 47.14585,3.7295 18.17829,-3.4764 35.71638,-12.8904 48.16649,-25.8546 l 3.39728,-3.53756 0,52.24656 0,52.2466 -3.39728,-2.0973 c -6.39894,-3.9505 -15.74906,-8.4834 -21.96284,-10.6476 -5.43204,-1.8919 -7.47793,-2.1695 -16.24671,-2.2051 -9.87975,-0.04 -10.1142,0 -15.4381,2.7099 -3.92995,1.9994 -7.09074,4.535 -11.57632,9.2864 -9.87586,10.4611 -13.36581,19.5001 -11.88586,30.7842 0.85942,6.5528 1.59616,7.8852 8.70734,15.7469 9.6697,10.6902 9.14122,9.9603 7.81915,10.7988 -1.30452,0.8273 -2.5482,0.8176 -16.75479,-0.1314 z M 65.363707,776.66225 c 1.389736,-1.54574 2.220535,-3.39841 2.258865,-5.03724 1.119024,-47.84695 18.046577,-88.44772 50.355108,-120.77684 31.02741,-31.04718 67.84674,-47.14553 114.65221,-50.12888 8.89024,-0.56665 11.13995,-1.53017 12.78385,-5.4751 2.11138,-5.06681 -0.91053,-10.38078 -6.50198,-11.43361 -3.54932,-0.66831 -20.16907,0.61552 -31.86141,2.4612 -8.10637,1.27962 -14.90057,2.96109 -26.28089,6.50416 -53.16047,16.55058 -99.310486,60.93801 -118.448879,113.92499 -6.754676,18.70116 -11.448872,43.22783 -11.518017,60.18039 -0.03061,7.50468 0.581894,9.16638 4.220471,11.44996 3.475428,2.18118 7.456787,1.53857 10.340672,-1.66903 z m 49.206993,0.50305 c 1.71933,-1.72394 2.05022,-3.15325 3.02093,-13.0493 1.96362,-20.01838 5.09868,-31.61655 12.71656,-47.04489 11.98717,-24.27742 33.45767,-44.89912 58.35687,-56.04982 13.43192,-6.01528 30.95903,-10.14792 43.4955,-10.25563 2.89602,-0.0249 6.49079,-0.47573 7.98838,-1.00188 7.63064,-2.6809 7.89626,-13.32851 0.39442,-15.81098 -4.73627,-1.5673 -24.10854,0.54585 -37.48981,4.08944 -29.29801,7.75862 -53.42943,23.56994 -72.67905,47.62056 -15.35682,19.18696 -24.54025,40.3194 -28.45662,65.48298 -2.168971,13.93607 -2.127165,22.18586 0.12698,25.05922 0.94001,1.19825 2.46879,2.50318 3.39728,2.89987 2.62656,1.12216 7.00224,0.19246 9.12856,-1.93957 z m 113.14102,22.41202 c -10.66547,-3.97466 -17.92185,-12.80415 -19.45378,-23.67116 -1.42806,-10.13011 1.48814,-19.04732 8.53146,-26.08769 14.80249,-14.7963 39.7062,-10.14889 48.37821,9.02811 2.09674,4.63668 2.4309,6.31173 2.43159,12.18905 8e-4,9.95682 -1.98496,14.77439 -9.20379,22.32472 -7.11713,7.44395 -20.2507,10.10501 -30.68369,6.21697 z"
       style="fill:#000000" />
  </g>
</svg>
