<?xml version="1.0" encoding="UTF-8" standalone="no"?>
<svg
   xmlns:dc="http://purl.org/dc/elements/1.1/"
   xmlns:cc="http://creativecommons.org/ns#"
   xmlns:rdf="http://www.w3.org/1999/02/22-rdf-syntax-ns#"
   xmlns:svg="http://www.w3.org/2000/svg"
   xmlns="http://www.w3.org/2000/svg"
   width="640"
   height="500"
   viewBox="0 0 640.00001 500.00001"
   id="svg2"
   version="1.1">
  <defs
     id="defs4" />
  <metadata
     id="metadata7">
    <rdf:RDF>
      <cc:Work
         rdf:about="">
        <dc:format>image/svg+xml</dc:format>
        <dc:type
           rdf:resource="http://purl.org/dc/dcmitype/StillImage" />
        <dc:title></dc:title>
      </cc:Work>
    </rdf:RDF>
  </metadata>
  <path
     id="path4212"
     d="m 180.62275,166.12374 a 43.413174,43.413174 0 0 1 -43.41317,43.41317 43.413174,43.413174 0 0 1 -43.41317,-43.41317 43.413174,43.413174 0 0 1 43.41317,-43.41317 43.413174,43.413174 0 0 1 43.41317,43.41317 z"
     style="fill:#000000;stroke:none" />
  <path
     id="path4210"
     d="m 225.80938,138.19372 c -7.92461,-0.02 -10.38515,1.46843 -14.15413,4.44771 -7.51943,5.94388 -7.86814,7.86718 -8.71264,48.07258 l -0.87932,41.88127 -50.03393,0 c -45.85649,0 -50.55794,0.57677 -56.30105,6.89812 -7.6686,8.44075 -8.21172,26.40161 -1.06279,35.09644 4.97565,6.05165 16.25098,6.28906 259.26716,5.44511 L 608,279.15082 l 0,-36.56915 c 0,-58.42786 -4.45849,-62.83728 -71.04363,-70.23473 -24.6854,-2.74251 -82.24726,-9.08628 -127.91298,-14.09671 -45.6657,-5.01043 -106.99726,-11.96597 -136.29223,-15.45612 -25.62904,-3.05344 -39.01716,-4.58039 -46.94178,-4.60039 z"
     style="fill:#000000;stroke:none" />
  <path
     id="path4232"
     d="M 40.49955,52.01976 C 34.83173,52.2282 29.3265,54.08442 25.73012,57.66683 20.30837,63.06742 20,73.81813 20,257.68524 l 0,194.3148 23.49997,0 23.49774,0 0,-50.0059 0,-50.00585 252.21918,0 252.21918,0 0,50.00585 0,50.0059 23.49774,0 23.49997,0 0,-75.87202 0,-75.86948 -275.60057,0 -275.59833,0 -0.9017,-116.89371 C 65.48969,74.03441 65.04432,65.99868 59.46197,59.21343 55.34264,54.20643 47.78673,51.75179 40.49955,52.01976 Z"
     style="fill:#000000;stroke:none" />
</svg>
