<?xml version="1.0" encoding="UTF-8" standalone="no"?>
<svg
   xmlns:dc="http://purl.org/dc/elements/1.1/"
   xmlns:cc="http://creativecommons.org/ns#"
   xmlns:rdf="http://www.w3.org/1999/02/22-rdf-syntax-ns#"
   xmlns:svg="http://www.w3.org/2000/svg"
   xmlns="http://www.w3.org/2000/svg"
   version="1.1"
   id="svg2"
   viewBox="0 0 450.00001 499.99998"
   height="500"
   width="450">
  <defs
     id="defs4" />
  <metadata
     id="metadata7">
    <rdf:RDF>
      <cc:Work
         rdf:about="">
        <dc:format>image/svg+xml</dc:format>
        <dc:type
           rdf:resource="http://purl.org/dc/dcmitype/StillImage" />
        <dc:title></dc:title>
      </cc:Work>
    </rdf:RDF>
  </metadata>
  <g
     transform="translate(0,-552.36228)"
     id="layer1">
    <path
       id="path4217"
       d="m 29.26019,1043.0433 c -16.34821,-16.396 -10.30448,-38.4519 12.25869,-44.7366 16.09129,-4.48205 350.87094,-4.48205 366.96224,0 22.56318,6.2847 28.6069,28.3406 12.25867,44.7366 l -9.29181,9.319 -186.44799,0 -186.44795,0 -9.29185,-9.319 z m 348.50863,-11.2168 c 4.94052,-3.6794 5.46778,-5.7446 2.64519,-10.3612 -4.64157,-7.5918 -18.28412,-7.615 -19.73991,-0.034 -1.07554,5.6011 4.40021,14.9902 8.7423,14.9902 1.20008,0 4.95868,-2.0679 8.35242,-4.5954 z m 31.51555,-0.5568 c 5.807,-5.8239 5.17093,-10.4809 -2.05606,-15.0528 -11.11431,-7.0313 -20.94391,6.9354 -11.52755,16.3793 5.04961,5.0644 7.44457,4.8305 13.58361,-1.3265 z M 43.91887,967.32392 c 4.38703,-9.94882 9.7332,-20.21349 11.88037,-22.81033 6.43139,-7.77836 23.3387,-13.29809 40.73292,-13.29809 13.62317,0 18.17722,1.59046 27.13155,9.47543 18.91004,16.65175 49.85987,23.97373 101.33628,23.97373 51.47642,0 82.42626,-7.32198 101.33631,-23.97373 8.95432,-7.88497 13.50837,-9.47543 27.13153,-9.47543 17.39422,0 34.30153,5.51973 40.73292,13.29809 2.14717,2.59684 7.49334,12.86151 11.88036,22.81033 l 7.97642,18.08881 -189.05754,0 -189.05754,0 7.97642,-18.08881 z m 122.0057,-19.46704 c -23.68259,-6.39476 -35.44713,-13.14566 -42.96702,-24.65597 -4.79371,-7.33748 -4.78417,-8.52864 0.12845,-16.04815 14.08858,-21.5647 52.71372,-31.63008 112.4689,-29.30847 47.79965,1.85712 70.35262,7.94863 85.43599,23.07607 5.77413,5.79101 10.4984,12.25065 10.4984,14.35478 0,8.01727 -21.41935,25.01872 -38.31278,30.41054 -26.18375,8.35696 -99.69808,9.61127 -127.25194,2.1712 z M 254.52,914.10164 c 6.48842,-4.02179 4.30501,-11.56588 -4.29666,-14.84577 -4.48463,-1.71005 -15.83515,-3.10917 -25.22335,-3.10917 -9.38819,0 -20.73871,1.39912 -25.22333,3.10917 -8.66426,3.30376 -10.7724,10.82886 -4.18043,14.92235 10.28941,6.38946 48.57219,6.33973 58.92377,-0.0765 z m 13.39359,-45.68024 c -21.38057,-4.09549 -48.35691,-4.11096 -95.30036,-0.0545 -7.65451,0.66142 -8.16291,-0.63274 -17.48444,-44.50634 l -9.60071,-45.18758 -37.4906,20.47999 c -43.26123,23.63231 -52.18878,25.07491 -66.4795,10.74245 -9.08615,-9.11271 -9.57597,-10.80044 -7.63344,-26.3016 1.14165,-9.11023 7.60919,-38.73164 14.37233,-65.82535 13.50654,-54.10841 17.57558,-60.72721 37.33324,-60.72721 14.19393,0 26.52302,11.85423 26.52302,25.5015 0,5.41802 -2.33254,19.16394 -5.18341,30.54649 -2.85088,11.38255 -4.48443,21.39658 -3.63012,22.25338 0.85431,0.85682 10.69672,-2.78034 21.87202,-8.08256 l 20.31875,-9.6404 73.60584,-0.002 73.60589,-0.002 15.69249,-21.51949 15.69248,-21.51949 -2.13997,-46.22705 c -2.45319,-52.99435 -0.15639,-63.48413 15.30723,-69.90806 12.13415,-5.04082 24.91966,-1.33142 32.86746,9.53569 4.76732,6.51839 6.00946,17.26442 7.71561,66.74851 l 2.03356,58.97935 -26.40142,35.06879 c -14.52076,19.28784 -28.63415,36.81646 -31.36307,38.9525 -2.72896,2.13603 -13.90204,3.92933 -24.82912,3.98509 -10.92707,0.0557 -19.8674,1.25653 -19.8674,2.66836 0,1.41183 4.29136,22.25825 9.53636,46.32539 10.0336,46.04019 11.03102,53.38991 7.15226,52.70495 -1.31125,-0.23146 -13.11249,-2.47605 -26.22498,-4.98777 z M 185.38134,704.29961 c -6.0553,-1.73818 -14.87287,-5.91925 -19.59459,-9.29124 -10.8559,-7.75266 -21.86697,-30.2809 -21.77596,-44.55279 0.22698,-35.59819 35.68558,-63.21775 69.45292,-54.09858 32.62203,8.80987 50.3649,43.80127 38.34423,75.62005 -9.48356,25.10293 -39.9437,39.92455 -66.4266,32.32256 z m -61.51479,-4.69268 c -1.13371,-1.13703 -1.23613,-5.36473 -0.22756,-9.3949 2.37825,-9.50338 -3.66674,-27.66793 -11.60553,-34.87343 -13.86008,-12.57985 -2.8402,-52.76831 20.7771,-75.77215 26.60529,-25.91422 64.28857,-34.03672 98.54701,-21.24145 14.82995,5.53887 24.19938,12.26069 42.1189,30.21685 20.01554,20.0565 23.04618,24.59179 23.04618,34.48811 0,15.50856 -5.86266,27.21474 -16.35494,32.65635 -11.73064,6.08388 -12.25135,5.90464 -12.27186,-4.22419 -0.0318,-15.38107 -6.4013,-32.52609 -16.27585,-43.80544 l -9.58922,-10.95342 8.17323,-2.05734 c 9.63395,-2.42503 10.17497,-4.93719 2.5532,-11.85497 -18.30796,-16.61687 -61.23758,-23.57441 -84.72639,-13.73148 -22.44281,9.4046 -44.95131,36.00104 -50.6637,59.86511 -1.95658,8.17386 -1.64153,8.42991 7.23221,5.87752 l 9.27792,-2.66864 -0.155,17.29906 c -0.11227,12.53201 2.07282,21.60562 7.92947,32.92703 4.44645,8.59538 7.25735,16.45749 6.24645,17.47134 -2.50874,2.51608 -21.47581,2.33932 -24.03162,-0.22396 z"
       style="fill:#000000" />
  </g>
</svg>
