<?xml version="1.0" encoding="UTF-8" standalone="no"?>
<svg
   xmlns:dc="http://purl.org/dc/elements/1.1/"
   xmlns:cc="http://creativecommons.org/ns#"
   xmlns:rdf="http://www.w3.org/1999/02/22-rdf-syntax-ns#"
   xmlns:svg="http://www.w3.org/2000/svg"
   xmlns="http://www.w3.org/2000/svg"
   version="1.1"
   id="svg5487"
   viewBox="0 0 420.00001 500.00001"
   height="500"
   width="420">
  <defs
     id="defs5489" />
  <metadata
     id="metadata5492">
    <rdf:RDF>
      <cc:Work
         rdf:about="">
        <dc:format>image/svg+xml</dc:format>
        <dc:type
           rdf:resource="http://purl.org/dc/dcmitype/StillImage" />
        <dc:title></dc:title>
      </cc:Work>
    </rdf:RDF>
  </metadata>
  <g
     transform="translate(0,-552.36216)"
     id="layer1">
    <path
       id="path4277"
       d="m 20,552.3622 0,242.06622 c 0,133.13444 3.562955,245.63228 7.917038,249.99728 4.354371,4.3649 89.853782,7.9365 189.999992,7.9365 l 182.08297,0 0,-249.99725 0,-250.00275 -190,0 -190,0 z m 194.75914,45.37827 c 36.87033,-0.81479 62.75893,48.84001 28.48752,83.1972 -19.35358,19.40199 -39.77477,17.94755 -62.08804,-4.42178 -25.61847,-25.6822 -23.38086,-48.05807 6.92798,-69.34041 9.07353,-6.3712 18.16402,-9.247 26.67254,-9.43501 z m 1.18008,26.05193 c -9.79705,0 -17.81737,8.03491 -17.81737,17.85615 0,9.82153 8.02032,17.85612 17.81737,17.85612 9.79675,0 17.81161,-8.03459 17.81161,-17.85612 0,-9.82124 -8.01486,-17.85615 -17.81161,-17.85615 z m -1.44964,96.26545 c 21.26409,-0.21429 43.24021,4.63387 64.62743,15.72128 98.2035,50.90973 96.92416,202.39087 -2.10699,249.50163 C 254.5086,995.9848 223.54325,1004.726 208.20197,1004.6971 163.37779,1004.625 103.25116,960.33341 83.436417,912.79149 43.519818,817.01808 122.34412,720.98627 214.48958,720.05785 Z m -5.13572,23.86639 c -23.98931,0.19409 -46.32101,10.01825 -69.69583,29.73577 -29.51944,24.9015 -36.53344,39.91023 -36.53344,78.16156 0,61.61738 16.95057,91.55841 63.27905,111.76126 l 0,0 c 48.06293,20.95962 50.29045,20.9351 96.55939,-1.07603 85.62858,-40.73505 89.51719,-158.71743 6.64692,-201.67854 -21.93671,-11.37221 -41.59754,-17.04961 -60.25609,-16.89854 z m -2.10152,82.2509 c 33.4584,0 51.2424,23.50793 37.39879,49.4396 -14.17242,26.5474 -38.37289,28.32569 -58.27825,4.28104 -18.97041,-22.91469 -6.99559,-53.72064 20.87946,-53.72064 z m -68.50454,35.71224 c 13.06254,0 23.75083,7.84828 23.75083,17.43938 0,9.5911 11.04818,23.36576 24.54857,30.60897 19.09439,10.24433 30.96075,8.95488 53.43483,-5.80755 15.89018,-10.43784 28.89202,-24.21221 28.89202,-30.60897 0,-6.39647 8.01485,-11.63183 17.81161,-11.63183 28.79736,0 20.42924,43.82788 -13.47393,70.56274 -52.70239,41.55931 -113.19667,28.58266 -144.89791,-31.08771 -18.70487,-35.20726 -17.63239,-39.47503 9.93398,-39.47503 z"
       style="fill:#000000" />
  </g>
</svg>
