<?xml version="1.0" encoding="UTF-8" standalone="no"?>
<svg
   xmlns:dc="http://purl.org/dc/elements/1.1/"
   xmlns:cc="http://creativecommons.org/ns#"
   xmlns:rdf="http://www.w3.org/1999/02/22-rdf-syntax-ns#"
   xmlns:svg="http://www.w3.org/2000/svg"
   xmlns="http://www.w3.org/2000/svg"
   version="1.1"
   id="svg2"
   viewBox="0 0 488.00001 500.00001"
   height="500"
   width="488">
  <defs
     id="defs4" />
  <metadata
     id="metadata7">
    <rdf:RDF>
      <cc:Work
         rdf:about="">
        <dc:format>image/svg+xml</dc:format>
        <dc:type
           rdf:resource="http://purl.org/dc/dcmitype/StillImage" />
        <dc:title></dc:title>
      </cc:Work>
    </rdf:RDF>
  </metadata>
  <g
     transform="translate(0,-552.36216)"
     id="layer1">
    <path
       id="path3373"
       d="m 294.6077,1048.8314 c -6.68952,-6.8767 -16.39391,-8.7636 -24.61347,-4.786 -3.29353,1.5938 -4.73205,1.6049 -5.33222,0.041 -0.25919,-0.6753 -7.69048,-11.3416 -16.51401,-23.7027 -8.82351,-12.3613 -17.18723,-24.10041 -18.58603,-26.08691 -3.12401,-4.43657 -4.07216,-5.76841 -26.40313,-37.08792 -9.88874,-13.86911 -24.08306,-33.74958 -31.54293,-44.17881 -7.45987,-10.42923 -14.70357,-20.58758 -16.09711,-22.5741 -1.39354,-1.98652 -4.14328,-5.84669 -6.11053,-8.57816 -1.96725,-2.73146 -5.423,-7.60747 -7.67945,-10.83556 -2.25643,-3.22811 -6.72447,-9.52628 -9.92895,-13.99595 C 116.61492,835.86606 110.9361,827.90452 91.223596,800.15955 79.579534,783.77076 69.165233,769.14274 68.080708,767.65284 64.252831,762.39423 54.412683,748.6342 51.291652,744.17578 49.55339,741.69263 46.21389,736.97358 43.870569,733.68902 41.527248,730.40445 35.197741,721.52919 29.804992,713.96622 L 20,700.21536 l 2.834239,-2.92367 c 3.242403,-3.34471 6.403671,-10.90176 6.360293,-15.20438 -0.0163,-1.60872 -0.816247,-5.15979 -1.777849,-7.89125 l -1.748385,-4.9663 2.455222,-2.07288 c 4.190062,-3.53756 10.164706,-7.40825 11.435114,-7.40825 0.66703,0 1.439099,0.58965 1.715708,1.31033 0.27659,0.72068 2.656908,2.54537 5.289591,4.05486 3.930656,2.25372 5.801332,2.74606 10.460239,2.75302 3.120441,0.005 7.038034,-0.56154 8.705744,-1.25824 5.162248,-2.15653 10.213215,-7.45912 12.224306,-12.83329 2.172491,-5.80548 2.270648,-9.40426 0.391191,-14.34337 -0.755926,-1.98652 -1.583565,-4.26658 -1.839181,-5.06681 -0.325948,-1.02033 1.441289,-2.84107 5.915833,-6.09501 3.509351,-2.55202 6.722428,-4.64005 7.140173,-4.64005 0.417745,0 1.694754,0.99532 2.8378,2.21183 5.600376,5.96025 16.530652,7.87051 24.430052,4.26959 10.98634,-5.0081 16.22779,-18.59579 11.13668,-28.87021 l -1.92162,-3.87803 4.64812,-3.41732 c 9.9124,-7.28768 9.12906,-7.08378 13.17477,-3.42937 10.95936,9.89936 29.10885,5.87225 34.77763,-7.7166 2.00982,-4.81788 1.82482,-13.93729 -0.36564,-18.02349 l -1.7661,-3.29458 4.70125,-3.49095 c 9.43602,-7.0068 8.69469,-6.84652 13.5716,-2.93441 5.40417,4.33507 11.5653,5.81119 18.64903,4.46802 2.71135,-0.5141 5.33009,-1.33503 5.81943,-1.82428 0.48933,-0.48925 1.3401,-0.88954 1.89059,-0.88954 0.84086,0 10.89043,13.51684 19.40977,26.10643 1.97361,2.91655 15.59827,21.99063 25.46125,35.64493 1.83406,2.53908 5.17414,7.25767 7.42239,10.48577 2.24826,3.22809 6.43735,9.12972 9.30912,13.11473 2.87175,3.985 6.44058,8.9795 7.93074,11.09888 4.33852,6.17046 9.44663,13.33896 33.86725,47.52789 12.66634,17.7329 23.63444,33.1239 24.37355,34.20218 0.73911,1.0783 4.9798,7.03969 9.42375,13.24758 8.58696,11.99535 11.30133,15.81289 16.37179,23.02558 5.45733,7.76301 11.13694,15.73359 29.30603,41.12714 17.49458,24.45085 24.46758,34.26957 31.71246,44.65445 2.07882,2.97977 5.44693,7.65262 7.48472,10.38409 2.03779,2.73146 5.32986,7.30573 7.3157,10.16505 1.98584,2.85932 5.14904,7.32899 7.02928,9.9326 1.88027,2.60362 4.99766,7.00047 6.92753,9.77077 l 3.50884,5.03691 -2.77349,2.61725 c -6.62951,6.25607 -8.11648,17.16462 -3.51498,25.78608 l 2.59937,4.87022 -1.92203,1.43053 c -4.26344,3.17324 -11.41189,8.0455 -11.80414,8.0455 -0.2298,0 -2.36759,-1.94133 -4.75067,-4.31408 -4.60512,-4.58514 -9.15984,-6.52149 -15.34006,-6.52149 -5.31692,0 -11.45349,2.42541 -15.10327,5.9694 -5.22698,5.07546 -6.37523,7.99019 -6.38946,16.21916 -0.0113,6.49899 0.2641,7.70773 2.53864,11.14417 1.40319,2.11998 2.4192,3.9415 2.25781,4.04784 -0.16139,0.10631 -3.18799,2.30387 -6.72579,4.88344 -3.53779,2.57956 -6.6885,4.69012 -7.00157,4.69012 -0.31309,0 -2.09219,-1.68885 -3.95359,-3.75299 -4.45843,-4.94402 -9.23508,-7.04292 -16.02815,-7.04292 -11.09067,0 -20.07943,7.38803 -21.75798,17.88326 -0.85385,5.33861 0.29873,11.27554 2.94627,15.1762 l 2.31819,3.4154 -3.04232,2.5589 c -1.6733,1.4073 -4.81889,3.7428 -6.99026,5.1898 l -3.94793,2.631 -3.72864,-3.828 c -5.08502,-5.2206 -9.54218,-7.1734 -16.37241,-7.1734 -6.71787,0 -11.2134,1.9242 -15.98787,6.843 -3.57981,3.6882 -6.13873,10.2122 -6.13873,15.6509 0,3.2673 2.29134,9.8704 4.20417,12.1155 1.88501,2.2124 1.51774,2.8639 -3.52319,6.2496 -10.0722,6.7651 -8.71197,6.5922 -13.46022,1.7112 z"
       style="fill:#000000" />
  </g>
</svg>
