<?xml version="1.0" encoding="UTF-8" standalone="no"?>
<svg
   xmlns:dc="http://purl.org/dc/elements/1.1/"
   xmlns:cc="http://creativecommons.org/ns#"
   xmlns:rdf="http://www.w3.org/1999/02/22-rdf-syntax-ns#"
   xmlns:svg="http://www.w3.org/2000/svg"
   xmlns="http://www.w3.org/2000/svg"
   viewBox="0 0 540 500"
   height="500"
   width="540"
   version="1.1"
   id="svg3438">
  <metadata
     id="metadata3444">
    <rdf:RDF>
      <cc:Work
         rdf:about="">
        <dc:format>image/svg+xml</dc:format>
        <dc:type
           rdf:resource="http://purl.org/dc/dcmitype/StillImage" />
        <dc:title></dc:title>
      </cc:Work>
    </rdf:RDF>
  </metadata>
  <defs
     id="defs3442" />
  <path
     id="path3448"
     d="M 136.56142,469.19301 C 107.70335,466.67493 79.407301,454.36216 57.934948,434.9793 40.068154,418.85121 27.680056,398.36195 22.671046,376.65474 c -2.30163,-9.97443 -2.641929,-13.30405 -2.670779,-26.13214 -0.07257,-32.26904 14.667647,-62.78634 40.983291,-84.84939 7.7604,-6.50633 16.449273,-12.35944 24.459243,-16.47644 2.744815,-1.41085 5.124915,-2.64828 5.289115,-2.74995 0.1642,-0.10149 -0.42,-2.97806 -1.298245,-6.39196 -4.800855,-18.66243 -6.203875,-50.83699 -3.00991,-69.02426 3.87102,-22.04258 10.403215,-38.93527 21.817109,-56.4205 4.00456,-6.13472 4.08522,-6.42682 4.11779,-14.9134 0.0405,-10.51217 1.52041,-13.76234 9.41922,-20.68413 17.56046,-15.388424 42.54083,-27.806347 72.09422,-35.838556 36.42973,-9.901118 91.4009,-11.609296 133.11421,-4.136393 34.16692,6.120956 64.31489,18.637803 85.83778,35.638139 9.19661,7.26417 10.14754,8.27418 13.15824,13.97595 2.27716,4.31255 2.50367,5.64646 2.07212,12.20188 -0.47955,7.28434 -0.4443,7.42033 3.42774,13.23494 15.48189,23.24881 22.53455,46.52333 23.4858,77.50576 0.57024,18.57261 -0.49355,31.44734 -3.81968,46.2366 -1.05178,4.67634 -1.79575,8.58243 -1.65316,8.68018 0.14235,0.0976 2.50493,1.34551 5.2497,2.77281 33.96708,17.66261 57.42163,48.29953 63.92043,83.49454 2.25123,12.1919 1.56913,33.97799 -1.40215,44.78013 -9.8997,35.99067 -34.68518,64.376 -69.8674,80.01506 -15.71417,6.98521 -28.6086,10.24628 -46.54942,11.77268 -12.85365,1.0936 -22.19687,0.58797 -26.51685,-1.43497 -3.87841,-1.81621 -7.73815,-6.3175 -8.47757,-9.88675 -0.74435,-3.59289 14.0575,-204.78454 15.56432,-211.55558 1.10205,-4.95219 4.13669,-8.55952 9.19208,-10.92688 2.57021,-1.20354 4.88446,-1.37726 12.19495,-0.91531 4.9625,0.31363 10.1935,0.8112 11.62445,1.10588 2.57267,0.52977 2.6214,0.44156 4.36634,-7.90536 2.666,-12.75291 3.21448,-39.22398 1.07382,-51.8256 -3.08567,-18.16467 -9.75849,-35.46961 -18.2975,-47.45169 -2.54637,-3.57313 -3.63609,-4.25836 -8.96894,-5.63962 -4.67661,-1.21134 -7.9791,-2.99666 -14.38331,-7.77576 -14.21261,-10.60605 -23.15614,-15.20369 -39.74781,-20.43342 -32.19038,-10.14644 -76.476,-12.25636 -114.29658,-5.44548 -26.82776,4.83129 -43.56568,11.85153 -63.37332,26.58011 -5.43601,4.04208 -9.08718,5.98809 -13.33373,7.10661 -6.89454,1.81594 -9.24819,4.39491 -16.10627,17.64836 -10.00713,19.33898 -14.12103,41.88563 -12.3712,67.80151 0.73826,10.93403 3.16606,26.46323 4.29736,27.4877 0.2135,0.19341 2.98501,-0.0832 6.15886,-0.61444 8.01222,-1.34128 16.97047,-1.20633 20.17577,0.30404 3.06236,1.44286 6.38762,4.54385 8.10407,7.55744 0.71205,1.25019 4.28234,42.99178 9.16106,107.10533 8.7902,115.51606 8.67353,109.69801 2.30873,115.13387 -5.44245,4.64808 -13.02805,5.53765 -32.63362,3.8269 z m 57.67578,-11.51834 c -3.84165,-2.14887 -6.07781,-4.45507 -7.4204,-7.65281 -1.31387,-3.12939 -15.32701,-185.35326 -14.76754,-192.03391 0.92745,-11.07461 13.38925,-17.15599 24.57052,-11.99053 4.75628,2.19731 6.96011,5.19798 8.21443,11.18451 1.75588,8.3802 14.79614,188.36221 13.86129,191.31396 -1.29729,4.09619 -4.5575,7.75487 -8.37015,9.39322 -4.6247,1.9873 -12.33567,1.8845 -16.08815,-0.21431 z m 137.24063,1.07774 c -3.93418,-1.46546 -7.41414,-4.56035 -9.17035,-8.15556 l -1.93192,-3.95493 7.09288,-94.64718 c 5.2247,-69.71821 7.49895,-95.66304 8.63459,-98.50407 2.27181,-5.6834 7.06885,-8.6403 14.7083,-9.06613 5.15618,-0.28749 6.66778,-0.004 9.61178,1.79063 1.92138,1.1724 4.5703,3.969 5.88649,6.21461 l 2.3931,4.0829 -7.22486,95.77281 c -6.76748,89.70983 -7.36128,95.99657 -9.37989,99.30808 -3.18891,5.23139 -6.62751,7.14869 -13.37039,7.45513 -3.16391,0.14374 -6.4263,0.009 -7.24973,-0.29621 z"
     style="fill:#000000" />
</svg>
