<?xml version="1.0" encoding="UTF-8" standalone="no"?>
<svg
   xmlns:dc="http://purl.org/dc/elements/1.1/"
   xmlns:cc="http://creativecommons.org/ns#"
   xmlns:rdf="http://www.w3.org/1999/02/22-rdf-syntax-ns#"
   xmlns:svg="http://www.w3.org/2000/svg"
   xmlns="http://www.w3.org/2000/svg"
   version="1.1"
   id="svg2"
   viewBox="0 0 700.00001 499.99998"
   height="500"
   width="700">
  <defs
     id="defs4" />
  <metadata
     id="metadata7">
    <rdf:RDF>
      <cc:Work
         rdf:about="">
        <dc:format>image/svg+xml</dc:format>
        <dc:type
           rdf:resource="http://purl.org/dc/dcmitype/StillImage" />
        <dc:title></dc:title>
      </cc:Work>
    </rdf:RDF>
  </metadata>
  <g
     transform="translate(0,-552.36228)"
     id="layer1">
    <path
       id="path4388"
       d="M 39.147776,552.3623 29.576937,560.46247 20,568.55654 l 0,232.30904 0,232.30912 8.021295,8.0575 c 4.409592,4.4328 11.059961,8.6549 14.7786,9.383 3.718637,0.7281 58.997595,1.5128 122.841025,1.7471 111.30516,-2.9563 237.88203,0.031 316.73724,-0.33 l 195.65842,-0.8063 0.94798,-16.5548 c 0.90118,-15.7866 0.28686,-17.2891 -13.22296,-32.3945 -7.79243,-8.71275 -14.15892,-16.74555 -14.1527,-17.84962 0.006,-1.10438 6.30772,-8.98486 14.00078,-17.51403 19.21128,-21.29881 19.1744,-31.80654 -0.1761,-54.04366 -15.94194,-18.32003 -15.81233,-19.97832 3.01406,-38.18587 9.22622,-8.92294 11.14471,-12.98741 11.14471,-23.59194 0,-11.05044 -1.9229,-14.70584 -14.00078,-26.62183 -7.70043,-7.59721 -14.00078,-15.3382 -14.00078,-17.2022 0,-1.864 6.30035,-9.60498 14.00078,-17.20219 11.84512,-11.68633 14.00078,-15.68643 14.00078,-25.99268 0,-10.03347 -2.46915,-14.94401 -14.00078,-27.83749 -7.70043,-8.60986 -13.9655,-16.55627 -13.92785,-17.66037 0.0376,-1.10413 6.33809,-8.90933 14.00078,-17.34269 19.11726,-21.03919 19.11489,-31.938 -0.0124,-53.47584 -7.63833,-8.6011 -13.93013,-16.42978 -13.97649,-17.39767 -0.0463,-0.96792 6.16919,-8.70891 13.81239,-17.2022 13.73041,-15.2575 13.89811,-15.71433 14.00078,-38.1185 l 0.1033,-22.67562 -320.21917,0 z m 270.201644,162.43732 35.00195,0.88579 35.00194,0.87966 0.82645,99.30358 0.82035,99.30364 -35.82229,0 -35.8284,0 0,-100.1833 z m -108.40881,0.20174 37.09236,0 c 20.40159,0 37.09233,1.22742 37.09233,2.72448 0,2.78717 -43.48259,133.95984 -57.93551,174.77083 l -8.02736,22.67562 -33.75621,0 -33.75622,0 -20.51504,-64.89912 C 109.85003,814.57861 95.775853,771.5481 89.864133,754.64704 83.952382,737.74598 79.114397,721.86735 79.114397,719.36299 c 0,-3.78526 6.411143,-4.40141 38.003873,-3.67135 l 38.00384,0.87356 2.96546,10.94685 c 1.6309,6.02076 6.72164,23.48765 11.31486,38.81487 7.44318,24.83738 8.59355,26.87796 10.57349,18.76603 1.22182,-5.0059 6.43989,-22.82465 11.59441,-39.59679 z m 293.53631,0.843 c 12.56766,0.0644 23.76085,0.72546 30.14056,2.06473 42.17897,8.85457 61.9774,40.53444 52.81284,84.51436 -6.09756,29.26181 -37.37188,53.32314 -69.31117,53.32314 l -8.9814,0 0,29.71288 0,29.71282 -33.70153,0 c -18.53809,0 -34.63898,-0.93611 -35.77976,-2.08303 -1.14081,-1.14691 -2.07824,-44.61182 -2.07824,-96.59129 l 0,-94.50823 8.55603,-1.89981 c 12.63233,-2.80559 37.39655,-4.35285 58.34267,-4.24557 z m -7.78431,48.85764 0,22.06476 c 0,24.83093 2.17332,26.4667 23.32856,17.58092 12.91977,-5.42666 17.22594,-17.60504 10.50058,-29.70065 -3.65578,-6.57493 -7.13834,-8.21208 -19.14777,-8.99206 z"
       style="fill:#000000" />
  </g>
</svg>
