<?xml version="1.0" encoding="UTF-8" standalone="no"?>
<svg
   xmlns:dc="http://purl.org/dc/elements/1.1/"
   xmlns:cc="http://creativecommons.org/ns#"
   xmlns:rdf="http://www.w3.org/1999/02/22-rdf-syntax-ns#"
   xmlns:svg="http://www.w3.org/2000/svg"
   xmlns="http://www.w3.org/2000/svg"
   viewBox="0 0 500 500"
   height="500"
   width="500"
   version="1.1"
   id="svg4330">
  <metadata
     id="metadata4336">
    <rdf:RDF>
      <cc:Work
         rdf:about="">
        <dc:format>image/svg+xml</dc:format>
        <dc:type
           rdf:resource="http://purl.org/dc/dcmitype/StillImage" />
        <dc:title></dc:title>
      </cc:Work>
    </rdf:RDF>
  </metadata>
  <defs
     id="defs4334" />
  <path
     id="path5059"
     d="m 278.73948,400.0995 c -23.55201,2.33708 -46.96104,11.95418 -65.31953,27.66459 -2.11064,1.53512 4.74017,1.016 5.98788,2.08887 26.4115,6.51758 51.79548,16.60648 77.1213,26.53186 -6.66129,-18.42118 -12.98562,-37.07587 -16.67636,-56.39549 l -0.97822,0.0968 -0.13507,0.0134 z"
     style="fill:#000000;stroke:none;stroke-width:2.0999999;stroke-miterlimit:4;stroke-dasharray:none;stroke-opacity:1" />
  <path
     id="path5057"
     d="M 301.86751,0.83808176 C 222.41733,42.561891 143.93381,91.843666 87.318862,163.95729 44.647132,217.57057 16.749441,286.51046 20.304438,356.30118 c 1.114729,24.37147 6.458783,48.29921 13.967976,71.42 12.035169,-4.55406 24.778104,-8.3113 36.473751,-13.08472 13.03846,-28.18225 45.353035,-44.71217 75.189435,-39.29742 3.65619,-1.53413 5.86483,-5.946 9.3899,-8.12755 29.98533,-25.66365 68.38054,-39.56524 107.02015,-43.08403 -0.85065,-16.92019 -0.94055,-33.87501 -0.50866,-50.81023 -17.11504,-15.52478 -30.39805,-37.03115 -32.60219,-60.68032 0.34772,-20.12431 20.7154,-36.18478 39.59865,-33.29904 3.36453,-32.44635 8.95172,-64.76101 15.24246,-96.785417 C 289.64576,54.824639 296.15489,27.297831 303.46835,-7.9356894e-7 L 302.59315,0.45819287 301.86751,0.83808176 Z"
     style="fill:#000000;stroke:none;stroke-width:2.0999999;stroke-miterlimit:4;stroke-dasharray:none;stroke-opacity:1" />
  <path
     id="path5055"
     d="m 445.26772,281.75038 c 30.71788,-3.4119 44.33191,-31.20488 27.334,-55.8022 -10.68486,-15.46181 -31.776,-19.91186 -50.55723,-10.66704 -15.23023,7.49681 -22.15201,21.3662 -18.87925,37.82896 3.85947,19.41395 20.88668,30.99675 42.10248,28.6403 z"
     style="fill:#000000;stroke:none;stroke-width:2.0999999;stroke-miterlimit:4;stroke-dasharray:none;stroke-opacity:1" />
  <path
     id="path5053"
     d="m 264.85055,204.38002 c -9.94467,-0.70282 -20.09953,8.86127 -17.14086,19.34081 3.99289,24.93897 22.86102,44.37062 42.88119,57.49725 21.06775,13.64489 45.37819,20.66487 69.07568,27.65669 4.22461,3.79834 -1.70372,9.03365 -3.74296,12.24662 -6.53095,11.60361 -13.897,22.78632 -20.76097,34.22171 -44.33184,-11.79902 -92.6214,-9.09716 -134.50872,10.49766 -16.73742,8.1062 -31.65169,19.70513 -44.99236,32.7895 -3.76087,4.13512 -8.68023,9.94812 -3.91763,15.46912 5.47565,6.97594 15.86673,13.47465 24.44444,8.43984 19.65323,-15.30231 39.37457,-32.28481 63.83578,-38.74991 26.7457,-7.71061 55.55437,-8.03791 82.54332,-1.49776 20.77331,6.00045 40.6624,16.423 62.4169,18.07783 12.1335,-0.11147 17.75132,-12.74498 24.8299,-20.73817 14.0667,-18.86127 27.46175,-38.50372 37.26492,-59.9145 2.83075,-9.43205 -3.07631,-18.8886 -11.43619,-22.69905 -24.03941,-13.62194 -52.34793,-12.14246 -78.24857,-19.82896 -23.89521,-6.15493 -48.84489,-16.15318 -64.39869,-36.71211 -6.88276,-9.76379 -8.33415,-22.53964 -15.12351,-32.12649 -3.51911,-3.18692 -8.46744,-4.08362 -13.02167,-3.97008 z"
     style="fill:#000000;stroke:none;stroke-width:2.0999999;stroke-miterlimit:4;stroke-dasharray:none;stroke-opacity:1" />
  <path
     id="path5051"
     d="m 132.05208,393.11584 c -26.6855,1.84158 -51.847095,24.89715 -51.568448,53.26151 -0.297263,28.68169 25.406488,51.93364 52.417548,53.32944 28.11383,3.00391 58.48355,-17.37618 61.76799,-47.23395 3.96686,-27.77402 -18.29498,-53.75088 -44.3948,-58.27297 -5.9743,-1.33935 -12.1362,-1.56638 -18.22229,-1.08403 z"
     style="fill:#000000;stroke:none;stroke-width:2.0999999;stroke-miterlimit:4;stroke-dasharray:none;stroke-opacity:1" />
  <path
     id="path5049"
     d="m 137.17899,421.68343 c 15.69834,-0.68562 30.82144,14.89891 26.82842,31.24121 -4.02852,19.29478 -29.4655,26.80513 -44.0741,14.96002 -12.47495,-8.41725 -13.85166,-28.62687 -2.34923,-38.52194 5.23963,-5.03523 12.44803,-7.69483 19.59491,-7.67929 z"
     style="fill:#000000;stroke:none;stroke-width:2.0999999;stroke-miterlimit:4;stroke-dasharray:none;stroke-opacity:1" />
  <path
     id="path5047"
     d="m 137.18499,432.96214 c -10.59199,-1.09678 -20.10835,13.11311 -12.44392,21.99278 7.84368,11.28145 29.90206,5.40049 28.22579,-9.58484 -0.93849,-7.61282 -8.67469,-12.66215 -15.78187,-12.40794 z"
     style="fill:#000000;stroke:none;stroke-width:2.0999999;stroke-miterlimit:4;stroke-dasharray:none;stroke-opacity:1" />
  <path
     id="path5045"
     d="m 381.95569,389.78317 c -26.6855,1.8416 -51.8471,24.89717 -51.56846,53.26153 -0.29726,28.68167 25.4065,51.93363 52.41756,53.32944 28.11382,3.00391 58.48355,-17.37619 61.76797,-47.23395 3.96597,-27.77377 -18.29466,-53.75112 -44.39479,-58.27298 -5.9743,-1.33934 -12.13619,-1.56638 -18.22228,-1.08404 z"
     style="fill:#000000;stroke:none;stroke-width:2.0999999;stroke-miterlimit:4;stroke-dasharray:none;stroke-opacity:1" />
  <path
     id="path5043"
     d="m 387.08259,418.35077 c 15.69835,-0.68561 30.82145,14.89892 26.82842,31.24121 -4.02851,19.29479 -29.46551,26.80514 -44.0741,14.96003 -12.47495,-8.41726 -13.85166,-28.62687 -2.34922,-38.52196 5.2395,-5.03498 12.44827,-7.69448 19.5949,-7.67928 z"
     style="fill:#000000;stroke:none;stroke-width:2.0999999;stroke-miterlimit:4;stroke-dasharray:none;stroke-opacity:1" />
  <path
     id="path4898-0"
     d="m 387.08859,429.63341 c -10.59837,-1.11169 -20.08745,13.11506 -12.45159,21.98099 7.83696,11.30092 29.91092,5.39581 28.23539,-9.57501 -0.94674,-7.61087 -8.6634,-12.66848 -15.7838,-12.40598 z"
     style="fill:#000000;stroke:none;stroke-width:2.0999999;stroke-miterlimit:4;stroke-dasharray:none;stroke-opacity:1" />
</svg>
