<?xml version="1.0" encoding="UTF-8" standalone="no"?>
<svg
   xmlns:dc="http://purl.org/dc/elements/1.1/"
   xmlns:cc="http://creativecommons.org/ns#"
   xmlns:rdf="http://www.w3.org/1999/02/22-rdf-syntax-ns#"
   xmlns:svg="http://www.w3.org/2000/svg"
   xmlns="http://www.w3.org/2000/svg"
   version="1.1"
   id="svg2"
   viewBox="0 0 540.00001 500.00001"
   height="500"
   width="540">
  <defs
     id="defs4" />
  <metadata
     id="metadata7">
    <rdf:RDF>
      <cc:Work
         rdf:about="">
        <dc:format>image/svg+xml</dc:format>
        <dc:type
           rdf:resource="http://purl.org/dc/dcmitype/StillImage" />
        <dc:title></dc:title>
      </cc:Work>
    </rdf:RDF>
  </metadata>
  <g
     transform="translate(0,-552.36216)"
     id="layer1">
    <path
       id="path3723"
       d="m 267.92446,591.50822 c -5.29394,0.19622 -9.92954,2.9171 -17.59737,8.6203 -8.7062,6.47545 -16.67615,17.48474 -17.71241,24.45671 -1.50552,10.12854 -4.70174,11.97028 -15.89398,9.16119 -19.39844,-4.86871 -49.84809,6.27114 -71.72443,26.25218 -11.23159,10.2584 -28.25422,18.38084 -43.72284,20.85437 -88.778368,14.19624 -106.4282138,99.70744 -45.023388,218.18853 10.084655,19.45844 12.142713,32.61313 10.864539,69.6525 l -1.576749,45.6682 204.320158,0 204.30861,0 -1.31206,-45.6682 c -1.20918,-42.05291 0.46141,-49.39891 21.08462,-92.80871 18.24756,-38.40901 22.83537,-55.32734 24.74443,-91.33581 1.93282,-36.4559 0.30643,-47.40618 -9.24177,-62.54017 -13.00737,-20.61668 -55.12192,-43.52722 -80.0224,-43.52722 -10.37786,0 -20.58391,-5.25406 -27.66774,-14.25972 -14.00268,-17.80145 -58.84372,-35.4843 -77.88177,-30.7061 -12.14621,3.04844 -14.76563,1.09567 -17.62032,-13.17787 -2.3205,-11.60266 -9.01418,-19.10949 -21.72909,-24.37617 -6.10172,-2.52739 -10.46158,-4.03126 -14.27125,-4.38494 -0.79367,-0.0738 -1.56857,-0.0974 -2.32479,-0.069 z m -62.85097,81.50708 c 9.40885,0.29817 19.01699,4.2316 28.63456,11.79676 l 15.52573,12.21111 0,117.42682 0,117.41531 -17.95417,0 c -16.68098,0 -19.58465,-3.43545 -41.12177,-48.61425 -45.00753,-94.41238 -51.83289,-160.24554 -20.04883,-193.42102 11.09165,-11.57719 22.86766,-17.19815 34.96448,-16.81473 z m 133.01012,0.44902 c 18.07223,0.46317 35.37923,11.8796 45.99017,32.62817 16.86329,32.97448 -3.83012,126.62158 -43.75741,198.05923 -12.93856,23.1496 -18.3216,27.71376 -32.66269,27.71376 l -17.17147,0 0,-117.41532 0,-117.42682 15.52566,-12.2111 c 10.11451,-7.95607 21.23241,-11.62563 32.07574,-11.34792 z m -234.7501,46.26638 c 8.21088,0 10.56694,2.75895 8.02186,9.39138 -9.08833,23.68381 10.39308,94.84082 53.48253,195.37758 2.22922,5.2012 -3.87703,7.36582 -20.76232,7.36582 -23.33384,0 -24.43075,-0.92855 -45.575828,-38.7394 C 70.56832,843.18 53.03844,787.2978 57.596567,762.71704 61.443812,741.96999 85.1002,719.7307 103.33351,719.7307 Z m 336.38654,0.0354 c 5.92096,-0.0177 18.86903,8.0736 28.77257,17.97719 16.71767,16.71762 17.76072,20.19725 14.57051,48.61424 -2.22762,19.84276 -13.45708,50.29109 -31.92612,86.58251 l -28.48495,55.98001 -24.83647,1.81843 c -13.66033,0.99661 -24.83652,0.24577 -24.83652,-1.66882 0,-1.91447 6.25091,-15.99486 13.90292,-31.28159 23.36729,-46.68231 41.23787,-108.50929 41.66271,-144.13931 0.34235,-28.69095 2.05034,-33.85322 11.17535,-33.88266 z m -57.62587,233.32298 c 6.87048,0.0236 13.72493,3.74336 17.04493,12.39522 1.92704,5.0217 0.48259,12.7667 -3.21103,17.2173 -10.16488,12.2482 -27.54727,9.6945 -32.12176,-4.7184 -4.67324,-14.7246 6.83709,-24.93541 18.28786,-24.89412 z m -226.94689,0.25339 c 4.77489,-0.2958 10.07125,1.12175 15.19192,4.92581 8.87411,6.59242 9.80725,10.42092 4.60358,18.92102 -8.16469,13.3369 -20.97524,16.1642 -30.42988,6.7096 -13.37945,-13.3793 -3.69049,-29.66972 10.63438,-30.55643 z m 113.0764,0.41426 c 4.55508,-0.22571 9.54455,1.14889 14.31725,4.69567 8.6589,6.4348 9.55191,10.259 4.36192,18.7368 -8.43245,13.7742 -22.17569,16.3359 -30.94784,5.766 -11.20918,-13.5063 -1.39661,-28.52065 12.26867,-29.19847 z"
       style="fill:#000000" />
  </g>
</svg>
