<?xml version="1.0" encoding="UTF-8" standalone="no"?>
<svg
   xmlns:dc="http://purl.org/dc/elements/1.1/"
   xmlns:cc="http://creativecommons.org/ns#"
   xmlns:rdf="http://www.w3.org/1999/02/22-rdf-syntax-ns#"
   xmlns:svg="http://www.w3.org/2000/svg"
   xmlns="http://www.w3.org/2000/svg"
   version="1.1"
   id="svg2"
   viewBox="0 0 500.00001 499.99998"
   height="500"
   width="500">
  <defs
     id="defs4" />
  <metadata
     id="metadata7">
    <rdf:RDF>
      <cc:Work
         rdf:about="">
        <dc:format>image/svg+xml</dc:format>
        <dc:type
           rdf:resource="http://purl.org/dc/dcmitype/StillImage" />
        <dc:title></dc:title>
      </cc:Work>
    </rdf:RDF>
  </metadata>
  <g
     transform="translate(0,-552.36228)"
     id="layer1">
    <path
       d="m 46.34415,832.1376 c -7.81101,-1.71521 -21.243053,-16.38611 -23.913451,-26.11906 -1.329554,-4.84589 -2.423199,-18.52741 -2.430308,-30.40338 -0.01161,-20.89385 0.193764,-21.73957 6.376102,-26.13237 5.909931,-4.19927 29.451352,-18.94414 45.885092,-28.73953 3.833438,-2.28493 32.584225,-19.77145 63.890635,-38.8589 64.99678,-39.62844 68.49513,-41.74749 86.60047,-52.45631 l 13.30127,-7.86736 0,-31.46244 0,-31.46244 7.34709,-3.8457 c 10.67835,-5.58939 22.75832,-1.40768 32.65911,11.30557 16.53605,21.23343 24.56982,27.69415 34.4371,27.69415 10.12725,0 11.09007,1.94176 5.35552,10.80065 -5.56123,8.59106 -20.49326,15.71316 -28.9856,13.82518 -14.98027,-5.46687 -4.44418,-1.31522 -14.98027,-5.46687 -7.72077,-3.56075 -7.9534,-3.49716 -7.9534,2.1739 0,5.75038 2.91919,8.76642 14.63223,15.11776 4.77057,2.58682 27.73739,16.33541 51.0374,30.55245 23.29998,14.21701 44.4546,27.01624 47.01022,28.44268 2.55563,1.42644 14.67544,8.96356 26.93292,16.74913 12.25747,7.78557 23.24842,14.56388 24.4243,15.0629 1.17587,0.49902 13.36355,7.7776 27.08371,16.17463 L 480,752.48955 l 0,24.55624 c 0,20.08669 -0.88201,26.40051 -4.84598,34.68891 -7.15816,14.96728 -16.47998,20.74064 -33.48837,20.74064 -15.66576,0 -25.78622,-5.44779 -32.96165,-17.74311 -2.22821,-3.81807 -4.78608,-6.94196 -5.68418,-6.94196 -0.89809,0 -3.82754,3.59436 -6.50987,7.98746 -7.55845,12.37908 -15.50301,16.57412 -31.51308,16.64014 -15.67016,0.0647 -25.76316,-5.35082 -32.96164,-17.68564 -2.2282,-3.81807 -4.67011,-6.94196 -5.42642,-6.94196 -0.75633,0 -4.65121,4.70451 -8.65527,10.45446 -8.43859,12.11805 -20.54346,16.79732 -36.99374,14.30036 -10.00261,-1.5183 -22.18239,-10.66726 -28.25943,-21.22734 -2.49145,-4.32937 -2.89508,-4.38597 -5.07678,-0.71199 -10.44867,17.59554 -24.63395,24.77756 -43.33255,21.93933 -9.90799,-1.50395 -21.27373,-10.13205 -27.98754,-21.24629 -2.61066,-4.3218 -3.0189,-4.37544 -5.27426,-0.69304 -6.95758,11.35983 -15.11292,18.48033 -23.91336,20.87897 -18.27177,4.98014 -37.25242,-2.15675 -44.74616,-16.8249 -1.93024,-3.77826 -4.266812,-6.85646 -5.192365,-6.84045 -0.925555,0.0165 -4.024298,3.68827 -6.886134,8.16059 -2.861812,4.47231 -7.566487,9.68717 -10.454831,11.58857 -5.622725,3.70144 -25.249789,6.37901 -33.49224,4.56906 z m 23.460527,214.4241 -5.730665,-5.8006 0.608843,-88.74878 0.608842,-88.74876 8.787868,-1.84758 c 4.833315,-1.01617 11.801065,-3.4248 15.483907,-5.35252 6.144444,-3.2162 7.621456,-3.08373 17.930028,1.6081 15.36296,6.99227 39.54629,7.03147 54.7958,0.0889 l 11.03566,-5.02422 11.03565,5.02422 c 15.15814,6.90106 39.43932,6.90106 54.59746,0 l 11.03566,-5.02422 11.03566,5.01067 c 15.38751,6.98662 39.62051,7.02987 54.59744,0.0974 l 11.03566,-5.10812 11.03566,5.10812 c 15.06598,6.97364 39.20355,6.89159 54.79579,-0.18625 10.30605,-4.67824 11.78711,-4.80996 17.93004,-1.59456 3.68284,1.92772 10.65059,4.33635 15.48391,5.35252 l 8.78787,1.84758 0.60884,88.74876 0.60884,88.74874 -5.73067,5.8006 c -5.49629,5.5633 -6.94928,5.8006 -35.53099,5.8006 l -29.80037,0 -12.8819,-13.522 c -36.90858,-38.7426 -59.50863,-71.4359 -85.75227,-124.04977 -7.09666,-14.2275 -14.33753,-25.86818 -16.09082,-25.86818 -1.75331,0 -10.34897,14.16918 -19.10145,31.48706 -23.11096,45.72792 -46.59745,79.54987 -80.50532,115.93269 l -14.93028,16.0202 -30.02702,0 c -28.822682,0 -30.256876,-0.2328 -35.757673,-5.8006 z"
       style="fill:#000000"
       id="path4356" />
  </g>
</svg>
