<?xml version="1.0" encoding="UTF-8" standalone="no"?>
<svg
   xmlns:dc="http://purl.org/dc/elements/1.1/"
   xmlns:cc="http://creativecommons.org/ns#"
   xmlns:rdf="http://www.w3.org/1999/02/22-rdf-syntax-ns#"
   xmlns:svg="http://www.w3.org/2000/svg"
   xmlns="http://www.w3.org/2000/svg"
   width="480"
   height="500"
   viewBox="0 0 480.00001 500.00001"
   id="svg2"
   version="1.1">
  <defs
     id="defs4" />
  <metadata
     id="metadata7">
    <rdf:RDF>
      <cc:Work
         rdf:about="">
        <dc:format>image/svg+xml</dc:format>
        <dc:type
           rdf:resource="http://purl.org/dc/dcmitype/StillImage" />
        <dc:title></dc:title>
      </cc:Work>
    </rdf:RDF>
  </metadata>
  <g
     id="layer1"
     transform="matrix(-1,0,0,1,480,-552.36216)">
    <path
       style="fill:#000000"
       d="m 167.34051,552.36266 c -17.32055,0.0738 -33.95211,8.45317 -43.21534,22.91551 -13.33467,20.81894 -3.31629,48.72166 21.33519,59.42887 22.59684,9.81479 43.99878,5.97194 60.92052,-10.93956 22.73317,-22.71938 11.74551,-57.4068 -21.73779,-68.62748 -5.67961,-1.90331 -11.52907,-2.80192 -17.30258,-2.77734 z m 8.17196,94.40425 c -22.49195,0 -32.06491,5.25722 -42.34565,23.26098 -15.3391,26.66472 2.64505,63.6743 8.18532,92.55009 16.60381,86.53792 17.38528,88.57602 37.93936,98.88939 14.28403,7.16725 23.18389,7.26668 80.05814,0.90365 24.54712,-2.7463 52.71509,-5.76621 62.5954,-6.71011 l 17.96319,-1.7156 36.27117,65.03822 c 25.73883,46.15351 38.23281,65.86857 43.03067,67.89752 3.71862,1.57252 10.54782,2.93979 15.17406,3.03692 11.36664,0.23878 25.87254,-12.48739 25.61242,-22.46856 -0.1057,-4.05936 -19.20538,-40.8565 -42.44346,-81.77252 -33.63293,-59.21837 -43.8708,-75.07449 -50.19071,-77.7324 -6.504,-2.73537 -16.4481,-2.62244 -55.00172,0.62651 -68.47971,5.7709 -62.22529,6.95809 -66.09641,-12.54781 -1.80446,-9.09247 -3.28079,-18.08601 -3.28079,-19.98593 0,-2.78608 9.00748,-3.14488 46.55841,-1.85806 56.46532,1.93498 63.38586,-0.0275 63.48733,-18.00491 0.0883,-15.67099 -5.75024,-17.38539 -64.00336,-18.79147 -28.68027,-0.69227 -52.85397,-2.26519 -53.72056,-3.49559 -0.86658,-1.23036 -4.08351,-15.06324 -7.1488,-30.74007 -6.36026,-32.52853 -10.84985,-41.72514 -24.55148,-50.30054 -7.65355,-4.79009 -13.61407,-6.07971 -28.09253,-6.07971 z m -56.7033,87.84443 c -6.13968,0.0969 -34.853441,19.66835 -50.315213,34.65529 -18.168045,17.61008 -37.251637,49.2414 -44.171771,73.2102 -5.762914,19.96058 -5.762914,58.57399 0,78.53456 18.722175,64.84663 78.574014,114.80341 153.196574,127.86711 24.76196,4.3348 39.81885,4.565 66.38332,1.0207 51.09527,-6.8174 97.97657,-31.7087 128.90977,-68.44597 l 12.77176,-15.16902 -12.22459,-21.62735 -12.22458,-21.62931 -9.90689,17.2164 c -27.2379,47.33222 -75.98607,73.67615 -136.51011,73.77035 -60.95442,0.095 -111.46085,-27.57496 -137.537703,-75.34737 C 48.788781,886.65514 60.724361,828.79135 108.48633,786.88119 l 19.47348,-17.08758 -3.26523,-16.7187 c -1.79504,-9.19548 -4.03043,-17.39213 -4.96902,-18.2157 -0.19804,-0.17378 -0.50709,-0.25433 -0.91639,-0.24787 z"
       id="path3445" />
  </g>
</svg>
