<?xml version="1.0" encoding="UTF-8" standalone="no"?>
<svg
   xmlns:dc="http://purl.org/dc/elements/1.1/"
   xmlns:cc="http://creativecommons.org/ns#"
   xmlns:rdf="http://www.w3.org/1999/02/22-rdf-syntax-ns#"
   xmlns:svg="http://www.w3.org/2000/svg"
   xmlns="http://www.w3.org/2000/svg"
   width="440"
   height="500"
   viewBox="0 0 440.00001 500.00001"
   id="svg2"
   version="1.1">
  <defs
     id="defs4" />
  <metadata
     id="metadata7">
    <rdf:RDF>
      <cc:Work
         rdf:about="">
        <dc:format>image/svg+xml</dc:format>
        <dc:type
           rdf:resource="http://purl.org/dc/dcmitype/StillImage" />
        <dc:title></dc:title>
      </cc:Work>
    </rdf:RDF>
  </metadata>
  <path
     id="path4201"
     d="M 119.78516 0 C 101.16129 -4.7369516e-15 64.897521 20.959975 49.292969 40.744141 C 25.881426 70.426388 19.959787 91.439592 20 144.69336 C 20.03217 187.3266 21.375688 196.07561 30.513672 213.12891 C 36.276298 223.8831 47.428257 238.37401 55.294922 245.33203 C 63.161569 252.29003 70.304794 257.37941 71.167969 256.64062 C 72.031143 255.90186 68.389212 246.68887 63.076172 236.16797 C 17.978596 146.86544 43.732254 41.456586 119.09961 6.8613281 L 134.04688 0 L 119.78516 0 z M 164.51953 0.71289062 C 157.38954 0.80619278 150.27059 2.2443725 143.35156 5.0683594 C 90.787675 26.522208 62.800463 76.771092 62.935547 149.45117 C 63.002738 185.63219 67.484979 205.26672 82.572266 235.48828 L 91.78125 253.9375 L 108.41602 247.86133 C 117.56505 244.51898 146.42244 234.50351 172.54297 225.60547 C 227.77107 206.79183 228.67038 205.74871 237.26562 150.4668 C 246.81575 89.04354 237.37912 44.094752 209.70703 19.197266 C 195.94205 6.8124431 180.20552 0.50762588 164.51953 0.71289062 z M 259.91406 226.88281 C 234.8116 226.82525 221.05115 229.94708 169.71289 247.3457 C 136.39375 258.63762 109.1158 269.06167 109.0957 270.50977 C 109.0755 271.95788 114.09477 278.26446 120.24805 284.52344 C 135.46599 300.00275 179.32031 319.36369 219.63867 328.4043 C 282.86282 342.58111 371.89047 335.87619 404.68555 314.4668 C 422.72227 302.69199 425.03842 284.45927 410.50586 268.64648 C 390.28935 246.64899 319.51041 227.01931 259.91406 226.88281 z M 257.55273 252.4668 C 343.51612 252.71514 392.14267 278.755 345.74219 299.69336 C 313.54226 314.22366 221.52942 309.21421 189.37109 291.17969 C 168.59954 279.53089 170.27321 271.42137 195.87109 259.67383 C 208.53173 253.86353 221.37946 252.36237 257.55273 252.4668 z M 75.267578 274.1582 C 75.122912 274.16994 75.008148 274.20852 74.927734 274.27734 C 70.554663 278.02023 86.04835 320.60089 97.367188 335.94727 C 103.56595 344.3517 115.92348 357.28564 124.82812 364.6875 L 141.01953 378.14453 L 135.62305 420.44336 L 130.22656 462.74219 L 145.91406 473.97461 C 154.54282 480.15187 173.93978 488.56076 189.01758 492.66211 C 237.40308 505.8236 325.88389 500.45487 346.12695 483.12891 C 352.51995 477.65717 352.33503 474.1353 344.2168 446.78906 L 335.22656 416.50586 L 284.9668 417.55273 C 242.13262 418.4449 232.00772 417.43672 216.43164 410.73047 C 206.37977 406.40263 203.29572 404.01811 209.57812 405.42969 C 215.86055 406.84126 239.50632 408.00588 262.12305 408.01758 C 306.2976 408.04097 332.83932 401.00531 363.09766 381.25195 C 378.17138 371.41148 399.74127 345.25502 395.66211 341.76367 C 394.40363 340.68654 376.22107 342.78009 355.25586 346.41602 C 260.25359 362.89193 158.42941 340.06043 96.589844 288.41406 C 86.626631 280.09311 77.437572 273.98217 75.267578 274.1582 z "
     style="fill:#000000" />
</svg>
