<?xml version="1.0" encoding="UTF-8" standalone="no"?>
<svg
   xmlns:dc="http://purl.org/dc/elements/1.1/"
   xmlns:cc="http://creativecommons.org/ns#"
   xmlns:rdf="http://www.w3.org/1999/02/22-rdf-syntax-ns#"
   xmlns:svg="http://www.w3.org/2000/svg"
   xmlns="http://www.w3.org/2000/svg"
   version="1.1"
   id="svg5935"
   viewBox="0 0 540.00001 500.00001"
   height="500"
   width="540">
  <defs
     id="defs5937" />
  <metadata
     id="metadata5940">
    <rdf:RDF>
      <cc:Work
         rdf:about="">
        <dc:format>image/svg+xml</dc:format>
        <dc:type
           rdf:resource="http://purl.org/dc/dcmitype/StillImage" />
        <dc:title></dc:title>
      </cc:Work>
    </rdf:RDF>
  </metadata>
  <g
     transform="translate(0,-552.36216)"
     id="layer1">
    <path
       id="path4208"
       transform="translate(0,552.36216)"
       d="M 268.66406 0 C 268.66406 0 270.08771 33.795105 267.29883 57.515625 C 251.03303 87.732965 224.9165 120.36888 209.27148 150.97656 C 224.4426 150.89986 224.60742 162.1543 224.60742 162.1543 L 225.24805 310.97266 L 206.02148 310.25781 L 205.32031 230.58984 L 177.65625 230.58984 L 176.95508 271.42383 L 154.00781 270.43555 L 153.59961 230.58984 L 118.37891 230.58984 L 120.08594 270.55273 L 94.40625 270.00391 L 94.40625 230.58984 C 94.40625 230.58984 73.431661 227.06225 70.957031 233.44727 C 70.783151 281.9761 71.424899 331.33448 70.386719 378.98438 C 71.235809 410.96551 68.12 443.49127 73.28125 474.35156 C 67.27585 484.90526 -11.989904 489.45838 34.603516 499.58008 C 51.341656 500.45638 68.286984 500.70494 83.052734 492.52344 C 142.21384 454.70824 162.00371 446.80783 221.1582 436.63281 C 269.63066 432.24476 307.72722 467.51862 347.93359 488.79492 C 376.4273 504.28682 410.13992 497.69358 441.11719 497.64258 C 470.72266 496.28188 497.87459 479.74387 520 460.82617 C 499.52442 466.38047 472.94577 478.38918 472.91016 459.95508 C 472.8082 407.17004 474.16683 252.59408 474.04492 194.41797 L 446.38086 194.41797 L 445.94922 245.41797 L 426.56836 244.48438 L 425.2168 198.98633 L 393.63477 198.69531 L 395.43945 242.69336 L 367.93945 243.46289 C 367.93945 243.46289 367.5461 210.76481 367.3457 194.41797 L 339.68164 194.41797 L 340.38477 313.83008 C 334.58529 311.6011 321.32812 311.67969 321.32812 311.67969 C 321.32812 311.67969 318.55547 206.6299 321.42773 156.74609 C 323.92457 146.67687 342.58476 156.07875 329.59375 140.42578 C 312.97703 112.17727 290.71027 87.254212 277.13281 57.289062 C 265.66644 16.703302 341.89254 17.164035 319.12109 12.984375 C 303.65701 8.352475 268.66406 5.9211895e-016 268.66406 0 z M 271.54883 172.04297 C 271.82143 172.04568 272.09718 172.05667 272.37695 172.07617 C 296.83917 174.06813 293.34954 227.3412 264.30469 211.01172 C 250.92282 205.73249 254.24309 172.97292 270.74219 172.06055 C 271.00831 172.0459 271.27622 172.04026 271.54883 172.04297 z M 408.98633 294.89258 C 430.10677 295.72666 426.38552 322.7856 426.62305 338.69727 C 430.49278 351.63928 416.08899 345.99739 408.36133 347.14453 C 402.11857 345.33501 388.64326 350.87976 387.10352 344.28711 C 388.45127 328.1887 382.15187 306.74569 397.37695 296.38672 C 400.46345 295.22783 403.62372 295.11771 406.86328 294.89648 C 407.59725 294.86756 408.30502 294.86567 408.98633 294.89258 z M 272.6543 326.25391 C 288.89912 326.27903 311.90039 332.42243 311.90039 345.16016 L 311.90039 413.11914 L 313.14648 452.52344 C 313.14648 452.52344 306.51382 448.31199 303.17188 446.25391 C 296.27925 442.00921 289.62559 437.23873 282.39062 433.7168 C 275.16327 430.19856 267.69285 427.04552 259.94727 425.20898 C 252.80863 423.51634 238.11719 422.9707 238.11719 422.9707 L 233.3457 422.9707 L 233.3457 345.22266 C 233.3457 332.45045 256.37143 326.27301 272.6543 326.25391 z M 142.95508 345.11914 C 165.14331 345.15094 161.41998 349.57932 160.00586 394.50977 C 160.00586 394.50977 132.83728 392.47126 122.18555 395.87695 C 122.18555 395.87695 112.33593 342.63864 131.7793 345.26758 C 136.08909 345.19768 139.78531 345.1146 142.95508 345.11914 z "
       style="fill:#000000" />
  </g>
</svg>
