<?xml version="1.0" encoding="UTF-8" standalone="no"?>
<svg
   xmlns:dc="http://purl.org/dc/elements/1.1/"
   xmlns:cc="http://creativecommons.org/ns#"
   xmlns:rdf="http://www.w3.org/1999/02/22-rdf-syntax-ns#"
   xmlns:svg="http://www.w3.org/2000/svg"
   xmlns="http://www.w3.org/2000/svg"
   width="540"
   height="500"
   viewBox="0 0 539.99998 499.99998"
   id="svg4273"
   version="1.1">
  <defs
     id="defs4275" />
  <metadata
     id="metadata4278">
    <rdf:RDF>
      <cc:Work
         rdf:about="">
        <dc:format>image/svg+xml</dc:format>
        <dc:type
           rdf:resource="http://purl.org/dc/dcmitype/StillImage" />
        <dc:title></dc:title>
      </cc:Work>
    </rdf:RDF>
  </metadata>
  <path
     id="path4136"
     d="m 273.19036,1.3417969 c -3.14,-0.1858314 -13.83,11.2475951 -27.88,29.8632811 -17.98,23.818813 -18.11,32.08906 -0.35,22.105469 17.05,-9.583791 44.1,-8.140503 54.78,2.923828 4.93,5.097311 6.4,5.622154 8.93,3.183594 1.86,-1.78277 2.52,-5.013874 1.69,-8.302735 -1.41,-5.61843 -33.15,-48.3863595 -36.89,-49.7187496 -0.1,-0.030322 -0.18,-0.048693 -0.28,-0.054687 z m -87.07,61.3925781 -1.56,27.035156 c -0.85,14.869659 -0.87,30.673169 0,35.119139 1.31,7.00384 2.44,8.19972 8.45,8.95508 14.49,1.82046 143.89,1.38178 152.07,-0.51563 14.62,-3.39075 15.66,-5.73588 15.66,-35.210932 0,-32.014444 -1.88,-35.382813 -19.72,-35.382813 -12.42,0 -16.62,2.617582 -16.62,10.351563 0,7.78712 -7.51,13.882456 -17.07,13.847656 -14.85,-0.05408 -18.17,-1.874604 -18.17,-9.958985 0,-13.145711 -1.3,-14.240234 -16.81,-14.240234 -15.23,0 -16.19,0.782577 -19.38,15.792969 -1.45,6.786961 -10.15,9.737128 -22.12,7.492187 -6.32,-1.18597 -7.51,-2.471828 -8.84,-9.574219 -2.31,-12.364091 -4.37,-13.710937 -20.96,-13.710937 l -14.89,0 z m 84.88,94.693355 c -36.87,-0.0103 -72.17,1.65808 -75.27,4.23633 -6.96,5.78349 -3.57,13.82688 8.52,20.20117 15.72,8.29043 17.3,13.27884 17.51,55.26368 0.2,39.30046 -1.07,42.92972 -18,51.33593 -4.93,2.44478 -9.53,6.4267 -10.23,8.84961 -0.7,2.4229 -1.28,43.11265 -1.3,90.41993 0,65.41079 0.62,86.66491 2.69,88.73632 1.83,1.8272 8.54,2.5153 20.38,2.0918 l 17.65,-0.63086 1.37,-38.19336 c 1.56,-43.41497 2.5,-46.05708 19.68,-55.00976 7.65,-3.98381 11.93,-4.82204 19.59,-3.83594 13.62,1.75223 28.63,9.45579 31.1,15.95898 1.13,2.95727 2.05,22.65771 2.05,43.7793 l 0,38.40234 18.17,-0.0332 c 9.99,-0.0186 19.32,-0.76501 20.72,-1.6582 1.85,-1.1769 2.73,-26.63742 3.2,-92.48828 l 0.64,-90.86524 -9.67,-4.94531 c -17.6,-8.99425 -18.74,-12.22599 -18.74,-53.01172 0,-42.02387 1.8,-47.587 17.77,-54.65039 9.11,-4.02664 9.76,-4.88243 9.76,-12.79688 l 0,-8.48242 -29.19,-1.54687 c -14.54,-0.7708 -31.63,-1.12227 -48.4,-1.12696 z M 38.040356,197.0957 c -11.07,0 -13.27,6.14538 -13.02,36.28321 0.33,39.83597 -1.56,37.27221 28.51,38.71679 38.37,1.8437 104.670004,1.96614 123.750004,0.22852 9.35,-0.8522 18.28,-2.8247 19.82,-4.38281 2.04,-2.05478 2.74,-11.36628 2.55,-33.9043 -0.31,-36.32457 -1.17,-37.96357 -19.14,-36.32617 -12.91,1.17631 -15.18,3.24543 -16.79,15.31054 l -1.25,9.4043 -14.32,0 -14.32,0 -0.68,-6.97266 c -1.06,-10.90969 -9.38,-18.35742 -20.52,-18.35742 -11.37,0 -17.330004,4.8431 -17.380004,14.10742 -0.1,11.33085 -2.09,12.60868 -18.86,11.88086 -13.23,-0.57394 -15.29,-1.22982 -15.9,-5.06445 -2.27,-14.34734 -9.33,-20.92383 -22.45,-20.92383 z m 391.210004,0 c -13.11,0 -17.43,3.82438 -17.68,15.64063 l -0.21,9.68945 -16.52,0 -16.52,0 -1.22,-10.61719 c -0.67,-5.8388 -2.65,-11.54642 -4.4,-12.68554 -1.75,-1.13912 -8.12,-1.81492 -14.15,-1.5 -9.18,0.47995 -11.41,1.46436 -13.73,6.08007 -2.91,5.77804 -3.55,48.17668 -0.91,60.57227 l 1.4,6.60742 22.01,1.38477 c 36.44,2.29097 142.08,0.57942 145.01,-2.34961 1.63,-1.62 2.82,-14.00903 3.27,-34.06641 0.82,-36.62093 -0.1,-38.75586 -16.29,-38.75586 -11.22,0 -18.56,5.60054 -18.56,14.16016 0,8.88378 -5.48,12.27148 -19.85,12.27148 l -12.92,0 -1.51,-10.02148 c -1.93,-12.8647 -5.65,-16.41016 -17.22,-16.41016 z m -317.18,95.81446 c -27.190004,0 -50.210004,0.75746 -51.140004,1.68359 -0.93,0.92612 -2.43,6.87421 -3.33,13.2168 -2.05,14.378 -2.44,140.56909 -0.53,169.4707 l 1.42,21.375 12.34,0.92578 c 6.79,0.50901 20.27,0.55988 29.960004,0.11328 9.69,-0.44663 28.13,-0.81722 40.97,-0.82422 l 23.35,-0.0137 1.57,-77.64258 c 1.54,-75.55092 0.37,-119.36239 -3.33,-125.35937 -1.44,-2.318 -12.36,-2.94531 -51.28,-2.94531 z m 317,0 c -27.1,0 -50.05,0.77745 -51,1.72851 -0.95,0.95105 -2.48,8.38468 -3.38,16.51953 -2.06,18.50008 -2.34,122.101 -0.43,159.51953 l 1.43,27.98633 13.43,0.72656 c 13.95,0.75492 92.19,-0.69546 93.44,-1.73242 0.39,-0.3245 0.89,-45.23361 1.1,-99.79687 0.31,-78.83624 -0.2,-99.79522 -2.47,-102.07813 -2.18,-2.19097 -14.55,-2.87304 -52.12,-2.87304 z"
     style="fill:#000000" />
</svg>
