<?xml version="1.0" encoding="UTF-8" standalone="no"?>
<svg
   xmlns:dc="http://purl.org/dc/elements/1.1/"
   xmlns:cc="http://creativecommons.org/ns#"
   xmlns:rdf="http://www.w3.org/1999/02/22-rdf-syntax-ns#"
   xmlns:svg="http://www.w3.org/2000/svg"
   xmlns="http://www.w3.org/2000/svg"
   width="500"
   height="500"
   viewBox="0 0 499.99998 499.99998"
   id="svg2"
   version="1.1">
  <defs
     id="defs4" />
  <metadata
     id="metadata7">
    <rdf:RDF>
      <cc:Work
         rdf:about="">
        <dc:format>image/svg+xml</dc:format>
        <dc:type
           rdf:resource="http://purl.org/dc/dcmitype/StillImage" />
        <dc:title></dc:title>
      </cc:Work>
    </rdf:RDF>
  </metadata>
  <g
     id="layer1"
     transform="translate(0,-552.36224)">
    <path
       id="path4183"
       transform="translate(0,552.36224)"
       d="M 148.31445 0 C 141.00607 0 135.79792 2.9787524 131.81055 9.4394531 L 128.76758 14.369141 L 128.76758 54.1875 L 128.76758 94.005859 L 131.81055 98.935547 C 133.59729 101.83059 136.49438 104.79697 138.82812 106.12109 C 141.6147 107.70212 144.44872 108.375 148.31445 108.375 C 155.62283 108.375 160.82904 105.39624 164.81641 98.935547 L 167.85938 94.005859 L 167.85938 54.1875 L 167.85938 14.369141 L 164.81641 9.4394531 C 160.82904 2.9787524 155.62283 8.2665273e-017 148.31445 0 z M 351.78711 0.46875 C 344.92192 0.46875 343.7251 0.7666622 340.42383 3.2890625 C 338.39434 4.8397227 335.72358 8.001346 334.48828 10.316406 C 332.27059 14.472397 332.24219 15.027405 332.24219 54.1875 C 332.24219 92.815855 332.29798 93.953504 334.39062 97.865234 C 336.81375 102.39476 338.91096 104.52398 343.26953 106.88086 C 345.40404 108.03509 348.19362 108.41257 352.90039 108.18164 C 360.7489 107.79657 365.46332 104.8477 369.08594 98.058594 C 371.30364 93.902593 371.33203 93.347585 371.33203 54.1875 C 371.33203 15.027405 371.30357 14.472397 369.08594 10.316406 C 367.85065 8.001346 365.17988 4.8397227 363.15039 3.2890625 C 359.84912 0.7666622 358.65232 0.46875 351.78711 0.46875 z M 74.824219 70.251953 C 38.476743 70.251953 36.39388 70.62926 28.392578 78.644531 C 19.254051 87.799022 20.015625 69.078124 20.015625 284.625 C 20.015625 497.33378 19.437844 481.08801 27.296875 489.62891 C 31.697722 494.41161 35.091995 496.5446 41.566406 498.5957 C 44.742515 499.6019 88.600176 499.88059 252.60938 499.93359 L 459.64453 500 L 464.88281 497.38672 C 470.64143 494.51212 473.83104 490.91115 477.29883 483.37695 L 479.58398 478.41211 L 479.84766 286.68164 C 480.14678 68.851665 480.90297 88.008972 471.64844 78.738281 C 463.5129 70.58852 461.67645 70.251953 425.27734 70.251953 L 394.88672 70.251953 L 394.88672 83.095703 C 394.88672 102.11711 391.53666 112.57525 382.69336 121.1582 C 365.15642 138.17886 329.11004 135.37776 316.29492 115.99805 C 310.5481 107.3074 309.39933 102.57007 308.91211 85.564453 L 308.47266 70.251953 L 250.0625 70.251953 L 191.6543 70.251953 L 191.19141 86.066406 C 190.82156 98.740438 190.33227 102.89689 188.72266 106.99609 C 182.30258 123.34628 170.61216 131.24076 151.32031 132.25195 C 135.72924 133.06917 124.46543 128.9984 115.83398 119.42773 C 108.05542 110.80275 105.21289 101.03021 105.21289 82.910156 L 105.21289 70.251953 L 74.824219 70.251953 z M 66.123047 163.63281 L 250.05078 163.63281 L 433.97852 163.63281 L 433.97852 308.72266 L 433.97852 453.8125 L 250.05078 453.8125 L 66.123047 453.8125 L 66.123047 308.72266 L 66.123047 163.63281 z M 183.6582 219.73633 C 168.86805 219.73633 156.52568 223.53724 146.63086 231.14062 C 136.8402 238.63985 131.00762 251.03432 129.13281 268.32422 L 160.53711 271.44922 C 161.05789 262.28349 163.24388 255.7216 167.09766 251.76367 C 171.05558 247.80574 176.31708 245.82812 182.87891 245.82812 C 189.54489 245.82812 194.75233 247.70156 198.50195 251.45117 C 202.25157 255.20079 204.125 260.56452 204.125 267.54297 C 204.125 273.89648 201.93901 280.35419 197.56445 286.91602 C 194.43977 291.60304 185.79412 300.50916 171.62891 313.63281 C 154.02654 329.9853 142.20511 343.10909 136.16406 353.00391 C 130.22718 362.89873 126.68674 373.36572 125.54102 384.40625 L 235.68555 384.40625 L 235.68555 355.19141 L 173.19141 355.19141 C 174.85791 352.37919 176.99376 349.51402 179.59766 346.59766 C 182.30571 343.57713 188.60713 337.53618 198.50195 328.47461 C 208.39677 319.30888 215.27123 312.27815 219.125 307.38281 C 224.85358 300.0919 229.01915 293.11325 231.62305 286.44727 C 234.3311 279.78128 235.68555 272.7525 235.68555 265.35742 C 235.68555 252.44207 231.04918 241.60848 221.7793 232.85938 C 212.50941 224.11027 199.80238 219.73633 183.6582 219.73633 z M 317.53516 219.73633 C 302.74501 219.73633 290.40263 223.53724 280.50781 231.14062 C 270.71715 238.63985 264.88457 251.03432 263.00977 268.32422 L 294.41406 271.44922 C 294.93484 262.28349 297.12084 255.7216 300.97461 251.76367 C 304.93254 247.80574 310.19208 245.82812 316.75391 245.82812 C 323.41989 245.82812 328.62929 247.70156 332.37891 251.45117 C 336.12852 255.20079 338.00195 260.56452 338.00195 267.54297 C 338.00195 273.89648 335.81596 280.35419 331.44141 286.91602 C 328.31673 291.60304 319.67107 300.50916 305.50586 313.63281 C 287.9035 329.9853 276.08206 343.10909 270.04102 353.00391 C 264.10412 362.89873 260.56173 373.36572 259.41602 384.40625 L 369.5625 384.40625 L 369.5625 355.19141 L 307.06836 355.19141 C 308.73485 352.37919 310.87071 349.51402 313.47461 346.59766 C 316.18266 343.57713 322.48409 337.53618 332.37891 328.47461 C 342.27372 319.30888 349.14818 312.27815 353.00195 307.38281 C 358.73053 300.0919 362.8961 293.11325 365.5 286.44727 C 368.20805 279.78128 369.5625 272.7525 369.5625 265.35742 C 369.5625 252.44207 364.92613 241.60848 355.65625 232.85938 C 346.38637 224.11027 333.67934 219.73633 317.53516 219.73633 z "
       style="fill:#000000" />
  </g>
</svg>
