<?xml version="1.0" encoding="UTF-8" standalone="no"?>
<svg
   xmlns:dc="http://purl.org/dc/elements/1.1/"
   xmlns:cc="http://creativecommons.org/ns#"
   xmlns:rdf="http://www.w3.org/1999/02/22-rdf-syntax-ns#"
   xmlns:svg="http://www.w3.org/2000/svg"
   xmlns="http://www.w3.org/2000/svg"
   version="1.1"
   id="svg2"
   viewBox="0 0 540.00001 500.00001"
   height="500"
   width="540">
  <defs
     id="defs4" />
  <metadata
     id="metadata7">
    <rdf:RDF>
      <cc:Work
         rdf:about="">
        <dc:format>image/svg+xml</dc:format>
        <dc:type
           rdf:resource="http://purl.org/dc/dcmitype/StillImage" />
        <dc:title></dc:title>
      </cc:Work>
    </rdf:RDF>
  </metadata>
  <g
     transform="translate(0,-552.36216)"
     id="layer1">
    <path
       id="path3382"
       d="m 272.52341,615.00365 c -76.51197,-0.0155 -153.25633,26.21388 -214.35128,72.33663 -21.112503,13.28083 -52.3233738,41.74962 -31.06672,67.54142 11.32067,20.07438 38.230523,6.2443 50.824659,-5.47931 87.572141,-82.75469 229.595851,-97.01894 333.300961,-36.82162 26.84302,11.79324 43.97774,37.86673 70.87763,49.33974 27.88397,15.04197 48.539,-25.40204 31.98103,-46.62603 -36.99162,-36.10489 -83.00214,-62.95921 -131.484,-80.75012 -35.40514,-13.26707 -72.71597,-19.53315 -110.08228,-19.54071 z m 0.5836,115.54537 c -51.86402,-0.4753 -104.11475,15.53847 -145.51623,46.8173 -20.48691,11.34069 -38.57964,44.82611 -15.5593,62.44469 14.42765,17.12794 35.71062,2.50294 48.06232,-8.97116 29.4438,-30.24874 72.97755,-40.94018 114.04746,-38.72154 28.67828,-2.00433 57.54562,5.34836 81.62229,21.19748 22.17138,8.6501 35.96934,41.18575 62.65218,31.87727 37.21988,-13.15802 17.0265,-56.15875 -9.49315,-68.64052 -38.71517,-30.55965 -87.09483,-45.55702 -135.81557,-46.00352 z m -5.44689,101.27646 c -21.44403,0.32702 -42.85742,5.50087 -61.53688,15.25454 -25.1246,7.56751 -47.23379,45.35036 -21.65137,64.63965 21.86639,28.01853 42.29563,-13.10618 64.81148,-17.97148 26.74906,-12.79726 52.28769,4.79128 72.56683,20.96079 25.1454,19.49595 58.34291,-18.65779 40.78682,-42.90723 -23.41053,-27.60529 -59.23684,-40.52128 -94.97688,-39.97627 z m 1.14449,85.34108 c -3.79735,-0.0455 -7.61606,0.54749 -11.34445,1.88696 -36.20874,9.30243 -33.82389,69.65518 1.63084,78.30878 18.49635,4.5432 37.99987,-6.9427 46.33097,-23.3698 15.40065,-24.9546 -10.03591,-56.50707 -36.61736,-56.82594 z"
       style="fill:#000000" />
  </g>
</svg>
