<?xml version="1.0" encoding="UTF-8" standalone="no"?>
<svg
   xmlns:dc="http://purl.org/dc/elements/1.1/"
   xmlns:cc="http://creativecommons.org/ns#"
   xmlns:rdf="http://www.w3.org/1999/02/22-rdf-syntax-ns#"
   xmlns:svg="http://www.w3.org/2000/svg"
   xmlns="http://www.w3.org/2000/svg"
   width="500"
   height="500"
   viewBox="0 0 499.99998 499.99998"
   id="svg2"
   version="1.1">
  <defs
     id="defs4" />
  <metadata
     id="metadata7">
    <rdf:RDF>
      <cc:Work
         rdf:about="">
        <dc:format>image/svg+xml</dc:format>
        <dc:type
           rdf:resource="http://purl.org/dc/dcmitype/StillImage" />
        <dc:title></dc:title>
      </cc:Work>
    </rdf:RDF>
  </metadata>
  <g
     id="layer1"
     transform="translate(0,-552.36224)" />
  <path
     d="m 343.26964,106.88136 c -4.35857,-2.35688 -6.45616,-4.48685 -8.87928,-9.01638 -2.09264,-3.91173 -2.14859,-5.04923 -2.14859,-43.67758 0,-39.16009 0.0283,-39.71445 2.24599,-43.87044 1.2353,-2.31506 3.90648,-5.47792 5.93597,-7.02858 3.30127,-2.5224 4.4983,-2.81939 11.36349,-2.81939 6.86521,0 8.06224,0.29699 11.36351,2.81939 2.02949,1.55066 4.70067,4.71352 5.93596,7.02858 2.21763,4.15599 2.246,4.71035 2.246,43.87044 0,39.16008 -0.0283,39.71444 -2.246,43.87044 -3.62262,6.78911 -8.33801,9.73818 -16.18652,10.12325 -4.70677,0.23093 -7.49602,-0.1455 -9.63053,-1.29973 z m -204.44237,-0.76123 c -2.33374,-1.32412 -5.22958,-4.2893 -7.01632,-7.18434 l -3.04246,-4.92966 0,-39.81873 0,-39.81874 3.04246,-4.92965 c 3.98737,-6.4607 9.19462,-9.43903 16.503,-9.43903 7.30838,0 12.51564,2.97833 16.50301,9.43903 l 3.04246,4.92965 0,39.81874 0,39.81873 -3.04246,4.92966 c -3.98737,6.46069 -9.19463,9.43902 -16.50301,9.43902 -3.86573,0 -6.70011,-0.67365 -9.48668,-2.25468 z m 295.15113,202.60216 0,-145.08991 -183.92781,0 -183.927811,0 0,145.08991 0,145.08987 183.927811,0 183.92781,0 z M 41.565659,498.59546 c -6.47441,-2.0511 -9.867271,-4.1832 -14.268117,-8.9659 -7.85903,-8.5409 -7.282008,7.7035 -7.282008,-205.00525 0,-215.54685 -0.761401,-196.82535 8.377125,-205.97984 8.001301,-8.01527 10.084387,-8.39176 46.431858,-8.39176 l 30.389183,0 0,12.65712 c 0,18.12005 2.84224,27.89253 10.6208,36.51751 8.63144,9.57066 19.89469,13.64093 35.48576,12.82371 19.29185,-1.01119 30.98198,-8.90469 37.40206,-25.25487 1.60961,-4.0992 2.10006,-8.25514 2.46991,-20.92917 l 0.46148,-15.8143 58.40953,0 58.40954,0 0.4387,15.31226 c 0.48722,17.00561 1.63645,21.7426 7.38327,30.43325 12.81512,19.37971 48.86161,22.18137 66.39855,5.16072 8.8433,-8.58295 12.19418,-19.04271 12.19418,-38.06411 l 0,-12.84212 30.38918,0 c 36.3991,0 38.23558,0.33607 46.37112,8.48583 9.25453,9.27069 8.49909,-9.88634 8.19997,207.94361 l -0.26327,191.73011 -2.28532,4.9651 c -3.46779,7.5342 -6.65864,11.134 -12.41726,14.0086 l -5.23649,2.614 -207.03521,-0.067 c -164.009179,-0.053 -207.868433,-0.3311 -211.044541,-1.3373 z M 195.6582,219.73633 c -14.79015,0 -27.13252,3.80091 -37.02734,11.40429 -9.79066,7.49924 -15.62324,19.8937 -17.49805,37.1836 l 31.4043,3.125 c 0.52078,-9.16573 2.70677,-15.72762 6.56055,-19.68555 3.95792,-3.95793 9.21942,-5.93555 15.78125,-5.93555 6.66598,0 11.87343,1.87344 15.62304,5.62305 3.74962,3.74962 5.62305,9.11335 5.62305,16.0918 0,6.35351 -2.186,12.81122 -6.56055,19.37305 -3.12468,4.68702 -11.77033,13.59314 -25.93554,26.71679 -17.60237,16.35249 -29.4238,29.47628 -35.46485,39.3711 -5.93689,9.89482 -9.47733,20.36181 -10.62304,31.40234 l 110.14453,0 0,-29.21484 -62.49414,0 c 1.66649,-2.81222 3.80235,-5.67739 6.40625,-8.59375 2.70805,-3.02053 9.00947,-9.06148 18.90429,-18.12305 9.89482,-9.16573 16.76928,-16.19647 20.62305,-21.0918 5.72858,-7.29092 9.89415,-14.26956 12.49805,-20.93554 2.70805,-6.66599 4.0625,-13.69477 4.0625,-21.08985 0,-12.91534 -4.63637,-23.74894 -13.90625,-32.49804 -9.26989,-8.74911 -21.97692,-13.12305 -38.1211,-13.12305 z m 134.65821,0 c -3.64546,9.99897 -10.25945,18.74881 -19.8418,26.24805 -9.58235,7.49923 -18.48652,12.60249 -26.71484,15.31054 l 0,28.4336 c 15.62339,-5.10365 29.16393,-13.01998 40.62109,-23.74805 l 0,118.42578 31.40234,0 0,-164.66992 -25.46679,0 z"
     style="font-style:normal;font-weight:normal;font-size:71.1038208px;line-height:125%;font-family:sans-serif;letter-spacing:0px;word-spacing:0px;fill:#000000;fill-opacity:1;stroke:none;stroke-width:1px;stroke-linecap:butt;stroke-linejoin:miter;stroke-opacity:1"
     id="text4135" />
</svg>
