<?xml version="1.0" encoding="UTF-8" standalone="no"?>
<svg
   xmlns:dc="http://purl.org/dc/elements/1.1/"
   xmlns:cc="http://creativecommons.org/ns#"
   xmlns:rdf="http://www.w3.org/1999/02/22-rdf-syntax-ns#"
   xmlns:svg="http://www.w3.org/2000/svg"
   xmlns="http://www.w3.org/2000/svg"
   version="1.1"
   id="svg2"
   viewBox="0 0 509.99998 499.99998"
   height="500"
   width="510">
  <defs
     id="defs4" />
  <metadata
     id="metadata7">
    <rdf:RDF>
      <cc:Work
         rdf:about="">
        <dc:format>image/svg+xml</dc:format>
        <dc:type
           rdf:resource="http://purl.org/dc/dcmitype/StillImage" />
        <dc:title></dc:title>
      </cc:Work>
    </rdf:RDF>
  </metadata>
  <g
     transform="translate(0,-552.36209)"
     id="layer1">
    <path
       id="path3569"
       d="m 246.22304,552.37975 c -2.2151,0.0234 -3.49146,0.0707 -4.00391,0.14453 -2.69191,0.38755 -5.55777,1.49465 -7.97266,3.08008 -1.47144,0.96602 -3.86363,3.32143 -4.9082,4.83398 -2.58044,3.73649 -3.51953,7.04648 -3.51953,12.39453 l 0,2.89063 -0.87109,0.12305 c -8.39897,1.18468 -20.32039,3.68617 -27.50196,5.77148 -1.04359,0.30304 -1.92147,0.52534 -1.95117,0.49414 -0.0297,-0.0312 -0.59698,-1.25042 -1.26172,-2.70898 -1.50784,-3.30847 -2.77064,-5.18084 -4.82617,-7.15625 -2.67275,-2.56856 -5.7778,-4.208 -9.37109,-4.95117 -2.54417,-0.52617 -6.5633,-0.39098 -8.88672,0.29882 -2.02515,0.60125 -21.29444,9.13413 -23.2793,10.3086 -1.69713,1.0042 -4.62049,3.7777 -5.72852,5.43359 -2.81965,4.21379 -3.92237,9.22184 -3.08203,14.01172 0.32972,1.8794 0.86417,3.45977 2.08985,6.18555 0.51713,1.15001 0.93473,2.17773 0.92773,2.28515 -0.007,0.10738 -2.33583,1.72703 -5.17578,3.59961 -5.37897,3.54669 -12.93483,9.09211 -17.14258,12.58008 -1.34801,1.11742 -2.50356,2.03125 -2.56836,2.03125 -0.0649,0 -1.09178,-0.86316 -2.2832,-1.91797 -2.55693,-2.26376 -4.16128,-3.36579 -6.16016,-4.23047 -2.77945,-1.20238 -3.92424,-1.41673 -7.60547,-1.42773 -2.895162,-0.009 -3.488302,0.0409 -4.855462,0.41211 -2.65783,0.72169 -5.41081,2.15369 -7.59375,3.94922 -1.17987,0.97048 -15.87121,17.2498 -16.80274,18.61914 -3.1574,4.64127 -4.13334,10.30813 -2.71679,15.77734 0.54146,2.09061 2.12712,5.21102 3.5332,6.95117 0.65024,0.80473 2.13605,2.31145 3.30078,3.34766 l 2.11719,1.88281 -2.20313,3.32813 c -3.93679,5.94959 -8.66473,14.13078 -11.97265,20.71289 -0.70538,1.40356 -1.30438,2.5865 -1.33008,2.6289 -0.02574,0.0425 -1.26947,-0.31295 -2.76563,-0.78906 -3.71253,-1.18138 -5.43478,-1.46105 -8.17968,-1.33008 -3.66221,0.17474 -6.7672,1.17762 -9.72852,3.14453 -2.89158,1.92061 -5.36096,4.78363 -6.76563,7.8418 -0.81096,1.76555 -7.18564,21.37679 -7.61523,23.42774 -1.2698,6.06193 0.75585,12.67005 5.26172,17.16796 2.42869,2.42439 4.67144,3.70435 9,5.13477 1.43593,0.47453 2.61133,0.92565 2.61133,1.00195 0,0.0764 -0.24692,1.69378 -0.54688,3.59571 -1.22473,7.76528 -2.01804,15.25871 -2.41015,22.76562 l -0.22461,4.31055 -2.86133,0.30664 c -4.10461,0.44064 -6.5859,1.16458 -9.07227,2.64453 -4.31934,2.57098 -7.32524,6.48167 -8.8164,11.47266 -0.44911,1.5032 -0.49291,1.92475 -0.50391,4.84765 -0.0096,2.68623 0.15916,4.78718 1.04492,13.07617 0.70771,6.62285 1.19907,10.45973 1.49024,11.64649 1.12799,4.59774 4.01804,8.67442 8.01172,11.30078 4.12028,2.70964 8.41009,3.56434 14.4375,2.87891 1.25959,-0.14321 2.31625,-0.23985 2.34765,-0.21485 0.03135,0.025 0.37212,1.26934 0.75781,2.76367 1.93115,7.48199 4.59625,15.69858 7.60743,23.45118 0.98373,2.5307 1.18425,3.20987 0.98632,3.33398 -0.13669,0.0857 -1.32634,0.78069 -2.64453,1.54492 -2.68238,1.55513 -4.72246,3.22757 -6.17968,5.06641 -2.79294,3.52438 -4.1593,7.47375 -4.1543,11.99609 0.0029,2.55172 0.42734,4.81789 1.3125,7.00196 0.67351,1.66185 11.20585,20.00024 12.46484,21.70312 2.4884,3.36579 6.41616,5.97305 10.73242,7.12109 1.54904,0.41197 2.14532,0.47266 4.61914,0.47266 2.46003,0 3.07245,-0.0629 4.58204,-0.46484 2.12155,-0.56485 3.55142,-1.19896 6.53125,-2.90039 1.25507,-0.71664 2.30473,-1.27438 2.33203,-1.23829 1.045,1.37569 4.48502,5.5602 6.44336,7.8379 25.396412,29.53786 57.959902,51.42537 94.832032,63.73828 l 4.51953,1.50781 -1.4961,0.32031 c -2.49954,0.53423 -8.45901,2.20789 -11.75585,3.30078 -11.33627,3.75788 -22.28314,9.21965 -31.31055,15.62305 l -2.30274,1.6348 -1.24023,-0.2637 c -4.53732,-0.9598 -9.4373,0.5159 -12.78711,3.8496 -3.00971,2.9952 -4.63496,7.8469 -3.97461,11.8691 l 0.17774,1.0821 -2.16016,2.6679 c -3.52188,4.3495 -8.95506,12.2233 -9.03516,13.0938 -0.0176,0.1908 2.09508,1.5516 6.38672,4.1133 l 0.006,0 c 3.52689,2.1052 6.46821,3.8102 6.53711,3.789 0.0689,-0.021 0.75568,-1.0272 1.52734,-2.2343 1.99571,-3.1218 3.8708,-5.7502 5.94336,-8.3379 l 1.79688,-2.2461 2.54101,-0.016 c 2.93521,-0.02 4.12628,-0.2793 6.38672,-1.3867 3.46117,-1.6957 6.05569,-4.7401 7.23828,-8.4961 0.27642,-0.8779 0.43456,-1.9574 0.50196,-3.4336 l 0.0976,-2.1524 2.67774,-1.8007 c 7.51199,-5.0486 16.4508,-9.4289 25.4375,-12.4668 8.69535,-2.9395 18.07229,-4.9215 26.33984,-5.5684 l 1.4668,-0.1152 0.68555,1.3379 c 2.27901,4.4437 6.58921,7.9326 11.58203,9.3769 2.89143,0.8365 3.80667,0.8586 33.07812,0.7852 30.10153,-0.076 28.01022,0 31.23828,-1.1094 4.7612,-1.6326 8.85441,-5.3422 11.08985,-10.0488 0.61011,-1.2853 0.72265,-1.4221 0.72265,-0.9317 l 0,0.5742 1.51172,0.1231 c 15.35292,1.2405 32.08264,6.4408 45.57422,14.168 5.00506,2.8665 9.98374,6.279 9.8125,6.7246 -0.18884,0.4912 0.26803,3.5676 0.73828,4.9765 1.41356,4.2353 4.89164,7.5819 9.32813,8.9746 0.91082,0.286 1.95396,0.4304 3.59765,0.502 l 2.31446,0.1016 1.54296,1.9414 c 2.61924,3.2919 5.05571,6.7483 6.81446,9.6679 0.37877,0.6287 0.72918,1.1426 0.7793,1.1426 0.20874,0 13.07421,-7.7338 13.07421,-7.8594 0,-0.2484 -2.93408,-4.8008 -4.77734,-7.4121 -0.99413,-1.4082 -2.72028,-3.7046 -3.83594,-5.1015 l -2.02929,-2.5391 0.22851,-1.0273 c 0.32064,-1.4519 0.27072,-4.6082 -0.0976,-6.1465 -0.16868,-0.7042 -0.69174,-2.062 -1.16211,-3.0176 -0.73017,-1.4834 -1.11252,-1.9923 -2.60743,-3.4824 -2.75054,-2.7417 -5.49884,-3.9713 -9.26172,-4.1426 -1.86598,-0.085 -3.10754,0.061 -4.94726,0.582 -0.26358,0.075 -0.95699,-0.32 -2.47266,-1.4023 -12.20175,-8.7131 -27.27589,-15.43363 -42.78125,-19.0762 -2.865,-0.67306 -2.85398,-0.61139 -0.23828,-1.39453 0.7358,-0.22032 3.06942,-1.01277 5.18555,-1.76172 23.21749,-8.21743 44.19214,-19.91688 63.39844,-35.36133 11.56124,-9.29674 23.15707,-20.8916 32.40234,-32.40234 1.19163,-1.4837 2.19356,-2.69727 2.22656,-2.69727 0.0335,0 1.07568,0.59246 2.31641,1.31641 3.66002,2.13569 5.78453,2.90424 9.08398,3.28711 6.41118,0.74393 13.17183,-2.17429 17.13867,-7.39844 1.14963,-1.51405 11.75385,-19.77222 12.4668,-21.46484 2.12677,-5.05008 2.00751,-10.60596 -0.33008,-15.54297 -1.05996,-2.23864 -2.0963,-3.7243 -3.75586,-5.38086 -1.53289,-1.53018 -2.61247,-2.30558 -5.59765,-4.02148 -1.10844,-0.63713 -2.03767,-1.17286 -2.06445,-1.18946 -0.027,-0.0165 0.43751,-1.25622 1.0332,-2.75586 2.94916,-7.42327 6.03617,-16.94067 8.01367,-24.70898 0.46707,-1.83484 0.5617,-2.04251 0.89258,-1.97461 1.33394,0.27366 5.19918,0.4959 7.09961,0.4082 7.40384,-0.34129 13.91828,-5.08514 16.6582,-12.1289 0.85696,-2.20305 1.00969,-3.18514 2.16406,-14.08985 1.46915,-13.87746 1.46344,-15.41398 -0.0586,-19.45898 -0.98777,-2.62497 -2.1591,-4.40785 -4.33203,-6.5918 -3.73135,-3.75031 -7.11462,-5.2203 -13.4668,-5.85156 -1.20922,-0.12015 -2.25948,-0.31117 -2.33398,-0.42383 -0.0743,-0.11266 -0.13868,-0.94429 -0.13868,-1.84961 -0.0155,-5.80103 -1.74324,-21.8929 -3.0371,-28.28125 -0.0955,-0.47192 -0.0536,-0.49329 2.33984,-1.24609 6.61149,-2.07946 10.50627,-5.26418 13.07422,-10.6875 1.82983,-3.86445 2.29744,-8.11252 1.35547,-12.3086 -0.38511,-1.71554 -7.02001,-21.78593 -7.60743,-23.01171 -0.96235,-2.00848 -2.04696,-3.52776 -3.73828,-5.23633 -3.41366,-3.44854 -7.72924,-5.35441 -12.64843,-5.58789 -2.63036,-0.12485 -4.60507,0.1947 -8.14258,1.32031 -1.41027,0.44872 -2.62061,0.81641 -2.69141,0.81641 -0.0704,0 -1.15343,-1.99624 -2.40625,-4.43555 -3.49842,-6.81173 -7.23485,-13.20498 -11.3457,-19.41602 -0.99315,-1.50062 -1.78386,-2.78471 -1.75586,-2.85351 0.028,-0.0687 1.00262,-0.99113 2.16601,-2.04883 3.05043,-2.77333 4.22702,-4.27013 5.51954,-7.02344 0.3999,-0.85175 0.94064,-2.34791 1.20117,-3.32422 0.41434,-1.55208 0.47851,-2.14259 0.47851,-4.70117 0.004,-2.60215 -0.0509,-3.12754 -0.48632,-4.75391 -0.55636,-2.07749 -1.72341,-4.59209 -2.89844,-6.24609 -1.00535,-1.41491 -14.29174,-16.16468 -16.13867,-17.91601 -3.46679,-3.28722 -7.89469,-5.00282 -12.92969,-5.00782 -3.29139,-0.004 -5.7534,0.57077 -8.64844,2.01563 -1.72112,0.85903 -3.19588,1.94095 -5.51562,4.04492 -0.99938,0.90644 -1.89203,1.62089 -1.98243,1.58789 -0.0908,-0.0331 -1.37192,-1.04251 -2.8457,-2.24219 -5.71032,-4.64835 -10.61026,-8.24643 -17.08984,-12.54883 -2.54241,-1.68807 -4.71966,-3.10207 -4.8418,-3.14257 -0.14718,-0.0489 0.18617,-0.99875 0.99805,-2.83789 1.89066,-4.28308 2.44025,-7.06914 2.125,-10.79102 -0.55954,-6.60577 -4.5857,-12.42183 -10.69727,-15.45508 -3.5457,-1.75979 -20.5203,-9.11886 -21.89453,-9.49218 -1.3503,-0.36692 -1.98357,-0.42383 -4.76367,-0.42383 -3.72904,0 -5.1449,0.28952 -7.99219,1.63086 -2.28542,1.07667 -3.73979,2.09267 -5.49414,3.83593 -1.86048,1.84882 -2.9609,3.52492 -4.45117,6.78321 -0.64345,1.40677 -1.22015,2.61554 -1.28125,2.68554 -0.0607,0.07 -1.75808,-0.32235 -3.77344,-0.87109 -6.89658,-1.8778 -15.57934,-3.71418 -22.90234,-4.84375 -1.91459,-0.29533 -3.53326,-0.53815 -3.59766,-0.53906 -0.0643,-8.6e-4 -0.15612,-1.74918 -0.20312,-3.88672 -0.078,-3.55101 -0.12673,-4.02636 -0.57618,-5.51367 -0.27054,-0.89529 -0.77146,-2.23221 -1.11328,-2.97071 -2.37963,-5.1413 -7.10246,-9.02059 -12.83203,-10.54101 -1.4112,-0.37452 -1.91772,-0.39128 -13.64844,-0.45508 -4.27235,-0.0233 -7.42748,-0.0234 -9.64257,0 z m 37.85742,38.87891 0.96094,0.125 c 1.97223,0.25973 8.18123,1.4005 11.56836,2.125 3.26355,0.69806 11.28751,2.66078 11.41992,2.79297 0.0324,0.0324 -0.22708,0.91327 -0.57618,1.95898 -2.14838,6.43608 -0.77599,13.3125 3.70899,18.58984 1.28177,1.50823 3.5624,3.316 5.3457,4.23828 2.04553,1.05791 19.86009,8.95708 21.34571,9.46485 2.80516,0.95875 6.30585,1.22585 9.27343,0.70703 5.87619,-1.02727 11.14369,-4.89011 13.78907,-10.11133 0.26761,-0.52811 0.54152,-0.96094 0.60742,-0.96094 0.2052,0 6.79514,4.45196 9.49218,6.41211 2.88234,2.09486 7.06491,5.2975 8.94141,6.84766 l 1.24609,1.03125 -1.10156,1.17383 c -5.47079,5.83797 -6.75528,14.39932 -3.23633,21.57226 0.44412,0.90531 1.21568,2.18015 1.71289,2.83399 1.19945,1.57696 14.42609,16.28225 15.75977,17.52148 3.32828,3.09251 7.5699,4.87382 12.14453,5.10156 5.08641,0.25323 9.22037,-1.17704 13.66211,-4.72851 0.43446,-0.34736 6.43684,9.51743 10.80469,17.75586 l 1.68945,3.18554 -1.48047,0.60547 c -5.55093,2.26824 -9.69994,7.02023 -11.36132,13.01563 -0.53477,1.93181 -0.58356,7.1811 -0.084,8.99414 0.18016,0.65383 1.80946,5.75708 3.62109,11.33984 3.64231,11.22501 4.28418,12.77953 6.34571,15.35157 4.54972,5.67637 12.24408,8.30925 19.27929,6.5957 0.84876,-0.20672 1.60444,-0.31248 1.67774,-0.23438 0.15354,0.1634 1.13002,6.82701 1.53516,10.47657 0.37009,3.33254 0.78922,8.35086 0.93945,11.24609 l 0.12305,2.37891 -1.68165,-0.0645 c -7.8609,-0.30042 -15.36531,4.64383 -18.30078,12.05664 -0.88688,2.23941 -1.09734,3.58935 -2.22265,14.31055 -1.40771,13.4126 -1.34267,12.57684 -1.11524,14.57227 0.28118,2.46786 0.78814,4.18591 1.92188,6.49414 2.69314,5.48265 7.90788,9.40722 13.74804,10.34765 0.80615,0.12981 1.48828,0.25093 1.51758,0.26953 0.0727,0.0469 -1.2792,4.9235 -2.2539,8.12891 -1.05862,3.4814 -2.74527,8.43477 -4.13672,12.15039 l -1.11914,2.98828 -1.67578,-0.79101 c -2.08914,-0.98569 -3.83865,-1.47307 -6.25196,-1.74414 -6.30577,-0.7083 -13.10229,2.23692 -16.99804,7.36914 -1.00561,1.32472 -10.75325,18.00609 -12.05469,20.6289 -0.73518,1.48179 -1.29483,3.1097 -1.66797,4.84766 -0.32765,1.52508 -0.28794,5.71775 0.0703,7.32227 0.42958,1.92385 1.44251,4.46613 2.45117,6.15429 1.07609,1.80109 3.82892,4.67505 5.60157,5.84766 l 1.22461,0.80859 -1.93946,2.3711 c -1.06692,1.30314 -3.04801,3.62512 -4.40234,5.16015 -26.75451,30.32602 -62.05283,51.82846 -100.90625,61.46875 -2.01536,0.50004 -3.91254,0.95758 -4.21485,1.01758 -0.51922,0.10318 -0.5923,0.0396 -1.32812,-1.1543 -2.70616,-4.39101 -7.879,-7.7991 -13.06445,-8.60742 -1.00391,-0.15601 -8.98472,-0.19785 -30.31055,-0.15625 l -28.94922,0.0566 -1.64844,0.50781 c -4.72631,1.45691 -8.40587,4.15886 -10.94922,8.04102 -0.51071,0.77957 -1.01775,1.41516 -1.12695,1.41016 -0.41507,-0.0178 -9.48864,-2.37236 -12.29101,-3.18946 -24.90989,-7.2632 -49.17794,-20.04476 -69.34766,-36.52343 -10.37229,-8.47414 -20.53521,-18.61251 -28.62695,-28.5586 -0.80473,-0.98913 -1.392092,-1.85889 -1.304692,-1.93359 0.08733,-0.0748 0.694612,-0.51119 1.349612,-0.96875 7.60821,-5.31467 10.25513,-15.78861 6.07617,-24.04688 -1.16741,-2.30696 -10.921542,-19.03062 -11.781252,-20.19922 -1.8717,-2.54424 -5.02421,-5.04538 -7.82422,-6.20898 -2.62967,-1.09281 -4.59121,-1.48709 -7.44726,-1.49609 -3.34987,-0.0104 -5.83556,0.54237 -8.56055,1.90234 -0.57655,0.28772 -1.12134,0.52148 -1.21094,0.52148 -0.42033,0 -4.77611,-12.68818 -6.5918,-19.20312 l -1.0957,-3.93164 1.00781,-0.13281 c 7.38572,-0.97507 13.84251,-6.80079 15.74415,-14.20313 0.81705,-3.18049 0.78451,-4.33933 -0.47266,-16.20703 -1.23956,-11.70144 -1.33528,-12.39557 -1.95899,-14.3125 -1.68682,-5.18425 -5.58231,-9.46524 -10.56445,-11.60937 -2.58033,-1.11048 -4.37539,-1.4767 -7.33203,-1.4961 l -2.52734,-0.0156 0.11132,-1.64649 c 0.37715,-5.60508 0.70606,-9.43707 1.11133,-12.89453 0.4752,-4.05408 1.27104,-9.48027 1.41016,-9.61914 0.04334,-0.0433 0.81217,0.10261 1.70898,0.32617 1.34762,0.33587 2.1237,0.40549 4.47071,0.39649 2.44492,-0.009 3.08625,-0.0736 4.60351,-0.47657 3.44705,-0.91562 6.29747,-2.55593 8.78516,-5.05273 1.7661,-1.77255 3.19239,-3.83301 4.00976,-5.79297 0.75754,-1.81648 7.11064,-21.38419 7.46875,-23.00391 0.37046,-1.6759 0.40754,-5.46798 0.07032,-7.16406 -1.32521,-6.66536 -5.90141,-12.10169 -12.15821,-14.44531 -0.47866,-0.17928 -0.86914,-0.36948 -0.86914,-0.42188 0,-0.20449 3.24937,-6.29052 4.94922,-9.26953 2.15033,-3.76852 6.72669,-11.21016 7.23828,-11.76953 0.03046,-0.0333 0.51145,0.30892 1.06836,0.76172 2.12178,1.72517 4.87347,3.04957 7.7207,3.71289 1.11693,0.26028 2.142592,0.33813 4.306652,0.32813 2.47477,-0.0115 3.07525,-0.0772 4.67187,-0.50391 2.26886,-0.60633 5.06021,-1.97645 6.87109,-3.37305 1.44916,-1.11764 14.92948,-15.80606 17.04493,-18.57226 5.53511,-7.2378 4.95532,-17.75624 -1.34375,-24.38672 l -1.24414,-1.31055 2.61914,-2.08789 c 3.16605,-2.52391 6.17916,-4.78525 9.48828,-7.12109 2.9879,-2.10912 7.48598,-5.08985 7.68164,-5.08985 0.0778,0 0.29857,0.34875 0.49023,0.77539 2.02565,4.50932 6.90203,8.48945 12.16602,9.92969 3.34595,0.91544 7.59676,0.79935 10.86719,-0.29883 1.59026,-0.534 20.75176,-9.06449 22.00195,-9.79492 4.27968,-2.50043 7.35611,-6.50485 8.82812,-11.49219 0.58011,-1.96555 0.79957,-5.74163 0.46094,-7.91601 -0.16638,-1.06839 -0.97627,-3.8847 -1.41016,-4.90234 -0.0888,-0.20831 7.46602,-2.15634 12.38086,-3.19141 2.53737,-0.53437 10.83767,-2.0055 11.31641,-2.00586 0.15182,-1.1e-4 0.22852,0.30005 0.22852,0.89062 0,2.21208 0.87855,5.49856 2.12109,7.94336 2.43137,4.78387 6.86339,8.3346 12.32227,9.87305 1.36859,0.38569 1.74039,0.3983 13.86523,0.45898 8.9069,0.0446 12.84965,9.6e-4 13.83203,-0.15234 7.93145,-1.23775 14.18614,-7.24653 15.83203,-15.21094 0.16023,-0.77532 0.29102,-1.95552 0.29102,-2.62304 l 0,-1.21289 z"
       style="fill:#000000" />
  </g>
</svg>
