<?xml version="1.0" encoding="UTF-8" standalone="no"?>
<svg
   xmlns:dc="http://purl.org/dc/elements/1.1/"
   xmlns:cc="http://creativecommons.org/ns#"
   xmlns:rdf="http://www.w3.org/1999/02/22-rdf-syntax-ns#"
   xmlns:svg="http://www.w3.org/2000/svg"
   xmlns="http://www.w3.org/2000/svg"
   version="1.1"
   id="svg2"
   viewBox="0 0 499.99998 499.99998"
   height="500"
   width="500">
  <defs
     id="defs4" />
  <metadata
     id="metadata7">
    <rdf:RDF>
      <cc:Work
         rdf:about="">
        <dc:format>image/svg+xml</dc:format>
        <dc:type
           rdf:resource="http://purl.org/dc/dcmitype/StillImage" />
        <dc:title></dc:title>
      </cc:Work>
    </rdf:RDF>
  </metadata>
  <g
     transform="translate(0,-552.36224)"
     id="layer1">
    <path
       id="path4183"
       d="m 41.565659,1050.9577 c -6.47441,-2.0511 -9.867271,-4.1832 -14.268117,-8.9659 -7.85903,-8.5409 -7.282008,7.7035 -7.282008,-205.00525 0,-215.54685 -0.761401,-196.82535 8.377125,-205.97984 8.001301,-8.01527 10.084387,-8.39176 46.431858,-8.39176 l 30.389183,0 0,12.65712 c 0,18.12005 2.84224,27.89253 10.6208,36.51751 8.63144,9.57066 19.89469,13.64093 35.48576,12.82371 19.29185,-1.01119 30.98198,-8.90469 37.40206,-25.25487 1.60961,-4.0992 2.10006,-8.25514 2.46991,-20.92917 l 0.46148,-15.8143 58.40953,0 58.40954,0 0.4387,15.31226 c 0.48722,17.00561 1.63645,21.7426 7.38327,30.43325 12.81512,19.37971 48.86161,22.18137 66.39855,5.16072 8.8433,-8.58295 12.19418,-19.04271 12.19418,-38.06411 l 0,-12.84212 30.38918,0 c 36.3991,0 38.23558,0.33607 46.37112,8.48583 9.25453,9.27069 8.49909,-9.88634 8.19997,207.94361 l -0.26327,191.73011 -2.28532,4.9651 c -3.46779,7.5342 -6.65864,11.134 -12.41726,14.0086 l -5.23649,2.614 -207.03521,-0.067 c -164.009179,-0.053 -207.868433,-0.3311 -211.044541,-1.3373 z M 433.9784,861.08453 l 0,-145.08991 -183.92781,0 -183.927811,0 0,145.08991 0,145.08987 183.927811,0 183.92781,0 0,-145.08987 z m -312.33021,80.39751 c -1.71104,-0.74613 -4.19181,-2.87468 -5.51282,-4.73009 -2.35756,-3.31127 -2.40666,-3.82716 -2.6629,-27.97351 -0.25456,-23.98807 -0.20431,-24.69992 2.01977,-28.61634 4.03331,-7.10233 5.91735,-7.52781 33.32288,-7.52531 22.35682,0.002 24.29016,0.14524 27.37181,2.02735 6.38569,3.90006 7.16196,7.53145 7.18505,33.61226 0.023,25.86358 -0.44181,28.04618 -6.89039,32.36165 -3.3102,2.21522 -4.08394,2.27809 -27.56411,2.2399 -18.01507,-0.0293 -24.94941,-0.38428 -27.26929,-1.39591 z m 100.90953,-0.32349 c -1.8903,-0.96558 -4.37106,-3.03011 -5.51282,-4.58788 -1.94335,-2.65142 -2.09415,-4.38254 -2.3616,-27.11022 -0.27778,-23.60507 -0.22222,-24.40111 2.00466,-28.72202 3.98331,-7.72899 5.53876,-8.10695 33.36263,-8.10695 27.82387,0 29.37933,0.37796 33.36263,8.10695 2.22688,4.32091 2.28244,5.11695 2.00467,28.72202 -0.26745,22.72768 -0.41826,24.4588 -2.36161,27.11022 -4.33795,5.91851 -6.54903,6.34345 -33.00569,6.34345 -20.9236,0 -24.50347,-0.22859 -27.49287,-1.75557 z m 101.06187,-0.5205 c -6.46442,-4.32606 -6.91067,-6.44867 -6.9124,-32.87935 -0.002,-26.36094 0.42545,-28.36274 7.01424,-32.86804 3.20383,-2.19071 4.04527,-2.25918 27.76263,-2.25918 27.00472,0 28.2644,0.24227 32.54933,6.26036 2.27026,3.18851 2.34204,3.95307 2.61738,27.87844 0.3174,27.5809 -0.0457,29.41737 -6.6959,33.86777 -3.31133,2.21597 -4.09276,2.2792 -28.16765,2.2792 -24.07487,0 -24.8563,-0.0633 -28.16763,-2.2792 z M 120.14631,839.22573 c -6.46417,-4.3259 -6.91084,-6.45 -6.91084,-32.86369 0,-26.4137 0.44667,-28.53779 6.91084,-32.86369 3.31133,-2.21597 4.09276,-2.2792 28.16764,-2.2792 24.07488,0 24.85632,0.0633 28.16764,2.2792 6.46418,4.3259 6.91084,6.44999 6.91084,32.86369 0,26.41369 -0.44666,28.53779 -6.91084,32.86369 -3.31132,2.21597 -4.09276,2.27919 -28.16764,2.27919 -24.07488,0 -24.85631,-0.0633 -28.16764,-2.27919 z m 102.32453,0.44776 c -2.16992,-1.13789 -4.34658,-3.4999 -5.74777,-6.23725 -2.1423,-4.18517 -2.25525,-5.54106 -2.25525,-27.0742 0,-21.53314 0.11295,-22.88904 2.25525,-27.0742 3.93325,-7.68393 5.52302,-8.06893 33.31188,-8.06713 26.47347,0.002 28.68324,0.42632 33.02133,6.34502 1.94335,2.65142 2.09416,4.38254 2.36161,27.11022 0.27777,23.60507 0.22221,24.40111 -2.00467,28.72202 -3.9833,7.72899 -5.53876,8.10695 -33.36263,8.10695 -21.36772,0 -24.48154,-0.20677 -27.57975,-1.83143 z m 101.14875,-0.44776 c -6.46418,-4.3259 -6.91085,-6.45 -6.91085,-32.86369 0,-26.4137 0.44667,-28.53779 6.91085,-32.86369 3.30577,-2.21225 4.11538,-2.27915 27.56412,-2.27764 27.53408,0.002 29.4117,0.42506 33.39827,7.52906 2.15414,3.83861 2.2546,5.03992 2.27036,27.14849 0.0157,22.00949 -0.0929,23.3496 -2.23876,27.61227 -3.83323,7.6148 -5.40678,7.99102 -33.42987,7.99284 -23.44874,0.002 -24.25835,-0.0654 -27.56412,-2.27764 z M 138.82727,658.48237 c -2.33374,-1.32412 -5.22958,-4.2893 -7.01632,-7.18434 l -3.04246,-4.92966 0,-39.81873 0,-39.81874 3.04246,-4.92965 c 3.98737,-6.4607 9.19462,-9.43903 16.503,-9.43903 7.30838,0 12.51564,2.97833 16.50301,9.43903 l 3.04246,4.92965 0,39.81874 0,39.81873 -3.04246,4.92966 c -3.98737,6.46069 -9.19463,9.43902 -16.50301,9.43902 -3.86573,0 -6.70011,-0.67365 -9.48668,-2.25468 z m 204.44237,0.76123 c -4.35857,-2.35688 -6.45616,-4.48685 -8.87928,-9.01638 -2.09264,-3.91173 -2.14859,-5.04923 -2.14859,-43.67758 0,-39.16009 0.0283,-39.71445 2.24599,-43.87044 1.2353,-2.31506 3.90648,-5.47792 5.93597,-7.02858 3.30127,-2.5224 4.4983,-2.81939 11.36349,-2.81939 6.86521,0 8.06224,0.29699 11.36351,2.81939 2.02949,1.55066 4.70067,4.71352 5.93596,7.02858 2.21763,4.15599 2.246,4.71035 2.246,43.87044 0,39.16008 -0.0283,39.71444 -2.246,43.87044 -3.62262,6.78911 -8.33801,9.73818 -16.18652,10.12325 -4.70677,0.23093 -7.49602,-0.1455 -9.63053,-1.29973 z"
       style="fill:#000000" />
  </g>
</svg>
