<?xml version="1.0" encoding="UTF-8" standalone="no"?>
<svg
   xmlns:dc="http://purl.org/dc/elements/1.1/"
   xmlns:cc="http://creativecommons.org/ns#"
   xmlns:rdf="http://www.w3.org/1999/02/22-rdf-syntax-ns#"
   xmlns:svg="http://www.w3.org/2000/svg"
   xmlns="http://www.w3.org/2000/svg"
   version="1.1"
   id="svg2"
   viewBox="0 0 539.99998 499.99998"
   height="500"
   width="540">
  <defs
     id="defs4" />
  <metadata
     id="metadata7">
    <rdf:RDF>
      <cc:Work
         rdf:about="">
        <dc:format>image/svg+xml</dc:format>
        <dc:type
           rdf:resource="http://purl.org/dc/dcmitype/StillImage" />
        <dc:title></dc:title>
      </cc:Work>
    </rdf:RDF>
  </metadata>
  <g
     transform="translate(0,-552.36224)"
     id="layer1">
    <path
       id="path4223"
       d="M 218.61748,1046.7645 C 112.59834,1025.1593 28.354039,928.3634 20.67775,820.56827 15.049851,748.61938 44.840109,675.01076 96.311443,624.89038 158.35247,564.64506 253.44457,534.69704 337.03972,563.28782 c 62.64365,19.14187 119.90713,60.5264 149.91777,119.75691 30.96615,56.12507 43.57301,124.42353 22.93263,186.3301 -23.98685,80.11372 -88.09427,147.67687 -168.84892,171.48057 -39.32184,13.0715 -82.01611,14.9565 -122.42372,5.9091 z m 96.73763,-46.531 C 412.60242,979.1139 485.36578,877.71189 471.28817,778.60061 459.68403,675.33882 359.38923,590.61457 255.21433,600.0054 151.3269,606.37965 62.528922,703.04096 66.440631,807.33001 67.186435,916.59152 170.02603,1014.0591 279.62107,1005.5576 c 12.03615,-0.735 23.9996,-2.5567 35.73404,-5.3241 z M 248.35786,813.8954 c 0.64511,-50.18109 -1.70965,-100.50305 2.134,-150.56127 3.18749,-33.12446 45.81444,-27.3567 39.63279,13.5065 1.26316,38.2083 0.51668,76.44956 0.71946,114.67379 22.92342,24.58513 48.87976,46.83267 67.97801,74.60104 7.02678,26.90561 -19.70386,34.03165 -44.25381,11.58028 -23.03602,-20.83543 -45.73901,-43.72579 -66.21045,-63.80034 z"
       style="fill:#000000" />
  </g>
</svg>
