<?xml version="1.0" encoding="UTF-8" standalone="no"?>
<svg
   xmlns:dc="http://purl.org/dc/elements/1.1/"
   xmlns:cc="http://creativecommons.org/ns#"
   xmlns:rdf="http://www.w3.org/1999/02/22-rdf-syntax-ns#"
   xmlns:svg="http://www.w3.org/2000/svg"
   xmlns="http://www.w3.org/2000/svg"
   version="1.1"
   id="svg2"
   viewBox="0 0 540.00001 500.00001"
   height="500"
   width="540">
  <defs
     id="defs4" />
  <metadata
     id="metadata7">
    <rdf:RDF>
      <cc:Work
         rdf:about="">
        <dc:format>image/svg+xml</dc:format>
        <dc:type
           rdf:resource="http://purl.org/dc/dcmitype/StillImage" />
        <dc:title></dc:title>
      </cc:Work>
    </rdf:RDF>
  </metadata>
  <g
     transform="translate(0,-552.36216)"
     id="layer1">
    <path
       id="path3727"
       d="m 270.10386,610.06807 c -14.79212,0 -21.89944,14.9006 -12.50762,26.21705 5.10783,6.1545 4.05548,14.49194 -4.29366,34.26757 -6.06949,14.3761 -21.30523,55.17243 -33.85926,90.65674 -12.55404,35.48431 -24.94267,62.36636 -27.53547,59.73789 -2.5928,-2.62847 -12.74574,-26.61084 -22.56503,-53.29695 -12.58146,-34.19338 -15.98055,-50.39669 -11.51592,-54.8609 9.3218,-9.3221 1.04912,-25.06243 -13.17262,-25.06243 -14.72306,0 -21.91652,14.87832 -12.61264,26.08873 5.02013,6.04906 1.91514,20.66752 -12.67101,59.668 -10.62462,28.40836 -21.015191,51.64102 -23.090067,51.64102 -6.890288,0 -51.7642,-134.09783 -50.975541,-152.33193 0.614106,-14.19725 -1.701036,-17.92137 -11.165849,-17.92137 -7.841972,0 -12.60816,4.61882 -13.861103,13.44103 -1.049893,7.39256 0.966261,13.44102 4.480342,13.44102 4.333686,0 6.393867,40.36042 6.393867,125.44988 l 0,125.44958 238.951581,0 238.95159,0 0,-119.55763 c 0,-80.20947 2.26693,-123.19985 6.90719,-130.63005 8.94193,-14.31828 2.09597,-32.03409 -11.37588,-29.43728 -7.9836,1.53891 -10.6417,8.38875 -11.20085,28.81888 -0.98806,36.11048 -47.1949,157.25893 -53.50741,140.29098 -2.44465,-6.57117 -12.02559,-31.89645 -21.28162,-56.28445 -12.49096,-32.9114 -15.13944,-46.37274 -10.30246,-52.20077 9.19121,-11.0748 1.89285,-25.92505 -12.74096,-25.92505 -14.52085,0 -21.96652,14.82157 -12.91599,25.72672 4.62628,5.57415 1.16411,21.77686 -12.76431,59.62141 -10.51877,28.5804 -20.46722,51.95883 -22.11001,51.95524 -1.6428,-0.004 -18.17042,-40.97541 -36.71784,-91.05369 -23.70483,-64.0027 -31.92722,-93.24333 -27.69879,-98.43891 8.7341,-10.73174 1.07247,-25.47033 -13.24266,-25.47033 z m -1.12009,340.64613 -237.831491,0.3703 0,23.6389 0,23.6383 238.298171,0 238.29823,0 2.4618,-21.0833 c 1.35408,-11.5999 1.13962,-22.4059 -0.46655,-24.0122 -1.60647,-1.6064 -109.9483,-2.7587 -240.76004,-2.555 z"
       style="fill:#000000" />
  </g>
</svg>
