<?xml version="1.0" encoding="UTF-8" standalone="no"?>
<svg
   xmlns:dc="http://purl.org/dc/elements/1.1/"
   xmlns:cc="http://creativecommons.org/ns#"
   xmlns:rdf="http://www.w3.org/1999/02/22-rdf-syntax-ns#"
   xmlns:svg="http://www.w3.org/2000/svg"
   xmlns="http://www.w3.org/2000/svg"
   version="1.1"
   id="svg2"
   viewBox="0 0 440.00001 500.00001"
   height="500"
   width="440">
  <defs
     id="defs4" />
  <metadata
     id="metadata7">
    <rdf:RDF>
      <cc:Work
         rdf:about="">
        <dc:format>image/svg+xml</dc:format>
        <dc:type
           rdf:resource="http://purl.org/dc/dcmitype/StillImage" />
        <dc:title></dc:title>
      </cc:Work>
    </rdf:RDF>
  </metadata>
  <path
     style="fill:#000000"
     d="m 320.21411,0 c 18.62387,0 54.88764,20.959975 70.49219,40.744141 23.41154,29.682247 29.33318,50.695451 29.29297,103.949219 -0.0322,42.63324 -1.37569,51.38225 -10.51367,68.43555 -5.76263,10.75419 -16.91459,25.2451 -24.78125,32.20312 -7.86665,6.958 -15.00987,12.04738 -15.87305,11.30859 -0.86317,-0.73876 2.77876,-9.95175 8.0918,-20.47265 C 422.02067,146.86544 396.26702,41.456586 320.89966,6.8613281 L 305.95239,0 320.21411,0 Z m -44.73437,0.71289062 c 7.12999,0.0933022 14.24894,1.53148188 21.16797,4.35546878 52.56388,21.4538486 80.5511,71.7027326 80.41601,144.3828106 -0.0672,36.18102 -4.54943,55.81555 -19.63672,86.03711 l -9.20898,18.44922 -16.63477,-6.07617 C 322.43422,244.51898 293.57683,234.50351 267.4563,225.60547 212.2282,206.79183 211.32889,205.74871 202.73365,150.4668 193.18352,89.04354 202.62015,44.094752 230.29224,19.197266 244.05722,6.8124431 259.79375,0.50762588 275.47974,0.71289062 Z M 180.08521,226.88281 c 25.10246,-0.0576 38.86291,3.06427 90.20117,20.46289 33.31914,11.29192 60.59709,21.71597 60.61719,23.16407 0.0202,1.44811 -4.99907,7.75469 -11.15235,14.01367 -15.21794,15.47931 -59.07226,34.84025 -99.39062,43.88086 -63.22415,14.17681 -152.251801,7.47189 -185.046881,-13.9375 -18.03672,-11.77481 -20.35287,-30.00753 -5.82031,-45.82032 20.21651,-21.99749 90.995451,-41.62717 150.591801,-41.76367 z m 2.36133,25.58399 c -85.963391,0.24834 -134.589941,26.2882 -88.189461,47.22656 32.199931,14.5303 124.212771,9.52085 156.371101,-8.51367 20.77155,-11.6488 19.09788,-19.75832 -6.5,-31.50586 -12.66064,-5.8103 -25.50837,-7.31146 -61.68164,-7.20703 z m 182.28515,21.6914 c 0.14467,0.0117 0.25943,0.0503 0.33985,0.11914 4.37307,3.74289 -11.12062,46.32355 -22.43946,61.66993 -6.19876,8.40443 -18.55629,21.33837 -27.46093,28.74023 l -16.19141,13.45703 5.39648,42.29883 5.39649,42.29883 -15.6875,11.23242 c -8.62876,6.17726 -28.02572,14.58615 -43.10352,18.6875 -48.3855,13.16149 -136.86631,7.79276 -157.109371,-9.5332 -6.393,-5.47174 -6.20808,-8.99361 1.91015,-36.33985 l 8.990241,-30.2832 50.25976,1.04687 c 42.83418,0.89217 52.95908,-0.11601 68.53516,-6.82226 10.05187,-4.32784 13.13592,-6.71236 6.85352,-5.30078 -6.28243,1.41157 -29.9282,2.57619 -52.54493,2.58789 -44.17455,0.0234 -70.71627,-7.01227 -100.974611,-26.76563 -15.07372,-9.84047 -36.64361,-35.99693 -32.56445,-39.48828 1.25848,-1.07713 19.44104,1.01642 40.40625,4.65235 95.002271,16.47591 196.826451,-6.35559 258.666021,-58.00196 9.96321,-8.32095 19.15227,-14.43189 21.32226,-14.25586 z"
     id="path4201" />
</svg>
