<?xml version="1.0" encoding="UTF-8" standalone="no"?>
<svg
   xmlns:dc="http://purl.org/dc/elements/1.1/"
   xmlns:cc="http://creativecommons.org/ns#"
   xmlns:rdf="http://www.w3.org/1999/02/22-rdf-syntax-ns#"
   xmlns:svg="http://www.w3.org/2000/svg"
   xmlns="http://www.w3.org/2000/svg"
   version="1.1"
   id="svg2"
   viewBox="0 0 539.99998 499.99998"
   height="500"
   width="540">
  <defs
     id="defs4" />
  <metadata
     id="metadata7">
    <rdf:RDF>
      <cc:Work
         rdf:about="">
        <dc:format>image/svg+xml</dc:format>
        <dc:type
           rdf:resource="http://purl.org/dc/dcmitype/StillImage" />
        <dc:title></dc:title>
      </cc:Work>
    </rdf:RDF>
  </metadata>
  <g
     transform="translate(0,-552.36224)"
     id="layer1">
    <path
       id="path3347"
       d="m 243.72526,572.36277 c -18.45292,0.0251 -36.82368,0.90719 -54.84293,4.86619 -26.34028,9.78329 -36.22776,39.86231 -34.33178,65.88731 -0.005,7.02265 -0.0142,14.05099 -0.0191,21.07552 -0.4911,8.5825 14.09922,2.0518 20.14315,4.0847 6.5299,-1.87283 21.76509,4.99285 19.00101,-6.20375 1.55521,-16.07274 -5.50627,-36.95785 9.43359,-47.84659 24.07922,-4.32734 48.9246,-1.62251 73.33256,-2.41151 21.74193,1.8715 46.94711,-5.01668 65.91567,7.46944 5.8101,15.41084 1.94798,32.71854 3.02029,48.99241 l 39.14894,0 c -0.75842,-25.43481 3.84012,-54.02433 -13.14205,-75.28885 -16.86397,-22.76516 -47.40643,-19.55363 -72.34332,-20.33242 -18.33131,0.51476 -36.86312,-0.31751 -55.31602,-0.29245 z m 28.85035,115.48863 c -67.08691,-0.01 -134.17018,0.28776 -201.240422,1.72113 C 45.351308,688.26299 28.300039,711.41102 20,733.32483 l 0,252.56085 c 4.55789,19.16702 18.159428,37.79812 37.237364,44.85982 120.215016,0.061 276.627386,0.6792 409.606236,1.4959 25.63628,1.974 43.48184,-20.5855 51.63624,-42.39562 3.73063,-84.58466 -0.42474,-166.92675 -1.66307,-258.72151 -3.83121,-22.39474 -23.39464,-35.46453 -42.98161,-43.16261 -67.0828,0.21453 -134.17265,-0.10039 -201.25955,-0.11021 z m -5.30938,56.6584 c 28.02349,-0.61268 56.21128,8.58383 76.9263,28.04635 26.96119,22.28126 42.87242,56.55047 40.96971,91.65642 0.80194,51.70887 -39.49749,96.7071 -87.49728,110.67532 -35.65179,8.70049 -69.77701,-2.34764 -103.22952,-25.80284 -49.40784,-38.63037 -54.93927,-120.77298 -10.7191,-165.35829 20.23999,-25.22717 51.78992,-38.52256 83.54989,-39.21696 z m -17.31403,58.77267 0,39.27448 -39.14894,0 0,36.81981 33.72008,0 c 7.82007,-1.16998 4.39917,24.88409 5.42886,39.2745 l 39.14893,0 0,-39.2745 39.14893,0 0,-36.81981 -39.14893,0 0,-39.27448 -39.14893,0 z"
       style="fill:#000000" />
  </g>
</svg>
