<?xml version="1.0" encoding="UTF-8" standalone="no"?>
<!-- Created with Inkscape (http://www.inkscape.org/) -->

<svg
   xmlns:dc="http://purl.org/dc/elements/1.1/"
   xmlns:cc="http://creativecommons.org/ns#"
   xmlns:rdf="http://www.w3.org/1999/02/22-rdf-syntax-ns#"
   xmlns:svg="http://www.w3.org/2000/svg"
   xmlns="http://www.w3.org/2000/svg"
   xmlns:sodipodi="http://sodipodi.sourceforge.net/DTD/sodipodi-0.dtd"
   xmlns:inkscape="http://www.inkscape.org/namespaces/inkscape"
   width="470"
   height="500"
   viewBox="0 0 469.99998 499.99998"
   id="svg2"
   version="1.1"
   inkscape:version="0.91 r13725"
   sodipodi:docname="u00b2-festival-anchor.svg">
  <defs
     id="defs4" />
  <sodipodi:namedview
     id="base"
     pagecolor="#ffffff"
     bordercolor="#666666"
     borderopacity="1.0"
     inkscape:pageopacity="0.0"
     inkscape:pageshadow="2"
     inkscape:zoom="0.35"
     inkscape:cx="375"
     inkscape:cy="520"
     inkscape:document-units="px"
     inkscape:current-layer="layer1"
     showgrid="false"
     units="px"
     inkscape:window-width="1920"
     inkscape:window-height="996"
     inkscape:window-x="-8"
     inkscape:window-y="-8"
     inkscape:window-maximized="1" />
  <metadata
     id="metadata7">
    <rdf:RDF>
      <cc:Work
         rdf:about="">
        <dc:format>image/svg+xml</dc:format>
        <dc:type
           rdf:resource="http://purl.org/dc/dcmitype/StillImage" />
        <dc:title></dc:title>
      </cc:Work>
    </rdf:RDF>
  </metadata>
  <g
     inkscape:label="Layer 1"
     inkscape:groupmode="layer"
     id="layer1"
     transform="translate(0,-552.36209)">
    <path
       style="fill:#000000"
       d="m 235.81272,552.36721 c -29.01238,-0.20935 -52.2882,30.33974 -44.0151,58.32849 0.49084,16.62985 24.06691,21.313 21.80052,36.59675 -1.53237,18.6852 0.41056,37.95469 -4.23502,56.13444 -21.11693,10.86209 -44.04655,-1.81441 -63.48152,-8.09687 -38.93721,6.82816 -2.94106,62.30606 20.59005,31.31898 14.16807,-3.51228 29.10033,-1.27776 43.61531,-1.89452 -4.8499,54.89703 -6.00226,110.87524 -21.3005,164.13756 -5.1904,25.81262 -35.66033,30.2835 -56.76117,22.09224 -32.423461,-7.05049 -52.333191,-37.57523 -60.543861,-67.56354 6.767489,-7.67169 34.002151,-0.44442 15.228573,-16.80808 C 74.102437,813.80872 61.796242,789.25767 47.683324,784.95464 39.476658,806.89131 29.302465,828.03573 20,849.52397 c 8.129703,-0.46318 16.259526,-0.92426 24.389466,-1.38325 5.21055,44.16673 23.342103,89.47421 61.654524,114.97582 34.6051,24.50711 78.70473,33.29095 110.19372,62.27986 8.61113,4.9675 16.11787,25.5146 23.90012,24.8637 13.68274,-19.5696 29.59662,-38.712 53.00118,-46.6828 32.6377,-17.43868 69.75606,-28.95592 96.9336,-54.93739 26.7094,-27.80137 34.4068,-67.29612 36.17481,-104.51176 7.91741,0.45783 15.83494,0.91369 23.75258,1.36757 -11.03881,-22.04703 -21.8684,-44.20089 -33.15748,-66.12104 -14.85929,18.19986 -29.06878,36.97649 -42.69914,56.11708 9.14702,4.30538 28.87511,-2.88448 21.54379,13.65967 -8.44801,25.88442 -24.30895,54.93378 -54.17824,58.95215 -20.43301,5.2558 -51.47765,3.85419 -56.48748,-21.84354 -13.04588,-52.87711 -17.45271,-107.35299 -21.75204,-161.50556 15.65277,0.71484 31.80675,-1.87086 47.02531,2.24998 13.6898,17.92463 44.61346,3.15025 36.50619,-18.78642 -10.45853,-26.64772 -34.68399,-2.91833 -51.3485,-1.57796 -17.77698,1.28847 -40.79465,3.19911 -34.1676,-21.94308 -0.76317,-14.39593 -1.3132,-28.80211 -1.96959,-43.20315 12.31263,-11.92862 25.83999,-25.42133 23.8776,-44.25375 0.34716,-24.95388 -23.12387,-45.34975 -47.3801,-44.87289 z m 0.6955,23.51895 c 31.91009,-0.89405 27.95476,50.94783 -2.94615,46.1659 -21.08044,-2.37025 -27.17448,-33.852 -7.95904,-43.27413 3.31635,-1.85472 7.10045,-2.88612 10.90519,-2.89177 z"
       id="path3402"
       inkscape:connector-curvature="0" />
  </g>
</svg>
