<?xml version="1.0" encoding="UTF-8" standalone="no"?>
<svg
   xmlns:dc="http://purl.org/dc/elements/1.1/"
   xmlns:cc="http://creativecommons.org/ns#"
   xmlns:rdf="http://www.w3.org/1999/02/22-rdf-syntax-ns#"
   xmlns:svg="http://www.w3.org/2000/svg"
   xmlns="http://www.w3.org/2000/svg"
   width="500"
   height="500"
   viewBox="0 0 499.99998 499.99998"
   id="svg2"
   version="1.1">
  <defs
     id="defs4" />
  <metadata
     id="metadata7">
    <rdf:RDF>
      <cc:Work
         rdf:about="">
        <dc:format>image/svg+xml</dc:format>
        <dc:type
           rdf:resource="http://purl.org/dc/dcmitype/StillImage" />
        <dc:title></dc:title>
      </cc:Work>
    </rdf:RDF>
  </metadata>
  <g
     id="layer1"
     transform="translate(0,-552.36224)" />
  <path
     d="m 343.26964,106.88136 c -4.35857,-2.35688 -6.45616,-4.48685 -8.87928,-9.01638 -2.09264,-3.91173 -2.14859,-5.04923 -2.14859,-43.67758 0,-39.16009 0.0283,-39.71445 2.24599,-43.87044 1.2353,-2.31506 3.90648,-5.47792 5.93597,-7.02858 3.30127,-2.5224 4.4983,-2.81939 11.36349,-2.81939 6.86521,0 8.06224,0.29699 11.36351,2.81939 2.02949,1.55066 4.70067,4.71352 5.93596,7.02858 2.21763,4.15599 2.246,4.71035 2.246,43.87044 0,39.16008 -0.0283,39.71444 -2.246,43.87044 -3.62262,6.78911 -8.33801,9.73818 -16.18652,10.12325 -4.70677,0.23093 -7.49602,-0.1455 -9.63053,-1.29973 z m -204.44237,-0.76123 c -2.33374,-1.32412 -5.22958,-4.2893 -7.01632,-7.18434 l -3.04246,-4.92966 0,-39.81873 0,-39.81874 3.04246,-4.92965 c 3.98737,-6.4607 9.19462,-9.43903 16.503,-9.43903 7.30838,0 12.51564,2.97833 16.50301,9.43903 l 3.04246,4.92965 0,39.81874 0,39.81873 -3.04246,4.92966 c -3.98737,6.46069 -9.19463,9.43902 -16.50301,9.43902 -3.86573,0 -6.70011,-0.67365 -9.48668,-2.25468 z m 295.15113,202.60216 0,-145.08991 -183.92781,0 -183.927811,0 0,145.08991 0,145.08987 183.927811,0 183.92781,0 z M 41.565659,498.59546 c -6.47441,-2.0511 -9.867271,-4.1832 -14.268117,-8.9659 -7.85903,-8.5409 -7.282008,7.7035 -7.282008,-205.00525 0,-215.54685 -0.761401,-196.82535 8.377125,-205.97984 8.001301,-8.01527 10.084387,-8.39176 46.431858,-8.39176 l 30.389183,0 0,12.65712 c 0,18.12005 2.84224,27.89253 10.6208,36.51751 8.63144,9.57066 19.89469,13.64093 35.48576,12.82371 19.29185,-1.01119 30.98198,-8.90469 37.40206,-25.25487 1.60961,-4.0992 2.10006,-8.25514 2.46991,-20.92917 l 0.46148,-15.8143 58.40953,0 58.40954,0 0.4387,15.31226 c 0.48722,17.00561 1.63645,21.7426 7.38327,30.43325 12.81512,19.37971 48.86161,22.18137 66.39855,5.16072 8.8433,-8.58295 12.19418,-19.04271 12.19418,-38.06411 l 0,-12.84212 30.38918,0 c 36.3991,0 38.23558,0.33607 46.37112,8.48583 9.25453,9.27069 8.49909,-9.88634 8.19997,207.94361 l -0.26327,191.73011 -2.28532,4.9651 c -3.46779,7.5342 -6.65864,11.134 -12.41726,14.0086 l -5.23649,2.614 -207.03521,-0.067 c -164.009179,-0.053 -207.868433,-0.3311 -211.044541,-1.3373 z m 198.119351,-143.40447 0,29.21575 -110.14495,0 q 1.71858,-16.5608 10.62391,-31.40303 9.06157,-14.84223 35.46511,-39.37096 21.24782,-19.68548 25.93484,-26.71601 6.56183,-9.84274 6.56183,-19.37301 0,-10.46767 -5.62442,-16.0921 -5.62443,-5.62442 -15.6234,-5.62442 -9.84274,0 -15.77963,5.93689 -5.78066,5.93689 -6.56183,19.68548 l -31.40302,-3.12468 q 2.81221,-25.93484 17.4982,-37.18368 14.84223,-11.40508 37.02745,-11.40508 24.21626,0 38.12109,13.12365 13.90482,13.12365 13.90482,32.49667 0,11.09261 -4.06208,21.09158 -3.90585,9.99898 -12.49872,20.93535 -5.78066,7.343 -20.62288,21.09159 -14.84223,13.59235 -18.90431,18.12314 -3.90585,4.37455 -6.4056,8.59287 l 62.49359,0 z m 26.54416,-14.37353 30.46562,-3.59338 q 1.40611,11.56131 7.8117,17.81067 6.40559,6.09313 15.46716,6.09313 9.68651,0 16.24833,-7.343 6.71806,-7.343 6.71806,-19.99795 0,-11.87378 -6.40559,-18.74807 -6.24936,-6.8743 -15.46716,-6.8743 -6.09313,0 -14.37353,2.34351 l 3.43715,-25.62237 q 12.65495,0.31247 19.37301,-5.46819 6.71806,-5.93689 6.71806,-15.77963 0,-8.2804 -4.99948,-13.12365 -4.84326,-4.99949 -12.96742,-4.99949 -7.96793,0 -13.74859,5.62442 -5.78066,5.62443 -6.8743,16.40457 l -29.05951,-4.99949 q 3.12468,-14.84222 9.2178,-23.74756 6.09313,-8.90533 16.87327,-13.90482 10.93638,-5.15572 24.52873,-5.15572 23.12263,0 37.18369,14.84222 11.40508,12.03002 11.40508,27.18471 0,21.56029 -23.59133,34.52771 14.06105,2.96845 22.49769,13.59236 8.59287,10.46767 8.59287,25.3099 0,21.56029 -15.77963,36.87121 -15.77964,15.1547 -39.37096,15.1547 -22.18523,0 -36.87122,-12.81119 -14.68599,-12.81118 -17.0295,-33.5903 z"
     style="font-style:normal;font-variant:normal;font-weight:bold;font-stretch:normal;font-size:319.96716309px;line-height:125%;font-family:Utsaah;-inkscape-font-specification:'Utsaah Bold';letter-spacing:6.3899765px;word-spacing:0px;fill:#000000;fill-opacity:1;stroke:none;stroke-width:1px;stroke-linecap:butt;stroke-linejoin:miter;stroke-opacity:1"
     id="path4221" />
</svg>
