<?xml version="1.0" encoding="UTF-8" standalone="no"?>
<svg
   xmlns:dc="http://purl.org/dc/elements/1.1/"
   xmlns:cc="http://creativecommons.org/ns#"
   xmlns:rdf="http://www.w3.org/1999/02/22-rdf-syntax-ns#"
   xmlns:svg="http://www.w3.org/2000/svg"
   xmlns="http://www.w3.org/2000/svg"
   version="1.1"
   id="svg2"
   viewBox="0 0 540.00002 500.00001"
   height="500"
   width="540">
  <defs
     id="defs4" />
  <metadata
     id="metadata7">
    <rdf:RDF>
      <cc:Work
         rdf:about="">
        <dc:format>image/svg+xml</dc:format>
        <dc:type
           rdf:resource="http://purl.org/dc/dcmitype/StillImage" />
        <dc:title></dc:title>
      </cc:Work>
    </rdf:RDF>
  </metadata>
  <g
     transform="translate(0,-552.36216)"
     id="layer1">
    <path
       id="path4738"
       d="M 240.46268,997.5119 C 165.88282,944.25986 106.87121,890.89339 69.245676,842.67374 c -26.70298,-34.22166 -39.38501,-56.41623 -46.12272,-80.71845 -3.37331,-12.16719 -4.2253,-44.97508 -1.50884,-58.10127 11.02955,-53.2956 49.55758,-94.19738 101.622004,-107.88305 12.08938,-3.17781 16.95816,-3.70018 34.48775,-3.70018 17.36871,0 22.40683,0.53077 33.80008,3.56091 26.50868,7.05021 45.92836,18.43232 65.61108,38.45547 l 12.83986,13.06193 8.9082,-9.94971 c 23.09558,-25.79583 54.66029,-41.31547 91.54545,-45.0108 14.19347,-1.42196 18.33431,-1.31092 31.57674,0.84678 41.25869,6.72261 75.77385,29.24739 96.99933,63.30227 21.9673,35.24509 26.84169,75.68214 13.93791,115.62622 -4.52118,13.99542 -6.49368,17.92176 -20.72983,41.26351 -33.14036,54.33728 -87.5873,108.57408 -163.52204,162.89093 -17.89576,12.801 -59.87974,40.1605 -61.4482,40.0435 -0.23357,-0.017 -12.28447,-8.4999 -26.77977,-18.8499 z M 61.263206,727.58107 c 3.12904,-15.44246 9.10843,-30.62273 17.67899,-44.8828 3.84907,-6.40425 6.70944,-11.93297 6.35638,-12.28603 -1.2261,-1.22608 -9.94913,1.12782 -14.52702,3.92014 -6.05783,3.695 -12.37297,13.84411 -16.20343,26.04065 -4.29576,13.67804 -4.4531,42.12952 -0.30751,55.6027 l 2.81533,9.14981 0.91035,-12.93248 c 0.50068,-7.11285 1.97529,-18.18826 3.27691,-24.61199 z m 43.059554,-76.46443 9.46531,-9.13797 -5.53434,-1.65814 c -4.21384,-1.26249 -7.6176,-1.2707 -14.265374,-0.0344 -9.2663,1.72325 -13.82027,4.34619 -18.52581,10.67027 l -2.90231,3.90061 3.32319,2.69881 c 2.38613,1.93782 5.52979,2.69883 11.14861,2.69883 7.71975,0 7.95324,-0.12345 17.290724,-9.13799 z"
       style="fill:#000000" />
  </g>
</svg>
