<?xml version="1.0" encoding="UTF-8" standalone="no"?>
<svg
   xmlns:dc="http://purl.org/dc/elements/1.1/"
   xmlns:cc="http://creativecommons.org/ns#"
   xmlns:rdf="http://www.w3.org/1999/02/22-rdf-syntax-ns#"
   xmlns:svg="http://www.w3.org/2000/svg"
   xmlns="http://www.w3.org/2000/svg"
   version="1.1"
   id="svg2"
   viewBox="0 0 540.00001 500.00001"
   height="500"
   width="540">
  <defs
     id="defs4" />
  <metadata
     id="metadata7">
    <rdf:RDF>
      <cc:Work
         rdf:about="">
        <dc:format>image/svg+xml</dc:format>
        <dc:type
           rdf:resource="http://purl.org/dc/dcmitype/StillImage" />
        <dc:title></dc:title>
      </cc:Work>
    </rdf:RDF>
  </metadata>
  <g
     transform="translate(0,-552.36216)"
     id="layer1">
    <path
       d="m 258.80251,866.82245 c -3.32739,-1.19022 -58.41917,-41.46297 -122.42615,-89.495 L 20,689.9965 l 0.91158,-6.79633 c 1.23536,-9.21033 9.00147,-19.70468 18.16023,-24.53995 l 7.56181,-3.99216 223.36596,0 223.36596,0 7.56181,3.99216 c 9.15986,4.83583 16.92491,15.32986 18.16066,24.54309 L 520,690.00278 403.57855,777.33622 c -64.03179,48.03338 -119.12376,88.30471 -122.42658,89.49184 -7.62498,2.74064 -14.67694,2.73887 -22.34946,-0.005 z m 199.10625,-13.45318 c -33.48121,-25.18642 -61.04808,-46.41885 -61.25972,-47.18319 -0.21164,-0.76433 27.18208,-21.99296 60.87491,-47.17475 l 61.25972,-45.78504 0.45629,47.19333 c 0.25096,25.95633 0.25096,67.79204 0,92.96823 l -0.45629,45.77492 -60.87491,-45.7935 z m -437.55115,-47.14436 0,-93.51813 6.5881,4.86675 c 46.65124,34.46212 116.82,87.45704 116.87509,88.26985 0.0391,0.57584 -27.72421,21.93883 -61.6961,47.47332 l -61.76709,46.42635 0,-93.51814 z M 45.628,956.0797 c -12.97524,-4.036 -25.12002,-18.4096 -25.23271,-29.8633 -0.03,-3.0566 14.04513,-14.4074 69.70417,-56.21251 l 69.74185,-52.38258 39.86654,29.91049 c 50.41419,37.82405 50.51864,37.88035 70.29173,37.88035 12.72464,0 16.71774,-0.67963 22.6933,-3.8624 5.37419,-2.86246 65.96733,-47.04754 85.56211,-62.39268 1.19506,-0.93588 27.26355,17.57265 71.63266,50.85891 55.8745,41.91772 69.7464,53.09632 69.71622,56.18022 -0.11736,11.9916 -13.25458,26.9158 -26.66545,30.2927 -10.90929,2.747 -438.42091,2.3559 -447.31042,-0.4092 z"
       style="fill:#000000"
       id="path3351" />
  </g>
</svg>
