<?xml version="1.0" encoding="UTF-8" standalone="no"?>
<svg
   xmlns:dc="http://purl.org/dc/elements/1.1/"
   xmlns:cc="http://creativecommons.org/ns#"
   xmlns:rdf="http://www.w3.org/1999/02/22-rdf-syntax-ns#"
   xmlns:svg="http://www.w3.org/2000/svg"
   xmlns="http://www.w3.org/2000/svg"
   version="1.1"
   id="svg2"
   viewBox="0 0 540.00002 500.00001"
   height="500"
   width="540">
  <defs
     id="defs4" />
  <metadata
     id="metadata7">
    <rdf:RDF>
      <cc:Work
         rdf:about="">
        <dc:format>image/svg+xml</dc:format>
        <dc:type
           rdf:resource="http://purl.org/dc/dcmitype/StillImage" />
        <dc:title></dc:title>
      </cc:Work>
    </rdf:RDF>
  </metadata>
  <g
     transform="translate(0,-552.36216)"
     id="layer1">
    <path
       id="path4661"
       d="m 142.78883,1008.1285 c -1.35067,-0.2376 -7.24582,-1.1024 -13.10032,-1.9219 C 106.83492,1003.0075 81.873382,995.4763 56.365013,984.0839 41.390747,977.3962 20,965.8596 20,964.4713 c 0,-0.3906 11.824566,-0.9014 26.27681,-1.1349 24.283078,-0.3923 27.171198,-0.6294 38.064544,-3.1235 27.655896,-6.33232 51.678806,-16.3807 73.953396,-30.93358 6.09704,-3.98344 10.95949,-7.36485 10.80543,-7.51425 -0.15407,-0.14942 -4.47949,-0.99203 -9.61206,-1.8725 -29.3915,-5.04196 -52.56587,-18.50093 -68.681674,-39.88821 -5.654591,-7.50419 -14.159618,-23.28134 -15.32888,-28.43562 l -0.557101,-2.45579 18.953953,-0.0377 c 11.452852,-0.0227 19.925812,-0.46199 21.409722,-1.10979 2.39802,-1.04686 2.35523,-1.09946 -1.81969,-2.23743 -7.4513,-2.03102 -21.520016,-8.58713 -28.886029,-13.46106 C 73.529546,824.95614 59.75325,810.47563 53.889717,800.0095 43.218141,780.96123 40.079636,771.36406 39.003096,754.48803 l -0.647237,-10.14623 3.837686,1.68433 c 10.750047,4.71811 15.40573,6.42046 21.292901,7.78578 8.365402,1.94009 18.533171,3.32229 18.18254,2.47176 -0.151014,-0.36632 -3.147821,-3.21351 -6.65958,-6.32708 -22.066921,-19.56485 -33.879002,-44.26432 -35.097201,-73.38943 -0.596259,-14.25547 0.681186,-25.0071 4.356081,-36.66314 2.422838,-7.68476 7.64223,-19.1783 8.709164,-19.1783 0.293095,0 8.79898,8.06723 18.901939,17.92718 25.804981,25.18424 40.035981,36.36736 63.389101,49.81288 36.54812,21.04254 80.17604,34.65519 121.55352,37.92675 l 8.43477,0.66689 -0.75015,-5.27918 c -1.08064,-7.60507 -1.03258,-22.58934 0.10431,-32.51139 3.14384,-27.43777 20.41205,-54.59519 45.15881,-71.02048 17.57737,-11.66671 31.19498,-16.17081 51.13349,-16.91269 7.53528,-0.28038 16.95674,-0.009 21.73099,0.62663 17.22287,2.29194 35.52262,10.46531 49.31192,22.02459 4.39544,3.68459 9.03082,7.1164 10.30088,7.62623 4.81507,1.93289 29.38809,-5.91306 52.70299,-16.82763 5.82287,-2.7259 11.24658,-4.8252 12.05271,-4.66511 1.11983,0.22238 0.19005,2.75559 -3.94036,10.73541 -2.97331,5.74438 -6.88458,12.596 -8.69168,15.22582 -3.48025,5.0647 -19.99804,22.15023 -24.96353,25.82158 l -2.94693,2.17888 5.51491,-0.55139 c 7.19664,-0.71956 25.87112,-5.59325 37.88622,-9.88762 5.23818,-1.8722 9.73574,-3.19221 9.99457,-2.93337 2.395,2.39497 -25.6158,33.43892 -43.41632,48.11766 l -4.75529,3.92131 -0.87637,17.6816 c -1.85446,37.41509 -6.13093,60.87441 -16.65335,91.3549 C 421.27402,907.03092 347.53582,976.6995 254.41635,1000.5 c -26.26791,6.7138 -33.38657,7.4742 -72.82624,7.7793 -19.99002,0.1547 -37.4506,0.087 -38.80128,-0.1508 z"
       style="fill:#000000" />
  </g>
</svg>
