<?xml version="1.0" encoding="UTF-8" standalone="no"?>
<svg
   xmlns:dc="http://purl.org/dc/elements/1.1/"
   xmlns:cc="http://creativecommons.org/ns#"
   xmlns:rdf="http://www.w3.org/1999/02/22-rdf-syntax-ns#"
   xmlns:svg="http://www.w3.org/2000/svg"
   xmlns="http://www.w3.org/2000/svg"
   version="1.1"
   id="svg2"
   viewBox="0 0 274.00001 500.00001"
   height="500"
   width="274">
  <defs
     id="defs4" />
  <metadata
     id="metadata7">
    <rdf:RDF>
      <cc:Work
         rdf:about="">
        <dc:format>image/svg+xml</dc:format>
        <dc:type
           rdf:resource="http://purl.org/dc/dcmitype/StillImage" />
        <dc:title></dc:title>
      </cc:Work>
    </rdf:RDF>
  </metadata>
  <g
     transform="translate(0,-552.36216)"
     id="layer1">
    <path
       id="path4628"
       transform="translate(0,552.36216)"
       d="M 254 0 L 208.68555 0.27734375 L 163.36914 0.55273438 L 152.71875 2.7617188 C 131.88686 7.0832288 119.97859 12.826072 108.57812 24.044922 C 98.644979 33.819842 92.169144 46.177861 87.857422 63.582031 C 84.199093 78.348781 83.721156 84.702993 83.203125 125.4707 L 82.720703 163.40234 L 51.578125 163.80273 L 20.4375 164.20117 L 20.21875 207.125 L 20 250.04688 L 51.560547 250.04688 L 83.119141 250.04688 L 83.119141 375.02344 L 83.119141 500 L 129.70117 500 L 176.28125 500 L 176.8125 407.63281 C 177.10464 356.83095 177.34375 300.59121 177.34375 282.65625 L 177.34375 250.04688 L 211.20898 250.04688 L 245.07617 250.04688 L 245.55859 247.05273 C 245.82376 245.40568 246.92953 235.25486 248.01562 224.49414 C 249.1017 213.73342 250.89029 196.30478 251.99023 185.76367 C 253.09015 175.22255 253.99114 165.97143 253.99414 165.20703 C 253.99905 163.90829 251.47548 163.80505 215.47266 163.61133 L 176.94336 163.40234 L 177.19531 135.05469 C 177.46264 104.85956 177.84698 101.38614 181.53125 95.873047 C 182.607 94.263297 185.35097 92.076291 188.16602 90.582031 C 194.60367 87.164861 203.05631 86.341797 231.72656 86.341797 L 254 86.341797 L 254 43.169922 L 254 0 z "
       style="fill:#000000" />
  </g>
</svg>
