<?xml version="1.0" encoding="UTF-8" standalone="no"?>
<svg
   xmlns:dc="http://purl.org/dc/elements/1.1/"
   xmlns:cc="http://creativecommons.org/ns#"
   xmlns:rdf="http://www.w3.org/1999/02/22-rdf-syntax-ns#"
   xmlns:svg="http://www.w3.org/2000/svg"
   xmlns="http://www.w3.org/2000/svg"
   width="500"
   height="500"
   viewBox="0 0 499.99998 500.00001"
   id="svg2"
   version="1.1">
  <defs
     id="defs4" />
  <metadata
     id="metadata7">
    <rdf:RDF>
      <cc:Work
         rdf:about="">
        <dc:format>image/svg+xml</dc:format>
        <dc:type
           rdf:resource="http://purl.org/dc/dcmitype/StillImage" />
        <dc:title></dc:title>
      </cc:Work>
    </rdf:RDF>
  </metadata>
  <g
     id="layer1"
     transform="matrix(0.92,0,0,1,1.6000001,-552.36216)">
    <path
       style="fill:#000000"
       d="m 270.00047,552.3622 c -79.79308,0 -128.68219,15.46197 -183.259152,57.96056 -56.24192,43.79518 -66.92228,75.97418 -66.73902,201.24087 0.14974,102.38792 3.75003,119.14575 33.9421,158.05078 115.829412,102.96269 303.708062,117.46019 432.112092,0 29.98351,-38.63628 33.79353,-55.90358 33.9421,-153.92265 0.17816,-117.7876 -16.46406,-165.4245 -73.46926,-210.40609 -47.368,-37.37707 -99.22017,-52.92347 -176.52886,-52.92347 z m 94.46175,39.16049 c 34.84317,11.72469 65.4644,30.30022 86.70076,55.96086 39.92146,48.23855 39.3592,212.73392 -0.89855,261.38286 l -28.11035,33.96436 -42.399,-26.29131 c -49.43521,-30.647 -96.20374,-41.2433 -143.43245,-32.51 -18.52046,3.4247 -52.08026,17.63782 -74.57926,31.58591 -38.49907,23.86721 -42.16571,24.31755 -62.316712,7.6806 -51.66915,-42.65871 -61.89297,-204.64893 -16.95786,-268.66964 19.889402,-28.33712 51.338592,-49.03393 88.066232,-61.98261 0,0 13.926,58.23226 40.45214,72.05679 29.40244,15.32356 73.34762,12.05115 103.09483,-2.77228 27.72679,-13.81665 50.38022,-70.40554 50.38022,-70.40554 z M 156.19353,706.89838 c -18.49466,0.41431 -35.84912,6.92072 -52.97011,19.53479 -34.006732,25.05479 -35.925882,68.55348 -4.175592,94.40171 16.497042,13.43042 38.475222,18.30738 72.958332,16.17171 40.18496,-2.48874 53.22693,-9.20737 70.20107,-36.1231 11.46588,-18.18104 23.97131,-33.05534 27.79324,-33.05534 3.82193,0 16.32744,14.8743 27.79323,33.05534 16.48702,26.14324 30.5703,33.74857 67.3204,36.34276 88.12806,6.22071 134.0734,-64.81189 71.66337,-110.79308 -34.13577,-25.14984 -66.60182,-25.9534 -111.55172,-2.75715 -43.71935,22.56109 -67.89195,22.61061 -109.2173,0.22722 -21.68393,-11.7447 -41.3203,-17.4192 -59.81492,-17.00486 z m 218.28481,30.3058 c 19.35574,0.18421 38.73889,6.63936 47.91361,19.26968 18.60639,25.61449 18.376,26.97949 -7.46146,46.01547 -29.98224,22.08977 -56.10282,20.16557 -80.94836,-5.96878 -15.09662,-15.87969 -17.1209,-27.3549 -7.24122,-40.95562 9.04874,-12.45697 28.3817,-18.54485 47.73743,-18.36075 z m -210.20669,0.56051 c 3.59352,0.0562 7.31063,0.2804 11.15254,0.68171 36.81393,3.84498 51.00893,41.77228 24.4545,65.34572 -21.6395,19.21027 -47.58629,18.75334 -74.80829,-1.30279 -39.487432,-29.09267 -14.70169,-65.56822 39.20125,-64.72464 z m -5.34724,26.98058 c -9.16277,-2.6e-4 -16.59024,3.94761 -16.58783,8.8168 -0.002,4.86919 7.42507,8.81705 16.58783,8.81679 9.16278,2.7e-4 16.59027,-3.9476 16.58787,-8.81679 0.002,-4.8692 -7.42509,-8.81707 -16.58787,-8.8168 z m 218.21431,0 c -9.16276,-2.5e-4 -16.59023,3.94761 -16.58782,8.8168 -0.002,4.86918 7.42506,8.81704 16.58782,8.81679 9.15933,-0.002 16.58144,-3.94943 16.57904,-8.81679 0.002,-4.86737 -7.4197,-8.81448 -16.57904,-8.8168 z m -85.26485,76.24553 c -6.22611,0 -11.27392,3.09926 -11.27585,6.92316 0.002,3.82389 5.04976,6.92312 11.27585,6.92312 6.22609,0 11.27389,-3.09923 11.27586,-6.92312 -0.002,-3.8239 -5.04974,-6.92316 -11.27586,-6.92316 z m -43.8349,0.99227 c -6.23093,0 -11.28073,3.10386 -11.27586,6.93072 0.002,3.8239 5.04974,6.92316 11.27586,6.92316 6.22612,0 11.27393,-3.09926 11.27586,-6.92316 0.005,-3.82686 -5.04493,-6.93072 -11.27586,-6.93072 z m 21.8822,71.20844 c 28.7755,0.33507 56.28878,9.00919 48.10738,18.76218 -4.38401,5.22619 -25.9988,9.4985 -48.02808,9.4985 -48.6235,0 -66.7019,-16.49035 -27.99584,-25.54142 8.60032,-2.01107 18.32467,-2.83084 27.91654,-2.71926 z"
       id="path3668" />
  </g>
</svg>
