<?xml version="1.0" encoding="UTF-8" standalone="no"?>
<svg
   xmlns:dc="http://purl.org/dc/elements/1.1/"
   xmlns:cc="http://creativecommons.org/ns#"
   xmlns:rdf="http://www.w3.org/1999/02/22-rdf-syntax-ns#"
   xmlns:svg="http://www.w3.org/2000/svg"
   xmlns="http://www.w3.org/2000/svg"
   width="490"
   height="500"
   viewBox="0 0 490.00001 500.00001"
   id="svg2"
   version="1.1">
  <defs
     id="defs4" />
  <metadata
     id="metadata7">
    <rdf:RDF>
      <cc:Work
         rdf:about="">
        <dc:format>image/svg+xml</dc:format>
        <dc:type
           rdf:resource="http://purl.org/dc/dcmitype/StillImage" />
        <dc:title></dc:title>
      </cc:Work>
    </rdf:RDF>
  </metadata>
  <path
     id="path4147"
     d="M 245.125,0 C 223.81442,-0.02386 202.54015,1.5868537 189.67188,4.8398438 106.22182,25.935284 47.253173,79.807105 24.958984,155.32031 c -3.511638,11.89437 -4.782652,22.7561 -4.93164,42.12696 -0.350467,45.56655 2.679177,98.52727 6.509765,113.79492 5.0555,20.14985 4.756384,17.87218 13.84961,105.44336 4.471765,43.06477 8.596235,79.57235 9.166015,81.12695 0.56978,1.5547 2.315092,2.3834 3.876954,1.8418 28.406559,-9.85 70.546272,-16.94076 111.985012,-19.28826 16.76548,1.71422 9.87053,-5.78406 18.42319,-17.45982 -20.5349,-11.40554 -43.16634,-22.59191 -61.8125,-35.23239 C 94.539719,408.84504 88.015341,399.1612 78.957031,363.74805 75.759261,351.24644 73.651864,346.96114 70.089844,345.7168 62.669924,343.12479 57.977185,337.12003 51.953125,322.50977 42.505146,299.5954 39.11896,267.91899 43.929688,247.44141 c 2.459569,-10.46951 9.469133,-19.89591 13.220703,-17.7793 1.02193,0.57657 2.476522,17.75814 3.232421,38.18164 1.116491,30.16641 6.048595,70.07915 8.990235,72.75781 0.34109,0.31061 0.745377,-21.67174 0.898437,-48.84961 0.17785,-31.57706 1.423752,-55.44294 3.451172,-66.11718 l 3.171875,-16.70313 12.558594,0.0391 c 6.90783,0.0225 24.571315,0.81025 39.251955,1.75 l 26.69336,1.70899 2.91601,-15.84375 c 1.60391,-8.7139 3.54319,-15.84375 4.31055,-15.84375 0.76736,0 2.67732,6.96616 4.24414,15.47851 1.87089,10.16431 4.05139,15.89736 6.35156,16.70313 1.92633,0.67482 20.73099,1.22656 41.78711,1.22656 l 38.28321,0 2.9707,-16.70312 c 1.63434,-9.18716 3.6926,-16.70508 4.57422,-16.70508 0.88164,0 2.94185,7.51792 4.57617,16.70508 l 2.9707,16.70312 16.83789,0 c 18.95454,0 16.92095,2.06394 21.43164,-21.74219 1.28659,-6.79025 2.74097,-12.71149 3.23243,-13.16015 0.49153,-0.44866 2.29688,6.51507 4.01171,15.47656 l 3.11719,16.29492 19.44141,0 c 10.69278,0 31.91741,-0.78114 47.16601,-1.73437 l 27.72461,-1.73243 1.32032,4.86524 c 4.1128,15.16471 6.69446,47.55084 6.79492,85.25195 0.10699,40.22601 0.28879,42.03067 3.04101,29.95508 3.7962,-16.65604 7.67693,-57.31775 7.70703,-80.76172 0.0255,-19.93092 1.54801,-21.58218 10.17579,-11.01953 4.27934,5.23908 4.69865,8.59331 4.54882,36.4082 -0.14789,27.44854 -0.78152,32.22402 -6.09961,45.87891 -7.14285,18.34 -11.70235,25.0662 -18.61328,27.46484 -4.32183,1.50004 -5.89333,4.83551 -9.33398,19.80274 -8.71101,37.89333 -21.64292,52.33347 -72.14453,80.56445 -21.56688,13.49447 -39.78025,19.1514 -24.67955,34.98046 l 24.15625,1.42773 c 36.92895,2.1821 54.35014,4.79769 77.99805,11.71289 11.80781,3.4528 21.93285,5.85349 22.50195,5.33399 0.56903,-0.5195 5.52157,-41.1931 11.00391,-90.38477 5.48226,-49.19167 11.10729,-92.72866 12.5,-96.74804 3.27102,-9.43994 8.11587,-81.16675 7.75781,-114.83789 -0.20408,-19.1878 -1.52934,-30.34499 -5.00781,-42.12696 C 442.7817,80.156566 383.43544,25.807151 300.79297,4.9628906 287.7808,1.6809206 266.43557,0.02386 245.125,0 Z m 136.3418,225.49023 c -26.39098,0.0748 -54.0182,7.20606 -70.63282,18.78711 -17.3271,12.0777 -31.56073,33.32214 -35.07421,52.34961 l -1.54297,8.35157 7.40625,-10.42579 7.40625,-10.42773 3.61132,5.20703 c 6.36222,9.17026 20.79088,20.70434 28.41407,22.71485 10.17292,2.68331 15.05805,2.68162 25.68554,-0.0117 12.56556,-3.18449 27.37859,-17.08754 30.89063,-28.99414 2.37909,-8.0656 1.78717,-26.19027 -0.93555,-28.67579 -1.03589,-0.94563 -18.61743,1.91239 -39.66797,6.44727 -15.23547,3.28217 -18.72382,1.47236 -7.43359,-3.85742 24.02693,-11.98837 51.37695,-17.82651 82.55664,-14.47852 l -0.67969,-7.37695 -0.67968,-7.37695 -14.86719,-1.53125 c -4.72461,-0.48656 -9.56982,-0.71503 -14.45703,-0.70118 z m -289.146488,0.58789 c -7.238825,0.0402 -12.467481,0.32241 -13.007812,0.91407 -0.36707,0.40193 -1.262084,4.25498 -1.990234,8.5625 l -1.324219,7.83203 22.15625,-1.31445 c 20.112923,-1.0743 45.824993,1.4417 65.859373,17.24804 8.26277,4.51394 1.56401,4.9267 -15.45508,0.95313 -9.41041,-2.19711 -21.67315,-4.31285 -27.25195,-4.70117 l -10.14453,-0.70508 -0.66406,13.60547 c -1.05404,21.59408 9.09395,35.81567 30.53125,42.78711 12.99633,4.22642 19.20511,3.79339 32.51562,-2.26172 8.18727,-3.72449 13.77084,-8.1901 18.17578,-14.53907 3.49683,-5.04013 7.10736,-9.19823 8.02539,-9.24023 0.91806,-0.0419 4.82131,4.8557 8.67383,10.88477 l 7.00586,10.96289 -1.47461,-8.35157 c -5.7814,-32.75663 -36.35499,-62.06681 -73.1582,-70.13476 -6.88922,-1.51025 -32.54724,-2.59034 -48.472658,-2.50196 z M 210.95898,362.39844 c -5.36199,0 -2.28014,4.22564 5.98829,8.21094 l 0,-0.002 c 9.71529,4.68211 12.00781,5.14035 12.00781,2.40039 0,-2.23927 -14.1981,-10.60937 -17.9961,-10.60937 z m 65.85743,0.70312 c -0.73694,0.0127 -1.6356,0.15464 -2.6875,0.44727 -5.78725,1.61 -13.14898,6.9637 -13.15235,9.5625 0.008,1.95161 10.95554,-1.48526 15.36328,-4.82422 3.80439,-2.88232 3.66994,-5.24042 0.47657,-5.18555 z m -12.80469,33.4961 c -2.69232,-0.039 -5.18487,0.28198 -8.25391,0.83593 -6.42103,1.15905 -15.30523,1.23982 -21.42969,0.19532 -12.13963,-2.07036 -15.12834,-1.58059 -44.25585,7.25 -18.8311,5.70902 -20.69934,6.67575 -14.00782,7.25976 5.16834,0.45107 9.6048,2.71675 13.41602,6.85156 7.60714,8.25302 22.3156,17.30562 34.91211,21.48438 l 0,-0.002 c 22.00046,7.29845 48.39301,0.73154 69.18164,-17.2168 7.61005,-6.57023 14.52026,-10.65217 18.86719,-11.14258 5.44862,-0.61472 1.45224,-2.40731 -19.42774,-8.7168 -16.18124,-4.88961 -23.07885,-6.71301 -29.00195,-6.79882 z m -20.32813,16.54882 c 20.83247,0.0298 37.87891,0.35034 37.87891,0.71094 0,0.36057 -4.34482,2.67766 -9.6543,5.15039 -13.53953,6.30564 -33.97847,7.2107 -49.40234,2.18555 -21.74127,-7.08339 -19.0589,-8.10448 21.17773,-8.04688 z m 70.28125,67.79102 0.041,0.002 c -0.009,-0.0102 -0.0273,-0.001 -0.041,-0.002 z m -83.26367,17.87891 c 0.0174,0.12261 0.0422,0.24598 0.0527,0.36718 0.1855,0.0232 0.37117,0.0501 0.55664,0.0723 -0.20406,-0.14578 -0.4067,-0.29211 -0.60938,-0.43945 z"
     style="fill:#000000" />
</svg>
