<?xml version="1.0" encoding="UTF-8" standalone="no"?>
<svg
   xmlns:dc="http://purl.org/dc/elements/1.1/"
   xmlns:cc="http://creativecommons.org/ns#"
   xmlns:rdf="http://www.w3.org/1999/02/22-rdf-syntax-ns#"
   xmlns:svg="http://www.w3.org/2000/svg"
   xmlns="http://www.w3.org/2000/svg"
   width="490"
   height="500"
   viewBox="0 0 490.00001 499.99998"
   id="svg2"
   version="1.1">
  <defs
     id="defs4" />
  <metadata
     id="metadata7">
    <rdf:RDF>
      <cc:Work
         rdf:about="">
        <dc:format>image/svg+xml</dc:format>
        <dc:type
           rdf:resource="http://purl.org/dc/dcmitype/StillImage" />
        <dc:title></dc:title>
      </cc:Work>
    </rdf:RDF>
  </metadata>
  <g
     id="layer1"
     transform="translate(0,-552.36224)">
    <path
       transform="translate(0,552.36222)"
       id="path4151"
       d="M 207.54102,0.01171875 C 184.30827,0.28918114 160.91886,5.2366534 137.79883,14.900391 88.619405,35.456381 51.17968,74.265256 36.298828,120.11328 c -12.322452,37.96592 -12.221784,55.06591 1.458984,250.63086 3.544064,50.66439 2.11938,69.64938 -6.625,88.36914 L 20,482.95117 l 40.888672,7.52344 c 22.489563,4.1372 44.131358,8.42349 48.093748,9.52539 82.44466,-6.20069 60.52576,-17.22077 56.45117,-67.85742 -26.85476,-25.99758 -60.05078,-69.37475 -60.05078,-81.41016 0,-4.9654 -6.060786,-9.02734 -13.466794,-9.02734 -13.837455,0 -22.293974,-25.1929 -22.472657,-66.92969 -0.06415,-15.01968 1.799364,-17.13732 9.845703,-11.15625 8.195146,6.09182 10.471288,0.87727 13.033204,-29.85937 3.917864,-46.99888 17.129544,-71.40241 49.082034,-90.68946 22.30883,-13.46597 32.26631,-15.03253 86.44531,-13.55469 33.67956,0.91868 69.73996,-0.54694 80.13086,-3.25781 5.03871,-1.31458 8.83544,-2.0657 11.78711,-2.07617 6.49373,-0.0236 8.89588,3.54657 11.4414,12.63086 2.38615,8.51515 16.06783,29.23758 30.40235,46.05273 23.14279,27.1475 25.7901,34.11095 23.59961,62.13282 -1.55835,19.93643 0.0529,29.29548 4.37695,25.41601 12.69886,-11.39436 14.77676,-6.28609 12.25,30.11133 -1.93975,27.94596 -5.41708,36.94812 -15.14453,39.22656 -6.94374,1.6264 -17.62171,12.17007 -23.72656,23.42774 -12.67244,23.36783 -33.30328,49.33039 -52.85938,67.85742 -4.7837,8.97601 -2.14789,24.41906 -2.24609,34.13281 6.42201,35.60351 43.59957,34.70491 56.86914,33.01563 13.8682,-0.8863 40.54201,-4.79148 59.27148,-8.67578 l 34.05078,-7.06055 -10.64062,-18.43164 C 431.92608,437.19512 434.31324,406.01605 458.47656,319.51562 470.31247,277.14429 480,231.93907 480,219.05859 480,190.34807 462.03037,134.44391 444.5,108.625 427.62258,83.76721 388.01575,57.791016 366.99609,57.791016 c -9.10175,0 -31.23924,-10.044706 -49.19726,-22.322266 C 284.10751,12.43446 248.36924,0.55732125 212.18555,0.01953125 c -1.54733,-0.02299188 -3.09568,-0.02630999 -4.64453,-0.0078125 z M 155.30664,206.46875 c -13.33274,-0.0947 -26.24748,2.54476 -36.03906,8.29102 -14.11983,8.28661 -18.15823,16.09485 -18.1582,35.08593 0,25.17819 9.95369,41.94559 28.81835,48.55274 23.76876,8.32486 68.19883,-1.31581 83.07618,-18.02735 17.47645,-19.63125 36.68258,-21.43635 42.85156,-4.02734 5.68245,16.03637 48.18425,28.65202 79.05469,23.46484 47.81052,-8.03366 52.33975,-77.92803 5.82422,-89.87695 -34.21561,-8.78925 -73.10145,0.0379 -82.625,18.75977 -10.33966,20.32573 -26.58299,20.05781 -45.10547,-0.74805 -12.08286,-13.57252 -35.47601,-21.31695 -57.69727,-21.47461 z m 83.60352,101.01758 c -0.39441,-0.002 -0.79328,0.004 -1.19727,0.0176 -5.02744,0.17339 -10.75963,1.51658 -16.29687,2.65039 -2.11311,3.08938 -2.36555,7.62691 1.76171,10.00586 8.30128,-7.38869 12.06604,11 16.8086,-2.02344 2.3491,-3.89047 12.45239,7.78564 11.70508,-2.56836 -2.07871,-6.16587 -6.8651,-8.05372 -12.78125,-8.08203 z m -18.76172,50.85742 c -9.60438,0.65226 -15.53058,4.85142 -20.90821,7.97464 -11.1537,6.49906 -14.82133,7.92672 -22.47851,8.74609 -3.17108,13.2488 42.8226,32.657 54.4668,34.15821 12.96708,0.61392 27.82302,-1.59499 38.00586,-5.50196 13.96965,-5.43622 25.43708,-13.81317 35.24804,-25.74609 l 1.70703,-2.07422 c -7.72829,-0.49608 -15.55353,-3.61001 -21.37695,-6.6875 -14.08776,-7.57224 -16.89503,-8.8856 -21.58984,-10.0918 -4.62417,-1.18802 -12.83259,-0.42754 -21.00586,1.94532 -3.31496,1.53642 -5.27121,0.74477 -8.58203,-0.28321 -4.55697,-1.20717 -9.3619,-2.34366 -13.48633,-2.43948 z m 63.47265,19.54883 c -7.80115,3.66103 -16.0331,6.99368 -24.32226,9.43359 -5.39186,1.52382 -11.49921,2.73953 -15.91797,3.16797 l 0,-0.0117 c -7.53685,0.73043 -14.80225,-0.14544 -23.74805,-2.86328 -4.35836,-1.32416 -23.37993,-9.08071 -23.39453,-9.53906 -0.0116,-0.38988 25.36517,10e-4 29.66992,0.45703 7.01801,1.52871 14.62075,1.95783 19.49805,1.19927 4.24079,-0.66798 7.3434,-0.87377 17.60156,-1.16211 6.8725,-0.18967 13.74384,-0.40524 20.61328,-0.68171 z"
       style="fill:#000000;fill-opacity:1;stroke:none;stroke-width:2.0999999;stroke-miterlimit:4;stroke-dasharray:none;stroke-opacity:1" />
  </g>
</svg>
