<?xml version="1.0" encoding="UTF-8" standalone="no"?>
<svg
   xmlns:dc="http://purl.org/dc/elements/1.1/"
   xmlns:cc="http://creativecommons.org/ns#"
   xmlns:rdf="http://www.w3.org/1999/02/22-rdf-syntax-ns#"
   xmlns:svg="http://www.w3.org/2000/svg"
   xmlns="http://www.w3.org/2000/svg"
   version="1.1"
   id="svg2"
   viewBox="0 0 540.00002 500.00001"
   height="500"
   width="540">
  <defs
     id="defs4" />
  <metadata
     id="metadata7">
    <rdf:RDF>
      <cc:Work
         rdf:about="">
        <dc:format>image/svg+xml</dc:format>
        <dc:type
           rdf:resource="http://purl.org/dc/dcmitype/StillImage" />
        <dc:title></dc:title>
      </cc:Work>
    </rdf:RDF>
  </metadata>
  <g
     transform="translate(0,-552.36216)"
     id="layer1">
    <path
       id="path4693"
       d="m 74.634827,1052.2318 c -0.43963,-0.1383 -2.9575,-0.7178 -5.59527,-1.2876 -25.3696,-5.4806 -43.91188,-25.1695 -48.37647,-51.36766 -0.5755,-3.3771 -0.7676,-66.5578 -0.61042,-200.7624 l 0.22936,-195.83457 2.11923,-6.05929 c 4.62899,-13.23523 11.00042,-22.86591 19.90473,-30.0868 7.44557,-6.03794 13.16069,-8.95848 25.13492,-12.84443 3.63308,-1.17903 21.7738,-1.32092 199.431533,-1.55993 133.95723,-0.1802 196.98506,8e-4 200.36277,0.5761 23.14603,3.9408 42.64227,20.13206 49.33252,40.9697 3.44324,10.72444 3.291,1.06343 3.291,208.83572 l 0,197.43326 -1.83845,6.3493 c -5.59056,19.3079 -19.19906,34.5245 -36.9288,41.2926 -12.0368,4.5949 5.28414,4.2285 -209.02344,4.421 -108.14864,0.097 -196.993583,0.063 -197.433213,-0.075 z M 452.77738,992.50694 c 4.39867,-2.3213 8.01061,-6.4364 9.63298,-10.975 0.81482,-2.2795 1.03301,-24.9398 1.06089,-110.1791 l 0.0351,-107.3094 -21.58177,0 c -17.51417,0 -21.58177,0.2021 -21.58177,1.072 0,0.5895 0.53912,2.8376 1.19804,4.9957 0.65892,2.1581 1.82609,7.5209 2.59372,11.9172 1.90693,10.9212 1.89822,37.4477 -0.016,48.7588 -10.05573,59.4188 -54.5679,106.6415 -114.88192,121.8775 -13.41026,3.3876 -21.78395,4.3356 -38.3676,4.3436 -16.3665,0.01 -25.97892,-1.0051 -37.96792,-4.0012 -35.77059,-8.9395 -65.20852,-27.959 -86.92015,-56.1579 -7.51451,-9.7597 -10.05375,-13.8381 -15.401,-24.7353 -10.29227,-20.975 -14.37507,-37.2561 -15.27459,-60.9102 -0.52021,-13.6799 0.81461,-27.6805 3.65799,-38.3676 2.60177,-9.779 4.93079,-8.7926 -20.759697,-8.7926 l -22.39233,0 0.21107,108.5084 0.21106,108.5083 1.77529,3.3198 c 0.9764,1.826 3.12119,4.4293 4.76621,5.7853 6.21473,5.1227 -7.78456,4.7778 187.694417,4.6238 l 178.24943,-0.1404 4.05855,-2.1417 z m -158.32824,-96.85 c 37.23908,-9.4815 64.53181,-36.1525 73.56574,-71.89 8.28644,-32.7806 -2.46244,-68.5183 -27.6998,-92.0962 -27.72833,-25.9048 -68.34159,-34.2734 -104.21665,-21.4741 -25.07404,8.9457 -46.20619,27.8582 -56.62253,50.675 -6.77271,14.8355 -8.94842,24.9745 -8.82822,41.1398 0.068,9.1456 0.49285,13.7362 1.79079,19.3511 4.12981,17.8658 11.94634,32.4728 24.35442,45.5116 13.94264,14.6512 31.32038,24.5233 50.89575,28.9129 11.14514,2.4994 10.48554,2.4428 25.17874,2.1633 11.36186,-0.216 14.89831,-0.5918 21.58176,-2.2934 z m 152.5848,-190.0259 c 4.9055,-1.2352 10.68867,-5.9689 13.59579,-11.1289 l 2.47694,-4.3961 0,-32.3728 0,-32.37258 -2.22195,-4.52461 c -1.22207,-2.48854 -3.62859,-5.79544 -5.34782,-7.34865 -5.60608,-5.06476 -7.62328,-5.31222 -43.30245,-5.31222 -29.80657,0 -32.06465,0.0998 -36.05696,1.5935 -4.83363,1.8085 -9.15262,5.86539 -11.91897,11.19569 l -1.86678,3.59696 0,32.77231 0,32.7724 2.12361,3.9965 c 2.88958,5.4381 7.27555,9.3983 12.45649,11.2471 3.86225,1.3781 64.7354,1.6227 70.0621,0.2814 z"
       style="fill:#000000" />
  </g>
</svg>
