<?xml version="1.0" encoding="UTF-8" standalone="no"?>
<svg
   xmlns:dc="http://purl.org/dc/elements/1.1/"
   xmlns:cc="http://creativecommons.org/ns#"
   xmlns:rdf="http://www.w3.org/1999/02/22-rdf-syntax-ns#"
   xmlns:svg="http://www.w3.org/2000/svg"
   xmlns="http://www.w3.org/2000/svg"
   version="1.1"
   id="svg2"
   viewBox="0 0 540.00001 500.00001"
   height="500"
   width="540">
  <defs
     id="defs4" />
  <metadata
     id="metadata7">
    <rdf:RDF>
      <cc:Work
         rdf:about="">
        <dc:format>image/svg+xml</dc:format>
        <dc:type
           rdf:resource="http://purl.org/dc/dcmitype/StillImage" />
        <dc:title></dc:title>
      </cc:Work>
    </rdf:RDF>
  </metadata>
  <path
     style="fill:#000000"
     d="m 266.89787,0.73165 c 31.97312,-0.18771 64.15395,0.45506 75.29951,2.04716 98.05527,14.00687 172.52092,97.03498 177.52604,197.94308 2.0958,42.2535 -7.73887,91.90554 -28.17458,142.2269 l -5.75013,14.15228 -13.95652,1.27404 c -7.6759,0.70075 -25.16393,2.9044 -38.862,4.89648 -41.11512,5.97925 -60.99559,4.10029 -73.80455,-6.96906 l -5.69711,-4.92191 -15.65293,7.95272 c -34.58471,17.56744 -59.27094,41.91223 -69.85333,68.88844 -2.689,6.85473 -3.21835,12.9849 -2.94045,33.99957 l 0.33928,25.6367 -6.24844,6.42097 -0.004,0 c -5.30826,5.45144 -7.49747,6.42098 -14.5432,6.42098 -6.61067,0 -9.49452,-1.10206 -14.20392,-5.42643 l -5.90917,-5.42642 -0.14843,-41.49858 c -0.11678,-32.99757 -0.97089,-47.01876 -4.17035,-68.44561 -6.07705,-40.69821 -12.61199,-69.51425 -24.93374,-109.93692 -0.51596,-1.69261 -3.62411,-3.59633 -6.9058,-4.22862 -10.00785,-1.92824 -26.50647,-11.57801 -39.84096,-23.29917 -23.44559,-20.60892 -46.43181,-29.29097 -98.618111,-37.25544 -15.42605,-2.35426 -28.69056,-4.84829 -29.47516,-5.54258 -2.78958,-2.46842 10.83156,-56.77698 19.72432,-78.64148 15.29084,-37.59416 53.72322,-77.785 94.366931,-98.68116 14.81735,-7.61805 39.57335,-15.53083 58.38486,-18.66401 10.3154,-1.71811 42.07883,-2.73422 74.05194,-2.92193 z m 112.46155,50.52569 c -2.7707,-0.11972 -4.39797,1.08684 -5.65116,3.49179 -3.28925,6.31216 -0.41431,10.34083 11.76885,16.5007 25.47794,12.88177 48.71163,35.7123 62.89804,61.80322 4.62783,8.51131 9.30676,16.52248 10.39406,17.80014 4.30716,5.0613 12.69128,1.31726 12.69128,-5.66599 0,-6.20509 -14.43968,-32.28187 -25.07864,-45.29163 -13.92832,-17.03213 -31.91717,-32.19873 -49.03691,-41.34613 -8.97193,-4.79387 -14.4232,-7.13817 -17.98552,-7.2921 z M 201.14069,209.05573 c -3.01605,0.0751 -6.00894,1.19138 -8.34423,3.58979 -4.33829,4.45555 -4.64443,10.67824 -0.80227,16.31195 6.01068,8.81339 22.51635,2.98636 22.51635,-7.94908 0,-7.25522 -6.73453,-12.11787 -13.36985,-11.95266 z m 71.87134,46.54388 c -11.11181,-0.14886 -22.88523,1.73623 -31.49319,5.43007 l -10.08659,4.32661 5.87029,20.91445 c 6.42015,22.8797 14.39016,60.77169 16.30677,77.5199 0.66957,5.851 1.7839,10.99922 2.47394,11.43723 0.69005,0.438 4.85085,-3.03629 9.24544,-7.7204 12.41439,-13.23227 35.1512,-29.85838 54.39829,-39.77809 l 17.5296,-9.03437 -2.28309,-9.81839 c -6.56131,-28.21155 -19.83276,-43.69832 -43.50237,-50.76525 -5.36379,-1.60143 -11.79201,-2.42244 -18.45909,-2.51176 z m 117.72396,48.1083 c -10.85634,0 -15.49452,15.13321 -6.79273,22.16306 5.88468,4.75399 9.89551,4.86598 15.23592,0.42468 8.66749,-7.20818 2.9187,-22.58774 -8.44319,-22.58774 z"
     id="path4465" />
</svg>
