<?xml version="1.0" encoding="UTF-8" standalone="no"?>
<svg
   xmlns:dc="http://purl.org/dc/elements/1.1/"
   xmlns:cc="http://creativecommons.org/ns#"
   xmlns:rdf="http://www.w3.org/1999/02/22-rdf-syntax-ns#"
   xmlns:svg="http://www.w3.org/2000/svg"
   xmlns="http://www.w3.org/2000/svg"
   width="540"
   height="500"
   viewBox="0 0 540.00001 500.00001"
   id="svg2"
   version="1.1">
  <defs
     id="defs4" />
  <metadata
     id="metadata7">
    <rdf:RDF>
      <cc:Work
         rdf:about="">
        <dc:format>image/svg+xml</dc:format>
        <dc:type
           rdf:resource="http://purl.org/dc/dcmitype/StillImage" />
        <dc:title></dc:title>
      </cc:Work>
    </rdf:RDF>
  </metadata>
  <path
     d="m 150.19528,496.85245 c -11.61742,-4.07288 -22.73675,-12.84142 -30.69644,-24.20676 -13.95959,-19.93238 -19.896282,-42.46718 -25.872012,-98.2064 -4.31734,-40.27038 -6.10424,-47.68468 -22.60883,-93.80901 -6.89823,-19.27805 -14.09399,-39.48927 -15.99058,-44.91384 -5.44652,-15.57787 -3.05792,-37.53417 5.99622,-55.11785 8.38547,-16.28511 35.64306,-44.29168 56.753002,-58.31246 l 12.98152,-8.62206 12.68533,6.48375 c 18.07437,9.23821 47.58855,38.36991 55.66526,54.94393 5.85568,12.01625 6.34531,14.81663 5.39199,30.83829 -0.57667,9.69204 -1.04852,33.97719 -1.04852,53.96702 0,40.61282 0.6051,43.31159 18.52028,82.60257 20.18754,44.27467 31.60582,86.4359 28.81878,106.41158 -3.35396,24.03909 -16.96143,38.66153 -43.46049,46.70218 -16.86744,5.11812 -44.36969,5.71453 -57.13551,1.23906 z m 179.67126,-1.94202 c -19.07207,-6.38668 -29.35119,-14.20866 -35.93601,-27.34568 -4.43995,-8.85793 -5.23375,-13.65961 -5.01707,-30.34751 0.33162,-25.53902 5.87308,-43.55477 30.85665,-100.31754 16.80767,-38.18708 17.97559,-45.02424 15.9754,-93.52316 -0.94932,-23.01858 -1.76053,-44.82566 -1.80266,-48.46017 -0.24886,-21.46368 31.30121,-58.89094 64.01537,-75.94025 l 10.35397,-5.39608 13.04361,8.66406 c 7.17398,4.76524 21.23339,16.62292 31.24311,26.3504 22.70532,22.06504 32.40436,39.48193 33.99005,61.03717 1.02525,13.93671 0.11502,17.50062 -17.20501,67.35733 -18.89421,54.3884 -23.46161,75.42983 -25.92749,119.44456 -0.51318,9.15983 -2.0042,19.422 -3.3134,22.80483 -1.30918,3.38283 -2.38035,7.32173 -2.38035,8.75312 0,6.24552 -11.90739,36.42755 -17.51876,44.40533 -7.78644,11.07009 -22.74267,22.34706 -33.54806,25.29516 -14.51644,3.9606 -40.49244,2.68918 -56.82935,-2.78157 z M 79.329988,344.70236 c -0.1935,-1.2115 -6.37997,-9.63696 -13.74783,-18.72325 -17.5621,-21.6581 -32.34061,-47.54516 -39.61153,-69.38616 -4.68977,-14.08757 -5.88677,-22.03977 -5.96821,-39.64923 -0.11368,-24.56715 3.75596,-38.35819 16.93986,-60.37356 10.22886,-17.08085 44.26013,-50.16767 65.610662,-63.789803 17.1172,-10.921183 17.93765,-11.81926 17.93765,-19.635006 0,-7.267903 0.63134,-8.190364 5.60553,-8.190364 4.69252,0 5.7205,1.173221 6.3115,7.203142 0.63894,6.519238 2.23557,7.955333 16.81654,15.125633 49.085,24.137988 80.70911,61.421978 90.3593,106.531238 6.99469,32.69641 0.64053,89.08132 -13.7769,122.2518 l -3.82966,8.81095 -4.06234,-9.91231 c -6.78534,-16.55655 -7.43027,-27.04779 -3.21472,-52.29613 6.4713,-38.75873 2.72583,-68.27389 -12.38487,-97.59582 -7.73377,-15.00724 -36.40384,-41.4453 -55.70473,-51.36805 l -16.48225,-8.4737 -16.02975,10.5913 c -36.807652,24.31985 -63.211342,57.61274 -68.731252,86.66452 -3.70912,19.52135 1.987,47.88795 14.62423,72.82864 7.8309,15.45494 21.59652,59.4713 20.5934,65.84857 -0.4966,3.15718 -1.06119,4.7491 -1.25463,3.53759 z M 461.47569,324.02099 c 3.04844,-10.929 8.65185,-27.10197 12.452,-35.93991 25.12145,-58.42439 27.03809,-78.74426 10.54584,-111.80514 -8.57947,-17.19867 -35.69489,-44.80533 -59.37722,-60.4529 l -16.02973,-10.5913 -16.48225,8.49555 c -22.27414,11.48088 -45.47801,33.42624 -56.37273,53.31525 -14.72714,26.88533 -18.67441,60.48933 -11.46067,97.56733 3.99406,20.52908 3.17453,32.93713 -3.24992,49.20561 l -4.33013,10.9651 -3.76518,-8.76237 C 298.69105,281.77429 292.49631,226.93519 299.60132,193.815 c 9.26356,-43.18218 39.55585,-80.46275 83.73517,-103.05237 21.0698,-10.773358 22.81435,-12.165707 23.45948,-18.72325 0.581,-5.905621 1.62968,-7.084393 6.30248,-7.084393 4.9807,0 5.60551,0.918893 5.60551,8.243935 0,7.868699 0.83556,8.793649 18.35683,20.320783 46.61263,30.666155 75.18954,68.004515 81.70339,106.753055 4.88402,29.05326 -4.83132,65.22565 -26.96429,100.39411 -10.4589,16.6188 -29.96367,41.0051 -34.0157,42.52891 -1.01811,0.38288 0.64305,-8.24578 3.6915,-19.17479 z M 26.200498,141.89008 c -2.09989,-16.51114 0.17221,-49.183779 4.55771,-65.54259 C 44.157338,26.367141 78.218018,0.07456139 129.66186,4.2139457e-4 145.4101,-0.02227861 149.59827,0.85614139 161.42586,6.6624214 191.70109,21.524801 207.91894,52.031209 210.56624,99.097383 l 1.30091,23.128717 -8.69187,-7.92564 C 189.82178,102.12414 178.82634,94.501046 158.91571,83.615415 144.6658,75.824626 140.51297,72.448164 139.9513,68.196268 c -0.90437,-6.846013 -6.19849,-10.950854 -14.12357,-10.950854 -8.09676,0 -13.15414,5.288326 -13.31639,13.924436 -0.11637,6.198343 -1.90303,8.116948 -15.573462,16.724422 -20.1655,12.697048 -42.28941,32.455278 -55.30784,49.393828 -5.73771,7.46547 -11.19098,14.42981 -12.11836,15.47633 -0.9274,1.04652 -2.41743,-3.84692 -3.31118,-10.87435 z m 473.645522,-1.8057 C 486.49418,122.20756 462.70373,100.65573 442.20111,87.863786 428.35767,79.226575 426.66018,77.409142 426.60906,71.16985 c -0.0738,-9.012932 -5.19449,-13.924436 -14.51732,-13.924436 -8.19613,0 -11.10302,2.524224 -13.29655,11.546209 -1.08294,4.454195 -4.54809,7.56862 -13.20183,11.865628 -18.43071,9.151748 -34.72141,19.961389 -47.0356,31.210269 l -11.33958,10.35858 1.35553,-23.128717 c 2.68356,-45.788412 19.13953,-77.728952 47.38605,-91.9748816 21.3813,-10.78347 58.41496,-9.09289 84.15752,3.8417696 32.92419,16.543181 53.8295,59.450063 53.67297,110.160469 -0.028,9.08628 -0.74959,20.31935 -1.60342,24.96238 l -1.55244,8.4419 -10.78837,-14.44464 z"
     style="fill:#000000"
     id="path4253" />
</svg>
