<?xml version="1.0" encoding="UTF-8" standalone="no"?>
<svg
   xmlns:dc="http://purl.org/dc/elements/1.1/"
   xmlns:cc="http://creativecommons.org/ns#"
   xmlns:rdf="http://www.w3.org/1999/02/22-rdf-syntax-ns#"
   xmlns:svg="http://www.w3.org/2000/svg"
   xmlns="http://www.w3.org/2000/svg"
   width="540"
   height="500"
   viewBox="0 0 540.00001 500.00001"
   id="svg2"
   version="1.1">
  <defs
     id="defs4" />
  <metadata
     id="metadata7">
    <rdf:RDF>
      <cc:Work
         rdf:about="">
        <dc:format>image/svg+xml</dc:format>
        <dc:type
           rdf:resource="http://purl.org/dc/dcmitype/StillImage" />
        <dc:title></dc:title>
      </cc:Work>
    </rdf:RDF>
  </metadata>
  <path
     id="path3643"
     d="M 313.08177,0.00694 C 295.4985,0.34876 282.53998,13.75253 157.32489,139.23569 18.485445,278.37239 20.042575,276.57394 20.000775,298.2866 c -0.0426,22.13197 1.45207,24.20142 60.28509,83.45785 L 134.18,436.0264 294.89704,275.22309 455.61025,114.41595 403.36061,62.07728 C 346.45914,5.07915 341.97177,1.70642 321.24314,0.37345 318.20169,0.17788 315.59367,-0.04189 313.08177,0.00694 Z m 55.67596,78.23123 c 1.08072,0 9.8422,7.91732 19.47056,17.59638 l 17.50557,17.60022 -24.35441,24.42649 c -13.39523,13.43563 -24.82413,24.43032 -25.39988,24.43032 -1.91887,0 -35.15232,-34.25346 -35.15232,-36.23124 0,-2.55079 45.37382,-47.82217 47.93048,-47.82217 z m 111.32903,60.55847 -160.68269,160.76894 -160.68269,160.77276 15.12087,15.3171 c 14.59718,14.7849 21.32423,19.6845 31.71073,23.0941 l 0.004,0 c 8.42274,2.765 29.62215,0.6904 38.10553,-3.73 4.7508,-2.4755 58.90194,-55.27495 138.13302,-134.6817 100.165,-100.38712 131.23331,-132.64344 134.26408,-139.40434 5.26024,-11.73564 5.25303,-29.33591 -0.0153,-41.04934 -2.26466,-5.03525 -10.79581,-15.69952 -19.95513,-24.94192 l -16.00226,-16.1456 z"
     style="fill:#000000" />
</svg>
