<?xml version="1.0" encoding="UTF-8" standalone="no"?>
<svg
   xmlns:dc="http://purl.org/dc/elements/1.1/"
   xmlns:cc="http://creativecommons.org/ns#"
   xmlns:rdf="http://www.w3.org/1999/02/22-rdf-syntax-ns#"
   xmlns:svg="http://www.w3.org/2000/svg"
   xmlns="http://www.w3.org/2000/svg"
   width="540"
   height="500"
   viewBox="0 0 540.00001 500.00001"
   id="svg2"
   version="1.1">
  <defs
     id="defs4" />
  <metadata
     id="metadata7">
    <rdf:RDF>
      <cc:Work
         rdf:about="">
        <dc:format>image/svg+xml</dc:format>
        <dc:type
           rdf:resource="http://purl.org/dc/dcmitype/StillImage" />
        <dc:title></dc:title>
      </cc:Work>
    </rdf:RDF>
  </metadata>
  <path
     id="path3446"
     d="m 60.55151,498.15976 c -18.878169,-4.90429 -33.684983,-19.4108 -38.665257,-37.88106 -2.542778,-9.43034 -2.501578,-274.04047 0.04412,-283.48171 5.017152,-18.60698 19.902601,-32.94025 39.269963,-37.81324 4.571247,-1.15016 12.382787,-1.60927 27.381002,-1.60927 l 20.985042,0 0,17.26145 0,17.26145 -12.879364,0 c -14.451261,0 -19.826578,1.44138 -21.919008,5.87757 -0.986906,2.09234 -0.986906,3.41397 0,5.50631 2.916603,6.18352 -7.223117,5.87757 194.792402,5.87757 202.45127,0 191.29473,-0.33033 204.32901,6.04999 7.8736,3.85415 17.76149,13.2235 21.93176,20.7816 5.79557,10.50377 6.86799,16.62546 6.86799,39.20435 l 0,20.27131 -49.97797,0.0188 c -56.64561,0.0213 -59.61955,0.32466 -75.00976,7.65329 -18.70867,8.90883 -32.90084,26.63876 -37.57754,46.94466 -2.41115,10.46907 -1.69503,26.12463 1.61122,35.22409 6.58828,18.13222 19.5364,32.75468 35.90733,40.55057 15.45531,7.35986 18.39123,7.66028 75.06875,7.68153 l 49.97797,0.0187 0,20.27131 c 0,14.72194 -0.46814,22.00749 -1.71007,26.61343 -5.01715,18.60698 -19.9026,32.94025 -39.26995,37.81323 -9.48542,2.38661 -391.95367,2.29519 -401.157657,-0.0959 z M 401.8301,394.69303 c -14.47334,-3.88637 -27.22052,-13.64423 -33.86221,-25.92126 -4.94265,-9.13637 -6.38718,-16.23468 -5.73919,-28.20174 0.48717,-8.99699 1.03032,-11.08802 4.7989,-18.47517 7.18764,-14.08911 19.4943,-23.8598 34.87772,-27.69062 6.02304,-1.49988 13.92877,-1.69891 57.15664,-1.43897 48.67371,0.2927 50.25854,0.36787 53.24975,2.52602 1.69564,1.22338 4.11917,3.56501 5.38563,5.2036 2.23079,2.88628 2.30266,4.25387 2.30266,43.81698 0,39.56312 -0.0718,40.93071 -2.30266,43.81698 -1.26646,1.6386 -3.69002,3.98023 -5.38567,5.20361 -2.99903,2.16375 -4.47268,2.2295 -54.09706,2.41349 -39.64211,0.14699 -52.21122,-0.13232 -56.38451,-1.25292 z m 37.51509,-32.24742 c 7.50611,-3.10241 11.97,-10.04412 11.97,-18.61431 0,-5.45382 -1.17279,-8.17631 -5.44138,-12.63154 -4.27171,-4.45847 -8.22947,-6.10702 -14.66149,-6.10702 -3.13228,0 -7.05216,0.68488 -8.71086,1.52194 -3.43348,1.73274 -8.28594,6.52104 -10.13871,10.00468 -1.75207,3.29426 -1.56383,12.81966 0.32223,16.3071 1.71099,3.1637 6.59324,7.8523 10.15115,9.74849 3.12893,1.66759 12.2253,1.54122 16.50906,-0.22934 z M 129.66927,170.77565 c 0,-0.61695 3.32511,-25.25497 7.38912,-54.75116 4.85312,-35.223418 8.14039,-55.577599 9.57809,-59.305802 4.5079,-11.689724 17.57027,-20.832207 30.95077,-21.662742 6.64793,-0.412646 7.09218,-0.300899 6.28222,1.580286 -2.14952,4.992356 -5.78066,17.711045 -21.29125,74.576368 l -16.55238,60.68478 -8.17828,0 c -4.91609,0 -8.17829,-0.44744 -8.17829,-1.12173 z m 41.86205,-3.96143 c 0.85873,-2.84121 8.90694,-32.10987 17.8849,-65.04148 8.97797,-32.931608 17.56655,-62.380987 19.08573,-65.443061 3.37694,-6.806578 9.86112,-12.638844 18.19717,-16.367673 5.1009,-2.281705 7.84553,-2.789623 14.65277,-2.711623 4.6069,0.05276 9.73219,0.622135 11.3895,1.265232 l 3.01332,1.169259 -3.8557,8.409001 c -2.12063,4.624957 -17.11393,38.751404 -33.31843,75.836545 l -29.46273,67.42754 -9.57392,0.31104 -9.57394,0.31105 1.56133,-5.16583 z m 41.1019,3.73461 c 0.30679,-0.7417 10.96773,-25.13699 23.691,-54.21174 C 285.05435,4.9807725 281.35539,12.5795 289.67615,6.7369956 297.7665,1.0562633 301.34236,-0.00994402 312.27034,6.7618782e-5 L 322.32178,0.00977718 400.49961,32.099373 c 42.9978,17.649271 80.61972,33.36978 83.60426,34.934455 6.28213,3.293482 11.81291,9.135684 15.38596,16.252256 1.97623,3.936129 2.52501,6.955189 2.57608,14.171791 l 0.0649,9.170145 -10.50712,22.65565 C 485.84477,141.74428 478.96356,156.43 476.3321,161.9186 l -4.78446,9.97928 -19.1703,0 c -14.89851,0 -19.04212,-0.3005 -18.59503,-1.34856 0.3164,-0.7417 2.63174,-6.07941 5.1452,-11.86158 2.51345,-5.78212 4.56992,-10.68927 4.56992,-10.90472 0,-0.21547 -2.9643,-2.1592 -6.58734,-4.3194 -20.43343,-12.18326 -31.08089,-36.58454 -25.30712,-57.997555 0.88566,-3.28467 1.76516,-6.596614 1.95444,-7.359861 0.2208,-0.890389 -8.46149,-5.016199 -24.22604,-11.512187 -13.5136,-5.568458 -24.89913,-10.126171 -25.30119,-10.128253 -0.40205,-0.0022 -2.22591,2.544974 -4.05301,5.660127 -4.1935,7.149787 -14.81229,16.966233 -22.33787,20.65002 -12.24664,5.994772 -26.20874,7.402918 -39.70418,4.004344 -7.60525,-1.915234 -7.63774,-1.913971 -8.5431,0.331905 -0.49984,1.239944 -8.79661,20.21715 -18.43725,42.17156 -9.64066,21.9544 -17.78611,40.52394 -18.10102,41.26565 -0.42814,1.00841 -5.64305,1.34855 -20.67543,1.34855 -15.63523,0 -19.9789,-0.2997 -19.54508,-1.34855 z m 70.48065,-4.85478 c 1.4726,-12.22982 10.3559,-25.48086 21.86438,-32.61465 3.0724,-1.90449 9.23672,-4.70724 13.69851,-6.22832 11.6378,-3.96748 28.80592,-3.92377 41.61711,0.10594 21.71137,6.82927 39.05199,22.17734 45.73771,40.48219 l 1.62831,4.45817 -62.64648,0 -62.64649,0 0.74695,-6.20333 z"
     style="fill:#000000" />
</svg>
