<?xml version="1.0" encoding="UTF-8" standalone="no"?>
<svg
   xmlns:dc="http://purl.org/dc/elements/1.1/"
   xmlns:cc="http://creativecommons.org/ns#"
   xmlns:rdf="http://www.w3.org/1999/02/22-rdf-syntax-ns#"
   xmlns:svg="http://www.w3.org/2000/svg"
   xmlns="http://www.w3.org/2000/svg"
   version="1.1"
   id="svg2"
   viewBox="0 0 539.99998 499.99998"
   height="500"
   width="540">
  <defs
     id="defs4" />
  <metadata
     id="metadata7">
    <rdf:RDF>
      <cc:Work
         rdf:about="">
        <dc:format>image/svg+xml</dc:format>
        <dc:type
           rdf:resource="http://purl.org/dc/dcmitype/StillImage" />
        <dc:title></dc:title>
      </cc:Work>
    </rdf:RDF>
  </metadata>
  <g
     transform="translate(0,-552.36224)"
     id="layer1">
    <path
       id="path3355"
       d="M 117.81652,1045.2987 C 39.524815,1029.3302 4.0393578,981.572 27.887906,924.26801 c 6.641707,-15.95903 7.09701,-27.68471 1.229176,-31.65506 -14.233014,-9.63049 -11.093844,-64.46894 4.50172,-78.63918 9.329137,-8.47649 12.069814,-24.37986 8.431562,-48.92543 -3.427603,-23.12454 -0.529931,-42.77847 7.95783,-53.97525 7.341563,-9.68472 13.353969,-36.58312 13.360893,-59.77423 0.01018,-32.58672 5.513222,-46.69044 24.22627,-62.08338 37.399013,-30.76368 133.510263,-45.51087 205.816853,-31.58028 79.69875,15.3548 108.96186,39.55618 108.96186,90.11463 0,26.77331 4.96405,40.32833 16.19615,44.22617 27.74113,9.62687 83.80463,86.18527 96.15096,131.30058 20.44599,74.7123 -20.36383,169.06459 -90.23395,208.62132 -33.22564,18.8105 -236.58006,27.6967 -306.67071,13.4008 z m 302.55995,-50.62033 c 87.03736,-62.8228 85.58297,-210.45501 -2.56485,-260.35954 -37.13939,-21.02631 -100.27618,-21.02631 -137.41557,0 -86.41732,48.92477 -89.9222,203.60742 -5.88463,259.70602 40.27194,26.88325 109.09808,27.19165 145.86505,0.65352 z m -207.21554,-26.4076 c -7.80033,-8.09658 -40.33324,-19.64375 -72.29539,-25.66037 -31.96215,-6.01661 -65.740322,-14.21769 -75.062535,-18.22462 -11.996103,-5.15617 -16.949664,-2.15572 -16.949664,10.26664 0,25.73515 54.700339,47.45 120.722779,47.92436 49.62857,0.35661 55.76906,-1.65894 43.58481,-14.30601 z M 184.45035,857.86855 c 0,-14.84403 -13.20258,-22.07138 -59.40385,-32.51879 -64.43265,-14.57005 -89.736397,-5.54705 -67.330933,24.00938 13.189848,17.39954 35.963057,23.98643 90.414153,26.1513 29.00635,1.15323 36.32063,-2.39948 36.32063,-17.64189 z m 27.11936,-89.07219 c 21.93631,-24.01597 11.56044,-37.34943 -34.38355,-44.18437 -25.30334,-3.76429 -57.93765,-9.74555 -72.5207,-13.29167 -19.474801,-4.73563 -28.150203,-1.78146 -32.674423,11.12636 -8.171839,23.3144 -2.631433,28.02865 51.768153,44.04851 59.3621,17.48126 73.60407,17.85449 87.81052,2.30117 z m 118.16312,-107.4209 c 32.49727,-9.24656 43.5847,-17.55559 43.5847,-32.66273 0,-29.01697 -53.46668,-47.00837 -140.43969,-47.25766 -89.27356,-0.25589 -140.439795,16.61675 -140.439795,46.31161 0,26.11942 60.713655,46.01009 140.439795,46.01009 29.29865,0 72.88335,-5.58058 96.85499,-12.40131 z"
       style="fill:#000000" />
  </g>
</svg>
