<?xml version="1.0" encoding="UTF-8" standalone="no"?>
<svg
   xmlns:dc="http://purl.org/dc/elements/1.1/"
   xmlns:cc="http://creativecommons.org/ns#"
   xmlns:rdf="http://www.w3.org/1999/02/22-rdf-syntax-ns#"
   xmlns:svg="http://www.w3.org/2000/svg"
   xmlns="http://www.w3.org/2000/svg"
   version="1.1"
   id="svg2"
   viewBox="0 0 539.99998 500.00001"
   height="500"
   width="540">
  <defs
     id="defs4" />
  <metadata
     id="metadata7">
    <rdf:RDF>
      <cc:Work
         rdf:about="">
        <dc:format>image/svg+xml</dc:format>
        <dc:type
           rdf:resource="http://purl.org/dc/dcmitype/StillImage" />
        <dc:title></dc:title>
      </cc:Work>
    </rdf:RDF>
  </metadata>
  <g
     transform="translate(0,-552.36216)"
     id="layer1">
    <path
       id="path3347"
       d="M 392.86906,1035.9063 C 388.4042,1033.8199 25.614219,807.00512 23.789029,805.15904 c -2.70749,-2.73863 -4.45723,-9.23043 -3.54537,-13.15393 0.37014,-1.59258 15.48264,-30.60131 33.58335,-64.46384 18.1007,-33.86253 43.10907,-80.6413 55.574151,-103.95282 25.13527,-47.00662 25.72507,-47.82199 33.95672,-46.94312 3.67645,0.39253 23.55971,12.41186 118.33032,71.53011 62.65124,39.08206 145.06512,90.46424 183.14197,114.18264 38.07684,23.71839 70.38524,44.47758 71.79646,46.13161 3.62945,4.25379 4.35564,9.63625 2.05502,15.23208 -1.52219,3.70256 -39.77873,75.61873 -100.50114,188.92603 -5.59628,10.4428 -11.33988,19.9203 -12.76345,21.0611 -2.61798,2.0981 -9.9956,3.39 -12.548,2.1974 z m 6.41839,-27.658 c 1.94045,-1.502 17.38737,-29.44525 49.29679,-89.17758 25.55905,-47.84447 46.94846,-88.67026 47.53206,-90.72388 0.8509,-2.99394 0.73237,-4.66357 -0.59793,-8.4253 -0.91247,-2.58036 -2.4165,-5.40929 -3.34232,-6.28652 -0.92573,-0.87733 -77.24761,-48.75454 -169.6042,-106.39382 l -167.92104,-104.79872 -5.57445,-0.0491 c -4.15327,-0.0366 -6.26743,0.50962 -8.29252,2.14243 -2.59227,2.09008 -87.861311,159.64158 -94.821281,175.20115 -3.3135,7.40759 -3.24252,12.01781 0.26698,17.34037 1.05077,1.59363 9.37613,7.53333 18.81906,13.42651 89.660501,55.95512 316.093981,197.07216 318.830541,198.70026 4.37926,2.6055 11.3677,2.172 15.40831,-0.9558 z M 347.12171,970.13926 C 332.19038,961.53792 100.05805,816.21951 98.230589,814.32964 c -2.33008,-2.40973 -2.37105,-2.69935 -1.22749,-8.67844 3.702741,-19.35967 -0.43947,-37.80314 -11.57715,-51.54804 -3.36196,-4.14894 -4.91571,-6.99396 -4.91571,-9.00093 0,-2.99378 40.503251,-80.23387 44.250021,-84.38523 1.74336,-1.93162 2.34851,-1.98644 8.78025,-0.79536 18.38534,3.40471 34.65773,-1.07174 47.02915,-12.93748 6.2816,-6.02485 8.12374,-6.61157 12.66375,-4.03342 2.00374,1.13787 26.17993,16.13082 53.72488,33.31768 27.54494,17.18686 82.11928,51.19412 121.2763,75.57168 39.15703,24.37755 72.27932,45.44183 73.60512,46.80951 2.33027,2.4039 2.37112,2.69267 1.22749,8.67217 -1.84694,9.65651 -1.49028,22.24302 0.8672,30.60225 2.49495,8.84725 5.53442,14.68933 11.27192,21.6658 2.92035,3.5509 4.35377,6.26 4.35377,8.22825 0,2.98578 -40.50442,80.26364 -44.25731,84.43799 -1.73675,1.93177 -2.34068,1.9865 -8.77298,0.79537 -14.47351,-2.68036 -25.52445,-0.98922 -37.31321,5.71015 -3.51063,1.99497 -7.93383,5.21671 -9.82934,7.15919 -3.45798,3.54391 -7.02296,6.0373 -8.5185,5.95798 -0.44058,-0.0234 -2.12675,-0.80607 -3.74704,-1.7395 z M 390.1419,907.4309 c 6.85005,-3.27232 14.65863,-11.78743 17.95697,-19.58196 2.36179,-5.5812 2.79534,-7.98859 2.81165,-15.61269 0.0167,-7.91266 -0.35234,-9.85641 -3.02239,-15.90719 -9.19478,-20.83682 -30.83486,-28.6709 -49.50798,-17.92273 -7.08994,4.08094 -12.06079,9.77146 -15.54468,17.79548 -2.22675,5.12847 -2.58772,7.36524 -2.58772,16.03444 0,8.68638 0.35523,10.87818 2.57812,15.90719 3.60326,8.1519 8.56407,13.89916 15.38689,17.82633 9.7266,5.59859 22.08418,6.16404 31.92914,1.46113 z m -19.82229,-12.92671 c -5.07674,-1.29443 -11.00552,-6.37009 -13.62356,-11.66315 -3.31942,-6.71114 -2.86308,-16.84529 1.04576,-23.22407 9.00119,-14.6888 29.20681,-13.42609 36.45335,2.27801 4.37543,9.48218 2.93707,18.70039 -4.14201,26.54571 -2.30495,2.55448 -5.38063,4.57438 -8.47724,5.56751 -5.31661,1.70504 -6.33786,1.75001 -11.2563,0.49599 z M 266.59817,881.57674 c 16.93404,-3.86916 35.97836,-19.36085 48.23563,-39.23773 16.44049,-26.66045 20.90106,-60.60668 11.106,-84.51982 -4.97021,-12.13399 -15.89326,-22.67534 -27.16236,-26.2132 -6.26864,-1.968 -18.52477,-2.13394 -25.30531,-0.34265 -27.91407,7.37444 -53.6644,37.55292 -61.87771,72.51856 -2.93252,12.48427 -3.3495,30.2385 -0.9487,40.39396 3.7062,15.67718 12.41952,28.08987 24.03764,34.2432 9.6525,5.11214 19.21809,6.05861 31.91481,3.15768 z m -29.30763,-17.64277 c -2.10425,-2.511 -2.05334,-3.41506 0.51353,-9.12075 l 2.1387,-4.75393 -4.66315,-5.38373 c -5.6193,-6.48759 -8.49333,-13.10995 -9.15769,-21.1011 -0.94784,-11.40077 2.96565,-19.80105 9.7699,-20.97085 4.13273,-0.71054 7.54209,1.13449 10.20432,5.52233 1.43151,2.35935 1.47836,3.56586 0.40229,10.3595 -1.06443,6.71994 -1.01401,8.21607 0.39997,11.87069 l 1.6179,4.18168 6.31873,-11.63961 c 3.4753,-6.40169 6.3285,-12.12552 6.34044,-12.71949 0.012,-0.59386 -1.81036,-3.45716 -4.04959,-6.36288 -10.23211,-13.27721 -11.01364,-26.22334 -2.34746,-38.88585 6.74362,-9.85336 16.82111,-13.3307 28.92683,-9.98149 3.44448,0.95296 6.35829,1.60499 6.47512,1.44897 0.11681,-0.15604 1.38214,-2.31187 2.81184,-4.79074 3.21433,-5.57319 7.34969,-6.27354 10.11652,-1.71331 1.63836,2.70031 1.61102,2.96394 -0.81779,7.88282 l -2.51286,5.0891 4.39613,4.5778 c 7.26527,7.56553 10.24295,17.67146 8.07816,27.41651 -1.41648,6.37645 -4.62756,9.51602 -9.69834,9.48229 -6.88881,-0.0456 -10.21406,-5.24532 -9.31239,-14.56151 0.39882,-4.12066 0.19212,-7.10541 -0.60321,-8.71027 -1.15186,-2.3243 -1.48132,-1.94236 -6.86315,7.95612 l -5.6532,10.39762 5.71107,7.34548 c 6.90075,8.87557 9.21831,15.43868 8.49473,24.05624 -1.6845,20.0616 -18.97522,32.45213 -37.95761,27.20043 -3.44737,-0.95379 -6.36352,-1.60651 -6.48035,-1.45042 -0.11682,0.156 -1.38215,2.31185 -2.81184,4.79071 -2.06526,3.58083 -3.171,4.50704 -5.3809,4.50704 -1.5298,0 -3.5128,-0.87277 -4.40665,-1.9394 z m 33.17102,-25.71407 c 4.64556,-4.40491 5.40603,-8.99276 2.43641,-14.69878 -1.23336,-2.36984 -2.49253,-4.30225 -2.79814,-4.29408 -0.50316,0.0138 -10.90556,18.95765 -11.68494,21.27999 -0.18004,0.53639 1.68266,0.97532 4.1393,0.97532 3.5873,0 5.14401,-0.64232 7.90737,-3.26245 z m 6.62426,-56.89671 c 2.33325,-4.50762 4.41159,-8.6353 4.61855,-9.17265 0.55593,-1.44345 -7.53961,-0.0396 -9.40486,1.6309 -0.87262,0.78152 -2.18692,2.97189 -2.92064,4.8675 -1.13761,2.93903 -1.12259,3.99313 0.102,7.15823 0.78983,2.04142 1.86956,3.71168 2.39938,3.71168 0.52983,0 2.87234,-3.68806 5.20557,-8.19566 z m -106.65795,-2.50135 c 12.03498,-2.38082 21.72871,-10.35459 26.80696,-22.05058 2.22675,-5.12852 2.58773,-7.36524 2.58773,-16.03445 0,-8.68642 -0.35523,-10.8782 -2.57812,-15.90719 -3.59105,-8.12426 -8.55953,-13.89659 -15.30166,-17.77732 -18.65835,-10.73962 -40.64253,-2.88561 -49.7606,17.77732 -2.66183,6.03213 -3.04176,8.01903 -3.04176,15.90719 0,7.87271 0.38342,9.88688 3.02809,15.90719 5.12691,11.67078 13.65785,19.14761 24.93729,21.85594 6.97796,1.67549 6.53394,1.66477 13.32207,0.3219 z m -11.92748,-16.19602 c -11.88177,-4.18041 -18.22325,-18.21282 -13.62157,-30.14178 3.70896,-9.61478 13.68892,-15.91956 22.85558,-14.43889 5.90578,0.95395 12.81362,6.28588 15.65927,12.08687 1.94753,3.97011 2.28202,5.96753 1.99026,11.88468 -0.28775,5.83587 -0.88199,7.92973 -3.31059,11.66527 -5.3029,8.15667 -15.16992,11.90032 -23.57295,8.94385 z m 326.59155,7.26841 -7.36496,-4.6826 -0.49099,-80.03101 c -0.48324,-78.75737 -0.52321,-80.07762 -2.51568,-82.95887 -1.11358,-1.61032 -3.2449,-3.91178 -4.73625,-5.11433 -2.70314,-2.17962 -3.12618,-2.18737 -134.624,-2.46663 l -131.91233,-0.28016 -14.57852,-8.99461 -14.57851,-8.99462 154.7644,-0.005 154.76437,-0.005 3.33672,2.40721 c 7.17328,5.17508 6.77046,-0.94268 6.77213,102.84534 8.8e-4,51.18138 -0.32985,93.03561 -0.73492,93.00939 -0.40508,-0.0262 -4.05073,-2.15483 -8.10146,-4.73025 z m -41.24376,-25.74262 c -10.53189,-6.59057 -19.79563,-12.39778 -20.58604,-12.90494 -1.2219,-0.78405 -1.07489,-1.75711 0.98199,-6.49977 2.06926,-4.77111 2.41915,-7.12369 2.41915,-16.26859 0,-9.20589 -0.33496,-11.42743 -2.41158,-15.9933 -3.63545,-7.99333 -12.13294,-16.66354 -19.19956,-19.58986 -7.96557,-3.29857 -18.44202,-3.33751 -26.25783,-0.0976 -5.91765,2.45307 -14.95022,10.43426 -17.39746,15.37244 -0.76393,1.5415 -1.89212,2.66577 -2.5071,2.49838 -0.61498,-0.16737 -10.26361,-6.00495 -21.44141,-12.97238 l -20.32326,-12.66805 -3.57933,-6.95082 c -5.36734,-10.423 -16.02391,-21.42497 -25.47024,-26.29581 -7.56854,-3.90258 -7.96826,-3.9856 -19.20543,-3.98872 l -11.47602,-0.003 -15.3236,-9.54116 -15.3236,-9.54113 93.43116,-0.2705 c 73.37996,-0.21244 93.96512,0.0152 95.919,1.06047 1.84566,0.98738 3.15593,3.38425 5.07583,9.28457 2.99842,9.21552 7.38725,16.52703 14.10458,23.49747 5.14879,5.34294 15.40032,11.64407 22.05648,13.5571 2.28618,0.6571 4.61066,2.11069 5.16548,3.2302 0.65853,1.32879 0.92003,18.53254 0.75319,49.55171 l -0.25551,47.51624 -19.14889,-11.98282 z m -52.53672,-32.76055 c -9.72174,-6.12378 -18.05445,-11.52593 -18.51712,-12.00478 -0.46267,-0.47885 1.02349,-3.05528 3.30257,-5.72542 7.88039,-9.23249 20.12984,-10.35268 28.80113,-2.63381 7.50138,6.67742 10.15119,18.94354 5.96514,27.61309 l -1.8758,3.88507 -17.67592,-11.13415 z M 46.141959,649.44723 c 0.002,-67.87544 -0.21264,-65.63838 6.77215,-70.67747 3.29189,-2.37488 3.75047,-2.40722 34.13663,-2.40722 l 30.799921,0 -2.29076,3.9768 c -1.25992,2.18725 -3.27659,6.20601 -4.48148,8.9306 l -2.1907,4.9538 -18.047541,0.3486 c -19.72822,0.38105 -20.65466,0.65901 -25.49018,7.64783 -1.93288,2.79358 -2.04693,4.64163 -2.51566,40.76292 l -0.491,37.83665 -7.75435,14.31646 c -4.26488,7.87407 -7.91054,14.51531 -8.10145,14.75835 -0.19091,0.24302 -0.34642,-26.95827 -0.34558,-60.44732 z"
       style="fill:#000000" />
  </g>
</svg>
