<?xml version="1.0" encoding="UTF-8" standalone="no"?>
<svg
   xmlns:dc="http://purl.org/dc/elements/1.1/"
   xmlns:cc="http://creativecommons.org/ns#"
   xmlns:rdf="http://www.w3.org/1999/02/22-rdf-syntax-ns#"
   xmlns:svg="http://www.w3.org/2000/svg"
   xmlns="http://www.w3.org/2000/svg"
   width="540"
   height="500"
   viewBox="0 0 539.99998 500.00001"
   id="svg2"
   version="1.1">
  <defs
     id="defs4" />
  <metadata
     id="metadata7">
    <rdf:RDF>
      <cc:Work
         rdf:about="">
        <dc:format>image/svg+xml</dc:format>
        <dc:type
           rdf:resource="http://purl.org/dc/dcmitype/StillImage" />
        <dc:title></dc:title>
      </cc:Work>
    </rdf:RDF>
  </metadata>
  <g
     id="layer1"
     transform="translate(0,-552.36216)">
    <path
       id="path3347"
       d="M 392.86906,1035.9063 C 269.48952,959.56251 146.45091,882.65118 23.789029,805.15904 13.496676,784.48845 37.835589,765.35649 44.038003,745.92829 73.747522,691.42957 101.50285,635.79365 132.71838,582.15983 c 19.03728,-15.11971 41.22986,17.7364 60.27124,23.30824 107.21804,67.20193 215.36218,132.96731 321.70858,201.53734 13.74248,20.91927 -14.5385,43.38675 -20.90206,64.12548 -28.94294,53.37082 -56.30616,107.65345 -86.5712,160.27441 -2.68037,4.6944 -9.55525,5.4946 -14.35588,4.501 z m 6.41839,-27.658 C 433.61551,949.47587 464.8013,888.79353 496.1163,828.34684 494.58233,803.35077 461.06387,798.49892 444.50876,783.51078 347.98692,722.99877 251.28021,662.78243 154.65081,602.44248 c -21.03517,-3.20147 -23.42954,24.44215 -33.82361,37.27661 -25.746416,48.25036 -53.470859,95.62637 -76.714332,145.10389 0.964587,24.05942 33.411489,29.34736 49.462048,43.47861 96.752074,60.32649 193.490254,120.67542 290.304224,180.90251 4.73757,2.6134 11.02791,2.2146 15.40831,-0.9558 z M 347.12171,970.13926 C 263.81375,918.76045 180.80125,866.88366 98.230589,814.32964 c -2.042885,-18.12245 3.590801,-41.34458 -10.798511,-57.59517 -15.830436,-20.50206 14.103082,-43.71082 19.743082,-64.6489 9.15612,-16.65598 15.50857,-41.87285 39.73024,-31.08043 21.94057,5.79847 35.46083,-30.38621 54.12851,-13.28441 80.2544,50.32641 161.29954,99.43559 240.8058,150.92888 2.25721,18.3641 -3.59477,42.15321 11.33731,58.36913 14.56194,20.29864 -14.74311,43.16654 -20.28388,63.83749 -9.33387,17.35133 -16.12343,42.79348 -41.42154,31.05761 -18.3087,-2.97555 -29.97653,19.36209 -44.34989,18.22542 z M 390.1419,907.4309 c 27.64639,-13.20607 27.71058,-57.55406 -0.17762,-70.51652 -24.39862,-12.72154 -54.34692,12.05814 -49.69692,38.29306 -0.67475,24.56894 27.51708,43.46802 49.87454,32.22346 z m -19.82229,-12.92671 c -27.07509,-6.63582 -16.23584,-53.63483 11.53033,-44.10423 23.35473,7.36095 16.6727,47.01684 -8.44421,44.79554 l -3.08612,-0.69131 0,0 z M 266.59817,881.57674 c 47.15558,-15.0665 74.05797,-72.38852 61.0117,-119.16049 -6.57183,-26.37351 -37.8041,-40.20738 -61.91885,-28.49242 -43.32438,20.19044 -67.86477,76.20733 -51.35966,121.35103 8.09882,20.76061 30.65883,32.81141 52.26681,26.30188 z m -29.30763,-17.64277 c 4.48214,-12.63363 -2.05959,-20.30549 -9.46076,-31.88185 -12.25609,-16.03638 14.40651,-45.15998 19.26108,-17.71964 -4.20745,14.36432 2.15611,26.96311 7.74418,8.56572 14.93282,-18.55017 -22.10918,-41.73369 2.62597,-61.36347 12.95367,-14.90955 33.32383,0.76965 43.35178,-14.08119 4.53691,9.27089 -5.29538,18.51454 7.9931,26.09473 17.31188,16.77222 -14.12106,48.05414 -15.56424,16.23215 3.67207,-22.3774 -16.63793,7.10989 -10.61742,12.86168 14.74128,13.328 16.42982,39.23451 -0.78844,51.27621 -12.84219,12.5955 -32.3884,-5.35351 -40.1386,11.95506 l -2.44181,-0.56971 -1.96484,-1.36969 0,0 z m 33.17102,-25.71407 c 10.44592,-7.65964 -2.14721,-28.22367 -6.10062,-9.21857 -6.53208,9.78237 -9.29854,18.1146 6.10062,9.21857 z m 6.62426,-56.89671 c 14.19208,-24.28639 -22.72627,5.579 -3.27906,5.78818 l 1.55587,-2.60596 1.72319,-3.18222 0,0 z m -106.65795,-2.50135 c 33.54031,-5.15769 40.22867,-56.01845 11.51491,-71.76954 -23.20726,-15.22212 -55.0952,7.30348 -52.80236,33.68451 -1.4254,21.29592 19.51897,43.10564 41.28745,38.08503 z m -11.92748,-16.19602 c -34.28217,-10.72166 -2.09654,-65.70723 22.07651,-36.69552 13.37247,15.35173 -1.00053,43.561 -22.07651,36.69552 z m 326.59155,7.26841 c -10.37451,-2.63335 -6.94478,-12.90334 -7.46499,-20.98818 -0.61454,-47.85737 0.2378,-95.77204 -1.74095,-143.5817 -10.79674,-19.39067 -39.41474,-6.36263 -57.71253,-10.45801 -71.57503,-0.24293 -143.15049,-0.3374 -214.72574,-0.50571 -9.71901,-5.9964 -19.43802,-11.99281 -29.15703,-17.98923 103.17626,-0.003 206.35251,-0.007 309.52877,-0.01 17.33466,11.42983 6.9431,37.08009 10.09102,54.59503 -0.12472,47.8867 0.44516,95.79567 -0.71709,143.66691 -2.83346,-1.34013 -5.44172,-3.09171 -8.10146,-4.72911 z m -41.24376,-25.74262 c -16.44238,-6.94524 -25.85077,-14.92223 -17.20398,-32.54436 4.87057,-26.44462 -25.94497,-51.19874 -50.19607,-37.64741 -11.73096,7.13704 -17.45758,24.91792 -31.02042,8.67893 -9.32318,-7.14583 -21.93275,-11.29211 -29.54681,-20.02695 -9.15384,-20.08154 -28.95645,-38.47602 -52.44612,-34.82065 -10.95857,0.73236 -18.76955,-9.54003 -28.28533,-13.85205 -14.171,-6.40759 -2.41903,-5.44493 6.54441,-5.27509 58.126,0.30711 116.36588,-1.56393 174.40316,0.83324 8.5405,18.82357 18.96266,40.41139 41.23689,46.33914 12.42362,13.76573 3.10372,39.54419 5.88944,58.21713 -0.0754,14.02701 -0.15085,28.05401 -0.22628,42.08102 -6.38293,-3.99434 -12.76615,-7.98851 -19.14889,-11.98295 z m -52.53672,-32.76055 c -14.31476,-5.15794 -26.34957,-18.22018 -4.92501,-24.65605 20.33253,-9.95232 35.71473,29.78022 20.30145,34.34175 -5.12548,-3.22857 -10.25096,-6.45713 -15.37644,-9.6857 z M 46.141959,649.44723 c 2.97146,-22.94527 -6.533496,-51.1921 6.77215,-70.67747 19.208875,-4.89255 40.02243,-1.46747 59.954291,-2.40722 9.78156,-2.34452 -2.24023,21.98326 -10.77353,17.99241 -14.056997,1.10618 -37.851652,-4.45336 -38.551757,15.74879 -1.446552,23.85434 0.140484,48.29811 -1.846933,71.91082 -6.296635,9.90776 -17.964347,40.36153 -15.428755,14.21157 -0.101173,-15.59273 -0.122888,-31.18588 -0.125466,-46.7789 z"
       style="fill:#000000" />
  </g>
</svg>
