<?xml version="1.0" encoding="UTF-8" standalone="no"?>
<svg
   xmlns:dc="http://purl.org/dc/elements/1.1/"
   xmlns:cc="http://creativecommons.org/ns#"
   xmlns:rdf="http://www.w3.org/1999/02/22-rdf-syntax-ns#"
   xmlns:svg="http://www.w3.org/2000/svg"
   xmlns="http://www.w3.org/2000/svg"
   width="540"
   height="500"
   viewBox="0 0 540.00001 500.00001"
   id="svg2"
   version="1.1">
  <defs
     id="defs4" />
  <metadata
     id="metadata7">
    <rdf:RDF>
      <cc:Work
         rdf:about="">
        <dc:format>image/svg+xml</dc:format>
        <dc:type
           rdf:resource="http://purl.org/dc/dcmitype/StillImage" />
        <dc:title></dc:title>
      </cc:Work>
    </rdf:RDF>
  </metadata>
  <path
     id="path3414"
     d="m 230.21243,497.228 c -21.55711,-3.5464 -57.99288,-14.14802 -55.89247,-16.26289 0.63615,-0.64056 7.87056,0.36342 16.07644,2.23102 23.10522,5.25866 92.69357,4.46982 113.45824,-1.28611 68.41478,-18.96449 124.35126,-77.36073 142.29479,-148.55211 6.42268,-25.48215 3.99638,-74.55964 -5.00376,-101.21301 -11.9023,-35.24786 -31.43237,-69.57193 -58.98376,-103.66385 l -6.24798,-7.7312 28.19145,-32.213342 c 15.5053,-17.717338 29.63444,-32.553618 31.39813,-32.969505 4.11558,-0.970498 30.66983,27.570652 42.70952,45.905197 14.3298,21.82204 27.12585,49.07535 34.71723,73.94158 6.38998,20.93096 6.92493,26.16507 7.05569,69.0353 0.12644,41.41649 -0.50439,48.59643 -5.88579,67.00375 -23.02233,78.74923 -80.6976,142.71634 -154.59682,171.46198 C 319.66415,498.4116 270.4948,503.8549 230.21243,497.228 Z M 84.250052,426.51954 C 47.970435,384.07665 28.330743,342.5961 22.063594,295.17688 17.803353,262.94271 20.416235,208.02747 27.35877,183.888 53.156401,94.188274 121.18056,28.076936 210.85368,5.5528776 229.32289,0.91379556 240.5098,-0.10298636 271.86162,0.00790484 305.32591,0.12619224 313.53813,1.0391957 335.84765,7.1211262 366.5313,15.486029 373.31595,20.014039 346.99033,14.557692 317.8278,8.513361 261.48475,9.2380324 236.57532,15.977862 181.30531,30.932455 135.9224,69.49198 108.14418,125.09919 c -15.635093,31.29879 -20.307634,54.43764 -18.579423,92.00695 1.408845,30.62677 5.193106,46.27472 18.539463,76.66103 7.3144,16.65303 29.47227,51.21465 44.36075,69.19335 5.85346,7.06841 10.34974,13.61749 9.99167,14.55348 -1.99004,5.20225 -57.22411,66.6578 -59.90966,66.6578 -1.7644,0 -9.998017,-7.94352 -18.296928,-17.65226 z"
     style="fill:#000000" />
</svg>
