<?xml version="1.0" encoding="UTF-8" standalone="no"?>
<svg
   xmlns:dc="http://purl.org/dc/elements/1.1/"
   xmlns:cc="http://creativecommons.org/ns#"
   xmlns:rdf="http://www.w3.org/1999/02/22-rdf-syntax-ns#"
   xmlns:svg="http://www.w3.org/2000/svg"
   xmlns="http://www.w3.org/2000/svg"
   version="1.1"
   id="svg2"
   viewBox="0 0 540.00001 500.00001"
   height="500"
   width="540">
  <defs
     id="defs4" />
  <metadata
     id="metadata7">
    <rdf:RDF>
      <cc:Work
         rdf:about="">
        <dc:format>image/svg+xml</dc:format>
        <dc:type
           rdf:resource="http://purl.org/dc/dcmitype/StillImage" />
        <dc:title></dc:title>
      </cc:Work>
    </rdf:RDF>
  </metadata>
  <g
     transform="translate(0,-552.36216)"
     id="layer1">
    <path
       id="path3822"
       d="M 96.182928,1046.3995 C 29.535887,1022.4998 1.675204,951.10723 32.579127,883.4162 46.738658,852.40135 157.56183,740.23231 190.26091,723.81927 c 43.86352,-22.01697 99.27017,-16.50925 131.97379,13.11885 18.58463,16.83686 20.83617,34.44539 6.17103,48.26101 -12.34784,11.63253 -28.91715,10.94658 -47.4988,-1.96643 -20.40584,-14.18066 -43.63606,-14.31194 -67.25816,-0.37981 -20.75807,12.24275 -114.946019,107.42998 -124.33705,125.65604 -3.622176,7.03002 -6.585801,21.16995 -6.585801,31.42223 0,16.32817 1.918265,20.56447 15.462536,34.14645 13.559445,13.59716 17.758325,15.50583 34.115435,15.50583 24.9472,0 30.44332,-3.33129 70.08597,-42.47848 l 34.03423,-33.60848 13.7591,6.9138 c 8.52458,4.28344 23.33561,6.9813 38.93133,7.09073 l 25.17223,0.17574 -52.1477,51.18513 c -38.47025,37.76012 -57.98482,53.86462 -74.4027,61.40222 -29.53262,13.5581 -64.34695,15.8909 -91.553422,6.1342 z M 248.33466,885.92795 c -26.84937,-10.84538 -46.12542,-30.15338 -46.12542,-46.20257 0,-26.07139 31.38883,-38.81765 53.20827,-21.60664 15.62914,12.32814 33.43618,16.27469 51.46593,11.40624 11.56933,-3.12397 29.52596,-17.39078 70.7961,-56.24845 66.10359,-62.23955 79.42745,-80.41548 79.42745,-108.35213 0,-17.62203 -1.66918,-21.42839 -15.46253,-35.26019 -13.55945,-13.59723 -17.75833,-15.50563 -34.11544,-15.50563 -24.9472,0 -30.44331,3.33114 -70.08597,42.4782 l -34.03422,33.60876 -13.7591,-6.91392 c -8.52458,-4.2836 -23.33561,-6.98126 -38.93133,-7.09093 l -25.17223,-0.17693 52.1477,-51.18501 c 63.29146,-62.12305 81.7375,-72.60306 127.63702,-72.51635 36.38916,0.0687 58.21578,9.06826 82.65537,34.08039 34.26738,35.0702 41.52014,85.14108 19.36271,133.67415 -14.2125,31.13076 -124.87222,143.25758 -157.77697,159.86852 -29.55009,14.91793 -72.74076,17.45284 -101.23734,5.94249 z"
       style="fill:#000000" />
  </g>
</svg>
