<?xml version="1.0" encoding="UTF-8" standalone="no"?>
<svg
   xmlns:dc="http://purl.org/dc/elements/1.1/"
   xmlns:cc="http://creativecommons.org/ns#"
   xmlns:rdf="http://www.w3.org/1999/02/22-rdf-syntax-ns#"
   xmlns:svg="http://www.w3.org/2000/svg"
   xmlns="http://www.w3.org/2000/svg"
   version="1.1"
   id="svg2"
   viewBox="0 0 340 500.00001"
   height="500"
   width="340">
  <defs
     id="defs4" />
  <metadata
     id="metadata7">
    <rdf:RDF>
      <cc:Work
         rdf:about="">
        <dc:format>image/svg+xml</dc:format>
        <dc:type
           rdf:resource="http://purl.org/dc/dcmitype/StillImage" />
        <dc:title></dc:title>
      </cc:Work>
    </rdf:RDF>
  </metadata>
  <g
     transform="translate(0,-552.36216)"
     id="layer1">
    <path
       id="path3347"
       d="m 51.298329,1050.078 c -9.33499,-3.0476 -16.98849,-8.3772 -22.75522,-15.8459 -9.25242,-11.983 -8.78498,1.1519 -8.36022,-234.92071 l 0.38706,-215.12074 3.61027,-6.88314 c 4.61367,-8.79613 14.53556,-18.1047 23.38805,-21.94231 6.92204,-3.00074 7.0144,-3.003 122.716711,-3.003 l 115.78945,0 6.98543,3.25683 c 9.44649,4.40422 18.48838,13.14524 23.11344,22.34432 l 3.8267,7.61115 0,216.57183 0,216.57187 -3.91083,7.8262 c -4.6157,9.2367 -13.46312,17.7373 -23.09274,22.1873 l -6.922,3.1988 -113.57692,0.318 c -106.034671,0.2969 -114.083091,0.1527 -121.199181,-2.1705 z m 128.847041,-23.8367 c 9.47574,-3.3589 18.1003,-15.1858 18.1003,-24.8212 0,-9.63534 -8.62456,-21.46231 -18.1003,-24.82118 -8.88956,-3.15108 -22.52568,-0.76922 -29.50745,5.15416 -5.02682,4.26481 -8.37842,12.27848 -8.37842,20.03292 0,17.8897 19.99565,30.7969 37.88587,24.4553 z m 108.14159,-238.62534 0,-165.36955 -118.00198,0 -118.001991,0 0,165.36955 0,165.36955 118.001991,0 118.00198,0 0,-165.36955 z"
       style="fill:#000000" />
  </g>
</svg>
