<?xml version="1.0" encoding="UTF-8" standalone="no"?>
<svg
   xmlns:dc="http://purl.org/dc/elements/1.1/"
   xmlns:cc="http://creativecommons.org/ns#"
   xmlns:rdf="http://www.w3.org/1999/02/22-rdf-syntax-ns#"
   xmlns:svg="http://www.w3.org/2000/svg"
   xmlns="http://www.w3.org/2000/svg"
   version="1.1"
   id="svg2"
   viewBox="0 0 539.99998 499.99998"
   height="500"
   width="540">
  <defs
     id="defs4" />
  <metadata
     id="metadata7">
    <rdf:RDF>
      <cc:Work
         rdf:about="">
        <dc:format>image/svg+xml</dc:format>
        <dc:type
           rdf:resource="http://purl.org/dc/dcmitype/StillImage" />
        <dc:title></dc:title>
      </cc:Work>
    </rdf:RDF>
  </metadata>
  <g
     transform="translate(0,-552.36224)"
     id="layer1">
    <path
       id="path3561"
       d="m 398.83512,1041.2977 c -31.97974,-14.829 -48.69764,-48.90646 -51.0415,-82.72942 1.59554,-10.86761 -10.56447,-11.8309 -17.603,-16.48179 -53.52795,-27.14008 -107.05588,-54.28019 -160.5838,-81.42032 -18.67469,14.32974 -40.10086,27.13342 -64.63563,25.52546 -48.383634,1.97861 -90.714908,-44.34065 -84.606044,-92.417 3.041886,-44.94768 46.414257,-81.90713 90.816274,-79.8554 21.64773,3.51513 40.14782,16.05722 59.6758,25.24399 58.53575,-28.40197 117.07149,-56.80397 175.6072,-85.20602 3.31753,-32.11161 12.00111,-66.54579 40.19749,-85.94938 43.06943,-34.05775 112.51084,-8.47298 128.61109,42.46881 18.13491,47.37297 -16.08045,105.60212 -66.7387,111.55299 -27.37507,5.52189 -55.1186,-4.42615 -75.65711,-22.49569 -7.31074,-0.27416 -15.30793,7.08442 -22.87466,9.65673 -48.44198,24.71431 -98.6628,46.26866 -145.18189,74.49656 -28.91212,20.45326 6.8228,43.1891 26.62529,50.60431 46.22302,24.01086 92.8441,47.24664 139.26499,70.87181 19.15749,-14.70113 41.34744,-27.79808 66.57706,-25.0233 35.65735,0.6485 70.05186,24.47004 78.85442,59.87631 14.35476,42.00469 -10.73226,90.71915 -52.22,105.37195 -21.04011,10.9636 -45.17524,7.8048 -65.08728,-4.0906 z"
       style="fill:#000000" />
  </g>
</svg>
