<?xml version="1.0" encoding="UTF-8" standalone="no"?>
<svg
   xmlns:dc="http://purl.org/dc/elements/1.1/"
   xmlns:cc="http://creativecommons.org/ns#"
   xmlns:rdf="http://www.w3.org/1999/02/22-rdf-syntax-ns#"
   xmlns:svg="http://www.w3.org/2000/svg"
   xmlns="http://www.w3.org/2000/svg"
   version="1.1"
   id="svg2"
   viewBox="0 0 539.99998 499.99998"
   height="500"
   width="540">
  <defs
     id="defs4" />
  <metadata
     id="metadata7">
    <rdf:RDF>
      <cc:Work
         rdf:about="">
        <dc:format>image/svg+xml</dc:format>
        <dc:type
           rdf:resource="http://purl.org/dc/dcmitype/StillImage" />
        <dc:title></dc:title>
      </cc:Work>
    </rdf:RDF>
  </metadata>
  <g
     transform="translate(0,-552.36224)"
     id="layer1">
    <path
       id="path3512"
       d="M 45.07997,1051.2313 C 34.64162,1049.1823 25.15154,1041.1397 21.78129,1031.4865 20.07856,1026.6094 20,1016.4915 20,802.07905 c 0,-218.26288 0.0504,-224.44989 1.869,-229.67119 2.56957,-7.37715 10.81385,-15.6121 18.19936,-18.17876 5.22723,-1.81658 11.42125,-1.86688 229.93161,-1.86688 218.51037,0 224.70447,0.0503 229.93167,1.86688 7.3855,2.56666 15.6297,10.80161 18.1993,18.17876 1.8187,5.2213 1.8691,11.40831 1.8691,229.67119 0,218.26295 -0.051,224.44985 -1.8691,229.67125 -2.4249,6.9618 -10.7504,15.4968 -17.7004,18.1456 -4.6072,1.7559 -8.7288,1.8822 -70.69477,2.1655 l -65.80234,0.3008 c 0,-62.56822 0,-125.13645 0,-187.70469 l 63.0186,-0.51577 c 3.72545,-25.6473 12.17784,-50.73448 15.2118,-76.47883 -27.90439,-2.23122 -44.14913,-1.22171 -78.48584,-1.22171 0.97446,-18.78479 -0.77698,-44.61512 6.83175,-58.86543 2.97911,-5.46741 8.21951,-10.52841 13.8977,-13.42192 22.94535,-7.33194 33.01172,-5.55369 57.80387,-6.15702 l 0,-78.05215 -40.36203,0.33978 -40.36204,0.33978 -8.60723,2.66027 c -32.17004,9.94293 -54.23908,34.27459 -63.17957,69.65705 -5.61712,34.09054 -4.04489,48.03116 -4.04489,83.49964 l -62.62231,0 0,78.18923 62.62231,0 c 0,62.55136 0,125.10272 0,187.65407 l -118.15068,-0.107 c -64.98286,-0.059 -120.07407,-0.4847 -122.4249,-0.9462 z"
       style="fill:#000000" />
  </g>
</svg>
