<?xml version="1.0" encoding="UTF-8" standalone="no"?>
<svg
   xmlns:dc="http://purl.org/dc/elements/1.1/"
   xmlns:cc="http://creativecommons.org/ns#"
   xmlns:rdf="http://www.w3.org/1999/02/22-rdf-syntax-ns#"
   xmlns:svg="http://www.w3.org/2000/svg"
   xmlns="http://www.w3.org/2000/svg"
   width="475"
   height="500"
   viewBox="0 0 474.99998 499.99998"
   id="svg6041"
   version="1.1">
  <defs
     id="defs6043" />
  <metadata
     id="metadata6046">
    <rdf:RDF>
      <cc:Work
         rdf:about="">
        <dc:format>image/svg+xml</dc:format>
        <dc:type
           rdf:resource="http://purl.org/dc/dcmitype/StillImage" />
        <dc:title></dc:title>
      </cc:Work>
    </rdf:RDF>
  </metadata>
  <g
     id="layer1"
     transform="matrix(0.86999998,0,0,0.864,2.6000003,-441.41698)">
    <path
       style="fill:#000000"
       d="m 73.020658,1034.7568 c -7.01095,-2.4007 -12.43252,-6.3386 -15.94867,-11.5843 -5.79569,-8.6465 -6.00978,-10.6593 -5.58286,-52.49052 0.3829,-37.5182 0.41082,-37.95776 2.9695,-46.75783 9.42807,-32.42579 37.72184,-85.92673 75.482032,-142.72968 7.10463,-10.68756 10.05268,-14.26995 13.71657,-16.66813 6.59647,-4.31766 12.91668,-5.90723 23.48752,-5.90723 l 9.10023,0 0.0215,-20.98949 c 0.0246,-24.13376 0.50405,-26.08751 8.00124,-32.60881 6.37798,-5.54777 13.01322,-7.68814 23.71605,-7.65025 7.54859,0.0268 9.65039,0.41977 14.89034,2.78454 7.15175,3.22756 13.30962,9.33534 14.81567,14.69518 0.58717,2.08957 1.04766,12.49612 1.05071,23.74437 l 0.006,20.02446 31.25046,0 31.25045,0 0.0215,-20.98949 c 0.0188,-18.3879 0.2461,-21.46795 1.83391,-24.84963 2.45498,-5.22861 7.2314,-9.49125 14.25816,-12.7245 5.12016,-2.35595 7.03001,-2.69613 15.13694,-2.69613 8.10693,0 10.01679,0.34018 15.13693,2.69613 7.02678,3.23325 11.80318,7.49589 14.25818,12.7245 1.58694,3.37984 1.81512,6.45912 1.83391,24.74798 l 0.0215,20.88785 11.47478,0.38915 c 20.11764,0.68227 23.13179,3.0394 44.48991,34.79185 30.51446,45.36491 49.95406,81.57675 60.74501,113.15499 7.62757,22.32103 7.80384,23.84692 7.80384,67.55238 l 0,38.60131 -2.55846,5.3912 c -3.25205,6.8527 -8.48908,12.0278 -15.42376,15.2414 l -5.4557,2.5283 -193.3622,0.2147 c -184.067562,0.2043 -193.606312,0.1311 -198.440562,-1.5243 z m 215.042362,-30.9164 c 32.98197,-6.7621 59.75832,-29.82789 70.40283,-60.64651 4.37626,-12.67041 5.64169,-21.54673 4.98891,-34.99452 -1.15222,-23.73681 -10.87375,-44.84919 -28.2958,-61.45037 -17.2481,-16.43542 -36.98512,-24.97405 -60.27973,-26.07824 -13.60864,-0.64505 -22.59113,0.60543 -35.41309,4.92996 -12.51365,4.22054 -23.54246,10.86666 -33.65838,20.283 -44.0223,40.97791 -37.76662,111.41234 12.82796,144.43328 20.42611,13.3313 46.03487,18.3195 69.4273,13.5234 z m -30.27388,-30.48395 c -13.08491,-2.85129 -26.15676,-10.01977 -33.65023,-18.45348 -20.40166,-22.96157 -21.86815,-54.9719 -3.63003,-79.23636 10.87641,-14.47028 31.02076,-24.40425 49.48748,-24.40425 7.7525,0 19.36509,2.72354 26.85586,6.2986 17.82824,8.50871 30.10374,24.04695 34.09948,43.16289 1.94774,9.31818 1.95001,15.24887 0.01,24.64555 -6.81706,33.00906 -40.50884,55.10455 -73.17197,47.98705 z M 41.770198,756.84429 c -7.01959,-2.42747 -12.4388,-6.36528 -15.93209,-11.57685 -5.13091,-7.6547 -5.8462,-11.86348 -5.83804,-34.35141 0.009,-25.0239 0.81264,-30.52302 5.9891,-40.98621 4.8315,-9.76591 13.83865,-19.47593 32.09003,-34.59413 47.218612,-39.11272 97.518902,-56.33446 178.225262,-61.02048 21.11016,-1.22572 46.07489,-1.22103 67.87207,0.0128 79.73663,4.51327 130.61926,21.9786 177.73698,61.00774 16.56776,13.7236 27.01417,24.71253 31.42096,33.05274 5.42972,10.27619 6.66554,18.12233 6.66554,42.31916 0,17.94336 -0.2584,21.51398 -1.94818,26.92018 -2.46876,7.89845 -7.87508,14.13917 -15.4208,17.80079 l -5.58057,2.70803 -38.5748,0 -38.57478,0 -5.45562,-2.52822 c -6.93393,-3.21327 -12.20099,-8.41639 -15.30748,-15.12163 -1.93403,-4.17455 -2.61482,-7.72223 -3.27211,-17.05112 -0.94177,-13.3667 -3.26608,-22.07939 -8.37777,-31.40386 -20.61225,-37.59993 -59.17496,-55.97034 -117.49154,-55.97034 -54.23736,0 -89.82994,15.24955 -112.22195,48.08122 -8.36745,12.26854 -11.58405,22.16408 -12.69202,39.04566 -0.63431,9.66481 -1.25869,12.9851 -3.23276,17.19062 -3.11068,6.62701 -8.57095,12.02568 -15.41006,15.23623 l -5.37118,2.52144 -37.109922,0.23194 c -33.74395,0.2109 -37.57052,0.0727 -42.18827,-1.52423 z"
       id="path6600" />
  </g>
</svg>
