<?xml version="1.0" encoding="UTF-8" standalone="no"?>
<svg
   xmlns:dc="http://purl.org/dc/elements/1.1/"
   xmlns:cc="http://creativecommons.org/ns#"
   xmlns:rdf="http://www.w3.org/1999/02/22-rdf-syntax-ns#"
   xmlns:svg="http://www.w3.org/2000/svg"
   xmlns="http://www.w3.org/2000/svg"
   version="1.1"
   id="svg2"
   viewBox="0 0 499.99998 499.99998"
   height="500"
   width="500">
  <defs
     id="defs4" />
  <metadata
     id="metadata7">
    <rdf:RDF>
      <cc:Work
         rdf:about="">
        <dc:format>image/svg+xml</dc:format>
        <dc:type
           rdf:resource="http://purl.org/dc/dcmitype/StillImage" />
        <dc:title></dc:title>
      </cc:Work>
    </rdf:RDF>
  </metadata>
  <g
     transform="translate(0,-552.36224)"
     id="layer1">
    <path
       id="path4260"
       d="M 170.02678,552.38701 C 9.2031587,553.03838 20.157465,570.15374 20.157465,802.36226 c 0,207.20224 1.973899,218.06354 43.465016,238.90354 19.058928,9.5718 42.074129,10.9253 186.377509,10.9253 244.1514,0 229.84251,15.5527 229.84251,-249.82884 0,-265.38117 14.30889,-249.82882 -229.84251,-249.82882 -30.51893,0 -56.99841,-0.23949 -79.97321,-0.14643 z m 145.76563,132.40946 c 5.88175,0.0456 10.78677,1.35469 14.10793,4.126 15.59633,13.01417 12.07111,36.89939 -6.00983,40.67376 -8.54731,1.78437 -23.23315,4.87412 -32.63518,6.86036 -9.40204,1.98625 -26.18585,10.56612 -37.29736,19.06736 l -20.20273,15.4541 0,89.85583 c 0,73.35804 -1.79914,91.66501 -9.77356,99.6825 -12.04283,12.10874 -23.75905,12.53536 -33.1087,1.2085 -4.94667,-5.99312 -6.59974,-47.12013 -5.42705,-135.25377 1.49967,-112.70724 2.88517,-127.41022 12.56601,-133.54477 14.73345,-9.33631 32.03986,1.91893 34.5049,22.43653 l 1.88187,15.63717 18.90364,-17.74898 c 18.45931,-17.33723 44.84482,-28.59121 62.49006,-28.45459 z"
       style="fill:#000000" />
  </g>
</svg>
