<?xml version="1.0" encoding="UTF-8" standalone="no"?>
<svg
   xmlns:dc="http://purl.org/dc/elements/1.1/"
   xmlns:cc="http://creativecommons.org/ns#"
   xmlns:rdf="http://www.w3.org/1999/02/22-rdf-syntax-ns#"
   xmlns:svg="http://www.w3.org/2000/svg"
   xmlns="http://www.w3.org/2000/svg"
   version="1.1"
   id="svg2"
   viewBox="0 0 539.99998 499.99998"
   height="500"
   width="540">
  <defs
     id="defs4" />
  <metadata
     id="metadata7">
    <rdf:RDF>
      <cc:Work
         rdf:about="">
        <dc:format>image/svg+xml</dc:format>
        <dc:type
           rdf:resource="http://purl.org/dc/dcmitype/StillImage" />
        <dc:title></dc:title>
      </cc:Work>
    </rdf:RDF>
  </metadata>
  <g
     transform="translate(0,-552.36224)"
     id="layer1">
    <path
       id="path4162"
       d="m 119.16951,1050.036 c -14.02019,-6.3349 -14.00409,-8.7299 0.65133,-96.91956 L 133.0835,873.30745 76.534375,815.62337 c -54.249119,-55.33793 -56.548512,-58.063 -56.534311,-67.00057 0.640084,-10.42671 5.314313,-16.73813 13.608486,-21.36653 1.138875,0 34.457667,-4.97065 74.04177,-11.04589 39.5841,-6.07524 73.02585,-11.04588 74.315,-11.04588 1.28912,0 18.08662,-32.91147 37.32777,-73.13659 19.24113,-40.22512 36.64216,-74.57579 38.66894,-76.33481 4.98816,-4.32916 18.92623,-4.46937 23.80009,-0.23933 2.17851,1.89071 19.70366,36.34912 38.9448,76.57424 19.24113,40.22512 36.03865,73.13658 37.32777,73.13658 1.28915,0 34.73089,4.97065 74.31499,11.04589 39.58408,6.07524 72.9029,11.04589 74.04177,11.04589 1.13888,0 4.66334,2.71127 7.83216,6.02501 4.08457,4.2714 5.76583,8.73669 5.77633,15.34151 0.0141,8.93772 -2.28449,11.66174 -56.53884,67.00058 l -56.55363,57.68407 13.11417,78.80593 c -0.19318,23.43029 22.20318,75.24383 7.55018,93.37313 -9.88798,12.0211 -15.0349,10.252 -88.93494,-30.5684 C 301.509,994.40964 270.62241,977.62971 270,977.62971 c -0.6224,0 -30.98085,16.43874 -67.46323,36.53019 -36.48239,20.0915 -68.44418,37.1604 -71.02618,37.9306 -2.58201,0.7703 -8.13551,-0.1546 -12.34108,-2.0543 z M 270,933.44617 c 43.6071,15.31107 70.08466,39.9083 115.10559,58.39788 -0.0211,-38.48583 -23.48968,-94.21408 -18.5938,-131.07501 28.0488,-38.0091 58.52596,-59.95259 89.44778,-98.13537 C 421.96375,751.72649 359.88055,756.99516 330.16849,740.32336 302.47807,701.2258 297.57388,664.76627 270,621.70668 c -19.30357,26.17728 -38.92125,101.53895 -60.16848,118.61668 -44.24282,12.17875 -78.3982,12.83331 -125.791089,22.31031 20.709699,30.97338 74.785729,65.41978 89.784259,97.38111 2.83451,34.51577 -22.67819,101.87823 -18.99934,132.34278 C 186.60499,981.06499 240.94317,936.03262 270,933.44617 Z"
       style="fill:#000000" />
  </g>
</svg>
