<?xml version="1.0" encoding="UTF-8" standalone="no"?>
<svg
   xmlns:dc="http://purl.org/dc/elements/1.1/"
   xmlns:cc="http://creativecommons.org/ns#"
   xmlns:rdf="http://www.w3.org/1999/02/22-rdf-syntax-ns#"
   xmlns:svg="http://www.w3.org/2000/svg"
   xmlns="http://www.w3.org/2000/svg"
   version="1.1"
   id="svg2"
   viewBox="0 0 539.99998 499.99998"
   height="500"
   width="540">
  <defs
     id="defs4" />
  <metadata
     id="metadata7">
    <rdf:RDF>
      <cc:Work
         rdf:about="">
        <dc:format>image/svg+xml</dc:format>
        <dc:type
           rdf:resource="http://purl.org/dc/dcmitype/StillImage" />
        <dc:title></dc:title>
      </cc:Work>
    </rdf:RDF>
  </metadata>
  <g
     transform="translate(0,-552.36224)"
     id="layer1">
    <path
       id="path4036"
       d="M 261.13346,1052.2324 C 161.75886,1049.9997 68.134627,982.09744 35.181597,888.18289 -0.57488286,793.761 28.415807,679.4827 105.45582,614.05628 c 76.60951,-69.17067 197.17346,-81.61121 286.45452,-30.03789 84.66287,46.12533 136.65929,144.44943 126.92333,240.44324 -7.61966,105.00972 -89.23232,198.70167 -191.82005,221.34327 -21.5543,5.0794 -43.758,7.1159 -65.88016,6.4275 z M 375.25008,919.80398 c 28.91381,-15.17833 -5.07776,-37.77969 -23.00439,-42.97576 -67.86348,-30.97747 -146.18289,-29.98853 -217.56061,-12.81756 -25.77443,13.66771 3.56517,41.04056 22.91102,26.82597 69.45294,-14.44288 145.88265,-10.16524 207.40772,28.06021 3.14609,1.81102 6.85105,1.40728 10.24626,0.90714 z m 28.30951,-66.32117 c 31.43272,-12.98915 3.57923,-45.34569 -18.83637,-48.76737 -79.30863,-37.20674 -172.60319,-44.56308 -256.71959,-20.07335 -34.404023,16.92979 4.52163,53.21114 29.52554,32.56728 78.5152,-16.90785 164.00502,-5.75139 233.52164,35.29112 3.8589,2.01252 8.38348,1.68434 12.50878,0.98232 z m 30.08902,-76.70148 c 32.4234,-7.00002 18.00746,-49.22807 -9.32106,-52.56 -81.05777,-38.59346 -174.32391,-46.37011 -262.49625,-34.65413 -22.09728,6.52711 -60.4442,2.49862 -64.693943,32.32891 2.08564,35.23469 42.491483,20.37721 64.071253,15.21248 79.6495,-12.30625 164.18591,-6.08677 238.32152,27.06185 11.30849,4.18564 21.10983,15.0805 34.11848,12.61089 z"
       style="fill:#000000" />
  </g>
</svg>
