<?xml version="1.0" encoding="UTF-8" standalone="no"?>
<svg
   xmlns:dc="http://purl.org/dc/elements/1.1/"
   xmlns:cc="http://creativecommons.org/ns#"
   xmlns:rdf="http://www.w3.org/1999/02/22-rdf-syntax-ns#"
   xmlns:svg="http://www.w3.org/2000/svg"
   xmlns="http://www.w3.org/2000/svg"
   version="1.1"
   id="svg2"
   viewBox="0 0 539.99998 499.99998"
   height="500"
   width="540">
  <defs
     id="defs4" />
  <metadata
     id="metadata7">
    <rdf:RDF>
      <cc:Work
         rdf:about="">
        <dc:format>image/svg+xml</dc:format>
        <dc:type
           rdf:resource="http://purl.org/dc/dcmitype/StillImage" />
        <dc:title></dc:title>
      </cc:Work>
    </rdf:RDF>
  </metadata>
  <g
     transform="translate(0,-552.36224)"
     id="layer1">
    <path
       id="path4109"
       d="m 464.02971,1051.0938 c -6.64023,-1.6133 -13.6741,-5.3526 -19.04156,-10.1225 -3.6696,-3.2611 -43.6722,-42.0556 -128.52683,-124.6451 l -5.4908,-5.34423 -10.36219,5.30501 c -18.20648,9.32094 -35.56281,15.16895 -55.83528,18.813 -10.73102,1.92895 -14.36149,2.18081 -32.12317,2.22856 -21.37515,0.0575 -29.17989,-0.77937 -46.81494,-5.01955 -51.41651,-12.36264 -95.900256,-46.24119 -122.125752,-93.0102 -10.79584,-19.25267 -18.60983,-42.45762 -22.29126,-66.19758 -1.13595,-7.32525 -1.47213,-14.19842 -1.41106,-28.84893 0.07,-16.79418 0.35439,-20.76991 2.24306,-31.35754 15.59555,-87.42665 84.648972,-151.52212 172.043842,-159.69129 97.69275,-9.13177 186.69184,57.01293 206.03875,153.12932 6.91134,34.33588 4.24974,72.11269 -7.35543,104.39749 -3.09196,8.60163 -9.49979,22.47 -14.13268,30.58712 l -2.90115,5.08299 66.71231,64.72881 c 41.09649,39.87461 67.863,66.46621 69.7091,69.25358 12.10013,18.26968 9.60929,42.52564 -5.9864,58.29594 -11.44006,11.5682 -27.02699,16.1377 -42.34856,12.4151 z M 234.74468,857.96906 c 27.75421,-6.21171 51.18234,-20.89714 67.9849,-42.61489 32.17267,-41.58404 32.17267,-98.94735 0,-140.53138 -16.82674,-21.74902 -40.20333,-36.37151 -68.38613,-42.77679 -9.44752,-2.14721 -34.5908,-2.14842 -44.6387,-0.003 -38.41633,8.20582 -69.94647,34.58883 -84.45935,70.67182 -17.286902,42.97995 -6.915029,91.48162 26.61881,124.47676 17.11966,16.84465 37.55164,27.28223 62.01238,31.67875 8.46659,1.52176 32.39842,0.9935 40.86809,-0.90211 z"
       style="fill:#000000" />
  </g>
</svg>
