<?xml version="1.0" encoding="UTF-8" standalone="no"?>
<svg
   xmlns:dc="http://purl.org/dc/elements/1.1/"
   xmlns:cc="http://creativecommons.org/ns#"
   xmlns:rdf="http://www.w3.org/1999/02/22-rdf-syntax-ns#"
   xmlns:svg="http://www.w3.org/2000/svg"
   xmlns="http://www.w3.org/2000/svg"
   version="1.1"
   id="svg2"
   viewBox="0 0 540.00001 500.00001"
   height="500"
   width="540">
  <defs
     id="defs4" />
  <metadata
     id="metadata7">
    <rdf:RDF>
      <cc:Work
         rdf:about="">
        <dc:format>image/svg+xml</dc:format>
        <dc:type
           rdf:resource="http://purl.org/dc/dcmitype/StillImage" />
        <dc:title></dc:title>
      </cc:Work>
    </rdf:RDF>
  </metadata>
  <g
     transform="translate(0,-552.36216)"
     id="layer1">
    <path
       id="path3347"
       d="M 45.27332,1049.3007 C 29.24682,1041.6629 17.056935,1024.3325 20,1006.2515 c 0,-140.64021 0,-281.28039 0,-421.92056 6.723392,-18.94345 24.550211,-34.62422 45.760564,-31.28826 140.761536,-1.26266 281.536946,-0.428 422.304716,-0.68048 18.94026,6.72189 34.62632,24.54286 31.28939,45.75171 0.97407,137.29539 1.14445,274.6195 -0.10562,411.91219 2.50314,23.4101 -20.84099,45.5724 -43.91169,42.335 -139.50052,-0.3944 -279.02334,0.9426 -418.505851,-1.0299 -3.87571,-0.3321 -7.976478,-0.2802 -11.558189,-2.0305 z m 292.64631,-54.28309 c 18.82681,-3.55121 36.76861,-10.57766 54.14537,-18.49042 -0.30084,-20.26116 0.81579,-40.63112 -1.11628,-60.80297 -27.99768,16.09552 -67.34166,28.07631 -95.10199,5.41956 -15.77259,-16.2572 -7.67949,-41.39248 -10.29477,-61.78682 -0.36912,-31.39964 -0.57392,-62.80095 -0.86097,-94.20141 31.32621,0 62.65242,0 93.97863,0 0,-20.33967 0,-40.67933 0,-61.019 -31.2559,0 -62.51181,0 -93.76771,0 0,-33.23799 0,-66.47599 0,-99.71398 -18.71663,0 -37.43326,0 -56.14989,0 -3.33238,39.29559 -23.83788,78.14017 -59.70499,96.66128 -8.10791,6.21177 -25.55124,5.28742 -21.07575,19.35181 0,14.8801 0,29.76021 0,44.64032 14.6357,0.27458 29.27141,0.54915 43.90711,0.82371 1.13882,57.008 -0.44153,114.16557 3.28604,171.05068 13.2699,43.95284 63.93739,62.65999 106.19814,61.07671 12.22758,-0.22409 24.48317,-0.99674 36.55706,-3.00947 z"
       style="fill:#000000" />
  </g>
</svg>
