<?xml version="1.0" encoding="UTF-8" standalone="no"?>
<svg
   xmlns:dc="http://purl.org/dc/elements/1.1/"
   xmlns:cc="http://creativecommons.org/ns#"
   xmlns:rdf="http://www.w3.org/1999/02/22-rdf-syntax-ns#"
   xmlns:svg="http://www.w3.org/2000/svg"
   xmlns="http://www.w3.org/2000/svg"
   version="1.1"
   id="svg2"
   viewBox="0 0 459.99998 499.99998"
   height="500"
   width="460">
  <defs
     id="defs4" />
  <metadata
     id="metadata7">
    <rdf:RDF>
      <cc:Work
         rdf:about="">
        <dc:format>image/svg+xml</dc:format>
        <dc:type
           rdf:resource="http://purl.org/dc/dcmitype/StillImage" />
        <dc:title></dc:title>
      </cc:Work>
    </rdf:RDF>
  </metadata>
  <g
     transform="translate(0,-552.36224)"
     id="layer1">
    <path
       id="path3975"
       d="m 159.73834,1051.9107 c -58.79795,-1.2714 -84.561953,-2.4775 -91.595753,-4.2879 -20.31487,-5.2288 -35.4883,-19.5247 -42.53112,-40.0717 -2.21979,-6.476 -3.17532,-17.3024 -4.89065,-55.41259 -1.88374,-41.85151 0.14115,-118.12922 3.56723,-134.3778 4.53921,-21.52775 22.11761,-39.66397 43.96625,-45.36145 21.79854,-5.68441 302.064753,-5.68441 323.863293,0 19.38167,5.05417 35.69124,20.08247 42.18337,38.86949 2.14208,6.19876 2.74037,10.65148 4.03243,30.01023 3.05853,45.82585 1.68405,141.77257 -2.30452,160.86792 -4.29962,20.5845 -20.26456,38.1834 -40.48674,44.6304 -7.90744,2.5209 -22.17345,3.3921 -78.27512,4.78 -36.11115,0.8934 -123.4898,1.0894 -157.52867,0.3534 z m 221.60003,-45.8086 c 6.26741,-1.5936 12.59442,-5.2656 16.42495,-9.53255 7.18605,-8.00475 10.0658,-16.82782 11.08344,-33.95771 0.88309,-14.86471 1.38313,-14.41659 -16.06523,-14.39694 -7.36101,0.008 -13.86855,0.34062 -14.46122,0.73851 -0.59914,0.40224 -1.37925,5.53246 -1.75704,11.5548 -0.37371,5.95726 -0.92218,11.80817 -1.2188,13.00204 -0.64177,2.58295 -6.12359,4.71473 -9.76116,3.79594 -4.25866,-1.07566 -5.26499,-5.50365 -5.26499,-23.16671 l 0,-15.78636 23.44812,0 c 22.18106,0 23.50284,-0.10291 24.46097,-1.90461 1.27776,-2.4027 1.28874,-34.33981 0.0153,-44.37491 -2.03306,-16.02082 -8.91366,-26.65418 -20.73208,-32.03962 -10.80681,-4.92447 -26.66807,-4.57697 -37.44614,0.82041 -9.47341,4.74404 -16.84303,13.62315 -20.13084,24.2542 -1.75359,5.6702 -1.90377,9.29094 -1.90377,45.89876 0,25.9044 0.38638,41.55989 1.10965,44.96096 4.46488,20.99567 21.01718,33.32189 42.43089,31.59749 3.22884,-0.26 7.62444,-0.9187 9.76799,-1.4637 z M 360.47125,901.03667 c 0.2722,-7.88854 0.69148,-10.14022 2.20021,-11.81605 2.12989,-2.36581 7.98973,-2.82635 10.68197,-0.83953 1.82134,1.3441 3.58338,10.03686 3.59269,17.72407 l 0.006,4.67718 -8.40842,0 -8.40841,0 0.33629,-9.74567 z M 166.39837,1004.7837 c 2.7821,-0.8315 7.92544,-3.4872 11.42966,-5.90151 l 6.37129,-4.38974 0,3.01219 c 0,6.60906 0.50251,6.82146 16.14424,6.82146 12.95717,0 14.20182,-0.1567 15.13138,-1.9047 0.67051,-1.2608 1.01286,-25.1997 1.01286,-70.8259 0,-61.34288 -0.16906,-69.09149 -1.53754,-70.46869 -2.25651,-2.27088 -26.9569,-2.27088 -29.21339,0 -1.35941,1.36805 -1.53755,7.64205 -1.53755,54.14732 l 0,52.59998 -4.64759,3.4315 c -6.06671,4.47931 -9.55894,4.61476 -10.39592,0.40323 -0.33634,-1.6924 -0.61152,-27.08213 -0.61152,-56.42163 0,-40.1773 -0.28981,-53.63619 -1.17413,-54.52613 -1.63324,-1.64366 -27.32854,-1.64366 -28.96179,0 -0.88816,0.89381 -1.17413,16.16706 -1.17413,62.70816 0,69.78167 0.0243,70.04993 6.99054,77.06046 5.66226,5.6984 12.77483,7.0629 22.17359,4.254 z m 132.2783,-1.1193 c 4.86701,-1.9952 10.26809,-7.65011 12.90384,-13.51031 l 2.26197,-5.02911 0,-51.69521 0,-51.69521 -2.34168,-5.84982 c -2.96934,-7.41784 -9.72099,-14.39373 -15.64571,-16.16534 -2.35907,-0.70542 -6.90414,-1.26999 -10.10012,-1.25461 -4.78719,0.0231 -6.92471,0.64411 -12.1333,3.52534 -3.47733,1.92356 -6.5274,3.49736 -6.77795,3.49736 -0.25054,0 -0.45553,-12.13789 -0.45553,-26.97309 0,-23.68758 -0.18852,-27.0459 -1.54769,-27.57078 -2.99683,-1.15732 -27.35233,-0.65985 -28.58824,0.58392 -1.70272,1.71358 -1.70272,189.90336 0,191.61686 1.23591,1.2438 25.59141,1.7413 28.58824,0.584 0.85123,-0.3288 1.54769,-1.626 1.54769,-2.8827 l 0,-2.285 5.91124,3.0681 c 9.12967,4.7385 18.09593,5.4305 26.37724,2.0356 z m -28.61934,-27.65573 -2.69071,-1.67886 0,-42.62105 0,-42.62103 3.3213,-1.5939 c 4.32678,-2.07644 7.96753,-1.1263 9.86983,2.5758 2.25406,4.38662 2.21974,82.23844 -0.0377,85.48188 -1.86453,2.67894 -6.57225,2.88464 -10.46274,0.45716 z m -157.47975,27.13573 c 0.89371,-0.8994 1.17413,-20.0595 1.17413,-80.22429 l 0,-79.04272 14.43197,-0.2725 14.43198,-0.27248 0.27033,-15.68063 c 0.20489,-11.8851 -0.032,-15.87367 -0.97844,-16.47816 -1.90419,-1.21611 -88.565933,-1.0333 -90.840263,0.19163 -1.73993,0.93711 -1.89254,2.1918 -1.89254,15.5578 0,9.99482 0.36694,14.90776 1.17412,15.72009 0.79976,0.80486 5.47926,1.1816 14.67658,1.1816 l 13.50245,0 0,78.70332 c 0,70.23558 0.16543,78.86974 1.53756,80.25064 1.26315,1.2712 4.1967,1.5474 16.43777,1.5474 10.284483,0 15.263943,-0.3661 16.074353,-1.1817 z M 221.65987,741.02956 c -9.25585,-3.03323 -16.71614,-9.20023 -20.70527,-17.11585 -3.83917,-7.61809 -4.17777,-12.69578 -3.85564,-57.82202 l 0.30928,-43.32551 2.55311,-5.41569 c 5.02378,-10.65655 13.42904,-16.5204 27.04966,-18.87096 17.77133,-3.06685 33.10371,4.45669 40.22336,19.73746 l 2.57835,5.53386 0.31429,42.83317 c 0.22399,30.52553 -0.0205,44.38932 -0.8508,48.24886 -2.54763,11.84216 -9.72017,20.96505 -19.47985,24.77684 -6.83967,2.67132 -21.98538,3.43561 -28.13649,1.41984 z m 19.10968,-25.04353 c 1.67286,-1.57263 3.2298,-4.25233 3.57565,-6.15419 0.33693,-1.85276 0.48108,-21.24222 0.32036,-43.08769 l -0.29225,-39.71904 -2.69456,-2.33174 c -3.76661,-3.25943 -8.9218,-4.06366 -13.12341,-2.0473 -6.05932,2.9079 -6.19754,3.94856 -6.19144,46.61417 0.003,23.13474 0.40227,39.62548 1.01213,41.83534 2.14667,7.77846 11.51851,10.4135 17.39352,4.89045 z m 65.02531,24.49809 c -4.81368,-1.18328 -7.85016,-3.60044 -10.28554,-8.18773 l -2.21407,-4.17045 -0.27221,-63.26509 -0.27224,-63.26509 12.21941,0 12.2194,0 0.28331,54.89539 c 0.15582,30.19246 0.64517,55.63025 1.08745,56.5284 0.44227,0.89817 2.03629,2.14666 3.54225,2.77442 3.46967,1.44634 7.61555,-0.19658 13.51012,-5.35375 l 4.15837,-3.63816 0,-52.60315 0,-52.60315 12.71971,0 12.7197,0 0,68.92695 0,68.92694 -12.7197,0 -12.71971,0 0,-7.46379 0,-7.46379 -5.62603,5.05535 c -9.41862,8.46326 -20.67443,12.79351 -28.35022,10.9067 z m -169.83948,-1.66504 c -0.37291,-0.37528 -0.67802,-17.46527 -0.67802,-37.97776 l 0,-37.29544 -16.63346,-55.0287 c -9.1484,-30.2658 -16.63346,-55.28212 -16.63346,-55.59183 0,-0.30972 6.31472,-0.56312 14.03272,-0.56312 l 14.03271,0 9.20521,36.51763 c 9.06397,35.95728 10.03273,39.28978 11.10732,38.20835 0.41213,-0.41476 9.70571,-38.54434 17.67346,-72.51047 0.50938,-2.1715 0.80123,-2.21551 14.68844,-2.21551 8.06232,0 14.16872,0.39388 14.16872,0.91392 0,0.50266 -7.15483,24.09783 -15.89963,52.43371 l -15.89963,51.51979 -0.48923,40.86383 -0.48921,40.86384 -13.75397,0.27204 c -7.56468,0.14962 -14.05907,-0.035 -14.43197,-0.41028 z"
       style="fill:#000000" />
  </g>
</svg>
