<?xml version="1.0" encoding="UTF-8" standalone="no"?>
<svg
   xmlns:dc="http://purl.org/dc/elements/1.1/"
   xmlns:cc="http://creativecommons.org/ns#"
   xmlns:rdf="http://www.w3.org/1999/02/22-rdf-syntax-ns#"
   xmlns:svg="http://www.w3.org/2000/svg"
   xmlns="http://www.w3.org/2000/svg"
   version="1.1"
   id="svg2"
   viewBox="0 0 539.99998 499.99998"
   height="500"
   width="540">
  <defs
     id="defs4" />
  <metadata
     id="metadata7">
    <rdf:RDF>
      <cc:Work
         rdf:about="">
        <dc:format>image/svg+xml</dc:format>
        <dc:type
           rdf:resource="http://purl.org/dc/dcmitype/StillImage" />
        <dc:title></dc:title>
      </cc:Work>
    </rdf:RDF>
  </metadata>
  <g
     transform="translate(0,-552.36224)"
     id="layer1">
    <path
       id="path3658"
       d="m 264.7297,582.36246 c -52.53361,0.0169 -105.06436,1.0226 -157.53738,3.188 -39.248121,-0.98259 -76.989501,30.40467 -81.963951,67.93279 -2.60186,57.68806 -13.76049,141.95238 7.63356,201.48113 15.74262,23.315 40.57795,47.71423 71.526781,46.4262 l 0,120.97162 c 41.78162,-40.32418 83.56113,-80.64747 125.34277,-120.97162 74.50499,-0.0495 154.60735,3.77745 233.94552,-6.18024 20.84844,-9.84445 40.65938,-27.77255 46.86291,-50.00575 9.99342,-65.41842 19.80256,-162.44636 -14.01503,-228.44035 -17.61587,-22.02833 -45.79549,-33.19047 -74.24269,-31.6521 -52.4835,-1.79322 -105.01888,-2.76667 -157.55249,-2.74968 z m 102.57213,135.05322 c 24.34318,-1.0649 44.54276,31.92517 22.22624,48.26711 -8.43662,9.09965 -22.92717,13.2773 -34.01228,5.95523 -25.47391,-10.69534 -19.94535,-48.98425 6.87444,-53.54148 1.64834,-0.38874 3.28873,-0.60986 4.9116,-0.68086 z m -204.78436,0.038 c 0.77491,0.007 1.55468,0.0506 2.34086,0.12851 24.67335,0.0989 38.56455,32.51035 18.73609,48.10055 -11.07108,12.65988 -30.69322,12.6129 -41.71538,0 -21.44822,-15.75336 -3.38408,-48.46918 20.63843,-48.22913 z m 102.96531,0 c 0.77491,0.007 1.5577,0.0506 2.3439,0.12851 24.67332,0.0989 38.56152,32.51035 18.73307,48.10055 -11.0711,12.65986 -30.69021,12.6129 -41.71237,0 -21.44823,-15.75334 -3.38712,-48.46918 20.6354,-48.22913 z"
       style="fill:#000000" />
  </g>
</svg>
