<?xml version="1.0" encoding="UTF-8" standalone="no"?>
<svg
   xmlns:dc="http://purl.org/dc/elements/1.1/"
   xmlns:cc="http://creativecommons.org/ns#"
   xmlns:rdf="http://www.w3.org/1999/02/22-rdf-syntax-ns#"
   xmlns:svg="http://www.w3.org/2000/svg"
   xmlns="http://www.w3.org/2000/svg"
   version="1.1"
   id="svg2"
   viewBox="0 0 539.99998 499.99998"
   height="500"
   width="540">
  <defs
     id="defs4" />
  <metadata
     id="metadata7">
    <rdf:RDF>
      <cc:Work
         rdf:about="">
        <dc:format>image/svg+xml</dc:format>
        <dc:type
           rdf:resource="http://purl.org/dc/dcmitype/StillImage" />
        <dc:title></dc:title>
      </cc:Work>
    </rdf:RDF>
  </metadata>
  <g
     transform="translate(0,-552.36224)"
     id="layer1">
    <path
       id="path4076"
       d="M 84.494179,1049.5651 C 45.423165,1036.271 17.652796,995.94805 21.273373,954.48439 19.695923,845.87588 18.822932,737.17616 22.16642,628.60163 c 4.559925,-35.66044 33.235175,-63.62815 65.316932,-76.23941 122.005608,0 244.011228,0 366.016838,0 33.79336,14.91996 64.57096,45.67453 63.94841,84.83199 3.60961,109.8328 3.60961,219.84144 0,329.67424 0.48999,39.08965 -30.67402,71.72045 -65.36262,84.83615 -117.56057,-0.099 -235.14642,1.8729 -352.687155,-0.4386 -4.986789,-0.3195 -10.045852,-0.3921 -14.904646,-1.7009 z M 246.97032,973.38698 c 48.23248,-20.54524 82.24599,-63.5053 111.82492,-105.25239 30.10172,-46.63247 54.47265,-97.60122 69.31568,-151.15979 8.42596,-25.5559 -8.62148,-57.29639 -36.83178,-58.61584 -24.15879,-3.76944 -48.49812,2.84773 -67.62122,17.97137 -20.94851,16.20983 -42.4031,36.31693 -48.52863,63.03667 21.30772,1.49162 51.74371,10.76935 41.98642,40.48341 -2.96095,27.8962 -18.1739,53.59596 -35.36468,75.20177 -17.97382,22.2696 -41.21914,-9.986 -44.85834,-28.12925 -11.42389,-47.36247 -8.10901,-99.09497 -31.79792,-142.95829 -13.46447,-24.04108 -45.65874,-17.75553 -64.13192,-3.77834 -28.02437,20.02729 -53.318636,43.55668 -79.70861,65.64791 8.328654,16.90354 26.783176,18.99343 43.24308,12.29767 28.75301,-5.2107 28.84638,32.64266 37.25098,51.02674 16.90349,47.87831 21.66099,100.17958 46.4577,145.06888 11.43792,22.39723 36.3744,29.05378 58.76432,19.15948 z"
       style="fill:#000000" />
  </g>
</svg>
