<?xml version="1.0" encoding="UTF-8" standalone="no"?>
<svg
   xmlns:dc="http://purl.org/dc/elements/1.1/"
   xmlns:cc="http://creativecommons.org/ns#"
   xmlns:rdf="http://www.w3.org/1999/02/22-rdf-syntax-ns#"
   xmlns:svg="http://www.w3.org/2000/svg"
   xmlns="http://www.w3.org/2000/svg"
   version="1.1"
   id="svg2"
   viewBox="0 0 539.99998 499.99998"
   height="500"
   width="540">
  <defs
     id="defs4" />
  <metadata
     id="metadata7">
    <rdf:RDF>
      <cc:Work
         rdf:about="">
        <dc:format>image/svg+xml</dc:format>
        <dc:type
           rdf:resource="http://purl.org/dc/dcmitype/StillImage" />
        <dc:title></dc:title>
      </cc:Work>
    </rdf:RDF>
  </metadata>
  <g
     transform="translate(0,-552.36224)"
     id="layer1">
    <path
       id="path4148"
       d="M 242.54971,1051.9287 C 148.98655,1041.6049 64.438709,975.13398 33.874794,885.86364 17.547169,841.89719 16.858541,793.0966 25.448872,747.41325 37.244176,696.05065 65.55591,649.165 105.51226,614.79946 c 76.44859,-71.1282 199.46062,-82.25701 288.95749,-29.41482 35.92252,21.20166 66.57979,51.81395 89.19308,86.76712 26.43917,43.01792 39.35274,93.81788 35.74124,144.25544 -2.87816,103.28325 -79.5438,198.1043 -178.42356,226.2654 -31.63496,9.6692 -65.61813,10.4647 -98.4308,9.2561 z m -6.04344,-123.19397 c 31.465,-6.13164 60.98919,-35.43877 53.97888,-69.42661 -1.36807,-29.38437 -33.06501,-40.60035 -45.9775,-63.15262 10.9421,-18.95196 35.39624,-31.22286 35.48289,-55.85078 7.39409,-18.67102 -22.68993,-42.90918 6.29412,-49.49502 24.40995,-13.75068 -1.04615,-20.88191 -16.50482,-17.37032 -34.91904,1.48999 -75.85427,-6.75963 -104.41141,18.57589 -29.19974,20.71939 -28.87924,68.2492 -0.80665,89.62631 14.27897,15.66993 50.17518,8.63956 40.31379,37.42908 -31.12396,3.6949 -67.4379,17.34428 -76.56674,50.8121 -7.88776,26.03557 14.38556,48.82466 38.08533,54.92497 22.44723,7.22155 47.01563,8.94074 70.11211,3.927 z M 199.475,906.51924 c -22.81835,-1.87591 -44.04952,-30.51416 -26.47101,-50.23229 16.29131,-17.16729 45.38945,-21.38829 65.63266,-9.70777 28.81953,10.8766 26.03858,54.61645 -6.04009,57.88178 -10.73485,2.80227 -22.13239,4.08752 -33.12156,2.05828 z m 9.78971,-131.64378 c -23.75911,-11.85748 -34.61264,-46.89872 -20.62621,-69.71608 21.85942,-23.39954 51.94842,9.2139 52.292,33.44973 3.57118,18.60208 -8.87196,45.98816 -31.66579,36.26635 z m 157.62391,27.70319 c 15.00768,-0.34457 30.01534,-0.68912 45.02302,-1.03367 -2.11023,-6.56907 4.63717,-21.63469 -4.23791,-21.7147 l -42.75268,-1.78141 c -0.83965,-15.77777 0.53215,-31.93272 -3.24423,-47.36253 -25.97078,-12.15227 -21.37469,20.1835 -21.23004,36.16532 3.26211,11.91991 -3.68704,13.85957 -14.13491,12.37967 l -33.83465,0.77555 c 2.11152,6.52953 -4.63997,21.72154 4.24047,21.63529 l 43.72909,1.00235 c 0.30851,15.86555 -0.90304,31.88314 1.39325,47.61229 11.61713,2.4677 25.88622,2.89269 21.41512,-12.48346 1.7007,-10.15586 -2.2133,-32.08411 3.63347,-35.1947 z"
       style="fill:#000000" />
  </g>
</svg>
