<?xml version="1.0" encoding="UTF-8" standalone="no"?>
<svg
   xmlns:dc="http://purl.org/dc/elements/1.1/"
   xmlns:cc="http://creativecommons.org/ns#"
   xmlns:rdf="http://www.w3.org/1999/02/22-rdf-syntax-ns#"
   xmlns:svg="http://www.w3.org/2000/svg"
   xmlns="http://www.w3.org/2000/svg"
   version="1.1"
   id="svg2"
   viewBox="0 0 539.99998 499.99998"
   height="500"
   width="540">
  <defs
     id="defs4" />
  <metadata
     id="metadata7">
    <rdf:RDF>
      <cc:Work
         rdf:about="">
        <dc:format>image/svg+xml</dc:format>
        <dc:type
           rdf:resource="http://purl.org/dc/dcmitype/StillImage" />
        <dc:title></dc:title>
      </cc:Work>
    </rdf:RDF>
  </metadata>
  <g
     transform="translate(0,-552.36224)"
     id="layer1">
    <path
       id="path3615"
       d="M 28.27068,1004.1196 C 21.134,997.00682 20,975.12192 20,844.5089 c 0,-130.61299 1.134,-152.49792 8.27068,-159.6107 6.80453,-6.78128 22.67537,-8.24265 89.52937,-8.24265 l 81.25874,0 L 170,702.88263 c -28.58889,25.80273 -29.61111,26.22709 -63.21363,26.22709 l -34.15479,0 0,118.02189 0,118.02191 163.15789,0 163.1579,0 0.16263,-40.65201 0.16263,-40.65199 22.72074,-17.0476 c 12.49642,-9.37619 24.26531,-17.0476 26.15305,-17.0476 1.88779,0 3.43232,31.34084 3.43232,69.64601 0,54.54549 -1.77642,72.17379 -8.19316,81.30397 l -8.19321,11.6579 -199.32563,0 c -174.18753,0 -200.36863,-1.0396 -207.59627,-8.2426 z m 118.1229,-126.82685 c 0.0421,-2.16373 3.57358,-18.71093 7.84626,-36.77194 22.35321,-94.48833 87.32279,-157.4648 172.33911,-167.0529 l 30.26316,-3.41267 0,-38.84651 0,-38.84651 81.57894,61.44219 C 483.28947,687.59802 520,716.89577 520,718.91106 c 0,2.01476 -36.71053,31.12578 -81.57895,64.6912 l -81.57894,61.02781 0,-42.7769 0,-42.77743 -38.00027,3.51967 c -66.26942,6.13871 -115.29742,36.30721 -152.30058,93.71567 -15.60258,24.20655 -20.30837,29.10735 -20.14768,20.98167 z"
       style="fill:#000000" />
  </g>
</svg>
