<?xml version="1.0" encoding="UTF-8" standalone="no"?>
<svg
   xmlns:dc="http://purl.org/dc/elements/1.1/"
   xmlns:cc="http://creativecommons.org/ns#"
   xmlns:rdf="http://www.w3.org/1999/02/22-rdf-syntax-ns#"
   xmlns:svg="http://www.w3.org/2000/svg"
   xmlns="http://www.w3.org/2000/svg"
   width="540"
   height="500"
   viewBox="0 0 539.99998 499.99998"
   id="svg2"
   version="1.1">
  <defs
     id="defs4" />
  <metadata
     id="metadata7">
    <rdf:RDF>
      <cc:Work
         rdf:about="">
        <dc:format>image/svg+xml</dc:format>
        <dc:type
           rdf:resource="http://purl.org/dc/dcmitype/StillImage" />
        <dc:title></dc:title>
      </cc:Work>
    </rdf:RDF>
  </metadata>
  <g
     id="layer1"
     transform="matrix(0.99969919,0,0,0.98857423,0.16261086,-540.74808)">
    <path
       id="path3500"
       d="m 179.58433,587.46035 c 0,0 -3.97123,36.78555 -4.76066,55.15811 -39.50676,0.9063 -79.459104,-2.68862 -118.556621,4.10375 -27.001626,4.35582 -38.348065,32.26649 -35.511044,56.8409 -0.913489,87.62439 -1.707342,175.3128 0.572687,262.91791 -1.987183,24.60783 9.00213,55.49068 38.912686,53.04228 96.879892,4.1608 193.911382,2.1728 290.864672,2.7428 l 117.36344,0.096 c 30.94547,1.3925 45.54719,-18.8491 46.81638,-37.56599 7.19501,-57.51169 3.57587,-115.75073 4.70794,-173.58123 -0.91198,-44.0483 2.50748,-88.65406 -5.22757,-132.21205 -6.1319,-26.04946 -34.97315,-36.41506 -59.18247,-34.7273 -31.38256,-1.10084 -62.78509,-1.48917 -94.17784,-2.21931 -0.78027,-18.18555 -4.7607,-54.59597 -4.7607,-54.59597 z M 268.1148,694.5834 c 37.51857,-1.90287 74.51897,13.70843 99.59479,41.62815 26.08368,23.82808 42.64471,58.00909 40.81755,93.73888 1.40466,33.96476 -6.46237,69.29549 -29.57746,95.21298 -25.66144,30.59107 -63.38513,54.28252 -104.61653,51.95591 -41.43665,3.14666 -84.05368,-12.36898 -110.96154,-44.64959 -26.2482,-25.62561 -36.23596,-62.80426 -35.59337,-98.61195 -2.45977,-35.39118 11.92029,-70.38125 37.72402,-94.5604 24.66601,-28.20267 60.8117,-46.02727 98.64125,-44.68149 z m -47.58376,63.95684 c -13.30222,7.19194 -22.83375,19.56515 -33.87544,29.6831 15.91037,16.16616 31.82073,32.33234 47.73108,48.49852 -15.87269,15.82414 -31.74945,31.6442 -47.63028,47.46017 11.14763,11.43957 22.2973,22.87716 33.449,34.31277 16.04532,-16.01725 32.09265,-32.03248 48.14199,-48.0457 15.70724,15.99066 31.41859,31.97727 47.13406,47.95984 11.35496,-11.22829 22.71395,-22.45248 34.07698,-33.6726 -15.90315,-16.16037 -31.80833,-32.31873 -47.71555,-48.4751 15.86751,-15.81895 31.7391,-31.63381 47.61476,-47.44458 -10.89194,-10.37351 -20.07299,-23.32964 -33.65055,-30.27642 -18.2917,11.60317 -31.92232,29.05757 -47.44418,43.99377 -15.70093,-14.86855 -29.77988,-31.96516 -47.83187,-43.99377 z"
       style="fill:#000000" />
  </g>
</svg>
