<?xml version="1.0" encoding="UTF-8" standalone="no"?>
<svg
   xmlns:dc="http://purl.org/dc/elements/1.1/"
   xmlns:cc="http://creativecommons.org/ns#"
   xmlns:rdf="http://www.w3.org/1999/02/22-rdf-syntax-ns#"
   xmlns:svg="http://www.w3.org/2000/svg"
   xmlns="http://www.w3.org/2000/svg"
   width="340"
   height="500"
   viewBox="0 0 339.99999 500.00001"
   id="svg2"
   version="1.1">
  <defs
     id="defs4" />
  <metadata
     id="metadata7">
    <rdf:RDF>
      <cc:Work
         rdf:about="">
        <dc:format>image/svg+xml</dc:format>
        <dc:type
           rdf:resource="http://purl.org/dc/dcmitype/StillImage" />
        <dc:title></dc:title>
      </cc:Work>
    </rdf:RDF>
  </metadata>
  <path
     id="path3521"
     d="m 200.28556,3.9134086e-6 c -7.00163,0 -31.44964,24.9750500865914 -31.44964,32.1284520865914 0,8.565223 9.11073,6.735115 12.62771,-2.535775 1.70547,-4.495661 9.30679,-10.561094 16.8924,-13.478471 C 211.08557,11.218577 212.43017,3.9134086e-6 200.28556,3.9134086e-6 Z M 267.51192,13.489007 c -15.88623,0 -21.63355,2.348813 -22.97221,9.380223 -1.3048,6.85339 5.85338,12.786163 26.59202,22.03801 31.49029,14.0483 37.28615,10.190671 24.67288,-16.429868 -6.00151,-12.66638 -10.38469,-14.988365 -28.29269,-14.988365 z m -51.68617,14.946291 c -3.06544,0.186935 -6.47369,2.266928 -12.11801,6.007979 -29.97826,19.869317 -9.14785,59.620853 40.61354,77.498663 26.84216,9.64357 32.19871,21.33447 8.60742,18.79201 -10.71366,-1.15466 -13.99764,1.35402 -16.06027,12.26849 -1.42603,7.54583 -0.51699,15.02068 2.02315,16.60872 8.67317,5.42228 4.6313,11.86428 -9.72564,15.50922 -19.41411,4.9289 -41.4347,21.42883 -55.75845,41.77699 -13.68149,19.43562 -22.0825,63.04883 -14.06833,73.03214 2.94732,3.67148 3.86323,10.62294 2.03354,15.44609 -2.5698,6.77415 -5.00218,7.36334 -10.67739,2.59889 -10.70414,-8.98623 -13.66959,-31.81177 -8.06132,-62.0105 2.70689,-14.57563 3.71142,-27.72177 2.23636,-29.21391 -1.47509,-1.49209 -14.45942,-2.94533 -28.8596,-3.23021 -31.312863,-0.61918 -41.875479,-8.88894 -59.232632,-46.37505 -8.885185,-19.18932 -10.882637,-28.75901 -6.849522,-32.8387 4.033115,-4.07969 9.610251,2.89542 19.128767,23.9267 13.0528,28.8403 30.591799,45.27141 41.222047,38.6257 10.77227,-6.73453 4.70474,-51.36147 -14.104726,-103.787517 C 89.466851,74.374934 85.470751,70.138639 74.528678,70.138639 c -18.291143,0 -41.261087,26.153605 -49.678652,56.565461 -14.442937,52.18077 5.199946,166.02942 34.783378,201.59333 12.617054,15.16763 13.194597,19.06612 13.194597,88.95172 l 0,73.09003 22.670561,5.22409 c 12.467638,2.87296 46.669798,4.8392 76.005418,4.36658 l 53.34006,-0.86281 1.45624,-89.825 1.46144,-89.83029 17.95858,-13.85727 c 24.44237,-18.85833 65.63265,-75.30292 72.01637,-98.6897 5.71019,-20.9196 0.43297,-61.638 -13.76669,-106.23383 -7.39749,-23.232808 -11.28723,-27.546436 -34.80417,-38.567838 -14.56327,-6.825161 -32.20634,-17.8502 -39.20413,-24.500116 -6.82286,-6.483802 -10.19469,-9.368209 -14.13593,-9.127698 z m -81.77839,9.553825 c -9.45104,-0.133064 -19.80897,3.060891 -25.27099,9.217152 -7.6488,8.621007 -7.24841,12.832467 4.59237,48.426793 7.1325,21.440842 14.46328,50.577732 16.28909,64.746192 1.82585,14.16838 5.77889,28.91624 8.78947,32.77557 3.01059,3.85929 11.6842,6.28956 19.26918,5.39771 15.63887,-1.83889 15.33526,3.1069 5.48692,-90.64574 -3.27305,-31.15811 -8.43767,-59.684825 -11.47832,-63.394118 -3.52485,-4.299971 -10.32689,-6.420098 -17.67772,-6.523559 z m 45.45554,53.956038 0,29.119229 c 0,16.01707 1.45947,32.96384 3.24014,37.65769 3.89958,10.27948 19.93047,11.20616 27.80383,1.60983 3.12309,-3.8065 8.02956,-13.17972 10.9062,-20.83325 4.77062,-12.69253 3.15763,-15.39275 -18.35904,-30.73433 L 179.5029,91.945161 Z"
     style="fill:#000000" />
</svg>
