<?xml version="1.0" encoding="UTF-8" standalone="no"?>
<svg
   xmlns:dc="http://purl.org/dc/elements/1.1/"
   xmlns:cc="http://creativecommons.org/ns#"
   xmlns:rdf="http://www.w3.org/1999/02/22-rdf-syntax-ns#"
   xmlns:svg="http://www.w3.org/2000/svg"
   xmlns="http://www.w3.org/2000/svg"
   version="1.1"
   id="svg2"
   viewBox="0 0 539.99998 499.99998"
   height="500"
   width="540">
  <defs
     id="defs4" />
  <metadata
     id="metadata7">
    <rdf:RDF>
      <cc:Work
         rdf:about="">
        <dc:format>image/svg+xml</dc:format>
        <dc:type
           rdf:resource="http://purl.org/dc/dcmitype/StillImage" />
        <dc:title></dc:title>
      </cc:Work>
    </rdf:RDF>
  </metadata>
  <g
     transform="translate(0,-552.36224)"
     id="layer1">
    <path
       id="path3385"
       d="M 247.24787,1050.7085 C 145.07913,1042.3694 52.477643,965.23194 28.058167,865.27105 2.0421716,770.02324 39.188274,661.66087 118.70825,602.93699 167.933,564.72281 231.5053,547.37313 293.3521,553.11426 c 109.97585,8.08951 206.76715,98.41068 223.23093,207.36084 17.53718,97.16265 -29.09014,202.03174 -113.87155,253.0075 -45.91537,28.7277 -101.52198,42.5562 -155.46361,37.2259 z m 66.35695,-74.39344 c 28.14389,-7.52038 55.68761,-21.28371 75.40479,-43.09443 -5.2344,-33.91572 -35.01343,9.84197 -52.65918,13.07348 -57.02948,29.30751 -133.14916,9.55377 -169.17093,-43.49657 -18.22012,-15.89496 -14.70334,-50.16445 -32.72784,-60.80412 -26.38347,6.80781 2.01106,45.08507 8.0685,61.19152 28.41575,49.24522 84.53048,80.13335 141.36854,76.82631 9.98929,-0.29017 19.98377,-1.38099 29.71612,-3.69619 z m -8.1115,-41.14469 c 52.49035,-13.63619 91.45768,-69.00731 82.55135,-123.32357 -6.35244,-57.35786 -63.34109,-103.54689 -120.9603,-96.85694 -28.7021,0.52662 -53.64027,17.07867 -75.35134,34.36291 0,-30.31875 0,-60.6375 0,-90.95625 52.46469,-0.60138 105.08083,1.4834 157.42522,-1.53454 16.56795,-28.64945 -33.79932,-18.05491 -50.25276,-20.22264 -41.21131,0.35835 -82.57654,-1.20115 -123.67365,1.83295 -7.10651,22.99528 -1.76154,49.7434 -3.52105,74.13647 2.94894,22.62294 -6.86826,52.17826 7.6111,69.93192 26.11302,0.30095 36.39447,-36.19036 63.18268,-40.58421 47.98561,-20.89253 108.37539,9.30989 121.85073,59.54554 16.09655,49.75978 -20.30618,106.79957 -71.67999,114.55115 -21.41936,4.55586 -43.61487,-0.1887 -62.7187,-10.32929 1.06501,-32.30978 -2.79752,-65.22203 3.7096,-97.00432 11.14023,-27.35333 49.9077,-37.9785 71.88365,-16.82413 30.37007,21.16016 17.60143,75.60888 -19.56448,79.73004 -13.74052,-1.96594 -46.30574,0.39438 -29.57367,20.51061 26.21217,5.93473 55.75715,-0.94913 72.8061,-22.84814 25.19795,-29.28613 17.57552,-77.91228 -14.93349,-98.63219 -34.94687,-24.78609 -90.8996,-6.70867 -103.16135,34.85199 -4.86612,27.26768 -2.36822,55.17349 -3.08932,82.75258 -12.68055,-10.49689 -15.00285,-46.53502 -36.66459,-30.66353 -0.5859,24.94601 22.02341,45.31182 40.24578,60.3831 26.55118,20.18702 61.91408,25.64816 93.87848,17.19049 z m -37.13421,-88.87824 c 8.41668,-15.87957 15.57978,10.01317 27.13723,5.02226 16.29097,-10.36914 -18.58937,-19.55657 -3.96867,-28.0716 11.99213,-5.53495 10.37477,-20.65183 -3.73738,-17.50132 -9.27168,14.05794 -16.71339,10.03555 -26.32406,-1.11126 -25.92148,1.72183 5.46915,20.449 -0.97477,27.60718 -16.37562,8.87677 -8.24293,30.31291 7.86765,14.05474 z M 380.89828,726.2929 c 6.96872,-23.2597 -33.78509,-33.02948 -50.66955,-43.05196 -30.95959,-10.44045 -65.65089,-11.15833 -97.23996,-3.02581 -25.75087,-0.36978 -13.62556,35.56085 7.36063,18.90454 42.5283,-10.59306 89.83001,-2.46952 123.67365,26.2536 5.61084,3.92904 11.77592,9.10368 16.87523,0.91963 z"
       style="fill:#000000" />
  </g>
</svg>
