<?xml version="1.0" encoding="UTF-8" standalone="no"?>
<svg
   xmlns:dc="http://purl.org/dc/elements/1.1/"
   xmlns:cc="http://creativecommons.org/ns#"
   xmlns:rdf="http://www.w3.org/1999/02/22-rdf-syntax-ns#"
   xmlns:svg="http://www.w3.org/2000/svg"
   xmlns="http://www.w3.org/2000/svg"
   width="540"
   height="500"
   viewBox="0 0 539.99998 500.00001"
   id="svg2"
   version="1.1">
  <defs
     id="defs4" />
  <metadata
     id="metadata7">
    <rdf:RDF>
      <cc:Work
         rdf:about="">
        <dc:format>image/svg+xml</dc:format>
        <dc:type
           rdf:resource="http://purl.org/dc/dcmitype/StillImage" />
        <dc:title></dc:title>
      </cc:Work>
    </rdf:RDF>
  </metadata>
  <path
     id="path3519"
     d="m 273.65965,138.5028 c -26.639,0 -30.03087,2.62331 -63.24489,48.88555 -21.55398,30.02152 -23.09232,38.20262 -8.91874,47.48952 17.3419,11.36283 44.22307,-3.06061 64.09449,-34.3946 6.48203,-10.22107 11.78263,-15.56606 11.78263,-11.87835 0,10.30517 14.05937,17.99579 62.24373,34.05157 24.33791,8.10972 46.98078,17.47226 50.31755,20.80906 8.3637,8.36375 7.60052,20.81931 -1.63132,26.58472 -6.0615,3.78541 -7.25579,8.11744 -5.61609,20.34237 1.83534,13.68311 0.83118,16.10038 -8.44416,20.32644 -6.69622,3.05103 -10.98141,8.6871 -11.77072,15.48813 -0.70743,6.09796 -4.90173,12.29864 -9.76425,14.43512 -4.68933,2.06027 -10.21312,7.584 -12.27331,12.27325 -2.65366,6.03959 -8.21931,8.8969 -19.08598,9.79625 -16.97466,1.40488 -20.45986,7.29063 -6.13464,10.35867 5.06215,1.08432 22.13401,1.65569 37.94057,1.27241 26.36276,-0.63954 30.76333,-2.07522 53.18135,-17.38278 l 24.4388,-16.68875 1.10892,-75.62582 c 1.04623,-71.25748 0.63554,-76.05532 -7.092,-83.04879 C 412.03978,170.05659 301.38221,138.5028 273.65965,138.5028 Z m -60.62033,17.60215 c -1.68252,0.0143 -3.87417,0.45245 -6.57339,1.34022 -4.87279,1.60265 -28.18594,6.819 -51.80928,11.59117 l -42.95036,8.67942 -1.11683,71.97216 -1.11684,71.97616 13.97243,1.63138 c 26.2772,3.06772 45.65275,-0.79663 49.82289,-9.93585 7.1072,-15.57588 16.53884,-18.09208 30.13867,-8.03725 6.75173,4.99175 15.57215,9.10545 19.60048,9.13813 9.79616,0.0796 42.65575,11.67096 49.73516,17.54631 3.11131,2.58218 10.81613,4.15573 17.12349,3.49411 8.19311,-0.85943 12.76042,1.21218 15.99472,7.25544 2.48991,4.6524 3.43491,8.46005 2.09805,8.46005 -1.33692,0 -1.29476,1.83856 0.0958,4.08841 5.502,8.90245 26.58876,2.58541 26.58876,-7.96544 0,-5.11814 -11.66481,-11.99843 -41.9293,-24.73794 -41.82138,-17.60425 -51.21513,-22.77933 -47.71687,-26.27758 1.01676,-1.01678 22.06515,7.19062 46.77153,18.23636 48.44254,21.65774 58.14143,23.82398 61.97243,13.84079 3.66496,-9.55065 -4.48512,-15.05224 -50.80005,-34.29488 -23.06088,-9.5812 -41.92926,-19.05765 -41.92926,-21.06035 0,-5.28442 -0.22074,-5.35196 50.89985,15.10523 49.57742,19.83968 60.84229,21.17603 62.81405,7.44292 1.68809,-11.7578 -3.5745,-15.15747 -50.30947,-32.47602 -38.94078,-14.43026 -54.52324,-22.34871 -43.97147,-22.34871 2.58816,0 22.72621,6.52298 44.74927,14.49494 44.69896,16.18042 59.89367,16.94878 61.86073,3.12714 1.59579,-11.21344 -6.81263,-15.65994 -67.61644,-35.76272 l -45.88604,-15.17301 -13.01513,14.82202 c -22.65806,25.80614 -49.06825,33.67139 -68.15499,20.30251 -16.70942,-11.70372 -11.79654,-34.57338 13.91658,-64.78454 11.77934,-13.83998 14.03189,-21.75089 6.74091,-21.69058 z m -180.44498,11.03276 -6.465677,28.41951 c -8.100553,35.61643 -8.176258,80.37675 -0.19544,114.23249 3.380072,14.33873 7.141161,27.68341 8.360323,29.65603 1.219121,1.97261 15.914502,3.58983 32.65553,3.58983 l 30.437785,0 0,-87.95093 0,-87.94693 -32.39625,0 -32.39625,0 z m 412.49585,8.18084 0,87.94692 0,87.95093 28.47136,0 28.46747,0 8.75907,-27.61381 c 10.3375,-32.59357 12.33009,-93.26385 4.16428,-126.80887 l -5.2293,-21.47517 -32.31644,0 -32.31644,0 z M 195.01835,306.34347 c -6.33875,-0.2788 -14.04886,4.74675 -19.82785,16.07447 -10.48522,20.55283 -10.36641,24.12566 0.94134,28.67082 18.56966,7.46408 24.64291,3.46084 29.54833,-19.47286 3.37683,-15.78729 -2.51199,-24.91396 -10.66182,-25.27243 z m 29.64008,12.72397 c -6.68736,-0.0896 -9.24853,3.15945 -14.1639,15.44426 -7.20171,17.99873 -5.6793,27.5265 4.84628,30.31415 3.74565,0.99201 8.14877,2.01657 9.78428,2.27754 6.50532,1.03808 15.92529,-20.11264 14.6904,-32.98259 -1.075,-11.20339 -3.17918,-13.80483 -12.01795,-14.82998 -1.14256,-0.13254 -2.18379,-0.21055 -3.13911,-0.22338 z m 30.43778,9.77233 c -4.31694,0.0123 -5.89269,5.3288 -10.2749,21.66663 -3.62904,13.52981 -3.60729,19.06911 0.0878,23.52139 8.0195,9.66291 16.18849,6.61778 22.44843,-8.3643 8.43556,-20.18913 7.38331,-28.83551 -4.15223,-34.09146 -3.61789,-1.64841 -6.14678,-2.73779 -8.10905,-2.73226 z m 30.82871,10.60196 c -2.91811,0.088 -4.8285,3.1926 -7.89366,9.91991 -6.22866,13.67059 -6.04851,29.28103 0.36697,31.86974 2.81231,1.13478 5.42118,2.20778 5.79956,2.38525 5.35688,2.51415 14.00373,-7.73418 16.14229,-19.13381 2.15663,-11.4957 1.14889,-15.73667 -4.76251,-20.05918 -4.50463,-3.29387 -7.38304,-5.0504 -9.65265,-4.98191 z"
     style="fill:#000000" />
</svg>
