<?xml version="1.0" encoding="UTF-8" standalone="no"?>
<svg
   xmlns:dc="http://purl.org/dc/elements/1.1/"
   xmlns:cc="http://creativecommons.org/ns#"
   xmlns:rdf="http://www.w3.org/1999/02/22-rdf-syntax-ns#"
   xmlns:svg="http://www.w3.org/2000/svg"
   xmlns="http://www.w3.org/2000/svg"
   version="1.1"
   id="svg2"
   viewBox="0 0 539.99998 500.00001"
   height="500"
   width="540">
  <defs
     id="defs4" />
  <metadata
     id="metadata7">
    <rdf:RDF>
      <cc:Work
         rdf:about="">
        <dc:format>image/svg+xml</dc:format>
        <dc:type
           rdf:resource="http://purl.org/dc/dcmitype/StillImage" />
        <dc:title></dc:title>
      </cc:Work>
    </rdf:RDF>
  </metadata>
  <path
     style="fill:#000000"
     d="m 313.69272,122 52.08127,19.02829 c 41.45255,15.14537 56.15642,22.84959 72.06327,37.75363 16.50613,15.46557 25.39789,19.95249 51.08918,25.79213 28.96826,6.58448 31.10383,7.8654 31.07322,18.63143 -0.10962,38.61839 -24.3476,121.0937 -37.02586,125.99048 -2.9701,1.14721 -16.20769,-0.75324 -29.41548,-4.2247 -20.42622,-5.36862 -24.90997,-5.40967 -30.01753,-0.26886 -3.30257,3.32412 -26.47712,10.74838 -51.50042,16.49774 -59.422,13.65275 -86.37405,14.27656 -101.43638,2.35133 -20.68719,-16.37861 -15.71133,-26.41131 26.50701,-53.42775 20.88102,-13.3622 39.47025,-23.35927 41.30804,-22.21604 1.83781,1.14325 3.34093,7.2267 3.34093,13.51484 0,7.87769 -6.23199,17.44588 -20.04562,30.7679 -14.67653,14.1542 -18.7586,20.63091 -15.22923,24.18331 5.91328,5.95177 30.30246,-16.40606 42.24503,-38.72659 6.69201,-12.50727 7.11989,-17.00487 2.76431,-29.14202 -2.83272,-7.89377 -4.06006,-18.5444 -2.72617,-23.66695 l 2.42515,-9.31146 20.92749,8.8975 20.92746,8.90179 21.09707,-10.52766 c 20.37401,-10.16569 30.95169,-25.84332 17.43392,-25.84332 -3.56324,0 -7.15761,2.03803 -7.98347,4.53197 -0.82587,2.49374 -9.17142,7.18893 -18.54897,10.43378 -22.83326,7.90085 -32.33025,3.88627 -71.98273,-30.4308 -29.33033,-25.38384 -34.52799,-28.2237 -51.65305,-28.25866 -10.47222,-0.0218 -32.59864,4.88135 -49.17281,10.89893 -37.50907,13.61813 -44.71912,13.64478 -58.07628,0.20056 -18.24888,-18.36779 -12.68525,-37.39943 10.93435,-37.39943 4.31884,0 20.3014,-5.80204 35.51652,-12.89605 15.21505,-7.0938 42.38019,-17.20536 60.36999,-22.46784 L 313.69272,122 Z m -69.76533,5.21047 -20.90204,8.59455 c -11.49641,4.72488 -23.23495,10.44762 -26.08728,12.72108 -2.85225,2.27346 -12.25392,5.41275 -20.89356,6.97719 -8.63958,1.56443 -19.21912,6.7464 -23.50525,11.51342 -6.92717,7.7043 -13.48376,8.66708 -59.013285,8.66708 -61.87426,0 -73.52599,-3.42503 -73.52599,-21.61861 0,-8.8177 2.98315,-14.68911 9.14517,-18.0084 5.70313,-3.07213 47.82852,-5.66135 111.963715,-6.8833 l 102.81852,-1.96301 z m 36.32206,80.07336 c 10.94324,0.0367 19.50295,2.61042 26.56637,7.67278 7.26154,5.20435 13.20262,12.12085 13.20262,15.36687 0,3.62247 -19.73146,12.67168 -51.08915,23.42799 -28.09957,9.63869 -52.34181,17.67748 -53.87046,17.86757 -5.30442,0.65941 -20.39159,-15.01629 -22.83113,-23.72243 -3.6311,-12.95865 0.9814,-16.98851 32.13318,-28.05383 23.81128,-8.4579 41.81873,-12.60607 55.88857,-12.55895 z m 47.125,43.47193 c 8.1629,-0.35086 9.87707,3.53172 9.97193,11.44088 0.0367,3.05229 -19.01314,18.25326 -42.32981,33.77642 -23.31665,15.52314 -45.90508,28.28626 -50.19882,28.36535 -9.37889,0.17261 -29.15262,-18.7134 -29.15262,-27.84473 0,-9.12814 4.31707,-11.30404 63.04104,-31.77501 25.89302,-9.02621 40.50538,-13.61204 48.66828,-13.96291 z"
     id="path3580" />
</svg>
