<?xml version="1.0" encoding="UTF-8" standalone="no"?>
<svg
   xmlns:dc="http://purl.org/dc/elements/1.1/"
   xmlns:cc="http://creativecommons.org/ns#"
   xmlns:rdf="http://www.w3.org/1999/02/22-rdf-syntax-ns#"
   xmlns:svg="http://www.w3.org/2000/svg"
   xmlns="http://www.w3.org/2000/svg"
   version="1.1"
   id="svg2"
   viewBox="0 0 319.99999 499.99998"
   height="500"
   width="320">
  <defs
     id="defs4" />
  <metadata
     id="metadata7">
    <rdf:RDF>
      <cc:Work
         rdf:about="">
        <dc:format>image/svg+xml</dc:format>
        <dc:type
           rdf:resource="http://purl.org/dc/dcmitype/StillImage" />
        <dc:title></dc:title>
      </cc:Work>
    </rdf:RDF>
  </metadata>
  <g
     transform="translate(0,-552.36224)"
     id="layer1">
    <path
       id="path3411"
       d="m 102.00223,572.38486 c -2.720362,0.12008 -5.584315,0.71732 -8.653713,1.69602 -26.927339,8.5858 -26.203861,24.71066 5.15396,115.05949 16.140513,46.50426 29.346063,87.29614 29.346063,90.64892 0,13.26428 -17.46682,-9.23334 -23.89018,-30.77167 -3.70057,-12.40834 -8.655676,-20.53353 -11.009564,-18.05375 -2.353867,2.47978 -7.82538,22.67048 -12.161981,44.86521 -8.569301,43.85747 -19.578253,51.6928 -17.855985,12.7094 l 1.067352,-24.23969 -16.240053,19.22429 c -8.933337,10.57446 -19.500744,30.91325 -23.481973,45.19843 -6.484086,23.26577 -6.028106,28.47372 4.3715,49.95324 6.385371,13.18844 23.571656,38.71976 38.191162,56.73729 23.563838,29.04097 26.581984,35.96813 26.581984,61.01358 0,15.53868 1.718849,29.98238 3.822944,32.09618 2.104026,2.1138 40.840284,3.8404 86.077864,3.8404 l 82.25065,0 0,-30.9981 c 0,-21.10358 2.86831,-33.39523 8.9855,-38.49558 C 294.98035,945.84107 300,924.57224 300,855.09295 c 0,-74.8707 -2.77448,-82.14751 -31.32778,-82.14751 -11.67441,0 -20.10362,-4.09735 -25.15723,-12.22664 -6.33144,-10.18501 -11.64197,-11.76566 -31.82963,-9.47969 l -24.23037,2.74264 -28.36802,-83.43766 c -26.042,-76.59658 -38.04225,-99.0002 -57.08474,-98.15923 z m 45.09712,18.32289 c -0.31315,0.0274 -0.5524,0.11489 -0.70591,0.26913 -1.22813,1.23381 2.28031,16.62345 7.79471,34.19788 11.23258,35.79833 19.56973,37.34724 19.56973,3.63553 0,-16.50372 -3.30511,-24.71661 -12.56595,-31.23307 -6.04694,-4.25501 -11.90071,-7.06121 -14.09258,-6.86947 z"
       style="fill:#000000" />
  </g>
</svg>
