<?xml version="1.0" encoding="UTF-8" standalone="no"?>
<svg
   xmlns:dc="http://purl.org/dc/elements/1.1/"
   xmlns:cc="http://creativecommons.org/ns#"
   xmlns:rdf="http://www.w3.org/1999/02/22-rdf-syntax-ns#"
   xmlns:svg="http://www.w3.org/2000/svg"
   xmlns="http://www.w3.org/2000/svg"
   version="1.1"
   id="svg2"
   viewBox="0 0 539.99998 499.99998"
   height="500"
   width="540">
  <defs
     id="defs4" />
  <metadata
     id="metadata7">
    <rdf:RDF>
      <cc:Work
         rdf:about="">
        <dc:format>image/svg+xml</dc:format>
        <dc:type
           rdf:resource="http://purl.org/dc/dcmitype/StillImage" />
        <dc:title></dc:title>
      </cc:Work>
    </rdf:RDF>
  </metadata>
  <g
     transform="translate(0,-552.36224)"
     id="layer1">
    <path
       id="path4162"
       transform="translate(0,552.36222)"
       d="M 269.9043 0.001953125 C 265.18703 0.049395625 260.45697 1.1654981 257.96289 3.3300781 C 255.93611 5.0890981 238.5341 39.440896 219.29297 79.666016 C 200.05182 119.89114 183.25396 152.80273 181.96484 152.80273 C 180.67569 152.80273 147.23449 157.77242 107.65039 163.84766 C 68.066288 169.9229 34.74825 174.89453 33.609375 174.89453 C 25.315202 179.52293 20.640084 185.83306 20 196.25977 C 19.985799 205.19734 22.286037 207.92379 76.535156 263.26172 L 133.08398 320.94531 L 119.82031 400.75391 C 105.16489 488.94357 105.14973 491.33893 119.16992 497.67383 C 123.37549 499.57353 128.92776 500.49882 131.50977 499.72852 C 134.09177 498.95832 166.05472 481.88838 202.53711 461.79688 C 239.01949 441.70543 269.3776 425.26758 270 425.26758 C 270.62241 425.26758 301.50884 442.04808 338.63672 462.55664 C 412.53676 503.37704 417.68429 505.1461 427.57227 493.125 C 442.22527 474.9957 419.8283 423.18224 420.02148 399.75195 L 406.9082 320.94531 L 463.46094 263.26172 C 517.71529 207.92288 520.0141 205.19749 520 196.25977 C 519.9895 189.65495 518.30723 185.19132 514.22266 180.91992 C 511.05384 177.60618 507.5295 174.89453 506.39062 174.89453 C 505.25176 174.89453 471.93369 169.9229 432.34961 163.84766 C 392.76551 157.77242 359.32431 152.80273 358.03516 152.80273 C 356.74604 152.80273 339.94816 119.89114 320.70703 79.666016 C 301.46589 39.440896 283.94023 4.9825069 281.76172 3.0917969 C 279.32479 0.97677687 274.62157 -0.045489375 269.9043 0.001953125 z "
       style="fill:#000000" />
    <rect
       y="916.36224"
       x="200"
       height="0"
       width="0"
       id="rect4192"
       style="fill:#000000;fill-opacity:1;stroke:none;stroke-width:2.0999999;stroke-miterlimit:4;stroke-dasharray:none;stroke-opacity:1" />
  </g>
</svg>
