<?xml version="1.0" encoding="UTF-8" standalone="no"?>
<svg
   xmlns:dc="http://purl.org/dc/elements/1.1/"
   xmlns:cc="http://creativecommons.org/ns#"
   xmlns:rdf="http://www.w3.org/1999/02/22-rdf-syntax-ns#"
   xmlns:svg="http://www.w3.org/2000/svg"
   xmlns="http://www.w3.org/2000/svg"
   width="600"
   height="500"
   viewBox="0 0 600.00001 500.00001"
   id="svg2"
   version="1.1">
  <defs
     id="defs4" />
  <metadata
     id="metadata7">
    <rdf:RDF>
      <cc:Work
         rdf:about="">
        <dc:format>image/svg+xml</dc:format>
        <dc:type
           rdf:resource="http://purl.org/dc/dcmitype/StillImage" />
        <dc:title></dc:title>
      </cc:Work>
    </rdf:RDF>
  </metadata>
  <g
     id="layer1"
     transform="matrix(-1,0,0,1,600,-552.36216)">
    <path
       id="path3347"
       style="fill:#000000"
       d="M 71.88947,961.45421 20,870.54621 l 63.30326,-36.76417 63.30326,-36.76418 30.83823,-99.3635 c 16.96103,-54.64993 34.38407,-104.51604 38.71785,-110.81357 10.6667,-15.50012 130.9418,-15.99807 141.54695,-0.58598 4.11161,5.97524 9.79229,39.21932 12.62373,73.87572 5.14025,62.91604 5.12102,63.01164 -12.68302,63.01164 -21.0188,0 -38.61329,-21.00137 -45.50839,-54.32038 -5.83946,-28.21773 -20.14458,-30.86034 -34.37937,-6.35098 -14.7125,25.33184 -7.29056,55.13782 24.61447,98.85019 30.93821,42.38769 33.56343,56.49083 16.39698,88.08695 -17.04289,31.36867 -7.8429,63.29237 22.67115,78.66826 13.73193,6.91939 24.96713,15.89939 24.96713,19.95552 0,9.03833 -71.98372,27.15699 -107.89218,27.15699 -16.66399,0 -38.46087,9.36654 -59.8303,25.71028 -18.48891,14.1406 -42.9075,31.5046 -54.26351,38.5867 l -20.6473,12.8765 -51.88947,-90.90799 z m 421.34436,-38.63778 c -20.36744,-25.02781 -29.78271,-43.24591 -26.95027,-52.14757 6.58346,-20.69028 13.4129,-17.12837 47.52168,24.78498 20.36745,25.02782 29.78272,43.24591 26.95028,52.14756 -6.58346,20.69028 -13.41291,17.12839 -47.52169,-24.78497 z M 346.59368,910.10692 c -23.95372,-12.5797 -26.70753,-18.77452 -19.04751,-42.84813 3.43805,-10.80492 15.67534,-13.74773 57.16831,-13.74773 45.131,0 53.41114,2.34531 57.04633,16.15813 7.46367,28.35999 -3.01473,44.68069 -28.68637,44.68069 -13.12472,0 -28.18216,1.81294 -33.46098,4.02874 -5.27883,2.2158 -20.13772,-1.50647 -33.01978,-8.2717 z m -1.80169,-91.93227 c 0,-9.87465 -3.43197,-25.68754 -7.62658,-35.13977 -7.33443,-16.52743 -5.47077,-17.08825 48.64552,-14.63832 52.53818,2.37849 56.42836,3.87686 58.62702,22.58124 3.94465,33.55812 -10.76424,45.15074 -57.28793,45.15074 -38.00287,0 -42.35803,-1.84597 -42.35803,-17.95389 z m 173.95064,-7.26555 c -35.89221,-15.32116 -54.67514,-45.05204 -27.55372,-43.61386 28.12904,1.49162 85.20773,30.0555 85.20773,42.6405 0,18.36858 -16.25994,18.64308 -57.65401,0.97336 z M 298.3568,729.89954 c -12.38116,-21.31779 -14.7367,-41.52245 -4.84086,-41.52245 3.50784,0 11.8045,9.98804 18.43699,22.19565 6.63252,12.20762 19.16686,25.64844 27.85413,29.86851 14.12627,6.86221 13.36365,7.73106 -7.21822,8.22377 -15.9534,0.38189 -26.45489,-5.37485 -34.23204,-18.76548 z m 77.06385,10.22925 c 7.53683,-5.47349 12.6118,-19.68852 12.6118,-35.32568 0,-24.9223 1.28512,-26.03831 27.02531,-23.46911 25.65549,2.56074 27.02528,4.23928 27.02528,33.11687 l 0,30.41942 -39.6371,2.20882 c -30.3832,1.69313 -36.69266,0.0704 -27.02529,-6.95032 z m 104.80087,-30.59345 c 1.78081,-11.15183 15.59465,-20.91164 44.74786,-31.61543 C 568.50376,661.93597 580,663.24985 580,684.20941 c 0,11.53462 -24.53648,22.68817 -78.59521,35.72703 -20.54392,4.95513 -23.41071,3.54754 -21.18327,-10.4011 z m -95.0214,-60.97974 c -2.40591,-7.56126 -4.3744,-23.43041 -4.3744,-35.26478 0,-19.93922 2.24597,-21.32108 30.62866,-18.84451 25.69796,2.2423 31.00777,5.89764 32.98357,22.70626 1.29518,11.01855 -1.53418,25.68505 -6.2875,32.59223 -11.66309,16.948 -47.43485,16.14458 -52.95033,-1.1892 z m 89.85814,-3.69411 c -8.95949,-17.48301 53.83927,-102.12209 67.96098,-91.59657 12.98961,9.68171 8.96884,20.9068 -22.00458,61.43065 -30.70315,40.17029 -38.28051,45.1441 -45.9564,30.16592 z" />
  </g>
</svg>
