<?xml version="1.0" encoding="UTF-8" standalone="no"?>
<svg
   xmlns:dc="http://purl.org/dc/elements/1.1/"
   xmlns:cc="http://creativecommons.org/ns#"
   xmlns:rdf="http://www.w3.org/1999/02/22-rdf-syntax-ns#"
   xmlns:svg="http://www.w3.org/2000/svg"
   xmlns="http://www.w3.org/2000/svg"
   width="290"
   height="500"
   viewBox="0 0 289.99999 500.00001"
   id="svg2"
   version="1.1">
  <defs
     id="defs4" />
  <metadata
     id="metadata7">
    <rdf:RDF>
      <cc:Work
         rdf:about="">
        <dc:format>image/svg+xml</dc:format>
        <dc:type
           rdf:resource="http://purl.org/dc/dcmitype/StillImage" />
        <dc:title></dc:title>
      </cc:Work>
    </rdf:RDF>
  </metadata>
  <path
     id="path3479"
     d="M 113.73585,0.01649367 C 81.151018,0.70413619 45.251059,22.835412 31.365697,52.776957 12.903413,92.587945 28.078454,144.22246 64.494452,165.49076 82.940987,176.26424 93.605984,175.88588 78.159001,165.00618 35.29582,134.81655 21.996459,99.643866 38.666925,60.568199 52.526845,28.080438 78.144683,10.937238 113.35293,10.588811 188.20104,9.8480522 226.55565,95.871274 173.65588,145.8378 c -8.8983,8.4049 -20.12295,17.48326 -24.94553,20.17547 -13.76067,7.6819 -4.50311,11.64517 10.02037,4.2896 28.7017,-14.53631 49.66692,-49.55236 49.48233,-82.648631 C 208.13199,73.102818 194.08879,40.168812 182.71682,27.85259 172.6166,16.913724 147.54479,4.7706374 127.42619,1.0741593 122.98049,0.25732927 118.39081,-0.08173412 113.73585,0.01649367 Z m 8.44996,25.26148933 c -3.73027,-0.03344 -8.01839,0.201073 -13.22138,0.623631 C 88.596665,27.555856 81.926245,30.334449 69.115277,42.495399 39.662325,70.45393 39.351019,109.4386 68.349435,137.90329 l 14.232466,13.97281 2.202847,-42.19656 c 1.843541,-35.259883 3.61615,-43.201434 10.77329,-48.314942 11.171922,-7.981939 24.582982,-7.761318 36.781542,0.606781 8.89073,6.098964 9.80524,10.335085 9.80524,45.373741 0,44.33004 4.79877,48.91221 24.59272,23.4959 C 191.12012,99.532714 183.7727,56.543552 150.33666,34.872697 139.54954,27.881263 133.3767,25.378411 122.18581,25.277983 Z m -13.37196,39.175298 c -8.36767,-0.294276 -10.831491,2.0845 -13.92268,11.082185 -2.290169,6.666027 -4.011232,52.619564 -3.824871,102.120404 0.186361,49.50086 -1.259323,87.42032 -3.209614,84.26673 -1.950314,-3.15357 -9.41779,-15.91081 -16.594491,-28.35014 -13.674087,-23.70129 -29.593316,-32.51223 -43.415898,-24.03108 -13.479377,8.27056 -10.220529,22.81066 14.684225,65.51551 16.186039,27.75464 26.224414,50.78865 29.346906,67.33165 6.359291,33.69145 11.329443,45.56819 24.881008,59.48139 11.058315,11.35342 11.332155,12.96816 8.918935,52.58349 -1.36936,22.47916 -1.17062,42.22631 0.44317,43.88206 4.25841,4.36917 89.00246,-0.63595 103.3144,-6.10153 10.24637,-3.913 12.13943,-7.1719 12.17159,-20.94658 0.0221,-8.97175 1.26011,-26.24153 2.74925,-38.3789 2.27369,-18.53199 4.81144,-23.2877 15.84157,-29.66908 20.56729,-11.89897 26.20717,-31.44574 28.82201,-99.86184 2.77091,-72.49866 0.19628,-90.10353 -14.56372,-99.57529 -9.87415,-6.33646 -11.7588,-6.3467 -21.45197,-0.12643 -9.30053,5.96836 -11.29461,6.03058 -15.98353,0.49723 -6.94912,-8.20062 -21.46115,-8.07352 -30.87429,0.26968 -6.66483,5.90728 -8.0134,5.90728 -13.01918,0 -6.67765,-7.88024 -22.71952,-8.63135 -30.09553,-1.40739 -4.11822,4.03332 -5.31019,-8.20743 -5.36085,-55.09488 -0.0746,-69.207025 -3.65626,-81.171821 -24.8939,-83.209073 -1.45548,-0.139587 -2.76714,-0.236068 -3.96254,-0.278116 z"
     style="fill:#000000" />
</svg>
