<?xml version="1.0" encoding="UTF-8" standalone="no"?>
<svg
   xmlns:dc="http://purl.org/dc/elements/1.1/"
   xmlns:cc="http://creativecommons.org/ns#"
   xmlns:rdf="http://www.w3.org/1999/02/22-rdf-syntax-ns#"
   xmlns:svg="http://www.w3.org/2000/svg"
   xmlns="http://www.w3.org/2000/svg"
   width="460"
   height="500"
   viewBox="0 0 459.99998 500.00001"
   id="svg2"
   version="1.1">
  <defs
     id="defs4" />
  <metadata
     id="metadata7">
    <rdf:RDF>
      <cc:Work
         rdf:about="">
        <dc:format>image/svg+xml</dc:format>
        <dc:type
           rdf:resource="http://purl.org/dc/dcmitype/StillImage" />
        <dc:title></dc:title>
      </cc:Work>
    </rdf:RDF>
  </metadata>
  <g
     id="layer1"
     transform="matrix(0.84000002,0,0,1,3.1999998,-552.36216)">
    <path
       style="fill:#000000"
       d="M 145.66639,1050.265 C 82.48578,1041.544 32.75485,1004.5996 24.56394,960.29985 23.46654,954.36474 21.99073,884.39847 21.28434,804.81926 L 20,660.1298 l 4.85837,-5.53902 c 6.02858,-6.87314 20.86215,-12.73081 32.23867,-12.73081 10.52577,0 25.65308,5.61832 31.50846,11.70234 4.2007,4.36473 4.37512,6.97381 5.39544,80.70785 l 1.05439,76.19731 6.12413,0.52946 6.12413,0.52946 -1.52597,-101.43015 c -1.08229,-71.94013 -0.85359,-103.32253 0.78663,-107.9389 4.67222,-13.14986 23.94156,-22.78967 40.77186,-20.39681 11.04816,1.57078 20.97112,7.3506 26.2718,15.30253 4.46354,6.69608 4.74479,9.07169 4.74479,40.0788 0,18.12845 0.62907,64.3631 1.39792,102.74367 l 1.39794,69.78285 5.5099,0 5.50992,0 -0.0542,-118.77278 -0.0542,-118.77278 5.80154,-6.65242 c 6.4454,-7.39085 19.08433,-13.10825 28.97715,-13.10825 16.31937,0 31.87959,10.58248 35.76886,24.32633 1.41139,4.98758 2.20571,46.54233 2.20571,115.39291 0,59.17912 0.5931,109.84583 1.318,112.5927 1.15458,4.37505 2.1753,4.99429 8.23231,4.99429 l 6.91431,0 -1.17396,-102.87202 -1.17397,-102.87203 4.72102,-7.39091 c 2.59656,-4.06501 7.63672,-8.96437 11.20035,-10.88747 7.88164,-4.25329 26.24909,-5.77055 35.33361,-2.91875 8.64715,2.71447 18.37656,11.47755 20.82636,18.75786 1.18042,3.50797 2.31584,60.0224 2.72473,135.61934 l 0.70099,129.6052 10.54397,-5.87491 c 105.64763,-58.86499 96.81583,-54.36266 106.638,-54.36266 12.88534,0 23.86193,3.74776 35.00771,11.95277 11.25364,8.2844 15.26457,15.81885 12.56128,23.59614 -0.68945,1.98351 -34.7191,34.55263 -75.62148,72.3758 -40.90235,37.82318 -78.14564,73.78213 -82.76284,79.90876 -10.0188,13.2941 -35.35617,32.9042 -52.34044,40.5093 -15.68397,7.0229 -36.56843,12.7671 -56.30271,15.4858 -20.07505,2.7657 -86.3603,2.7435 -106.4941,-0.036 z"
       id="path3396" />
  </g>
</svg>
