<?xml version="1.0" encoding="UTF-8" standalone="no"?>
<svg
   xmlns:dc="http://purl.org/dc/elements/1.1/"
   xmlns:cc="http://creativecommons.org/ns#"
   xmlns:rdf="http://www.w3.org/1999/02/22-rdf-syntax-ns#"
   xmlns:svg="http://www.w3.org/2000/svg"
   xmlns="http://www.w3.org/2000/svg"
   version="1.1"
   id="svg2"
   viewBox="0 0 540.00001 500.00001"
   height="500"
   width="540">
  <defs
     id="defs4" />
  <metadata
     id="metadata7">
    <rdf:RDF>
      <cc:Work
         rdf:about="">
        <dc:format>image/svg+xml</dc:format>
        <dc:type
           rdf:resource="http://purl.org/dc/dcmitype/StillImage" />
        <dc:title></dc:title>
      </cc:Work>
    </rdf:RDF>
  </metadata>
  <g
     transform="translate(0,-552.36216)"
     id="layer1">
    <path
       id="path4589"
       d="m 270.00001,617.36216 c -57.76407,0 -115.53121,1.63814 -127.27877,4.91186 -33.66341,9.38071 -57.615313,36.90762 -64.593994,74.23281 -3.358718,17.96417 -3.263349,18.08975 12.933491,18.11489 35.934493,0.04 62.435123,31.06974 62.435123,73.10799 0,14.59226 3.16071,23.02987 11.91526,31.81405 11.81853,11.85735 12.66693,11.95546 104.58889,11.95546 91.92194,0 92.77034,-0.0971 104.58887,-11.95546 8.75455,-8.78418 11.91526,-17.22179 11.91526,-31.81405 0,-41.88991 20.17314,-66.67151 58.47481,-71.82598 19.98697,-2.6899 20.01088,-2.71616 16.76164,-20.09439 -6.84496,-36.60995 -31.05603,-64.22503 -64.46672,-73.53532 -11.74755,-3.27372 -69.50979,-4.91186 -127.27386,-4.91186 z M 75.826435,736.52365 c -20.729438,0 -26.296782,2.2143 -39.955729,15.91931 C 22.252112,766.1075 20,771.76361 20,792.30757 c 2.5e-5,19.76206 2.447111,26.5059 14.030047,38.63661 7.71742,8.08228 20.061804,16.02467 27.428577,17.64826 13.168843,2.90216 13.420662,3.64965 15.092314,44.44734 1.675061,40.88019 1.970768,41.7448 19.904452,58.23508 10.01209,9.2061 18.20576,21.0892 18.20576,26.4109 0,8.5789 3.30325,9.6764 29.12727,9.6764 25.88981,0 29.12236,-1.0814 29.12236,-9.7403 0,-9.4167 3.23866,-9.7401 97.08923,-9.7401 93.85055,0 97.08432,0.3234 97.08432,9.7401 0,8.6589 3.23744,9.7403 29.12725,9.7403 25.82402,0 29.12727,-1.0975 29.12727,-9.6764 0,-5.3217 8.18878,-17.2048 18.20087,-26.4109 17.93369,-16.49028 18.22939,-17.35489 19.90443,-58.23508 1.67165,-40.79769 1.92838,-41.54518 15.09723,-44.44734 7.36677,-1.62359 19.70627,-9.56598 27.42369,-17.64826 C 517.548,818.81347 520,812.06963 520,792.30757 c 0,-20.54396 -2.25211,-26.20007 -15.87071,-39.86461 -13.65894,-13.70501 -19.22629,-15.91931 -39.95572,-15.91931 -20.41018,0 -26.35867,2.28129 -38.98648,14.9517 -11.89593,11.93606 -15.77601,21.14032 -19.22887,45.65073 -2.9204,20.7303 -7.84242,34.46476 -15.16087,42.28121 -10.79304,11.52614 -11.30635,11.57725 -120.79734,11.57725 -109.49101,0 -110.00432,-0.0498 -120.79736,-11.57725 -7.31845,-7.81645 -12.24536,-21.55091 -15.16576,-42.28121 -3.45286,-24.51041 -7.32805,-33.71467 -19.22398,-45.65073 -12.62781,-12.67041 -18.576305,-14.9517 -38.986475,-14.9517 z"
       style="fill:#000000" />
  </g>
</svg>
