<?xml version="1.0" encoding="UTF-8" standalone="no"?>
<svg
   xmlns:dc="http://purl.org/dc/elements/1.1/"
   xmlns:cc="http://creativecommons.org/ns#"
   xmlns:rdf="http://www.w3.org/1999/02/22-rdf-syntax-ns#"
   xmlns:svg="http://www.w3.org/2000/svg"
   xmlns="http://www.w3.org/2000/svg"
   width="540"
   height="500"
   viewBox="0 0 539.99998 499.99998"
   id="svg2"
   version="1.1">
  <defs
     id="defs4" />
  <metadata
     id="metadata7">
    <rdf:RDF>
      <cc:Work
         rdf:about="">
        <dc:format>image/svg+xml</dc:format>
        <dc:type
           rdf:resource="http://purl.org/dc/dcmitype/StillImage" />
        <dc:title></dc:title>
      </cc:Work>
    </rdf:RDF>
  </metadata>
  <path
     id="path3424"
     d="M 209.64222,0.01150745 C 188.52999,2.4039875 174.24177,22.625362 170.63999,42.245893 168.46333,50.88528 168.75204,60.135955 165.09963,68.383747 145.58093,64.06722 125.89203,52.511776 105.2173,57.891805 82.813988,62.262174 69.876453,89.143474 77.506168,109.97601 c 2.286422,11.95889 9.589455,22.52443 10.441929,34.81041 -8.215459,4.34077 -17.852792,2.74259 -26.52002,5.89562 -17.610829,3.82278 -36.309001,14.8788 -40.422554,33.70076 -4.576239,19.55224 7.074199,39.24102 22.653614,50.36996 5.807146,4.88935 12.68472,9.13487 16.553407,15.62526 -8.383646,11.70479 -24.233605,15.4475 -31.598202,28.2032 -11.899165,16.33662 -12.084202,42.05064 3.9641,55.81496 14.520736,13.82259 35.99978,14.91168 54.242424,19.11944 0.412351,10.50039 -5.495845,20.1436 -8.012745,30.1878 -6.025568,18.12878 -1.827759,41.2028 15.106794,52.00909 18.559385,11.13242 42.101195,7.1637 60.543905,-2.15261 3.41767,-2.28383 8.31822,-4.46911 11.40358,-0.35021 6.29497,8.27597 3.23622,19.37413 5.91985,28.85097 3.24297,20.30521 21.31506,38.71608 42.64883,37.91406 20.027,-1.35114 35.4756,-16.56997 46.70875,-31.91519 3.25723,-2.66074 4.4356,-9.68784 9.31658,-9.41421 3.65551,3.92768 6.47792,9.11306 10.34988,13.1262 12.14837,14.42369 29.51692,28.17593 49.4855,26.27304 22.27067,-2.63261 38.31778,-23.72166 40.53574,-45.1239 1.27428,-6.99663 0.19352,-14.82045 3.30044,-21.23181 7.06812,-1.51741 13.46887,4.25748 20.20564,5.813 18.71547,6.73091 42.36406,7.49788 57.99611,-6.58657 14.43048,-13.3526 15.77731,-36.20396 7.09218,-53.06805 -3.18259,-7.4354 -8.44888,-15.00139 -7.19738,-23.29707 7.294,-2.92652 15.76373,-1.97718 23.30928,-4.57567 17.67056,-5.02999 36.5851,-15.20449 42.47976,-33.85848 5.92007,-18.24663 -4.62649,-37.45377 -18.10589,-49.37526 -6.17219,-6.39111 -14.65561,-10.39995 -20.50558,-16.89784 12.11517,-13.46981 31.10489,-21.55929 37.51993,-39.63768 7.17188,-16.59723 1.43378,-37.46124 -13.29383,-48.00797 -14.40423,-12.36553 -34.16563,-15.8753 -52.47643,-16.36503 -2.85689,-6.38587 4.56894,-11.34259 6.77655,-16.83441 11.91196,-21.82155 7.07739,-52.936979 -14.45863,-66.992227 -15.03458,-10.000896 -34.62203,-6.316328 -50.11487,0.630868 -6.37545,2.198472 -13.01098,6.544223 -19.8562,5.923779 -1.68276,-3.813948 0.41296,-8.512585 -0.913,-12.626282 C 370.75244,34.957912 360.36212,12.346364 340.03483,3.6014495 318.75544,-4.4199528 294.58923,6.9762625 282.05,24.75056 277.76068,30.03095 275.55797,37.390145 270.22533,41.446042 261.53921,32.93363 255.13892,21.984026 245.35015,14.382596 235.44178,5.9137325 222.93839,-0.30453755 209.64222,0.01150745 Z M 213.441,35.745695 c 15.61111,6.050853 22.02191,23.19813 34.52712,33.240756 9.74924,8.84833 25.04879,12.589268 36.78912,5.4112 15.05447,-7.509286 21.16239,-24.53929 32.54507,-35.706026 5.04741,-3.975957 13.11762,-3.001672 15.56332,3.419082 8.26474,14.04677 0.17902,32.54699 10.67865,45.82996 9.93782,14.300033 29.56609,19.615923 45.79758,14.033073 11.67867,-3.110445 22.32418,-10.813785 34.66803,-10.409335 7.9603,4.9396 5.37768,16.962365 0.40205,23.242625 -8.01234,13.45681 -12.818,30.76141 -5.4032,45.54081 6.30252,13.96774 21.87036,23.37199 37.25127,21.00454 10.25207,-0.18127 24.04617,1.99583 27.88773,13.04734 0.18062,7.24484 -7.82645,10.70778 -12.21169,15.34173 -12.99959,10.27053 -28.65733,22.11946 -29.87354,40.09019 -0.71334,14.84349 10.8555,26.66375 22.79605,33.69277 7.64446,5.68533 17.89985,11.62133 19.00925,22.06773 -4.69328,9.18581 -16.59303,9.62545 -25.4886,11.63352 -13.96824,1.9139 -30.39855,5.68693 -37.37339,19.40296 -9.08851,16.6368 -3.59811,36.80381 4.86588,52.50665 2.31144,4.88266 6.42277,13.686 -0.16909,16.92455 -10.7289,4.91127 -21.49407,-2.38741 -30.68326,-7.34512 -12.20946,-6.2414 -27.56175,-5.66274 -38.78619,2.46339 -15.49273,10.4406 -22.40042,30.35469 -20.01777,48.44356 -0.0212,7.86048 -9.79041,17.3149 -17.05878,10.83742 -7.54829,-6.93431 -11.87673,-16.6111 -19.88438,-23.28768 -11.60491,-11.49972 -30.16746,-18.9128 -45.80321,-11.22796 -16.75909,7.85119 -20.2233,30.27759 -37.63265,37.04099 -6.87565,3.25554 -9.54506,-5.8977 -10.00795,-10.84117 -2.28565,-16.60382 -3.82869,-35.54056 -17.22035,-47.42779 -12.55772,-11.51332 -31.89669,-11.3612 -46.51287,-4.04292 -9.01447,3.35779 -18.98703,9.4532 -28.70923,5.47927 -4.4254,-9.60117 2.02167,-19.52598 4.43646,-28.83117 5.18848,-14.1061 8.87235,-31.87326 -1.33845,-44.69128 -11.81433,-15.0628 -32.392554,-17.59278 -50.235106,-18.64816 -5.507621,-0.44419 -12.058565,-4.75801 -9.893344,-10.97825 1.990455,-10.03902 12.389278,-13.90191 20.273275,-17.89338 18.972168,-12.51576 26.140265,-42.15314 10.736889,-60.12776 -9.567678,-11.40439 -27.699538,-15.63034 -31.759772,-31.29745 0.251724,-6.85376 9.052239,-7.42749 14.133615,-9.07625 15.95076,-2.98196 35.156143,-3.14942 46.564093,-16.65793 10.80545,-12.13263 8.96509,-30.51716 2.36906,-44.23964 -3.50629,-9.61892 -9.27817,-20.35612 -5.41259,-30.709785 9.14298,-4.125134 18.26548,2.77462 27.08667,4.88163 14.95624,5.405105 32.99915,10.298615 47.70332,1.67865 11.88058,-8.648 11.70538,-24.980114 14.33882,-37.988255 1.59694,-9.061939 2.75532,-20.400963 11.05209,-25.827085 z"
     style="color:#000000;font-style:normal;font-variant:normal;font-weight:normal;font-stretch:normal;font-size:medium;line-height:normal;font-family:sans-serif;text-indent:0;text-align:start;text-decoration:none;text-decoration-line:none;text-decoration-style:solid;text-decoration-color:#000000;letter-spacing:normal;word-spacing:normal;text-transform:none;direction:ltr;block-progression:tb;writing-mode:lr-tb;baseline-shift:baseline;text-anchor:start;white-space:normal;clip-rule:nonzero;display:inline;overflow:visible;visibility:visible;opacity:1;isolation:auto;mix-blend-mode:normal;color-interpolation:sRGB;color-interpolation-filters:linearRGB;solid-color:#000000;solid-opacity:1;fill:#000000;fill-opacity:1;fill-rule:nonzero;stroke:none;stroke-width:1;stroke-linecap:butt;stroke-linejoin:miter;stroke-miterlimit:4;stroke-dasharray:none;stroke-dashoffset:0;stroke-opacity:1;color-rendering:auto;image-rendering:auto;shape-rendering:auto;text-rendering:auto;enable-background:accumulate" />
</svg>
