<?xml version="1.0" encoding="UTF-8" standalone="no"?>
<svg
   xmlns:dc="http://purl.org/dc/elements/1.1/"
   xmlns:cc="http://creativecommons.org/ns#"
   xmlns:rdf="http://www.w3.org/1999/02/22-rdf-syntax-ns#"
   xmlns:svg="http://www.w3.org/2000/svg"
   xmlns="http://www.w3.org/2000/svg"
   version="1.1"
   id="svg2"
   viewBox="0 0 539.99998 499.99998"
   height="500"
   width="540">
  <defs
     id="defs4" />
  <metadata
     id="metadata7">
    <rdf:RDF>
      <cc:Work
         rdf:about="">
        <dc:format>image/svg+xml</dc:format>
        <dc:type
           rdf:resource="http://purl.org/dc/dcmitype/StillImage" />
        <dc:title></dc:title>
      </cc:Work>
    </rdf:RDF>
  </metadata>
  <g
     transform="translate(0,-552.36224)"
     id="layer1">
    <path
       id="path3387"
       d="m 199.11472,1050.3273 c -29.29789,-14.8256 -6.66758,-76.78242 -45.26276,-72.87472 -23.12331,7.5281 -66.879492,29.85802 -72.529672,-9.537 -2.49764,-26.0391 35.007252,-73.59308 -12.18087,-75.96257 -26.29154,4.37389 -66.0381703,-20.10583 -41.39993,-48.02256 9.36794,-18.66259 47.29447,-25.80897 36.12227,-50.38469 -15.72669,-18.55252 -62.1596503,-41.88784 -35.77983,-69.48661 18.6015,-19.57559 55.69229,-4.8571 67.77296,-29.19902 -1.54138,-24.98706 -27.86575,-54.83647 -6.90561,-77.65228 26.463142,-16.26302 62.164362,17.7822 83.544032,7.55363 9.44667,-24.52901 3.62581,-59.95359 31.89226,-72.87468 26.81672,-1.0108 40.17847,29.41501 58.39989,44.70587 23.7299,13.49002 27.42915,-29.68714 48.27267,-36.12117 26.3169,-23.60362 51.88773,8.74345 49.24789,35.77264 -2.17051,25.9635 20.68674,39.76067 41.46115,24.50829 22.46183,-14.3681 67.31548,-10.79904 56.32155,25.50646 1.17085,19.60407 -31.57769,55.248 -0.15372,60.88361 23.53297,4.58168 61.24355,4.86486 62.063,36.98922 -4.57932,22.14389 -28.75094,31.83246 -42.06514,48.56557 -22.14792,18.1714 26.64091,32.40067 33.62635,50.65452 28.37225,33.26002 -22.20786,50.95202 -48.85107,51.55518 -32.19377,6.44131 -9.72602,41.39419 -4.18492,60.63199 11.81532,31.786 -29.31166,43.5276 -51.34246,29.031 -18.76777,-11.1653 -45.24507,-12.153 -45.62183,16.16402 1.16226,25.8888 -18.64151,67.809 -48.74301,42.7557 -19.36927,-8.4962 -30.7624,-52.00992 -53.90666,-33.5716 -16.12351,15.4829 -32.6445,49.5561 -59.79654,40.4092 z"
       style="fill:#000000" />
  </g>
</svg>
