<?xml version="1.0" encoding="UTF-8" standalone="no"?>
<!-- Created with Inkscape (http://www.inkscape.org/) -->

<svg
   xmlns:dc="http://purl.org/dc/elements/1.1/"
   xmlns:cc="http://creativecommons.org/ns#"
   xmlns:rdf="http://www.w3.org/1999/02/22-rdf-syntax-ns#"
   xmlns:svg="http://www.w3.org/2000/svg"
   xmlns="http://www.w3.org/2000/svg"
   xmlns:sodipodi="http://sodipodi.sourceforge.net/DTD/sodipodi-0.dtd"
   xmlns:inkscape="http://www.inkscape.org/namespaces/inkscape"
   width="540"
   height="500"
   viewBox="0 0 540.00001 500.00001"
   id="svg2"
   version="1.1"
   inkscape:version="0.91 r13725"
   sodipodi:docname="u0184-misc-flower.svg">
  <defs
     id="defs4" />
  <sodipodi:namedview
     id="base"
     pagecolor="#ffffff"
     bordercolor="#666666"
     borderopacity="1.0"
     inkscape:pageopacity="0.0"
     inkscape:pageshadow="2"
     inkscape:zoom="0.35"
     inkscape:cx="-46.428571"
     inkscape:cy="520"
     inkscape:document-units="px"
     inkscape:current-layer="layer1"
     showgrid="false"
     units="px"
     inkscape:window-width="1920"
     inkscape:window-height="996"
     inkscape:window-x="-8"
     inkscape:window-y="-8"
     inkscape:window-maximized="1" />
  <metadata
     id="metadata7">
    <rdf:RDF>
      <cc:Work
         rdf:about="">
        <dc:format>image/svg+xml</dc:format>
        <dc:type
           rdf:resource="http://purl.org/dc/dcmitype/StillImage" />
        <dc:title></dc:title>
      </cc:Work>
    </rdf:RDF>
  </metadata>
  <g
     inkscape:label="Layer 1"
     inkscape:groupmode="layer"
     id="layer1"
     transform="translate(0,-552.36216)">
    <path
       style="fill:#000000"
       d="m 370.69308,552.37523 c -17.26103,-0.38812 -53.88032,7.74369 -75.34344,18.33976 -30.31208,14.96465 -45.01262,34.75021 -45.04251,60.60421 -0.019,16.78971 9.07203,35.50511 22.68577,46.69811 5.77903,4.75131 5.99367,10.15705 1.29491,32.99551 -3.09057,15.0213 -5.97873,51.73921 -6.41589,81.59988 l -0.79064,54.29106 -24.98869,-27.19638 c -29.38613,-31.98801 -69.04818,-54.68144 -117.06931,-66.987 l -34.572591,-8.86198 21.146861,-3.19138 c 28.74329,-4.34203 67.6223,3.84569 98.58103,20.76543 l 25.71575,14.05601 0,-11.26625 c 0,-15.60498 -20.24809,-38.36588 -44.80368,-50.36071 -35.61374,-17.3964 -88.33554,-11.00116 -144.058791,17.47231 l -23.338657,11.92486 11.966431,12.94762 c 6.582176,7.12205 17.888107,22.75396 25.121545,34.73577 24.267323,40.19757 48.510192,60.72541 74.361792,62.9656 26.62676,2.30738 34.68616,-0.88573 55.70885,-22.09873 21.05748,-21.24814 22.29724,-21.79106 33.23529,-14.55936 18.58257,12.28614 36.24163,48.18257 41.92231,85.21428 4.08527,26.63299 6.86801,33.7636 12.74105,32.63681 5.34812,-1.02618 8.23954,-9.1073 10.01889,-28.02106 4.71044,-50.06851 34.63046,-73.02903 93.76815,-71.96683 l 33.26708,0.59435 -31.18179,4.48722 c -39.17543,5.63494 -55.00379,14.96354 -47.95049,28.26197 7.47525,14.09415 23.24275,20.68104 43.07377,17.99708 19.14037,-2.59053 66.56078,-31.38398 66.98544,-40.67412 0.44613,-9.76246 -24.10946,-35.46857 -43.33378,-45.36479 -22.70234,-11.68681 -60.3473,-12.48809 -75.73605,-1.61175 -8.7631,6.19331 -10.71879,11.31946 -9.22825,24.20311 1.04033,8.991 0.33011,16.34782 -1.57613,16.34782 -1.90651,0 -10.10855,5.64206 -18.228,12.53531 l -14.76302,12.52993 0.0318,-66.99234 c 0.0454,-109.21845 12.3517,-161.84742 46.92103,-200.645 22.87568,-25.67381 32.71037,-28.82783 15.9835,-5.12445 -15.54525,22.02898 -38.93988,74.50985 -38.93988,87.36688 -0.003,10.72991 1.3786,11.34159 19.93699,8.82985 29.56219,-4.00103 46.26461,-23.10091 52.08439,-59.56539 2.55751,-16.01911 3.77118,-37.71599 2.6958,-48.2135 -1.07538,-10.49751 -2.1361,-21.40642 -2.35617,-24.24594 -0.17389,-2.24665 -3.77689,-3.3244 -9.53065,-3.45378 z m 13.92972,403.21226 c -6.59684,0.003 -18.47334,3.98874 -26.38956,8.85672 -13.90908,8.55322 -15.035,8.55541 -33.58034,0.0795 -32.59707,-14.89644 -70.89655,-8.53266 -96.88291,16.10166 -10.18952,9.6589 -11.38092,9.75513 -27.18048,2.18998 -26.50829,-12.69303 -44.7219,-9.42203 -68.37056,12.26754 -8.58215,7.87111 -12.01697,8.40931 -22.57437,3.55557 -9.695572,-4.45783 -15.682728,-4.37476 -27.058485,0.37998 -8.035221,3.35846 -14.608974,8.02186 -14.608974,10.36126 0,2.3397 -3.138937,4.2517 -6.972879,4.2517 -17.872348,0 -41.004242,20.616 -41.004242,36.5402 0,1.2061 112.50016,2.19 249.99986,2.1903 l 250.00014,0 -3.21039,-13.3118 c -1.76387,-7.3223 -9.59749,-19.8511 -17.40584,-27.839 -11.96426,-12.23926 -17.91881,-14.52192 -37.86803,-14.52192 -19.90085,0 -24.4586,-1.7357 -28.59738,-10.90194 -6.20479,-13.74142 -32.54137,-30.21154 -48.29556,-30.20057 z"
       id="path4325"
       inkscape:connector-curvature="0" />
  </g>
</svg>
