<?xml version="1.0" encoding="UTF-8" standalone="no"?>
<svg
   xmlns:dc="http://purl.org/dc/elements/1.1/"
   xmlns:cc="http://creativecommons.org/ns#"
   xmlns:rdf="http://www.w3.org/1999/02/22-rdf-syntax-ns#"
   xmlns:svg="http://www.w3.org/2000/svg"
   xmlns="http://www.w3.org/2000/svg"
   version="1.1"
   id="svg2"
   viewBox="0 0 539.99998 499.99998"
   height="500"
   width="540">
  <defs
     id="defs4" />
  <metadata
     id="metadata7">
    <rdf:RDF>
      <cc:Work
         rdf:about="">
        <dc:format>image/svg+xml</dc:format>
        <dc:type
           rdf:resource="http://purl.org/dc/dcmitype/StillImage" />
        <dc:title></dc:title>
      </cc:Work>
    </rdf:RDF>
  </metadata>
  <g
     transform="translate(0,-552.36224)"
     id="layer1">
    <path
       id="path3347"
       d="M 255.79704,1052.169 C 143.60388,1047.7152 41.84422,957.72479 24.002764,846.56204 5.9042011,749.92754 50.345405,644.858 133.7347,592.38694 c 86.21426,-56.64351 207.7232,-53.51382 288.64819,11.61348 66.33864,50.98191 104.61819,136.15078 96.55178,219.79347 -8.01614,111.96407 -100.37244,211.45841 -211.80268,225.85491 -16.98741,2.4247 -34.19543,3.0952 -51.33495,2.5202 z M 247.41793,856.5441 141.89348,962.31062 c 30.27487,23.66792 67.24397,37.52212 104.86983,43.93148 1.17781,-49.89078 0.62493,-99.79911 0.65462,-149.698 z M 397.98009,962.31062 C 362.80526,927.05513 327.63047,891.79961 292.45566,856.5441 l 0,149.7819 c 37.72196,-7.67511 80.6082,-22.76663 105.52443,-44.01538 z M 247.41793,793.0697 l 0,-194.89867 c -96.52767,8.94255 -179.089378,95.55236 -181.843728,192.97401 -3.00397,49.72492 12.917946,100.52142 44.493438,139.10315 46.01991,-45.48797 91.63397,-91.38511 137.35029,-137.17849 z m 226.05906,33.0476 c 9.98617,-85.06046 -37.6252,-174.48234 -116.3998,-209.61286 -20.36156,-9.56606 -42.30158,-15.66967 -64.62153,-18.33341 l 0,194.89567 c 48.50268,42.96909 87.75521,95.35821 137.34123,137.18149 23.15798,-30.21205 37.717,-66.61748 43.6801,-104.13089 z"
       style="fill:#000000" />
  </g>
</svg>
