<?xml version="1.0" encoding="UTF-8" standalone="no"?>
<svg
   xmlns:dc="http://purl.org/dc/elements/1.1/"
   xmlns:cc="http://creativecommons.org/ns#"
   xmlns:rdf="http://www.w3.org/1999/02/22-rdf-syntax-ns#"
   xmlns:svg="http://www.w3.org/2000/svg"
   xmlns="http://www.w3.org/2000/svg"
   width="540"
   height="500"
   viewBox="0 0 539.99998 499.99998"
   id="svg2"
   version="1.1">
  <defs
     id="defs4" />
  <metadata
     id="metadata7">
    <rdf:RDF>
      <cc:Work
         rdf:about="">
        <dc:format>image/svg+xml</dc:format>
        <dc:type
           rdf:resource="http://purl.org/dc/dcmitype/StillImage" />
        <dc:title></dc:title>
      </cc:Work>
    </rdf:RDF>
  </metadata>
  <g
     id="layer1"
     transform="matrix(-1,0,0,1,540,-552.36224)">
    <path
       style="fill:#000000"
       d="m 389.87304,577.36222 c -39.72537,0 -39.99982,0.12439 -55.86083,25.40971 -8.76615,13.97472 -27.06969,33.52499 -40.67387,43.44241 -31.52799,22.98381 -115.99681,51.18898 -167.9105,56.06757 -22.64366,2.58824 -43.920867,6.38895 -66.630246,9.30094 -31.748805,7.06482 -44.299344,54.54688 -36.590079,75.65423 21.48379,39.7596 58.146338,34.33688 97.671585,38.587 99.97545,11.10068 174.54666,45.15046 201.94962,92.20698 8.58022,14.73403 20.51022,29.66659 26.5107,33.18515 16.81408,9.85991 66.29405,7.97789 82.03778,-3.11929 7.72533,-5.44557 18.7814,-19.00053 24.56497,-30.12849 9.75831,-18.77664 28.70419,-87.48362 25.11926,-91.0913 -0.87343,-0.87894 -7.21226,-0.11366 -14.08963,1.69626 -8.92803,2.34961 -14.68896,12.54362 -20.1418,35.64417 -8.052,34.1127 -22.91543,62.06139 -32.99838,62.06139 -10.23817,0 -24.13119,-26.84895 -34.46898,-66.60942 -26.14089,-100.54157 5.27444,-282.87096 43.27005,-251.13716 5.63326,4.70473 14.8447,24.59897 20.46985,44.20515 10.02734,34.94981 16.98704,44.87001 31.62391,45.06467 8.53361,0.11337 -2.6266,-55.82752 -16.43696,-82.37664 -17.50593,-33.65386 -25.31782,-38.06333 -67.41645,-38.06333 z m -2.25685,119.52925 c 1.44838,22.73692 -6.09569,136.39772 11.03529,131.75592 31.20274,-12.87968 86.71863,-16.581 112.56442,-36.15075 C 516.04842,788.4607 520,774.03129 520,760.4271 520,740.69355 517.12995,734.53684 505.81419,729.99123 486.24574,722.13047 432.82228,706.3871 408.10303,701.1947 Z M 108.17072,843.9194 c -23.005107,-0.10491 -23.976547,0.71292 -20.616907,17.33826 9.6131,36.58645 14.250717,134.75165 36.533507,155.42384 15.04811,13.0834 30.15274,14.1548 44.64454,3.1706 21.83097,-27.66605 1.15092,-101.39127 30.73024,-105.03711 18.64261,-2.17153 37.38599,-34.9514 26.341,-46.06648 -7.95817,-8.00858 -86.98505,-24.68951 -117.63238,-24.82911 z"
       id="path3825" />
  </g>
</svg>
