<?xml version="1.0" encoding="UTF-8" standalone="no"?>
<svg
   xmlns:dc="http://purl.org/dc/elements/1.1/"
   xmlns:cc="http://creativecommons.org/ns#"
   xmlns:rdf="http://www.w3.org/1999/02/22-rdf-syntax-ns#"
   xmlns:svg="http://www.w3.org/2000/svg"
   xmlns="http://www.w3.org/2000/svg"
   version="1.1"
   id="svg2"
   viewBox="0 0 369.99998 499.99998"
   height="500"
   width="370">
  <defs
     id="defs4" />
  <metadata
     id="metadata7">
    <rdf:RDF>
      <cc:Work
         rdf:about="">
        <dc:format>image/svg+xml</dc:format>
        <dc:type
           rdf:resource="http://purl.org/dc/dcmitype/StillImage" />
        <dc:title></dc:title>
      </cc:Work>
    </rdf:RDF>
  </metadata>
  <g
     transform="translate(0,-552.36209)"
     id="layer1">
    <path
       id="path3429"
       d="m 185.46678,552.39083 c -71.18951,-1.40522 -138.953894,48.94271 -158.677715,117.21629 -11.163809,33.91091 -7.897858,70.75155 4.962519,103.69576 31.669719,85.41508 78.797296,164.01784 126.468286,241.28632 9.61841,10.368 18.74072,39.5513 29.23532,37.6876 C 240.45325,969.71771 292.04538,885.46045 330.17903,794.83342 344.96005,758.35283 356.7835,717.88731 345.53713,678.6856 328.76297,606.03454 259.98351,551.67087 185.46678,552.39083 Z m -0.93159,31.58396 c 67.67346,-2.89524 129.51947,55.73656 132.75307,122.92981 5.51012,63.14512 -41.10684,125.09968 -103.08227,137.93793 C 153.33498,859.71134 85.558048,824.65906 62.782764,766.23996 38.30208,709.50698 60.381834,637.61231 113.03087,604.96214 c 21.13795,-13.76883 46.18037,-21.6552 71.50432,-20.98735 z"
       style="fill:#000000" />
  </g>
</svg>
