<?xml version="1.0" encoding="UTF-8" standalone="no"?>
<svg
   xmlns:dc="http://purl.org/dc/elements/1.1/"
   xmlns:cc="http://creativecommons.org/ns#"
   xmlns:rdf="http://www.w3.org/1999/02/22-rdf-syntax-ns#"
   xmlns:svg="http://www.w3.org/2000/svg"
   xmlns="http://www.w3.org/2000/svg"
   version="1.1"
   id="svg2"
   viewBox="0 0 539.99998 499.99998"
   height="500"
   width="540">
  <defs
     id="defs4" />
  <metadata
     id="metadata7">
    <rdf:RDF>
      <cc:Work
         rdf:about="">
        <dc:format>image/svg+xml</dc:format>
        <dc:type
           rdf:resource="http://purl.org/dc/dcmitype/StillImage" />
        <dc:title></dc:title>
      </cc:Work>
    </rdf:RDF>
  </metadata>
  <g
     transform="translate(0,-552.36224)"
     id="layer1">
    <path
       id="path3347"
       d="M 237.44735,1051.1971 C 127.34578,1030.8855 46.432217,951.22004 23.745963,852.33199 8.5553458,768.35684 41.141464,677.7051 92.993973,625.09382 c 35.912667,-35.6777 76.851607,-58.02395 125.515407,-68.51178 25.92485,-5.58721 75.69962,-5.63362 101.36462,-0.0946 127.45565,37.69111 209.02012,143.31675 199.35047,267.70114 -17.53202,114.70835 -94.39249,200.51032 -198.46795,223.63782 -19.1974,4.0637 -65.01048,5.9172 -83.30917,3.3706 z m 127.65387,-277.4318 -73.83491,-0.93113 c 24.65583,-35.4169 49.31171,-74.83376 73.96758,-110.25063 -37.11208,6.52542 -80.43825,-5.98841 -116.88626,3.75841 -0.70589,0.70601 -67.93885,167.1465 -67.93885,168.188 21.21427,3.21142 46.62477,-3.41857 67.40923,1.70979 -19.14799,45.6213 -40.1316,80.13694 -60.0166,128.55113 65.31332,-65.62865 94.44524,-100.35282 177.29981,-191.02557 z"
       style="fill:#000000" />
  </g>
</svg>
